<?xml version="1.0" encoding="utf-8" standalone="no"?>
<!DOCTYPE svg PUBLIC "-//W3C//DTD SVG 1.1//EN"
  "http://www.w3.org/Graphics/SVG/1.1/DTD/svg11.dtd">
<!-- Created with matplotlib (https://matplotlib.org/) -->
<svg height="288pt" version="1.1" viewBox="0 0 432 288" width="432pt" xmlns="http://www.w3.org/2000/svg" xmlns:xlink="http://www.w3.org/1999/xlink">
 <metadata>
  <rdf:RDF xmlns:cc="http://creativecommons.org/ns#" xmlns:dc="http://purl.org/dc/elements/1.1/" xmlns:rdf="http://www.w3.org/1999/02/22-rdf-syntax-ns#">
   <cc:Work>
    <dc:type rdf:resource="http://purl.org/dc/dcmitype/StillImage"/>
    <dc:date>2021-06-09T17:54:00.682145</dc:date>
    <dc:format>image/svg+xml</dc:format>
    <dc:creator>
     <cc:Agent>
      <dc:title>Matplotlib v3.3.4, https://matplotlib.org/</dc:title>
     </cc:Agent>
    </dc:creator>
   </cc:Work>
  </rdf:RDF>
 </metadata>
 <defs>
  <style type="text/css">*{stroke-linecap:butt;stroke-linejoin:round;}</style>
 </defs>
 <g id="figure_1">
  <g id="patch_1">
   <path d="M 0 288 
L 432 288 
L 432 0 
L 0 0 
z
" style="fill:#ffffff;"/>
  </g>
  <g id="axes_1">
   <g id="patch_2">
    <path d="M 59.377207 247.2 
L 421.2 247.2 
L 421.2 54.1 
L 59.377207 54.1 
z
" style="fill:#ffffff;"/>
   </g>
   <g id="matplotlib.axis_1">
    <g id="xtick_1">
     <g id="line2d_1">
      <defs>
       <path d="M 0 0 
L 0 3.5 
" id="md08254cf48" style="stroke:#000000;stroke-width:0.8;"/>
      </defs>
      <g>
       <use style="stroke:#000000;stroke-width:0.8;" x="75.823698" xlink:href="#md08254cf48" y="247.2"/>
      </g>
     </g>
     <g id="text_1">
      <!-- 0 -->
      <g transform="translate(72.642448 261.798438)scale(0.1 -0.1)">
       <defs>
        <path d="M 31.78125 66.40625 
Q 24.171875 66.40625 20.328125 58.90625 
Q 16.5 51.421875 16.5 36.375 
Q 16.5 21.390625 20.328125 13.890625 
Q 24.171875 6.390625 31.78125 6.390625 
Q 39.453125 6.390625 43.28125 13.890625 
Q 47.125 21.390625 47.125 36.375 
Q 47.125 51.421875 43.28125 58.90625 
Q 39.453125 66.40625 31.78125 66.40625 
z
M 31.78125 74.21875 
Q 44.046875 74.21875 50.515625 64.515625 
Q 56.984375 54.828125 56.984375 36.375 
Q 56.984375 17.96875 50.515625 8.265625 
Q 44.046875 -1.421875 31.78125 -1.421875 
Q 19.53125 -1.421875 13.0625 8.265625 
Q 6.59375 17.96875 6.59375 36.375 
Q 6.59375 54.828125 13.0625 64.515625 
Q 19.53125 74.21875 31.78125 74.21875 
z
" id="DejaVuSans-48"/>
       </defs>
       <use xlink:href="#DejaVuSans-48"/>
      </g>
     </g>
    </g>
    <g id="xtick_2">
     <g id="line2d_2">
      <g>
       <use style="stroke:#000000;stroke-width:0.8;" x="141.60966" xlink:href="#md08254cf48" y="247.2"/>
      </g>
     </g>
     <g id="text_2">
      <!-- 50 -->
      <g transform="translate(135.24716 261.798438)scale(0.1 -0.1)">
       <defs>
        <path d="M 10.796875 72.90625 
L 49.515625 72.90625 
L 49.515625 64.59375 
L 19.828125 64.59375 
L 19.828125 46.734375 
Q 21.96875 47.46875 24.109375 47.828125 
Q 26.265625 48.1875 28.421875 48.1875 
Q 40.625 48.1875 47.75 41.5 
Q 54.890625 34.8125 54.890625 23.390625 
Q 54.890625 11.625 47.5625 5.09375 
Q 40.234375 -1.421875 26.90625 -1.421875 
Q 22.3125 -1.421875 17.546875 -0.640625 
Q 12.796875 0.140625 7.71875 1.703125 
L 7.71875 11.625 
Q 12.109375 9.234375 16.796875 8.0625 
Q 21.484375 6.890625 26.703125 6.890625 
Q 35.15625 6.890625 40.078125 11.328125 
Q 45.015625 15.765625 45.015625 23.390625 
Q 45.015625 31 40.078125 35.4375 
Q 35.15625 39.890625 26.703125 39.890625 
Q 22.75 39.890625 18.8125 39.015625 
Q 14.890625 38.140625 10.796875 36.28125 
z
" id="DejaVuSans-53"/>
       </defs>
       <use xlink:href="#DejaVuSans-53"/>
       <use x="63.623047" xlink:href="#DejaVuSans-48"/>
      </g>
     </g>
    </g>
    <g id="xtick_3">
     <g id="line2d_3">
      <g>
       <use style="stroke:#000000;stroke-width:0.8;" x="207.395622" xlink:href="#md08254cf48" y="247.2"/>
      </g>
     </g>
     <g id="text_3">
      <!-- 100 -->
      <g transform="translate(197.851872 261.798438)scale(0.1 -0.1)">
       <defs>
        <path d="M 12.40625 8.296875 
L 28.515625 8.296875 
L 28.515625 63.921875 
L 10.984375 60.40625 
L 10.984375 69.390625 
L 28.421875 72.90625 
L 38.28125 72.90625 
L 38.28125 8.296875 
L 54.390625 8.296875 
L 54.390625 0 
L 12.40625 0 
z
" id="DejaVuSans-49"/>
       </defs>
       <use xlink:href="#DejaVuSans-49"/>
       <use x="63.623047" xlink:href="#DejaVuSans-48"/>
       <use x="127.246094" xlink:href="#DejaVuSans-48"/>
      </g>
     </g>
    </g>
    <g id="xtick_4">
     <g id="line2d_4">
      <g>
       <use style="stroke:#000000;stroke-width:0.8;" x="273.181585" xlink:href="#md08254cf48" y="247.2"/>
      </g>
     </g>
     <g id="text_4">
      <!-- 150 -->
      <g transform="translate(263.637835 261.798438)scale(0.1 -0.1)">
       <use xlink:href="#DejaVuSans-49"/>
       <use x="63.623047" xlink:href="#DejaVuSans-53"/>
       <use x="127.246094" xlink:href="#DejaVuSans-48"/>
      </g>
     </g>
    </g>
    <g id="xtick_5">
     <g id="line2d_5">
      <g>
       <use style="stroke:#000000;stroke-width:0.8;" x="338.967547" xlink:href="#md08254cf48" y="247.2"/>
      </g>
     </g>
     <g id="text_5">
      <!-- 200 -->
      <g transform="translate(329.423797 261.798438)scale(0.1 -0.1)">
       <defs>
        <path d="M 19.1875 8.296875 
L 53.609375 8.296875 
L 53.609375 0 
L 7.328125 0 
L 7.328125 8.296875 
Q 12.9375 14.109375 22.625 23.890625 
Q 32.328125 33.6875 34.8125 36.53125 
Q 39.546875 41.84375 41.421875 45.53125 
Q 43.3125 49.21875 43.3125 52.78125 
Q 43.3125 58.59375 39.234375 62.25 
Q 35.15625 65.921875 28.609375 65.921875 
Q 23.96875 65.921875 18.8125 64.3125 
Q 13.671875 62.703125 7.8125 59.421875 
L 7.8125 69.390625 
Q 13.765625 71.78125 18.9375 73 
Q 24.125 74.21875 28.421875 74.21875 
Q 39.75 74.21875 46.484375 68.546875 
Q 53.21875 62.890625 53.21875 53.421875 
Q 53.21875 48.921875 51.53125 44.890625 
Q 49.859375 40.875 45.40625 35.40625 
Q 44.1875 33.984375 37.640625 27.21875 
Q 31.109375 20.453125 19.1875 8.296875 
z
" id="DejaVuSans-50"/>
       </defs>
       <use xlink:href="#DejaVuSans-50"/>
       <use x="63.623047" xlink:href="#DejaVuSans-48"/>
       <use x="127.246094" xlink:href="#DejaVuSans-48"/>
      </g>
     </g>
    </g>
    <g id="xtick_6">
     <g id="line2d_6">
      <g>
       <use style="stroke:#000000;stroke-width:0.8;" x="404.753509" xlink:href="#md08254cf48" y="247.2"/>
      </g>
     </g>
     <g id="text_6">
      <!-- 250 -->
      <g transform="translate(395.209759 261.798438)scale(0.1 -0.1)">
       <use xlink:href="#DejaVuSans-50"/>
       <use x="63.623047" xlink:href="#DejaVuSans-53"/>
       <use x="127.246094" xlink:href="#DejaVuSans-48"/>
      </g>
     </g>
    </g>
    <g id="text_7">
     <!-- frequency (Hz) -->
     <g transform="translate(203.337041 275.476562)scale(0.1 -0.1)">
      <defs>
       <path d="M 37.109375 75.984375 
L 37.109375 68.5 
L 28.515625 68.5 
Q 23.6875 68.5 21.796875 66.546875 
Q 19.921875 64.59375 19.921875 59.515625 
L 19.921875 54.6875 
L 34.71875 54.6875 
L 34.71875 47.703125 
L 19.921875 47.703125 
L 19.921875 0 
L 10.890625 0 
L 10.890625 47.703125 
L 2.296875 47.703125 
L 2.296875 54.6875 
L 10.890625 54.6875 
L 10.890625 58.5 
Q 10.890625 67.625 15.140625 71.796875 
Q 19.390625 75.984375 28.609375 75.984375 
z
" id="DejaVuSans-102"/>
       <path d="M 41.109375 46.296875 
Q 39.59375 47.171875 37.8125 47.578125 
Q 36.03125 48 33.890625 48 
Q 26.265625 48 22.1875 43.046875 
Q 18.109375 38.09375 18.109375 28.8125 
L 18.109375 0 
L 9.078125 0 
L 9.078125 54.6875 
L 18.109375 54.6875 
L 18.109375 46.1875 
Q 20.953125 51.171875 25.484375 53.578125 
Q 30.03125 56 36.53125 56 
Q 37.453125 56 38.578125 55.875 
Q 39.703125 55.765625 41.0625 55.515625 
z
" id="DejaVuSans-114"/>
       <path d="M 56.203125 29.59375 
L 56.203125 25.203125 
L 14.890625 25.203125 
Q 15.484375 15.921875 20.484375 11.0625 
Q 25.484375 6.203125 34.421875 6.203125 
Q 39.59375 6.203125 44.453125 7.46875 
Q 49.3125 8.734375 54.109375 11.28125 
L 54.109375 2.78125 
Q 49.265625 0.734375 44.1875 -0.34375 
Q 39.109375 -1.421875 33.890625 -1.421875 
Q 20.796875 -1.421875 13.15625 6.1875 
Q 5.515625 13.8125 5.515625 26.8125 
Q 5.515625 40.234375 12.765625 48.109375 
Q 20.015625 56 32.328125 56 
Q 43.359375 56 49.78125 48.890625 
Q 56.203125 41.796875 56.203125 29.59375 
z
M 47.21875 32.234375 
Q 47.125 39.59375 43.09375 43.984375 
Q 39.0625 48.390625 32.421875 48.390625 
Q 24.90625 48.390625 20.390625 44.140625 
Q 15.875 39.890625 15.1875 32.171875 
z
" id="DejaVuSans-101"/>
       <path d="M 14.796875 27.296875 
Q 14.796875 17.390625 18.875 11.75 
Q 22.953125 6.109375 30.078125 6.109375 
Q 37.203125 6.109375 41.296875 11.75 
Q 45.40625 17.390625 45.40625 27.296875 
Q 45.40625 37.203125 41.296875 42.84375 
Q 37.203125 48.484375 30.078125 48.484375 
Q 22.953125 48.484375 18.875 42.84375 
Q 14.796875 37.203125 14.796875 27.296875 
z
M 45.40625 8.203125 
Q 42.578125 3.328125 38.25 0.953125 
Q 33.9375 -1.421875 27.875 -1.421875 
Q 17.96875 -1.421875 11.734375 6.484375 
Q 5.515625 14.40625 5.515625 27.296875 
Q 5.515625 40.1875 11.734375 48.09375 
Q 17.96875 56 27.875 56 
Q 33.9375 56 38.25 53.625 
Q 42.578125 51.265625 45.40625 46.390625 
L 45.40625 54.6875 
L 54.390625 54.6875 
L 54.390625 -20.796875 
L 45.40625 -20.796875 
z
" id="DejaVuSans-113"/>
       <path d="M 8.5 21.578125 
L 8.5 54.6875 
L 17.484375 54.6875 
L 17.484375 21.921875 
Q 17.484375 14.15625 20.5 10.265625 
Q 23.53125 6.390625 29.59375 6.390625 
Q 36.859375 6.390625 41.078125 11.03125 
Q 45.3125 15.671875 45.3125 23.6875 
L 45.3125 54.6875 
L 54.296875 54.6875 
L 54.296875 0 
L 45.3125 0 
L 45.3125 8.40625 
Q 42.046875 3.421875 37.71875 1 
Q 33.40625 -1.421875 27.6875 -1.421875 
Q 18.265625 -1.421875 13.375 4.4375 
Q 8.5 10.296875 8.5 21.578125 
z
M 31.109375 56 
z
" id="DejaVuSans-117"/>
       <path d="M 54.890625 33.015625 
L 54.890625 0 
L 45.90625 0 
L 45.90625 32.71875 
Q 45.90625 40.484375 42.875 44.328125 
Q 39.84375 48.1875 33.796875 48.1875 
Q 26.515625 48.1875 22.3125 43.546875 
Q 18.109375 38.921875 18.109375 30.90625 
L 18.109375 0 
L 9.078125 0 
L 9.078125 54.6875 
L 18.109375 54.6875 
L 18.109375 46.1875 
Q 21.34375 51.125 25.703125 53.5625 
Q 30.078125 56 35.796875 56 
Q 45.21875 56 50.046875 50.171875 
Q 54.890625 44.34375 54.890625 33.015625 
z
" id="DejaVuSans-110"/>
       <path d="M 48.78125 52.59375 
L 48.78125 44.1875 
Q 44.96875 46.296875 41.140625 47.34375 
Q 37.3125 48.390625 33.40625 48.390625 
Q 24.65625 48.390625 19.8125 42.84375 
Q 14.984375 37.3125 14.984375 27.296875 
Q 14.984375 17.28125 19.8125 11.734375 
Q 24.65625 6.203125 33.40625 6.203125 
Q 37.3125 6.203125 41.140625 7.25 
Q 44.96875 8.296875 48.78125 10.40625 
L 48.78125 2.09375 
Q 45.015625 0.34375 40.984375 -0.53125 
Q 36.96875 -1.421875 32.421875 -1.421875 
Q 20.0625 -1.421875 12.78125 6.34375 
Q 5.515625 14.109375 5.515625 27.296875 
Q 5.515625 40.671875 12.859375 48.328125 
Q 20.21875 56 33.015625 56 
Q 37.15625 56 41.109375 55.140625 
Q 45.0625 54.296875 48.78125 52.59375 
z
" id="DejaVuSans-99"/>
       <path d="M 32.171875 -5.078125 
Q 28.375 -14.84375 24.75 -17.8125 
Q 21.140625 -20.796875 15.09375 -20.796875 
L 7.90625 -20.796875 
L 7.90625 -13.28125 
L 13.1875 -13.28125 
Q 16.890625 -13.28125 18.9375 -11.515625 
Q 21 -9.765625 23.484375 -3.21875 
L 25.09375 0.875 
L 2.984375 54.6875 
L 12.5 54.6875 
L 29.59375 11.921875 
L 46.6875 54.6875 
L 56.203125 54.6875 
z
" id="DejaVuSans-121"/>
       <path id="DejaVuSans-32"/>
       <path d="M 31 75.875 
Q 24.46875 64.65625 21.28125 53.65625 
Q 18.109375 42.671875 18.109375 31.390625 
Q 18.109375 20.125 21.3125 9.0625 
Q 24.515625 -2 31 -13.1875 
L 23.1875 -13.1875 
Q 15.875 -1.703125 12.234375 9.375 
Q 8.59375 20.453125 8.59375 31.390625 
Q 8.59375 42.28125 12.203125 53.3125 
Q 15.828125 64.359375 23.1875 75.875 
z
" id="DejaVuSans-40"/>
       <path d="M 9.8125 72.90625 
L 19.671875 72.90625 
L 19.671875 43.015625 
L 55.515625 43.015625 
L 55.515625 72.90625 
L 65.375 72.90625 
L 65.375 0 
L 55.515625 0 
L 55.515625 34.71875 
L 19.671875 34.71875 
L 19.671875 0 
L 9.8125 0 
z
" id="DejaVuSans-72"/>
       <path d="M 5.515625 54.6875 
L 48.1875 54.6875 
L 48.1875 46.484375 
L 14.40625 7.171875 
L 48.1875 7.171875 
L 48.1875 0 
L 4.296875 0 
L 4.296875 8.203125 
L 38.09375 47.515625 
L 5.515625 47.515625 
z
" id="DejaVuSans-122"/>
       <path d="M 8.015625 75.875 
L 15.828125 75.875 
Q 23.140625 64.359375 26.78125 53.3125 
Q 30.421875 42.28125 30.421875 31.390625 
Q 30.421875 20.453125 26.78125 9.375 
Q 23.140625 -1.703125 15.828125 -13.1875 
L 8.015625 -13.1875 
Q 14.5 -2 17.703125 9.0625 
Q 20.90625 20.125 20.90625 31.390625 
Q 20.90625 42.671875 17.703125 53.65625 
Q 14.5 64.65625 8.015625 75.875 
z
" id="DejaVuSans-41"/>
      </defs>
      <use xlink:href="#DejaVuSans-102"/>
      <use x="35.205078" xlink:href="#DejaVuSans-114"/>
      <use x="74.068359" xlink:href="#DejaVuSans-101"/>
      <use x="135.591797" xlink:href="#DejaVuSans-113"/>
      <use x="199.068359" xlink:href="#DejaVuSans-117"/>
      <use x="262.447266" xlink:href="#DejaVuSans-101"/>
      <use x="323.970703" xlink:href="#DejaVuSans-110"/>
      <use x="387.349609" xlink:href="#DejaVuSans-99"/>
      <use x="442.330078" xlink:href="#DejaVuSans-121"/>
      <use x="501.509766" xlink:href="#DejaVuSans-32"/>
      <use x="533.296875" xlink:href="#DejaVuSans-40"/>
      <use x="572.310547" xlink:href="#DejaVuSans-72"/>
      <use x="647.505859" xlink:href="#DejaVuSans-122"/>
      <use x="699.996094" xlink:href="#DejaVuSans-41"/>
     </g>
    </g>
   </g>
   <g id="matplotlib.axis_2">
    <g id="ytick_1">
     <g id="line2d_7">
      <defs>
       <path d="M 0 0 
L -3.5 0 
" id="m4697fa886f" style="stroke:#000000;stroke-width:0.8;"/>
      </defs>
      <g>
       <use style="stroke:#000000;stroke-width:0.8;" x="59.377207" xlink:href="#m4697fa886f" y="240.595574"/>
      </g>
     </g>
     <g id="text_8">
      <!-- $\mathdefault{10^{-11}}$ -->
      <g transform="translate(24.477207 244.394793)scale(0.1 -0.1)">
       <defs>
        <path d="M 10.59375 35.5 
L 73.1875 35.5 
L 73.1875 27.203125 
L 10.59375 27.203125 
z
" id="DejaVuSans-8722"/>
       </defs>
       <use transform="translate(0 0.684375)" xlink:href="#DejaVuSans-49"/>
       <use transform="translate(63.623047 0.684375)" xlink:href="#DejaVuSans-48"/>
       <use transform="translate(128.203125 38.965625)scale(0.7)" xlink:href="#DejaVuSans-8722"/>
       <use transform="translate(186.855469 38.965625)scale(0.7)" xlink:href="#DejaVuSans-49"/>
       <use transform="translate(231.391602 38.965625)scale(0.7)" xlink:href="#DejaVuSans-49"/>
      </g>
     </g>
    </g>
    <g id="ytick_2">
     <g id="line2d_8">
      <g>
       <use style="stroke:#000000;stroke-width:0.8;" x="59.377207" xlink:href="#m4697fa886f" y="212.327025"/>
      </g>
     </g>
     <g id="text_9">
      <!-- $\mathdefault{10^{-10}}$ -->
      <g transform="translate(24.477207 216.126244)scale(0.1 -0.1)">
       <use transform="translate(0 0.765625)" xlink:href="#DejaVuSans-49"/>
       <use transform="translate(63.623047 0.765625)" xlink:href="#DejaVuSans-48"/>
       <use transform="translate(128.203125 39.046875)scale(0.7)" xlink:href="#DejaVuSans-8722"/>
       <use transform="translate(186.855469 39.046875)scale(0.7)" xlink:href="#DejaVuSans-49"/>
       <use transform="translate(231.391602 39.046875)scale(0.7)" xlink:href="#DejaVuSans-48"/>
      </g>
     </g>
    </g>
    <g id="ytick_3">
     <g id="line2d_9">
      <g>
       <use style="stroke:#000000;stroke-width:0.8;" x="59.377207" xlink:href="#m4697fa886f" y="184.058476"/>
      </g>
     </g>
     <g id="text_10">
      <!-- $\mathdefault{10^{-9}}$ -->
      <g transform="translate(28.877207 187.857695)scale(0.1 -0.1)">
       <defs>
        <path d="M 10.984375 1.515625 
L 10.984375 10.5 
Q 14.703125 8.734375 18.5 7.8125 
Q 22.3125 6.890625 25.984375 6.890625 
Q 35.75 6.890625 40.890625 13.453125 
Q 46.046875 20.015625 46.78125 33.40625 
Q 43.953125 29.203125 39.59375 26.953125 
Q 35.25 24.703125 29.984375 24.703125 
Q 19.046875 24.703125 12.671875 31.3125 
Q 6.296875 37.9375 6.296875 49.421875 
Q 6.296875 60.640625 12.9375 67.421875 
Q 19.578125 74.21875 30.609375 74.21875 
Q 43.265625 74.21875 49.921875 64.515625 
Q 56.59375 54.828125 56.59375 36.375 
Q 56.59375 19.140625 48.40625 8.859375 
Q 40.234375 -1.421875 26.421875 -1.421875 
Q 22.703125 -1.421875 18.890625 -0.6875 
Q 15.09375 0.046875 10.984375 1.515625 
z
M 30.609375 32.421875 
Q 37.25 32.421875 41.125 36.953125 
Q 45.015625 41.5 45.015625 49.421875 
Q 45.015625 57.28125 41.125 61.84375 
Q 37.25 66.40625 30.609375 66.40625 
Q 23.96875 66.40625 20.09375 61.84375 
Q 16.21875 57.28125 16.21875 49.421875 
Q 16.21875 41.5 20.09375 36.953125 
Q 23.96875 32.421875 30.609375 32.421875 
z
" id="DejaVuSans-57"/>
       </defs>
       <use transform="translate(0 0.765625)" xlink:href="#DejaVuSans-49"/>
       <use transform="translate(63.623047 0.765625)" xlink:href="#DejaVuSans-48"/>
       <use transform="translate(128.203125 39.046875)scale(0.7)" xlink:href="#DejaVuSans-8722"/>
       <use transform="translate(186.855469 39.046875)scale(0.7)" xlink:href="#DejaVuSans-57"/>
      </g>
     </g>
    </g>
    <g id="ytick_4">
     <g id="line2d_10">
      <g>
       <use style="stroke:#000000;stroke-width:0.8;" x="59.377207" xlink:href="#m4697fa886f" y="155.789927"/>
      </g>
     </g>
     <g id="text_11">
      <!-- $\mathdefault{10^{-8}}$ -->
      <g transform="translate(28.877207 159.589146)scale(0.1 -0.1)">
       <defs>
        <path d="M 31.78125 34.625 
Q 24.75 34.625 20.71875 30.859375 
Q 16.703125 27.09375 16.703125 20.515625 
Q 16.703125 13.921875 20.71875 10.15625 
Q 24.75 6.390625 31.78125 6.390625 
Q 38.8125 6.390625 42.859375 10.171875 
Q 46.921875 13.96875 46.921875 20.515625 
Q 46.921875 27.09375 42.890625 30.859375 
Q 38.875 34.625 31.78125 34.625 
z
M 21.921875 38.8125 
Q 15.578125 40.375 12.03125 44.71875 
Q 8.5 49.078125 8.5 55.328125 
Q 8.5 64.0625 14.71875 69.140625 
Q 20.953125 74.21875 31.78125 74.21875 
Q 42.671875 74.21875 48.875 69.140625 
Q 55.078125 64.0625 55.078125 55.328125 
Q 55.078125 49.078125 51.53125 44.71875 
Q 48 40.375 41.703125 38.8125 
Q 48.828125 37.15625 52.796875 32.3125 
Q 56.78125 27.484375 56.78125 20.515625 
Q 56.78125 9.90625 50.3125 4.234375 
Q 43.84375 -1.421875 31.78125 -1.421875 
Q 19.734375 -1.421875 13.25 4.234375 
Q 6.78125 9.90625 6.78125 20.515625 
Q 6.78125 27.484375 10.78125 32.3125 
Q 14.796875 37.15625 21.921875 38.8125 
z
M 18.3125 54.390625 
Q 18.3125 48.734375 21.84375 45.5625 
Q 25.390625 42.390625 31.78125 42.390625 
Q 38.140625 42.390625 41.71875 45.5625 
Q 45.3125 48.734375 45.3125 54.390625 
Q 45.3125 60.0625 41.71875 63.234375 
Q 38.140625 66.40625 31.78125 66.40625 
Q 25.390625 66.40625 21.84375 63.234375 
Q 18.3125 60.0625 18.3125 54.390625 
z
" id="DejaVuSans-56"/>
       </defs>
       <use transform="translate(0 0.765625)" xlink:href="#DejaVuSans-49"/>
       <use transform="translate(63.623047 0.765625)" xlink:href="#DejaVuSans-48"/>
       <use transform="translate(128.203125 39.046875)scale(0.7)" xlink:href="#DejaVuSans-8722"/>
       <use transform="translate(186.855469 39.046875)scale(0.7)" xlink:href="#DejaVuSans-56"/>
      </g>
     </g>
    </g>
    <g id="ytick_5">
     <g id="line2d_11">
      <g>
       <use style="stroke:#000000;stroke-width:0.8;" x="59.377207" xlink:href="#m4697fa886f" y="127.521379"/>
      </g>
     </g>
     <g id="text_12">
      <!-- $\mathdefault{10^{-7}}$ -->
      <g transform="translate(28.877207 131.320597)scale(0.1 -0.1)">
       <defs>
        <path d="M 8.203125 72.90625 
L 55.078125 72.90625 
L 55.078125 68.703125 
L 28.609375 0 
L 18.3125 0 
L 43.21875 64.59375 
L 8.203125 64.59375 
z
" id="DejaVuSans-55"/>
       </defs>
       <use transform="translate(0 0.684375)" xlink:href="#DejaVuSans-49"/>
       <use transform="translate(63.623047 0.684375)" xlink:href="#DejaVuSans-48"/>
       <use transform="translate(128.203125 38.965625)scale(0.7)" xlink:href="#DejaVuSans-8722"/>
       <use transform="translate(186.855469 38.965625)scale(0.7)" xlink:href="#DejaVuSans-55"/>
      </g>
     </g>
    </g>
    <g id="ytick_6">
     <g id="line2d_12">
      <g>
       <use style="stroke:#000000;stroke-width:0.8;" x="59.377207" xlink:href="#m4697fa886f" y="99.25283"/>
      </g>
     </g>
     <g id="text_13">
      <!-- $\mathdefault{10^{-6}}$ -->
      <g transform="translate(28.877207 103.052048)scale(0.1 -0.1)">
       <defs>
        <path d="M 33.015625 40.375 
Q 26.375 40.375 22.484375 35.828125 
Q 18.609375 31.296875 18.609375 23.390625 
Q 18.609375 15.53125 22.484375 10.953125 
Q 26.375 6.390625 33.015625 6.390625 
Q 39.65625 6.390625 43.53125 10.953125 
Q 47.40625 15.53125 47.40625 23.390625 
Q 47.40625 31.296875 43.53125 35.828125 
Q 39.65625 40.375 33.015625 40.375 
z
M 52.59375 71.296875 
L 52.59375 62.3125 
Q 48.875 64.0625 45.09375 64.984375 
Q 41.3125 65.921875 37.59375 65.921875 
Q 27.828125 65.921875 22.671875 59.328125 
Q 17.53125 52.734375 16.796875 39.40625 
Q 19.671875 43.65625 24.015625 45.921875 
Q 28.375 48.1875 33.59375 48.1875 
Q 44.578125 48.1875 50.953125 41.515625 
Q 57.328125 34.859375 57.328125 23.390625 
Q 57.328125 12.15625 50.6875 5.359375 
Q 44.046875 -1.421875 33.015625 -1.421875 
Q 20.359375 -1.421875 13.671875 8.265625 
Q 6.984375 17.96875 6.984375 36.375 
Q 6.984375 53.65625 15.1875 63.9375 
Q 23.390625 74.21875 37.203125 74.21875 
Q 40.921875 74.21875 44.703125 73.484375 
Q 48.484375 72.75 52.59375 71.296875 
z
" id="DejaVuSans-54"/>
       </defs>
       <use transform="translate(0 0.765625)" xlink:href="#DejaVuSans-49"/>
       <use transform="translate(63.623047 0.765625)" xlink:href="#DejaVuSans-48"/>
       <use transform="translate(128.203125 39.046875)scale(0.7)" xlink:href="#DejaVuSans-8722"/>
       <use transform="translate(186.855469 39.046875)scale(0.7)" xlink:href="#DejaVuSans-54"/>
      </g>
     </g>
    </g>
    <g id="ytick_7">
     <g id="line2d_13">
      <g>
       <use style="stroke:#000000;stroke-width:0.8;" x="59.377207" xlink:href="#m4697fa886f" y="70.984281"/>
      </g>
     </g>
     <g id="text_14">
      <!-- $\mathdefault{10^{-5}}$ -->
      <g transform="translate(28.877207 74.7835)scale(0.1 -0.1)">
       <use transform="translate(0 0.684375)" xlink:href="#DejaVuSans-49"/>
       <use transform="translate(63.623047 0.684375)" xlink:href="#DejaVuSans-48"/>
       <use transform="translate(128.203125 38.965625)scale(0.7)" xlink:href="#DejaVuSans-8722"/>
       <use transform="translate(186.855469 38.965625)scale(0.7)" xlink:href="#DejaVuSans-53"/>
      </g>
     </g>
    </g>
    <g id="ytick_8">
     <g id="line2d_14">
      <defs>
       <path d="M 0 0 
L -2 0 
" id="m4ca035d07f" style="stroke:#000000;stroke-width:0.6;"/>
      </defs>
      <g>
       <use style="stroke:#000000;stroke-width:0.6;" x="59.377207" xlink:href="#m4ca035d07f" y="246.866916"/>
      </g>
     </g>
    </g>
    <g id="ytick_9">
     <g id="line2d_15">
      <g>
       <use style="stroke:#000000;stroke-width:0.6;" x="59.377207" xlink:href="#m4ca035d07f" y="244.974428"/>
      </g>
     </g>
    </g>
    <g id="ytick_10">
     <g id="line2d_16">
      <g>
       <use style="stroke:#000000;stroke-width:0.6;" x="59.377207" xlink:href="#m4ca035d07f" y="243.33508"/>
      </g>
     </g>
    </g>
    <g id="ytick_11">
     <g id="line2d_17">
      <g>
       <use style="stroke:#000000;stroke-width:0.6;" x="59.377207" xlink:href="#m4ca035d07f" y="241.889072"/>
      </g>
     </g>
    </g>
    <g id="ytick_12">
     <g id="line2d_18">
      <g>
       <use style="stroke:#000000;stroke-width:0.6;" x="59.377207" xlink:href="#m4ca035d07f" y="232.085893"/>
      </g>
     </g>
    </g>
    <g id="ytick_13">
     <g id="line2d_19">
      <g>
       <use style="stroke:#000000;stroke-width:0.6;" x="59.377207" xlink:href="#m4ca035d07f" y="227.108049"/>
      </g>
     </g>
    </g>
    <g id="ytick_14">
     <g id="line2d_20">
      <g>
       <use style="stroke:#000000;stroke-width:0.6;" x="59.377207" xlink:href="#m4ca035d07f" y="223.576212"/>
      </g>
     </g>
    </g>
    <g id="ytick_15">
     <g id="line2d_21">
      <g>
       <use style="stroke:#000000;stroke-width:0.6;" x="59.377207" xlink:href="#m4ca035d07f" y="220.836706"/>
      </g>
     </g>
    </g>
    <g id="ytick_16">
     <g id="line2d_22">
      <g>
       <use style="stroke:#000000;stroke-width:0.6;" x="59.377207" xlink:href="#m4ca035d07f" y="218.598367"/>
      </g>
     </g>
    </g>
    <g id="ytick_17">
     <g id="line2d_23">
      <g>
       <use style="stroke:#000000;stroke-width:0.6;" x="59.377207" xlink:href="#m4ca035d07f" y="216.705879"/>
      </g>
     </g>
    </g>
    <g id="ytick_18">
     <g id="line2d_24">
      <g>
       <use style="stroke:#000000;stroke-width:0.6;" x="59.377207" xlink:href="#m4ca035d07f" y="215.066531"/>
      </g>
     </g>
    </g>
    <g id="ytick_19">
     <g id="line2d_25">
      <g>
       <use style="stroke:#000000;stroke-width:0.6;" x="59.377207" xlink:href="#m4ca035d07f" y="213.620523"/>
      </g>
     </g>
    </g>
    <g id="ytick_20">
     <g id="line2d_26">
      <g>
       <use style="stroke:#000000;stroke-width:0.6;" x="59.377207" xlink:href="#m4ca035d07f" y="203.817344"/>
      </g>
     </g>
    </g>
    <g id="ytick_21">
     <g id="line2d_27">
      <g>
       <use style="stroke:#000000;stroke-width:0.6;" x="59.377207" xlink:href="#m4ca035d07f" y="198.8395"/>
      </g>
     </g>
    </g>
    <g id="ytick_22">
     <g id="line2d_28">
      <g>
       <use style="stroke:#000000;stroke-width:0.6;" x="59.377207" xlink:href="#m4ca035d07f" y="195.307663"/>
      </g>
     </g>
    </g>
    <g id="ytick_23">
     <g id="line2d_29">
      <g>
       <use style="stroke:#000000;stroke-width:0.6;" x="59.377207" xlink:href="#m4ca035d07f" y="192.568157"/>
      </g>
     </g>
    </g>
    <g id="ytick_24">
     <g id="line2d_30">
      <g>
       <use style="stroke:#000000;stroke-width:0.6;" x="59.377207" xlink:href="#m4ca035d07f" y="190.329819"/>
      </g>
     </g>
    </g>
    <g id="ytick_25">
     <g id="line2d_31">
      <g>
       <use style="stroke:#000000;stroke-width:0.6;" x="59.377207" xlink:href="#m4ca035d07f" y="188.43733"/>
      </g>
     </g>
    </g>
    <g id="ytick_26">
     <g id="line2d_32">
      <g>
       <use style="stroke:#000000;stroke-width:0.6;" x="59.377207" xlink:href="#m4ca035d07f" y="186.797982"/>
      </g>
     </g>
    </g>
    <g id="ytick_27">
     <g id="line2d_33">
      <g>
       <use style="stroke:#000000;stroke-width:0.6;" x="59.377207" xlink:href="#m4ca035d07f" y="185.351974"/>
      </g>
     </g>
    </g>
    <g id="ytick_28">
     <g id="line2d_34">
      <g>
       <use style="stroke:#000000;stroke-width:0.6;" x="59.377207" xlink:href="#m4ca035d07f" y="175.548795"/>
      </g>
     </g>
    </g>
    <g id="ytick_29">
     <g id="line2d_35">
      <g>
       <use style="stroke:#000000;stroke-width:0.6;" x="59.377207" xlink:href="#m4ca035d07f" y="170.570951"/>
      </g>
     </g>
    </g>
    <g id="ytick_30">
     <g id="line2d_36">
      <g>
       <use style="stroke:#000000;stroke-width:0.6;" x="59.377207" xlink:href="#m4ca035d07f" y="167.039114"/>
      </g>
     </g>
    </g>
    <g id="ytick_31">
     <g id="line2d_37">
      <g>
       <use style="stroke:#000000;stroke-width:0.6;" x="59.377207" xlink:href="#m4ca035d07f" y="164.299609"/>
      </g>
     </g>
    </g>
    <g id="ytick_32">
     <g id="line2d_38">
      <g>
       <use style="stroke:#000000;stroke-width:0.6;" x="59.377207" xlink:href="#m4ca035d07f" y="162.06127"/>
      </g>
     </g>
    </g>
    <g id="ytick_33">
     <g id="line2d_39">
      <g>
       <use style="stroke:#000000;stroke-width:0.6;" x="59.377207" xlink:href="#m4ca035d07f" y="160.168781"/>
      </g>
     </g>
    </g>
    <g id="ytick_34">
     <g id="line2d_40">
      <g>
       <use style="stroke:#000000;stroke-width:0.6;" x="59.377207" xlink:href="#m4ca035d07f" y="158.529433"/>
      </g>
     </g>
    </g>
    <g id="ytick_35">
     <g id="line2d_41">
      <g>
       <use style="stroke:#000000;stroke-width:0.6;" x="59.377207" xlink:href="#m4ca035d07f" y="157.083425"/>
      </g>
     </g>
    </g>
    <g id="ytick_36">
     <g id="line2d_42">
      <g>
       <use style="stroke:#000000;stroke-width:0.6;" x="59.377207" xlink:href="#m4ca035d07f" y="147.280246"/>
      </g>
     </g>
    </g>
    <g id="ytick_37">
     <g id="line2d_43">
      <g>
       <use style="stroke:#000000;stroke-width:0.6;" x="59.377207" xlink:href="#m4ca035d07f" y="142.302402"/>
      </g>
     </g>
    </g>
    <g id="ytick_38">
     <g id="line2d_44">
      <g>
       <use style="stroke:#000000;stroke-width:0.6;" x="59.377207" xlink:href="#m4ca035d07f" y="138.770565"/>
      </g>
     </g>
    </g>
    <g id="ytick_39">
     <g id="line2d_45">
      <g>
       <use style="stroke:#000000;stroke-width:0.6;" x="59.377207" xlink:href="#m4ca035d07f" y="136.03106"/>
      </g>
     </g>
    </g>
    <g id="ytick_40">
     <g id="line2d_46">
      <g>
       <use style="stroke:#000000;stroke-width:0.6;" x="59.377207" xlink:href="#m4ca035d07f" y="133.792721"/>
      </g>
     </g>
    </g>
    <g id="ytick_41">
     <g id="line2d_47">
      <g>
       <use style="stroke:#000000;stroke-width:0.6;" x="59.377207" xlink:href="#m4ca035d07f" y="131.900232"/>
      </g>
     </g>
    </g>
    <g id="ytick_42">
     <g id="line2d_48">
      <g>
       <use style="stroke:#000000;stroke-width:0.6;" x="59.377207" xlink:href="#m4ca035d07f" y="130.260884"/>
      </g>
     </g>
    </g>
    <g id="ytick_43">
     <g id="line2d_49">
      <g>
       <use style="stroke:#000000;stroke-width:0.6;" x="59.377207" xlink:href="#m4ca035d07f" y="128.814876"/>
      </g>
     </g>
    </g>
    <g id="ytick_44">
     <g id="line2d_50">
      <g>
       <use style="stroke:#000000;stroke-width:0.6;" x="59.377207" xlink:href="#m4ca035d07f" y="119.011697"/>
      </g>
     </g>
    </g>
    <g id="ytick_45">
     <g id="line2d_51">
      <g>
       <use style="stroke:#000000;stroke-width:0.6;" x="59.377207" xlink:href="#m4ca035d07f" y="114.033853"/>
      </g>
     </g>
    </g>
    <g id="ytick_46">
     <g id="line2d_52">
      <g>
       <use style="stroke:#000000;stroke-width:0.6;" x="59.377207" xlink:href="#m4ca035d07f" y="110.502016"/>
      </g>
     </g>
    </g>
    <g id="ytick_47">
     <g id="line2d_53">
      <g>
       <use style="stroke:#000000;stroke-width:0.6;" x="59.377207" xlink:href="#m4ca035d07f" y="107.762511"/>
      </g>
     </g>
    </g>
    <g id="ytick_48">
     <g id="line2d_54">
      <g>
       <use style="stroke:#000000;stroke-width:0.6;" x="59.377207" xlink:href="#m4ca035d07f" y="105.524172"/>
      </g>
     </g>
    </g>
    <g id="ytick_49">
     <g id="line2d_55">
      <g>
       <use style="stroke:#000000;stroke-width:0.6;" x="59.377207" xlink:href="#m4ca035d07f" y="103.631683"/>
      </g>
     </g>
    </g>
    <g id="ytick_50">
     <g id="line2d_56">
      <g>
       <use style="stroke:#000000;stroke-width:0.6;" x="59.377207" xlink:href="#m4ca035d07f" y="101.992335"/>
      </g>
     </g>
    </g>
    <g id="ytick_51">
     <g id="line2d_57">
      <g>
       <use style="stroke:#000000;stroke-width:0.6;" x="59.377207" xlink:href="#m4ca035d07f" y="100.546328"/>
      </g>
     </g>
    </g>
    <g id="ytick_52">
     <g id="line2d_58">
      <g>
       <use style="stroke:#000000;stroke-width:0.6;" x="59.377207" xlink:href="#m4ca035d07f" y="90.743149"/>
      </g>
     </g>
    </g>
    <g id="ytick_53">
     <g id="line2d_59">
      <g>
       <use style="stroke:#000000;stroke-width:0.6;" x="59.377207" xlink:href="#m4ca035d07f" y="85.765304"/>
      </g>
     </g>
    </g>
    <g id="ytick_54">
     <g id="line2d_60">
      <g>
       <use style="stroke:#000000;stroke-width:0.6;" x="59.377207" xlink:href="#m4ca035d07f" y="82.233467"/>
      </g>
     </g>
    </g>
    <g id="ytick_55">
     <g id="line2d_61">
      <g>
       <use style="stroke:#000000;stroke-width:0.6;" x="59.377207" xlink:href="#m4ca035d07f" y="79.493962"/>
      </g>
     </g>
    </g>
    <g id="ytick_56">
     <g id="line2d_62">
      <g>
       <use style="stroke:#000000;stroke-width:0.6;" x="59.377207" xlink:href="#m4ca035d07f" y="77.255623"/>
      </g>
     </g>
    </g>
    <g id="ytick_57">
     <g id="line2d_63">
      <g>
       <use style="stroke:#000000;stroke-width:0.6;" x="59.377207" xlink:href="#m4ca035d07f" y="75.363134"/>
      </g>
     </g>
    </g>
    <g id="ytick_58">
     <g id="line2d_64">
      <g>
       <use style="stroke:#000000;stroke-width:0.6;" x="59.377207" xlink:href="#m4ca035d07f" y="73.723786"/>
      </g>
     </g>
    </g>
    <g id="ytick_59">
     <g id="line2d_65">
      <g>
       <use style="stroke:#000000;stroke-width:0.6;" x="59.377207" xlink:href="#m4ca035d07f" y="72.277779"/>
      </g>
     </g>
    </g>
    <g id="ytick_60">
     <g id="line2d_66">
      <g>
       <use style="stroke:#000000;stroke-width:0.6;" x="59.377207" xlink:href="#m4ca035d07f" y="62.4746"/>
      </g>
     </g>
    </g>
    <g id="ytick_61">
     <g id="line2d_67">
      <g>
       <use style="stroke:#000000;stroke-width:0.6;" x="59.377207" xlink:href="#m4ca035d07f" y="57.496755"/>
      </g>
     </g>
    </g>
    <g id="text_15">
     <!-- PSD (mV**2/Hz) -->
     <g transform="translate(18.39752 190.720313)rotate(-90)scale(0.1 -0.1)">
      <defs>
       <path d="M 19.671875 64.796875 
L 19.671875 37.40625 
L 32.078125 37.40625 
Q 38.96875 37.40625 42.71875 40.96875 
Q 46.484375 44.53125 46.484375 51.125 
Q 46.484375 57.671875 42.71875 61.234375 
Q 38.96875 64.796875 32.078125 64.796875 
z
M 9.8125 72.90625 
L 32.078125 72.90625 
Q 44.34375 72.90625 50.609375 67.359375 
Q 56.890625 61.8125 56.890625 51.125 
Q 56.890625 40.328125 50.609375 34.8125 
Q 44.34375 29.296875 32.078125 29.296875 
L 19.671875 29.296875 
L 19.671875 0 
L 9.8125 0 
z
" id="DejaVuSans-80"/>
       <path d="M 53.515625 70.515625 
L 53.515625 60.890625 
Q 47.90625 63.578125 42.921875 64.890625 
Q 37.9375 66.21875 33.296875 66.21875 
Q 25.25 66.21875 20.875 63.09375 
Q 16.5 59.96875 16.5 54.203125 
Q 16.5 49.359375 19.40625 46.890625 
Q 22.3125 44.4375 30.421875 42.921875 
L 36.375 41.703125 
Q 47.40625 39.59375 52.65625 34.296875 
Q 57.90625 29 57.90625 20.125 
Q 57.90625 9.515625 50.796875 4.046875 
Q 43.703125 -1.421875 29.984375 -1.421875 
Q 24.8125 -1.421875 18.96875 -0.25 
Q 13.140625 0.921875 6.890625 3.21875 
L 6.890625 13.375 
Q 12.890625 10.015625 18.65625 8.296875 
Q 24.421875 6.59375 29.984375 6.59375 
Q 38.421875 6.59375 43.015625 9.90625 
Q 47.609375 13.234375 47.609375 19.390625 
Q 47.609375 24.75 44.3125 27.78125 
Q 41.015625 30.8125 33.5 32.328125 
L 27.484375 33.5 
Q 16.453125 35.6875 11.515625 40.375 
Q 6.59375 45.0625 6.59375 53.421875 
Q 6.59375 63.09375 13.40625 68.65625 
Q 20.21875 74.21875 32.171875 74.21875 
Q 37.3125 74.21875 42.625 73.28125 
Q 47.953125 72.359375 53.515625 70.515625 
z
" id="DejaVuSans-83"/>
       <path d="M 19.671875 64.796875 
L 19.671875 8.109375 
L 31.59375 8.109375 
Q 46.6875 8.109375 53.6875 14.9375 
Q 60.6875 21.78125 60.6875 36.53125 
Q 60.6875 51.171875 53.6875 57.984375 
Q 46.6875 64.796875 31.59375 64.796875 
z
M 9.8125 72.90625 
L 30.078125 72.90625 
Q 51.265625 72.90625 61.171875 64.09375 
Q 71.09375 55.28125 71.09375 36.53125 
Q 71.09375 17.671875 61.125 8.828125 
Q 51.171875 0 30.078125 0 
L 9.8125 0 
z
" id="DejaVuSans-68"/>
       <path d="M 52 44.1875 
Q 55.375 50.25 60.0625 53.125 
Q 64.75 56 71.09375 56 
Q 79.640625 56 84.28125 50.015625 
Q 88.921875 44.046875 88.921875 33.015625 
L 88.921875 0 
L 79.890625 0 
L 79.890625 32.71875 
Q 79.890625 40.578125 77.09375 44.375 
Q 74.3125 48.1875 68.609375 48.1875 
Q 61.625 48.1875 57.5625 43.546875 
Q 53.515625 38.921875 53.515625 30.90625 
L 53.515625 0 
L 44.484375 0 
L 44.484375 32.71875 
Q 44.484375 40.625 41.703125 44.40625 
Q 38.921875 48.1875 33.109375 48.1875 
Q 26.21875 48.1875 22.15625 43.53125 
Q 18.109375 38.875 18.109375 30.90625 
L 18.109375 0 
L 9.078125 0 
L 9.078125 54.6875 
L 18.109375 54.6875 
L 18.109375 46.1875 
Q 21.1875 51.21875 25.484375 53.609375 
Q 29.78125 56 35.6875 56 
Q 41.65625 56 45.828125 52.96875 
Q 50 49.953125 52 44.1875 
z
" id="DejaVuSans-109"/>
       <path d="M 28.609375 0 
L 0.78125 72.90625 
L 11.078125 72.90625 
L 34.1875 11.53125 
L 57.328125 72.90625 
L 67.578125 72.90625 
L 39.796875 0 
z
" id="DejaVuSans-86"/>
       <path d="M 47.015625 60.890625 
L 29.5 51.421875 
L 47.015625 41.890625 
L 44.1875 37.109375 
L 27.78125 47.015625 
L 27.78125 28.609375 
L 22.21875 28.609375 
L 22.21875 47.015625 
L 5.8125 37.109375 
L 2.984375 41.890625 
L 20.515625 51.421875 
L 2.984375 60.890625 
L 5.8125 65.71875 
L 22.21875 55.8125 
L 22.21875 74.21875 
L 27.78125 74.21875 
L 27.78125 55.8125 
L 44.1875 65.71875 
z
" id="DejaVuSans-42"/>
       <path d="M 25.390625 72.90625 
L 33.6875 72.90625 
L 8.296875 -9.28125 
L 0 -9.28125 
z
" id="DejaVuSans-47"/>
      </defs>
      <use xlink:href="#DejaVuSans-80"/>
      <use x="60.302734" xlink:href="#DejaVuSans-83"/>
      <use x="123.779297" xlink:href="#DejaVuSans-68"/>
      <use x="200.78125" xlink:href="#DejaVuSans-32"/>
      <use x="232.568359" xlink:href="#DejaVuSans-40"/>
      <use x="271.582031" xlink:href="#DejaVuSans-109"/>
      <use x="368.994141" xlink:href="#DejaVuSans-86"/>
      <use x="437.402344" xlink:href="#DejaVuSans-42"/>
      <use x="487.402344" xlink:href="#DejaVuSans-42"/>
      <use x="537.402344" xlink:href="#DejaVuSans-50"/>
      <use x="601.025391" xlink:href="#DejaVuSans-47"/>
      <use x="634.716797" xlink:href="#DejaVuSans-72"/>
      <use x="709.912109" xlink:href="#DejaVuSans-122"/>
      <use x="762.402344" xlink:href="#DejaVuSans-41"/>
     </g>
    </g>
   </g>
   <g id="line2d_68">
    <path clip-path="url(#p859e4831ed)" d="M 75.823698 117.216752 
L 78.393462 90.903317 
L 80.963226 92.602704 
L 83.53299 100.040008 
L 88.672518 112.845978 
L 91.242283 115.365221 
L 93.812047 119.478504 
L 96.381811 120.182843 
L 98.951575 121.295267 
L 101.521339 120.806721 
L 104.091103 121.147531 
L 106.660867 119.512632 
L 109.230632 120.41573 
L 111.800396 128.526969 
L 114.37016 131.194929 
L 116.939924 133.045206 
L 119.509688 134.210149 
L 122.079452 137.074774 
L 124.649217 138.204215 
L 127.218981 138.587868 
L 129.788745 139.824181 
L 132.358509 140.28421 
L 134.928273 139.897968 
L 137.498037 142.073925 
L 140.067801 143.528813 
L 142.637566 143.80415 
L 145.20733 146.014525 
L 147.777094 147.564193 
L 150.346858 146.995671 
L 152.916622 148.160738 
L 155.486386 148.200237 
L 158.056151 149.579987 
L 160.625915 150.316102 
L 163.195679 151.591989 
L 165.765443 152.519255 
L 168.335207 151.455319 
L 170.904971 152.590135 
L 173.474735 151.543518 
L 176.0445 153.647965 
L 178.614264 154.257064 
L 181.184028 155.789669 
L 183.753792 155.303649 
L 186.323556 155.689687 
L 188.89332 156.544559 
L 191.463085 155.11176 
L 194.032849 158.030773 
L 196.602613 157.613695 
L 199.172377 157.558878 
L 201.742141 158.819172 
L 204.311905 158.83819 
L 206.88167 158.352711 
L 212.021198 160.468943 
L 214.590962 161.184075 
L 217.160726 163.126574 
L 219.73049 161.418525 
L 222.300254 161.267498 
L 224.870019 161.652384 
L 227.439783 160.027013 
L 230.009547 161.064007 
L 232.579311 163.793205 
L 235.149075 163.140241 
L 237.718839 163.35351 
L 240.288604 162.576787 
L 242.858368 162.384839 
L 245.428132 161.612748 
L 247.997896 162.97599 
L 250.56766 163.347012 
L 253.137424 164.234497 
L 255.707188 166.238925 
L 258.276953 164.989051 
L 260.846717 168.117963 
L 263.416481 166.966311 
L 265.986245 164.702237 
L 268.556009 161.133571 
L 271.125773 86.192453 
L 273.695538 64.644663 
L 276.265302 77.859756 
L 278.835066 154.478177 
L 281.40483 165.88511 
L 283.974594 169.615173 
L 286.544358 171.335214 
L 289.114122 170.689317 
L 291.683887 170.492954 
L 296.823415 172.615736 
L 299.393179 170.894311 
L 301.962943 172.309017 
L 304.532707 171.796635 
L 307.102472 174.27427 
L 309.672236 174.278162 
L 312.242 176.050088 
L 314.811764 174.715865 
L 317.381528 175.519182 
L 319.951292 174.693785 
L 322.521056 175.132275 
L 325.090821 172.073381 
L 327.660585 174.307153 
L 330.230349 173.664717 
L 332.800113 174.593299 
L 335.369877 174.764279 
L 337.939641 174.638948 
L 340.509406 177.140865 
L 343.07917 178.961649 
L 345.648934 177.160244 
L 348.218698 178.636011 
L 350.788462 179.880051 
L 353.358226 180.84195 
L 355.92799 183.088131 
L 358.497755 188.878705 
L 361.067519 188.39889 
L 363.637283 189.207289 
L 366.207047 194.294702 
L 368.776811 197.33464 
L 371.346575 199.529807 
L 373.91634 201.167081 
L 376.486104 204.931825 
L 381.625632 208.483355 
L 384.195396 210.890965 
L 386.76516 213.802 
L 389.334924 215.05434 
L 391.904689 215.415645 
L 394.474453 219.862555 
L 397.044217 220.008335 
L 399.613981 221.965944 
L 402.183745 221.892804 
L 404.753509 236.764548 
L 404.753509 236.764548 
" style="fill:none;stroke:#1f77b4;stroke-linecap:square;stroke-opacity:0.6;stroke-width:1.5;"/>
   </g>
   <g id="line2d_69">
    <path clip-path="url(#p859e4831ed)" d="M 75.823698 113.22547 
L 78.393462 89.037919 
L 80.963226 93.206846 
L 83.53299 97.592057 
L 86.102754 105.787276 
L 88.672518 111.450682 
L 91.242283 115.115093 
L 93.812047 116.865436 
L 96.381811 118.477936 
L 98.951575 119.874244 
L 101.521339 121.67622 
L 104.091103 120.474239 
L 106.660867 116.464261 
L 109.230632 121.339219 
L 111.800396 128.5971 
L 114.37016 130.816463 
L 116.939924 133.461068 
L 119.509688 134.25629 
L 122.079452 135.342266 
L 124.649217 134.391538 
L 127.218981 136.383674 
L 129.788745 137.047994 
L 132.358509 138.085888 
L 137.498037 142.412081 
L 140.067801 142.841237 
L 142.637566 143.764472 
L 145.20733 144.101689 
L 147.777094 144.831894 
L 150.346858 146.613602 
L 152.916622 147.349389 
L 158.056151 149.122427 
L 160.625915 150.106038 
L 163.195679 150.474949 
L 168.335207 150.03394 
L 170.904971 151.73024 
L 173.474735 151.782733 
L 176.0445 153.569372 
L 178.614264 154.091136 
L 181.184028 155.389638 
L 183.753792 154.371995 
L 188.89332 156.233537 
L 194.032849 157.210402 
L 196.602613 155.941358 
L 199.172377 157.279142 
L 201.742141 159.482615 
L 204.311905 159.411478 
L 206.88167 159.829315 
L 209.451434 161.003813 
L 212.021198 161.349648 
L 214.590962 160.070324 
L 217.160726 160.130287 
L 219.73049 160.623857 
L 222.300254 162.169314 
L 224.870019 161.632841 
L 227.439783 161.699175 
L 230.009547 162.367253 
L 232.579311 163.576458 
L 235.149075 163.401776 
L 237.718839 163.059985 
L 240.288604 162.849837 
L 242.858368 161.953223 
L 247.997896 163.349152 
L 250.56766 163.542252 
L 253.137424 165.654004 
L 255.707188 165.178038 
L 258.276953 166.405056 
L 260.846717 164.988082 
L 263.416481 164.381799 
L 265.986245 164.464674 
L 268.556009 155.832076 
L 271.125773 83.738309 
L 273.695538 62.877273 
L 276.265302 75.908866 
L 278.835066 150.726137 
L 281.40483 165.531185 
L 283.974594 167.554939 
L 289.114122 171.005163 
L 291.683887 171.505659 
L 294.253651 171.348615 
L 296.823415 170.085493 
L 299.393179 172.723345 
L 301.962943 170.559879 
L 304.532707 172.211299 
L 307.102472 171.781129 
L 309.672236 173.777853 
L 312.242 174.02982 
L 314.811764 175.30587 
L 317.381528 173.772643 
L 319.951292 173.536267 
L 322.521056 173.50242 
L 325.090821 175.151056 
L 327.660585 175.621422 
L 330.230349 175.898315 
L 332.800113 174.196564 
L 335.369877 175.354721 
L 337.939641 175.023587 
L 340.509406 177.122211 
L 343.07917 177.538223 
L 348.218698 178.863709 
L 350.788462 181.223454 
L 353.358226 183.09802 
L 355.92799 185.233307 
L 358.497755 186.204391 
L 361.067519 187.5701 
L 363.637283 189.533244 
L 366.207047 191.805358 
L 368.776811 196.104118 
L 371.346575 199.417953 
L 373.91634 201.542824 
L 376.486104 202.240837 
L 379.055868 206.831147 
L 381.625632 209.0349 
L 384.195396 210.114998 
L 386.76516 213.109993 
L 389.334924 214.796192 
L 391.904689 216.180401 
L 394.474453 218.404369 
L 397.044217 220.471883 
L 399.613981 221.728932 
L 402.183745 221.38785 
L 404.753509 236.479308 
L 404.753509 236.479308 
" style="fill:none;stroke:#ff7f0e;stroke-linecap:square;stroke-opacity:0.6;stroke-width:1.5;"/>
   </g>
   <g id="line2d_70">
    <path clip-path="url(#p859e4831ed)" d="M 75.823698 116.016055 
L 78.393462 91.091936 
L 80.963226 91.373742 
L 83.53299 95.00687 
L 86.102754 102.899774 
L 88.672518 111.418832 
L 91.242283 114.653029 
L 93.812047 117.472095 
L 96.381811 119.101849 
L 98.951575 119.95504 
L 101.521339 120.276766 
L 104.091103 119.23093 
L 106.660867 117.591329 
L 109.230632 120.955478 
L 111.800396 126.153037 
L 114.37016 128.101634 
L 116.939924 129.007286 
L 119.509688 130.868019 
L 122.079452 133.258802 
L 124.649217 133.419897 
L 127.218981 135.017774 
L 129.788745 135.405023 
L 132.358509 137.821743 
L 134.928273 136.686466 
L 137.498037 138.569722 
L 140.067801 139.941675 
L 142.637566 141.880761 
L 145.20733 141.065067 
L 147.777094 141.996382 
L 150.346858 143.628452 
L 152.916622 144.343697 
L 155.486386 144.38688 
L 158.056151 145.572268 
L 160.625915 147.850251 
L 163.195679 148.476864 
L 165.765443 147.79717 
L 168.335207 148.676018 
L 170.904971 150.467361 
L 176.0445 150.196701 
L 181.184028 151.985725 
L 183.753792 153.04914 
L 186.323556 152.496385 
L 188.89332 154.955005 
L 191.463085 155.551439 
L 194.032849 155.942688 
L 196.602613 154.858271 
L 199.172377 157.206593 
L 201.742141 156.680258 
L 204.311905 157.525493 
L 206.88167 157.720406 
L 209.451434 158.897342 
L 214.590962 159.306755 
L 217.160726 160.216215 
L 219.73049 159.223646 
L 222.300254 158.975672 
L 224.870019 159.538065 
L 227.439783 161.653835 
L 230.009547 160.758034 
L 232.579311 161.633918 
L 235.149075 160.819305 
L 237.718839 161.563636 
L 240.288604 161.779771 
L 242.858368 159.268594 
L 245.428132 160.45887 
L 247.997896 162.868811 
L 250.56766 161.908561 
L 253.137424 162.626635 
L 255.707188 163.656563 
L 258.276953 163.804113 
L 260.846717 165.633201 
L 263.416481 163.781653 
L 265.986245 164.144482 
L 268.556009 161.455075 
L 271.125773 94.096171 
L 273.695538 74.606439 
L 276.265302 87.446077 
L 278.835066 159.260219 
L 281.40483 166.495189 
L 283.974594 169.276958 
L 289.114122 169.610635 
L 291.683887 170.674561 
L 294.253651 169.351415 
L 296.823415 170.847564 
L 299.393179 171.012303 
L 301.962943 170.059072 
L 304.532707 169.941938 
L 307.102472 171.508239 
L 309.672236 174.018431 
L 312.242 172.610683 
L 314.811764 170.701589 
L 317.381528 172.741044 
L 319.951292 173.247645 
L 322.521056 171.874181 
L 325.090821 174.030553 
L 327.660585 174.319585 
L 330.230349 175.375565 
L 332.800113 174.579998 
L 335.369877 174.086661 
L 337.939641 175.693565 
L 340.509406 176.559939 
L 343.07917 176.176648 
L 345.648934 174.551123 
L 348.218698 177.709102 
L 350.788462 181.361875 
L 353.358226 182.429711 
L 355.92799 183.029722 
L 358.497755 187.03766 
L 361.067519 189.441848 
L 363.637283 188.764835 
L 366.207047 192.008218 
L 368.776811 194.688891 
L 371.346575 198.112713 
L 373.91634 200.819423 
L 376.486104 203.813738 
L 379.055868 205.081834 
L 381.625632 208.463981 
L 384.195396 211.415598 
L 386.76516 213.624112 
L 391.904689 216.767866 
L 394.474453 220.795359 
L 397.044217 219.28167 
L 399.613981 221.518747 
L 402.183745 221.516172 
L 404.753509 238.422727 
L 404.753509 238.422727 
" style="fill:none;stroke:#2ca02c;stroke-linecap:square;stroke-opacity:0.6;stroke-width:1.5;"/>
   </g>
   <g id="line2d_71">
    <path clip-path="url(#p859e4831ed)" d="M 75.823698 116.403444 
L 78.393462 91.175324 
L 80.963226 92.282258 
L 83.53299 91.880923 
L 86.102754 100.575956 
L 88.672518 110.378479 
L 91.242283 113.493322 
L 93.812047 115.85809 
L 96.381811 117.704576 
L 98.951575 121.569581 
L 101.521339 120.941988 
L 104.091103 119.688738 
L 106.660867 119.459992 
L 109.230632 122.00023 
L 111.800396 123.619719 
L 114.37016 126.454383 
L 116.939924 129.551785 
L 119.509688 129.153407 
L 122.079452 132.222217 
L 124.649217 131.603903 
L 127.218981 132.598833 
L 129.788745 134.463074 
L 132.358509 135.255957 
L 134.928273 135.056857 
L 137.498037 137.903799 
L 140.067801 140.256052 
L 142.637566 140.562719 
L 145.20733 141.391864 
L 147.777094 141.804 
L 150.346858 143.619163 
L 152.916622 144.387088 
L 155.486386 146.442417 
L 158.056151 146.568286 
L 160.625915 147.129071 
L 163.195679 147.553402 
L 168.335207 148.204547 
L 170.904971 149.67606 
L 173.474735 150.998263 
L 176.0445 152.524958 
L 178.614264 151.458318 
L 181.184028 152.332875 
L 183.753792 152.272797 
L 186.323556 153.683801 
L 191.463085 155.789091 
L 194.032849 154.805769 
L 196.602613 155.686617 
L 199.172377 155.618713 
L 201.742141 155.196493 
L 204.311905 158.146413 
L 206.88167 158.758197 
L 209.451434 157.943941 
L 212.021198 158.963584 
L 214.590962 157.627196 
L 217.160726 158.990474 
L 219.73049 160.54268 
L 222.300254 160.942562 
L 224.870019 158.693998 
L 227.439783 160.282633 
L 230.009547 161.301947 
L 232.579311 160.523729 
L 235.149075 160.387856 
L 237.718839 161.169608 
L 240.288604 160.554975 
L 242.858368 161.419563 
L 245.428132 161.705105 
L 247.997896 162.13901 
L 250.56766 162.831461 
L 253.137424 162.319634 
L 255.707188 164.853173 
L 258.276953 165.756142 
L 260.846717 164.0304 
L 263.416481 163.608793 
L 265.986245 163.332668 
L 268.556009 162.182433 
L 271.125773 91.471125 
L 273.695538 70.332916 
L 276.265302 83.395475 
L 278.835066 159.265717 
L 281.40483 166.035939 
L 283.974594 169.47968 
L 286.544358 169.165493 
L 289.114122 170.419637 
L 291.683887 169.691732 
L 294.253651 170.417384 
L 296.823415 171.449526 
L 299.393179 170.718529 
L 301.962943 171.709418 
L 304.532707 169.82268 
L 307.102472 171.190033 
L 309.672236 171.686647 
L 312.242 171.897841 
L 314.811764 174.011435 
L 317.381528 173.935508 
L 319.951292 173.291564 
L 322.521056 173.981619 
L 325.090821 173.514325 
L 327.660585 173.881799 
L 330.230349 171.810432 
L 332.800113 171.732583 
L 335.369877 174.418291 
L 337.939641 173.624553 
L 340.509406 174.378542 
L 343.07917 174.961893 
L 345.648934 174.82861 
L 348.218698 177.240636 
L 350.788462 179.818846 
L 353.358226 181.757125 
L 355.92799 183.135214 
L 358.497755 185.077624 
L 361.067519 186.830129 
L 363.637283 189.523162 
L 366.207047 193.610943 
L 368.776811 194.902155 
L 371.346575 197.898442 
L 373.91634 199.628023 
L 376.486104 202.20903 
L 379.055868 204.220273 
L 381.625632 208.681315 
L 384.195396 210.507794 
L 386.76516 212.046287 
L 389.334924 213.968667 
L 391.904689 215.524278 
L 394.474453 218.77904 
L 397.044217 218.637416 
L 399.613981 220.380383 
L 402.183745 221.391789 
L 404.753509 234.462858 
L 404.753509 234.462858 
" style="fill:none;stroke:#d62728;stroke-linecap:square;stroke-opacity:0.6;stroke-width:1.5;"/>
   </g>
   <g id="line2d_72">
    <path clip-path="url(#p859e4831ed)" d="M 75.823698 118.096783 
L 78.393462 92.015783 
L 80.963226 90.601963 
L 83.53299 93.445423 
L 86.102754 100.474491 
L 88.672518 109.721648 
L 91.242283 114.864211 
L 93.812047 116.225815 
L 96.381811 119.300109 
L 98.951575 119.902853 
L 101.521339 119.881905 
L 104.091103 121.503452 
L 106.660867 121.656312 
L 109.230632 121.998138 
L 111.800396 125.813947 
L 114.37016 126.567419 
L 116.939924 127.068931 
L 119.509688 128.041619 
L 122.079452 126.550928 
L 124.649217 127.086147 
L 127.218981 128.808548 
L 129.788745 132.098293 
L 132.358509 132.926765 
L 134.928273 136.314708 
L 137.498037 136.911456 
L 140.067801 136.505008 
L 142.637566 139.330649 
L 145.20733 139.528021 
L 147.777094 142.214629 
L 150.346858 143.271864 
L 152.916622 143.623388 
L 155.486386 146.02068 
L 158.056151 145.024413 
L 160.625915 146.932346 
L 163.195679 147.401394 
L 165.765443 148.946278 
L 168.335207 148.527655 
L 170.904971 147.700538 
L 173.474735 149.947102 
L 176.0445 151.626341 
L 178.614264 151.697556 
L 181.184028 151.953845 
L 183.753792 153.5837 
L 186.323556 153.266174 
L 188.89332 154.657841 
L 194.032849 155.106033 
L 196.602613 156.184723 
L 201.742141 154.920575 
L 204.311905 156.864442 
L 209.451434 157.426981 
L 212.021198 158.358119 
L 214.590962 156.992854 
L 217.160726 156.974277 
L 219.73049 157.742099 
L 222.300254 160.401389 
L 224.870019 160.717104 
L 227.439783 161.259088 
L 230.009547 158.371636 
L 232.579311 160.813697 
L 235.149075 160.137541 
L 237.718839 159.148916 
L 240.288604 160.058083 
L 242.858368 162.838797 
L 245.428132 161.67208 
L 247.997896 161.13188 
L 250.56766 164.671294 
L 253.137424 162.826315 
L 255.707188 163.56991 
L 258.276953 165.216417 
L 260.846717 164.274991 
L 263.416481 164.432561 
L 265.986245 164.19576 
L 268.556009 161.273423 
L 271.125773 93.163 
L 273.695538 71.347179 
L 276.265302 85.269987 
L 278.835066 162.017861 
L 281.40483 167.546235 
L 283.974594 166.949132 
L 286.544358 168.001386 
L 289.114122 168.549486 
L 291.683887 168.421862 
L 294.253651 169.230599 
L 296.823415 169.372708 
L 299.393179 172.12652 
L 301.962943 171.242046 
L 304.532707 170.966978 
L 307.102472 171.454673 
L 309.672236 171.291325 
L 312.242 170.964337 
L 314.811764 172.747613 
L 317.381528 173.249754 
L 319.951292 173.963682 
L 322.521056 173.433443 
L 325.090821 173.745411 
L 327.660585 173.055746 
L 330.230349 173.353228 
L 332.800113 173.926878 
L 335.369877 173.3183 
L 337.939641 173.074261 
L 340.509406 172.655377 
L 343.07917 174.874855 
L 345.648934 175.239189 
L 348.218698 176.421035 
L 350.788462 178.888442 
L 353.358226 180.91189 
L 355.92799 182.271072 
L 358.497755 185.311881 
L 361.067519 186.672342 
L 363.637283 188.560166 
L 371.346575 196.849637 
L 373.91634 198.420641 
L 376.486104 203.335384 
L 379.055868 204.942205 
L 381.625632 209.337666 
L 384.195396 210.661114 
L 386.76516 212.500131 
L 389.334924 214.681577 
L 394.474453 217.248012 
L 397.044217 219.988165 
L 399.613981 220.435968 
L 402.183745 222.42507 
L 404.753509 233.406458 
L 404.753509 233.406458 
" style="fill:none;stroke:#9467bd;stroke-linecap:square;stroke-opacity:0.6;stroke-width:1.5;"/>
   </g>
   <g id="line2d_73">
    <path clip-path="url(#p859e4831ed)" d="M 75.823698 116.328118 
L 78.393462 90.663782 
L 80.963226 91.54039 
L 83.53299 90.02292 
L 86.102754 96.360331 
L 88.672518 106.71741 
L 91.242283 112.329424 
L 93.812047 115.815844 
L 96.381811 118.172959 
L 98.951575 120.190526 
L 101.521339 121.122997 
L 104.091103 122.478083 
L 106.660867 121.463854 
L 109.230632 122.554451 
L 111.800396 124.781349 
L 114.37016 126.687602 
L 116.939924 127.56305 
L 119.509688 127.746734 
L 122.079452 128.673288 
L 124.649217 129.254083 
L 127.218981 129.445015 
L 129.788745 130.347124 
L 132.358509 134.150315 
L 137.498037 136.393152 
L 140.067801 136.742089 
L 142.637566 138.888833 
L 145.20733 141.316938 
L 147.777094 140.613469 
L 150.346858 142.924423 
L 152.916622 143.444384 
L 155.486386 143.811241 
L 158.056151 144.442324 
L 160.625915 145.29723 
L 163.195679 147.921485 
L 165.765443 147.742273 
L 168.335207 148.557259 
L 170.904971 148.631297 
L 173.474735 149.431065 
L 176.0445 149.290095 
L 178.614264 150.458165 
L 181.184028 152.217291 
L 183.753792 154.516809 
L 186.323556 154.155199 
L 188.89332 152.285745 
L 191.463085 153.335465 
L 194.032849 152.466391 
L 196.602613 155.757703 
L 199.172377 155.173188 
L 201.742141 156.232626 
L 204.311905 157.751037 
L 206.88167 156.928294 
L 209.451434 157.090623 
L 212.021198 157.065173 
L 217.160726 159.108929 
L 219.73049 158.704784 
L 222.300254 159.66111 
L 224.870019 159.699559 
L 227.439783 160.608743 
L 230.009547 160.576335 
L 232.579311 159.884087 
L 235.149075 160.52723 
L 237.718839 159.52197 
L 240.288604 161.640122 
L 242.858368 161.860501 
L 245.428132 162.665946 
L 247.997896 162.473172 
L 250.56766 162.825786 
L 253.137424 163.424192 
L 255.707188 164.603188 
L 258.276953 163.809474 
L 260.846717 166.911608 
L 263.416481 165.342161 
L 265.986245 164.640536 
L 268.556009 162.593881 
L 271.125773 94.608993 
L 273.695538 73.566816 
L 276.265302 86.683897 
L 278.835066 161.458379 
L 281.40483 167.674947 
L 283.974594 166.534647 
L 286.544358 168.276064 
L 289.114122 168.78566 
L 291.683887 169.483802 
L 294.253651 170.305144 
L 296.823415 172.390495 
L 299.393179 172.31472 
L 301.962943 170.998921 
L 304.532707 171.404729 
L 307.102472 172.772006 
L 309.672236 173.372734 
L 312.242 171.403112 
L 314.811764 170.353776 
L 319.951292 170.890361 
L 325.090821 172.22022 
L 327.660585 171.63551 
L 330.230349 172.766914 
L 332.800113 173.745337 
L 335.369877 173.534408 
L 340.509406 174.42923 
L 345.648934 175.756229 
L 348.218698 175.987795 
L 350.788462 177.437417 
L 353.358226 180.367988 
L 355.92799 184.378084 
L 358.497755 184.694725 
L 361.067519 187.121873 
L 363.637283 187.876577 
L 366.207047 193.296013 
L 368.776811 194.130235 
L 371.346575 195.736961 
L 373.91634 198.017161 
L 376.486104 202.55376 
L 379.055868 205.370826 
L 381.625632 208.648301 
L 384.195396 210.997902 
L 386.76516 211.89781 
L 389.334924 214.625477 
L 391.904689 216.696497 
L 394.474453 217.994314 
L 397.044217 219.77048 
L 399.613981 221.2942 
L 402.183745 220.966595 
L 404.753509 233.387052 
L 404.753509 233.387052 
" style="fill:none;stroke:#8c564b;stroke-linecap:square;stroke-opacity:0.6;stroke-width:1.5;"/>
   </g>
   <g id="line2d_74">
    <path clip-path="url(#p859e4831ed)" d="M 92.928048 247.2 
L 92.928048 54.1 
" style="fill:none;stroke:#cd5c5c;stroke-linecap:square;stroke-width:1.5;"/>
   </g>
   <g id="line2d_75">
    <path clip-path="url(#p859e4831ed)" d="M 115.295275 247.2 
L 115.295275 54.1 
" style="fill:none;stroke:#cd5c5c;stroke-linecap:square;stroke-width:1.5;"/>
   </g>
   <g id="line2d_76">
    <path clip-path="url(#p859e4831ed)" d="M 154.766852 247.2 
L 154.766852 54.1 
" style="fill:none;stroke:#2e8b57;stroke-linecap:square;stroke-width:1.5;"/>
   </g>
   <g id="line2d_77">
    <path clip-path="url(#p859e4831ed)" d="M 194.23843 247.2 
L 194.23843 54.1 
" style="fill:none;stroke:#2e8b57;stroke-linecap:square;stroke-width:1.5;"/>
   </g>
   <g id="patch_3">
    <path d="M 59.377207 247.2 
L 59.377207 54.1 
" style="fill:none;stroke:#000000;stroke-linecap:square;stroke-linejoin:miter;stroke-width:0.8;"/>
   </g>
   <g id="patch_4">
    <path d="M 421.2 247.2 
L 421.2 54.1 
" style="fill:none;stroke:#000000;stroke-linecap:square;stroke-linejoin:miter;stroke-width:0.8;"/>
   </g>
   <g id="patch_5">
    <path d="M 59.377207 247.2 
L 421.2 247.2 
" style="fill:none;stroke:#000000;stroke-linecap:square;stroke-linejoin:miter;stroke-width:0.8;"/>
   </g>
   <g id="patch_6">
    <path d="M 59.377207 54.1 
L 421.2 54.1 
" style="fill:none;stroke:#000000;stroke-linecap:square;stroke-linejoin:miter;stroke-width:0.8;"/>
   </g>
   <g id="text_16">
    <!-- RCS09  gamma entrainment; med: ON; side: R -->
    <g transform="translate(100.331104 21.22525)scale(0.12 -0.12)">
     <defs>
      <path d="M 44.390625 34.1875 
Q 47.5625 33.109375 50.5625 29.59375 
Q 53.5625 26.078125 56.59375 19.921875 
L 66.609375 0 
L 56 0 
L 46.6875 18.703125 
Q 43.0625 26.03125 39.671875 28.421875 
Q 36.28125 30.8125 30.421875 30.8125 
L 19.671875 30.8125 
L 19.671875 0 
L 9.8125 0 
L 9.8125 72.90625 
L 32.078125 72.90625 
Q 44.578125 72.90625 50.734375 67.671875 
Q 56.890625 62.453125 56.890625 51.90625 
Q 56.890625 45.015625 53.6875 40.46875 
Q 50.484375 35.9375 44.390625 34.1875 
z
M 19.671875 64.796875 
L 19.671875 38.921875 
L 32.078125 38.921875 
Q 39.203125 38.921875 42.84375 42.21875 
Q 46.484375 45.515625 46.484375 51.90625 
Q 46.484375 58.296875 42.84375 61.546875 
Q 39.203125 64.796875 32.078125 64.796875 
z
" id="DejaVuSans-82"/>
      <path d="M 64.40625 67.28125 
L 64.40625 56.890625 
Q 59.421875 61.53125 53.78125 63.8125 
Q 48.140625 66.109375 41.796875 66.109375 
Q 29.296875 66.109375 22.65625 58.46875 
Q 16.015625 50.828125 16.015625 36.375 
Q 16.015625 21.96875 22.65625 14.328125 
Q 29.296875 6.6875 41.796875 6.6875 
Q 48.140625 6.6875 53.78125 8.984375 
Q 59.421875 11.28125 64.40625 15.921875 
L 64.40625 5.609375 
Q 59.234375 2.09375 53.4375 0.328125 
Q 47.65625 -1.421875 41.21875 -1.421875 
Q 24.65625 -1.421875 15.125 8.703125 
Q 5.609375 18.84375 5.609375 36.375 
Q 5.609375 53.953125 15.125 64.078125 
Q 24.65625 74.21875 41.21875 74.21875 
Q 47.75 74.21875 53.53125 72.484375 
Q 59.328125 70.75 64.40625 67.28125 
z
" id="DejaVuSans-67"/>
      <path d="M 45.40625 27.984375 
Q 45.40625 37.75 41.375 43.109375 
Q 37.359375 48.484375 30.078125 48.484375 
Q 22.859375 48.484375 18.828125 43.109375 
Q 14.796875 37.75 14.796875 27.984375 
Q 14.796875 18.265625 18.828125 12.890625 
Q 22.859375 7.515625 30.078125 7.515625 
Q 37.359375 7.515625 41.375 12.890625 
Q 45.40625 18.265625 45.40625 27.984375 
z
M 54.390625 6.78125 
Q 54.390625 -7.171875 48.1875 -13.984375 
Q 42 -20.796875 29.203125 -20.796875 
Q 24.46875 -20.796875 20.265625 -20.09375 
Q 16.0625 -19.390625 12.109375 -17.921875 
L 12.109375 -9.1875 
Q 16.0625 -11.328125 19.921875 -12.34375 
Q 23.78125 -13.375 27.78125 -13.375 
Q 36.625 -13.375 41.015625 -8.765625 
Q 45.40625 -4.15625 45.40625 5.171875 
L 45.40625 9.625 
Q 42.625 4.78125 38.28125 2.390625 
Q 33.9375 0 27.875 0 
Q 17.828125 0 11.671875 7.65625 
Q 5.515625 15.328125 5.515625 27.984375 
Q 5.515625 40.671875 11.671875 48.328125 
Q 17.828125 56 27.875 56 
Q 33.9375 56 38.28125 53.609375 
Q 42.625 51.21875 45.40625 46.390625 
L 45.40625 54.6875 
L 54.390625 54.6875 
z
" id="DejaVuSans-103"/>
      <path d="M 34.28125 27.484375 
Q 23.390625 27.484375 19.1875 25 
Q 14.984375 22.515625 14.984375 16.5 
Q 14.984375 11.71875 18.140625 8.90625 
Q 21.296875 6.109375 26.703125 6.109375 
Q 34.1875 6.109375 38.703125 11.40625 
Q 43.21875 16.703125 43.21875 25.484375 
L 43.21875 27.484375 
z
M 52.203125 31.203125 
L 52.203125 0 
L 43.21875 0 
L 43.21875 8.296875 
Q 40.140625 3.328125 35.546875 0.953125 
Q 30.953125 -1.421875 24.3125 -1.421875 
Q 15.921875 -1.421875 10.953125 3.296875 
Q 6 8.015625 6 15.921875 
Q 6 25.140625 12.171875 29.828125 
Q 18.359375 34.515625 30.609375 34.515625 
L 43.21875 34.515625 
L 43.21875 35.40625 
Q 43.21875 41.609375 39.140625 45 
Q 35.0625 48.390625 27.6875 48.390625 
Q 23 48.390625 18.546875 47.265625 
Q 14.109375 46.140625 10.015625 43.890625 
L 10.015625 52.203125 
Q 14.9375 54.109375 19.578125 55.046875 
Q 24.21875 56 28.609375 56 
Q 40.484375 56 46.34375 49.84375 
Q 52.203125 43.703125 52.203125 31.203125 
z
" id="DejaVuSans-97"/>
      <path d="M 18.3125 70.21875 
L 18.3125 54.6875 
L 36.8125 54.6875 
L 36.8125 47.703125 
L 18.3125 47.703125 
L 18.3125 18.015625 
Q 18.3125 11.328125 20.140625 9.421875 
Q 21.96875 7.515625 27.59375 7.515625 
L 36.8125 7.515625 
L 36.8125 0 
L 27.59375 0 
Q 17.1875 0 13.234375 3.875 
Q 9.28125 7.765625 9.28125 18.015625 
L 9.28125 47.703125 
L 2.6875 47.703125 
L 2.6875 54.6875 
L 9.28125 54.6875 
L 9.28125 70.21875 
z
" id="DejaVuSans-116"/>
      <path d="M 9.421875 54.6875 
L 18.40625 54.6875 
L 18.40625 0 
L 9.421875 0 
z
M 9.421875 75.984375 
L 18.40625 75.984375 
L 18.40625 64.59375 
L 9.421875 64.59375 
z
" id="DejaVuSans-105"/>
      <path d="M 11.71875 51.703125 
L 22.015625 51.703125 
L 22.015625 39.3125 
L 11.71875 39.3125 
z
M 11.71875 12.40625 
L 22.015625 12.40625 
L 22.015625 4 
L 14.015625 -11.625 
L 7.71875 -11.625 
L 11.71875 4 
z
" id="DejaVuSans-59"/>
      <path d="M 45.40625 46.390625 
L 45.40625 75.984375 
L 54.390625 75.984375 
L 54.390625 0 
L 45.40625 0 
L 45.40625 8.203125 
Q 42.578125 3.328125 38.25 0.953125 
Q 33.9375 -1.421875 27.875 -1.421875 
Q 17.96875 -1.421875 11.734375 6.484375 
Q 5.515625 14.40625 5.515625 27.296875 
Q 5.515625 40.1875 11.734375 48.09375 
Q 17.96875 56 27.875 56 
Q 33.9375 56 38.25 53.625 
Q 42.578125 51.265625 45.40625 46.390625 
z
M 14.796875 27.296875 
Q 14.796875 17.390625 18.875 11.75 
Q 22.953125 6.109375 30.078125 6.109375 
Q 37.203125 6.109375 41.296875 11.75 
Q 45.40625 17.390625 45.40625 27.296875 
Q 45.40625 37.203125 41.296875 42.84375 
Q 37.203125 48.484375 30.078125 48.484375 
Q 22.953125 48.484375 18.875 42.84375 
Q 14.796875 37.203125 14.796875 27.296875 
z
" id="DejaVuSans-100"/>
      <path d="M 11.71875 12.40625 
L 22.015625 12.40625 
L 22.015625 0 
L 11.71875 0 
z
M 11.71875 51.703125 
L 22.015625 51.703125 
L 22.015625 39.3125 
L 11.71875 39.3125 
z
" id="DejaVuSans-58"/>
      <path d="M 39.40625 66.21875 
Q 28.65625 66.21875 22.328125 58.203125 
Q 16.015625 50.203125 16.015625 36.375 
Q 16.015625 22.609375 22.328125 14.59375 
Q 28.65625 6.59375 39.40625 6.59375 
Q 50.140625 6.59375 56.421875 14.59375 
Q 62.703125 22.609375 62.703125 36.375 
Q 62.703125 50.203125 56.421875 58.203125 
Q 50.140625 66.21875 39.40625 66.21875 
z
M 39.40625 74.21875 
Q 54.734375 74.21875 63.90625 63.9375 
Q 73.09375 53.65625 73.09375 36.375 
Q 73.09375 19.140625 63.90625 8.859375 
Q 54.734375 -1.421875 39.40625 -1.421875 
Q 24.03125 -1.421875 14.8125 8.828125 
Q 5.609375 19.09375 5.609375 36.375 
Q 5.609375 53.65625 14.8125 63.9375 
Q 24.03125 74.21875 39.40625 74.21875 
z
" id="DejaVuSans-79"/>
      <path d="M 9.8125 72.90625 
L 23.09375 72.90625 
L 55.421875 11.921875 
L 55.421875 72.90625 
L 64.984375 72.90625 
L 64.984375 0 
L 51.703125 0 
L 19.390625 60.984375 
L 19.390625 0 
L 9.8125 0 
z
" id="DejaVuSans-78"/>
      <path d="M 44.28125 53.078125 
L 44.28125 44.578125 
Q 40.484375 46.53125 36.375 47.5 
Q 32.28125 48.484375 27.875 48.484375 
Q 21.1875 48.484375 17.84375 46.4375 
Q 14.5 44.390625 14.5 40.28125 
Q 14.5 37.15625 16.890625 35.375 
Q 19.28125 33.59375 26.515625 31.984375 
L 29.59375 31.296875 
Q 39.15625 29.25 43.1875 25.515625 
Q 47.21875 21.78125 47.21875 15.09375 
Q 47.21875 7.46875 41.1875 3.015625 
Q 35.15625 -1.421875 24.609375 -1.421875 
Q 20.21875 -1.421875 15.453125 -0.5625 
Q 10.6875 0.296875 5.421875 2 
L 5.421875 11.28125 
Q 10.40625 8.6875 15.234375 7.390625 
Q 20.0625 6.109375 24.8125 6.109375 
Q 31.15625 6.109375 34.5625 8.28125 
Q 37.984375 10.453125 37.984375 14.40625 
Q 37.984375 18.0625 35.515625 20.015625 
Q 33.0625 21.96875 24.703125 23.78125 
L 21.578125 24.515625 
Q 13.234375 26.265625 9.515625 29.90625 
Q 5.8125 33.546875 5.8125 39.890625 
Q 5.8125 47.609375 11.28125 51.796875 
Q 16.75 56 26.8125 56 
Q 31.78125 56 36.171875 55.265625 
Q 40.578125 54.546875 44.28125 53.078125 
z
" id="DejaVuSans-115"/>
     </defs>
     <use xlink:href="#DejaVuSans-82"/>
     <use x="64.482422" xlink:href="#DejaVuSans-67"/>
     <use x="134.306641" xlink:href="#DejaVuSans-83"/>
     <use x="197.783203" xlink:href="#DejaVuSans-48"/>
     <use x="261.40625" xlink:href="#DejaVuSans-57"/>
     <use x="325.029297" xlink:href="#DejaVuSans-32"/>
     <use x="356.816406" xlink:href="#DejaVuSans-32"/>
     <use x="388.603516" xlink:href="#DejaVuSans-103"/>
     <use x="452.080078" xlink:href="#DejaVuSans-97"/>
     <use x="513.359375" xlink:href="#DejaVuSans-109"/>
     <use x="610.771484" xlink:href="#DejaVuSans-109"/>
     <use x="708.183594" xlink:href="#DejaVuSans-97"/>
     <use x="769.462891" xlink:href="#DejaVuSans-32"/>
     <use x="801.25" xlink:href="#DejaVuSans-101"/>
     <use x="862.773438" xlink:href="#DejaVuSans-110"/>
     <use x="926.152344" xlink:href="#DejaVuSans-116"/>
     <use x="965.361328" xlink:href="#DejaVuSans-114"/>
     <use x="1006.474609" xlink:href="#DejaVuSans-97"/>
     <use x="1067.753906" xlink:href="#DejaVuSans-105"/>
     <use x="1095.537109" xlink:href="#DejaVuSans-110"/>
     <use x="1158.916016" xlink:href="#DejaVuSans-109"/>
     <use x="1256.328125" xlink:href="#DejaVuSans-101"/>
     <use x="1317.851562" xlink:href="#DejaVuSans-110"/>
     <use x="1381.230469" xlink:href="#DejaVuSans-116"/>
     <use x="1420.439453" xlink:href="#DejaVuSans-59"/>
     <use x="1454.130859" xlink:href="#DejaVuSans-32"/>
     <use x="1485.917969" xlink:href="#DejaVuSans-109"/>
     <use x="1583.330078" xlink:href="#DejaVuSans-101"/>
     <use x="1644.853516" xlink:href="#DejaVuSans-100"/>
     <use x="1708.330078" xlink:href="#DejaVuSans-58"/>
     <use x="1742.021484" xlink:href="#DejaVuSans-32"/>
     <use x="1773.808594" xlink:href="#DejaVuSans-79"/>
     <use x="1852.519531" xlink:href="#DejaVuSans-78"/>
     <use x="1927.324219" xlink:href="#DejaVuSans-59"/>
     <use x="1961.015625" xlink:href="#DejaVuSans-32"/>
     <use x="1992.802734" xlink:href="#DejaVuSans-115"/>
     <use x="2044.902344" xlink:href="#DejaVuSans-105"/>
     <use x="2072.685547" xlink:href="#DejaVuSans-100"/>
     <use x="2136.162109" xlink:href="#DejaVuSans-101"/>
     <use x="2197.685547" xlink:href="#DejaVuSans-58"/>
     <use x="2231.376953" xlink:href="#DejaVuSans-32"/>
     <use x="2263.164062" xlink:href="#DejaVuSans-82"/>
    </g>
    <!-- stim contact 2; stim freq 150.6; amps 0.0-5.0 -->
    <g transform="translate(103.823291 34.662625)scale(0.12 -0.12)">
     <defs>
      <path d="M 30.609375 48.390625 
Q 23.390625 48.390625 19.1875 42.75 
Q 14.984375 37.109375 14.984375 27.296875 
Q 14.984375 17.484375 19.15625 11.84375 
Q 23.34375 6.203125 30.609375 6.203125 
Q 37.796875 6.203125 41.984375 11.859375 
Q 46.1875 17.53125 46.1875 27.296875 
Q 46.1875 37.015625 41.984375 42.703125 
Q 37.796875 48.390625 30.609375 48.390625 
z
M 30.609375 56 
Q 42.328125 56 49.015625 48.375 
Q 55.71875 40.765625 55.71875 27.296875 
Q 55.71875 13.875 49.015625 6.21875 
Q 42.328125 -1.421875 30.609375 -1.421875 
Q 18.84375 -1.421875 12.171875 6.21875 
Q 5.515625 13.875 5.515625 27.296875 
Q 5.515625 40.765625 12.171875 48.375 
Q 18.84375 56 30.609375 56 
z
" id="DejaVuSans-111"/>
      <path d="M 10.6875 12.40625 
L 21 12.40625 
L 21 0 
L 10.6875 0 
z
" id="DejaVuSans-46"/>
      <path d="M 18.109375 8.203125 
L 18.109375 -20.796875 
L 9.078125 -20.796875 
L 9.078125 54.6875 
L 18.109375 54.6875 
L 18.109375 46.390625 
Q 20.953125 51.265625 25.265625 53.625 
Q 29.59375 56 35.59375 56 
Q 45.5625 56 51.78125 48.09375 
Q 58.015625 40.1875 58.015625 27.296875 
Q 58.015625 14.40625 51.78125 6.484375 
Q 45.5625 -1.421875 35.59375 -1.421875 
Q 29.59375 -1.421875 25.265625 0.953125 
Q 20.953125 3.328125 18.109375 8.203125 
z
M 48.6875 27.296875 
Q 48.6875 37.203125 44.609375 42.84375 
Q 40.53125 48.484375 33.40625 48.484375 
Q 26.265625 48.484375 22.1875 42.84375 
Q 18.109375 37.203125 18.109375 27.296875 
Q 18.109375 17.390625 22.1875 11.75 
Q 26.265625 6.109375 33.40625 6.109375 
Q 40.53125 6.109375 44.609375 11.75 
Q 48.6875 17.390625 48.6875 27.296875 
z
" id="DejaVuSans-112"/>
      <path d="M 4.890625 31.390625 
L 31.203125 31.390625 
L 31.203125 23.390625 
L 4.890625 23.390625 
z
" id="DejaVuSans-45"/>
     </defs>
     <use xlink:href="#DejaVuSans-115"/>
     <use x="52.099609" xlink:href="#DejaVuSans-116"/>
     <use x="91.308594" xlink:href="#DejaVuSans-105"/>
     <use x="119.091797" xlink:href="#DejaVuSans-109"/>
     <use x="216.503906" xlink:href="#DejaVuSans-32"/>
     <use x="248.291016" xlink:href="#DejaVuSans-99"/>
     <use x="303.271484" xlink:href="#DejaVuSans-111"/>
     <use x="364.453125" xlink:href="#DejaVuSans-110"/>
     <use x="427.832031" xlink:href="#DejaVuSans-116"/>
     <use x="467.041016" xlink:href="#DejaVuSans-97"/>
     <use x="528.320312" xlink:href="#DejaVuSans-99"/>
     <use x="583.300781" xlink:href="#DejaVuSans-116"/>
     <use x="622.509766" xlink:href="#DejaVuSans-32"/>
     <use x="654.296875" xlink:href="#DejaVuSans-50"/>
     <use x="717.919922" xlink:href="#DejaVuSans-59"/>
     <use x="751.611328" xlink:href="#DejaVuSans-32"/>
     <use x="783.398438" xlink:href="#DejaVuSans-115"/>
     <use x="835.498047" xlink:href="#DejaVuSans-116"/>
     <use x="874.707031" xlink:href="#DejaVuSans-105"/>
     <use x="902.490234" xlink:href="#DejaVuSans-109"/>
     <use x="999.902344" xlink:href="#DejaVuSans-32"/>
     <use x="1031.689453" xlink:href="#DejaVuSans-102"/>
     <use x="1066.894531" xlink:href="#DejaVuSans-114"/>
     <use x="1105.757812" xlink:href="#DejaVuSans-101"/>
     <use x="1167.28125" xlink:href="#DejaVuSans-113"/>
     <use x="1230.757812" xlink:href="#DejaVuSans-32"/>
     <use x="1262.544922" xlink:href="#DejaVuSans-49"/>
     <use x="1326.167969" xlink:href="#DejaVuSans-53"/>
     <use x="1389.791016" xlink:href="#DejaVuSans-48"/>
     <use x="1453.414062" xlink:href="#DejaVuSans-46"/>
     <use x="1485.201172" xlink:href="#DejaVuSans-54"/>
     <use x="1548.824219" xlink:href="#DejaVuSans-59"/>
     <use x="1582.515625" xlink:href="#DejaVuSans-32"/>
     <use x="1614.302734" xlink:href="#DejaVuSans-97"/>
     <use x="1675.582031" xlink:href="#DejaVuSans-109"/>
     <use x="1772.994141" xlink:href="#DejaVuSans-112"/>
     <use x="1836.470703" xlink:href="#DejaVuSans-115"/>
     <use x="1888.570312" xlink:href="#DejaVuSans-32"/>
     <use x="1920.357422" xlink:href="#DejaVuSans-48"/>
     <use x="1983.980469" xlink:href="#DejaVuSans-46"/>
     <use x="2015.767578" xlink:href="#DejaVuSans-48"/>
     <use x="2079.390625" xlink:href="#DejaVuSans-45"/>
     <use x="2115.474609" xlink:href="#DejaVuSans-53"/>
     <use x="2179.097656" xlink:href="#DejaVuSans-46"/>
     <use x="2210.884766" xlink:href="#DejaVuSans-48"/>
    </g>
    <!-- Ch 2 sense contacts 3+ 1- -->
    <g transform="translate(161.100791 48.1)scale(0.12 -0.12)">
     <defs>
      <path d="M 54.890625 33.015625 
L 54.890625 0 
L 45.90625 0 
L 45.90625 32.71875 
Q 45.90625 40.484375 42.875 44.328125 
Q 39.84375 48.1875 33.796875 48.1875 
Q 26.515625 48.1875 22.3125 43.546875 
Q 18.109375 38.921875 18.109375 30.90625 
L 18.109375 0 
L 9.078125 0 
L 9.078125 75.984375 
L 18.109375 75.984375 
L 18.109375 46.1875 
Q 21.34375 51.125 25.703125 53.5625 
Q 30.078125 56 35.796875 56 
Q 45.21875 56 50.046875 50.171875 
Q 54.890625 44.34375 54.890625 33.015625 
z
" id="DejaVuSans-104"/>
      <path d="M 40.578125 39.3125 
Q 47.65625 37.796875 51.625 33 
Q 55.609375 28.21875 55.609375 21.1875 
Q 55.609375 10.40625 48.1875 4.484375 
Q 40.765625 -1.421875 27.09375 -1.421875 
Q 22.515625 -1.421875 17.65625 -0.515625 
Q 12.796875 0.390625 7.625 2.203125 
L 7.625 11.71875 
Q 11.71875 9.328125 16.59375 8.109375 
Q 21.484375 6.890625 26.8125 6.890625 
Q 36.078125 6.890625 40.9375 10.546875 
Q 45.796875 14.203125 45.796875 21.1875 
Q 45.796875 27.640625 41.28125 31.265625 
Q 36.765625 34.90625 28.71875 34.90625 
L 20.21875 34.90625 
L 20.21875 43.015625 
L 29.109375 43.015625 
Q 36.375 43.015625 40.234375 45.921875 
Q 44.09375 48.828125 44.09375 54.296875 
Q 44.09375 59.90625 40.109375 62.90625 
Q 36.140625 65.921875 28.71875 65.921875 
Q 24.65625 65.921875 20.015625 65.03125 
Q 15.375 64.15625 9.8125 62.3125 
L 9.8125 71.09375 
Q 15.4375 72.65625 20.34375 73.4375 
Q 25.25 74.21875 29.59375 74.21875 
Q 40.828125 74.21875 47.359375 69.109375 
Q 53.90625 64.015625 53.90625 55.328125 
Q 53.90625 49.265625 50.4375 45.09375 
Q 46.96875 40.921875 40.578125 39.3125 
z
" id="DejaVuSans-51"/>
      <path d="M 46 62.703125 
L 46 35.5 
L 73.1875 35.5 
L 73.1875 27.203125 
L 46 27.203125 
L 46 0 
L 37.796875 0 
L 37.796875 27.203125 
L 10.59375 27.203125 
L 10.59375 35.5 
L 37.796875 35.5 
L 37.796875 62.703125 
z
" id="DejaVuSans-43"/>
     </defs>
     <use xlink:href="#DejaVuSans-67"/>
     <use x="69.824219" xlink:href="#DejaVuSans-104"/>
     <use x="133.203125" xlink:href="#DejaVuSans-32"/>
     <use x="164.990234" xlink:href="#DejaVuSans-50"/>
     <use x="228.613281" xlink:href="#DejaVuSans-32"/>
     <use x="260.400391" xlink:href="#DejaVuSans-115"/>
     <use x="312.5" xlink:href="#DejaVuSans-101"/>
     <use x="374.023438" xlink:href="#DejaVuSans-110"/>
     <use x="437.402344" xlink:href="#DejaVuSans-115"/>
     <use x="489.501953" xlink:href="#DejaVuSans-101"/>
     <use x="551.025391" xlink:href="#DejaVuSans-32"/>
     <use x="582.8125" xlink:href="#DejaVuSans-99"/>
     <use x="637.792969" xlink:href="#DejaVuSans-111"/>
     <use x="698.974609" xlink:href="#DejaVuSans-110"/>
     <use x="762.353516" xlink:href="#DejaVuSans-116"/>
     <use x="801.5625" xlink:href="#DejaVuSans-97"/>
     <use x="862.841797" xlink:href="#DejaVuSans-99"/>
     <use x="917.822266" xlink:href="#DejaVuSans-116"/>
     <use x="957.03125" xlink:href="#DejaVuSans-115"/>
     <use x="1009.130859" xlink:href="#DejaVuSans-32"/>
     <use x="1040.917969" xlink:href="#DejaVuSans-51"/>
     <use x="1104.541016" xlink:href="#DejaVuSans-43"/>
     <use x="1188.330078" xlink:href="#DejaVuSans-32"/>
     <use x="1220.117188" xlink:href="#DejaVuSans-49"/>
     <use x="1283.740234" xlink:href="#DejaVuSans-45"/>
    </g>
   </g>
   <g id="legend_1">
    <g id="patch_7">
     <path d="M 359.25625 150.16875 
L 414.2 150.16875 
Q 416.2 150.16875 416.2 148.16875 
L 416.2 61.1 
Q 416.2 59.1 414.2 59.1 
L 359.25625 59.1 
Q 357.25625 59.1 357.25625 61.1 
L 357.25625 148.16875 
Q 357.25625 150.16875 359.25625 150.16875 
z
" style="fill:#ffffff;opacity:0.8;stroke:#cccccc;stroke-linejoin:miter;"/>
    </g>
    <g id="line2d_78">
     <path d="M 361.25625 67.198438 
L 381.25625 67.198438 
" style="fill:none;stroke:#1f77b4;stroke-linecap:square;stroke-opacity:0.6;stroke-width:1.5;"/>
    </g>
    <g id="line2d_79"/>
    <g id="text_17">
     <!-- 0mA -->
     <g transform="translate(389.25625 70.698438)scale(0.1 -0.1)">
      <defs>
       <path d="M 34.1875 63.1875 
L 20.796875 26.90625 
L 47.609375 26.90625 
z
M 28.609375 72.90625 
L 39.796875 72.90625 
L 67.578125 0 
L 57.328125 0 
L 50.6875 18.703125 
L 17.828125 18.703125 
L 11.1875 0 
L 0.78125 0 
z
" id="DejaVuSans-65"/>
      </defs>
      <use xlink:href="#DejaVuSans-48"/>
      <use x="63.623047" xlink:href="#DejaVuSans-109"/>
      <use x="161.035156" xlink:href="#DejaVuSans-65"/>
     </g>
    </g>
    <g id="line2d_80">
     <path d="M 361.25625 81.876563 
L 381.25625 81.876563 
" style="fill:none;stroke:#ff7f0e;stroke-linecap:square;stroke-opacity:0.6;stroke-width:1.5;"/>
    </g>
    <g id="line2d_81"/>
    <g id="text_18">
     <!-- 1mA -->
     <g transform="translate(389.25625 85.376563)scale(0.1 -0.1)">
      <use xlink:href="#DejaVuSans-49"/>
      <use x="63.623047" xlink:href="#DejaVuSans-109"/>
      <use x="161.035156" xlink:href="#DejaVuSans-65"/>
     </g>
    </g>
    <g id="line2d_82">
     <path d="M 361.25625 96.554688 
L 381.25625 96.554688 
" style="fill:none;stroke:#2ca02c;stroke-linecap:square;stroke-opacity:0.6;stroke-width:1.5;"/>
    </g>
    <g id="line2d_83"/>
    <g id="text_19">
     <!-- 2mA -->
     <g transform="translate(389.25625 100.054688)scale(0.1 -0.1)">
      <use xlink:href="#DejaVuSans-50"/>
      <use x="63.623047" xlink:href="#DejaVuSans-109"/>
      <use x="161.035156" xlink:href="#DejaVuSans-65"/>
     </g>
    </g>
    <g id="line2d_84">
     <path d="M 361.25625 111.232813 
L 381.25625 111.232813 
" style="fill:none;stroke:#d62728;stroke-linecap:square;stroke-opacity:0.6;stroke-width:1.5;"/>
    </g>
    <g id="line2d_85"/>
    <g id="text_20">
     <!-- 3mA -->
     <g transform="translate(389.25625 114.732813)scale(0.1 -0.1)">
      <use xlink:href="#DejaVuSans-51"/>
      <use x="63.623047" xlink:href="#DejaVuSans-109"/>
      <use x="161.035156" xlink:href="#DejaVuSans-65"/>
     </g>
    </g>
    <g id="line2d_86">
     <path d="M 361.25625 125.910938 
L 381.25625 125.910938 
" style="fill:none;stroke:#9467bd;stroke-linecap:square;stroke-opacity:0.6;stroke-width:1.5;"/>
    </g>
    <g id="line2d_87"/>
    <g id="text_21">
     <!-- 4mA -->
     <g transform="translate(389.25625 129.410938)scale(0.1 -0.1)">
      <defs>
       <path d="M 37.796875 64.3125 
L 12.890625 25.390625 
L 37.796875 25.390625 
z
M 35.203125 72.90625 
L 47.609375 72.90625 
L 47.609375 25.390625 
L 58.015625 25.390625 
L 58.015625 17.1875 
L 47.609375 17.1875 
L 47.609375 0 
L 37.796875 0 
L 37.796875 17.1875 
L 4.890625 17.1875 
L 4.890625 26.703125 
z
" id="DejaVuSans-52"/>
      </defs>
      <use xlink:href="#DejaVuSans-52"/>
      <use x="63.623047" xlink:href="#DejaVuSans-109"/>
      <use x="161.035156" xlink:href="#DejaVuSans-65"/>
     </g>
    </g>
    <g id="line2d_88">
     <path d="M 361.25625 140.589063 
L 381.25625 140.589063 
" style="fill:none;stroke:#8c564b;stroke-linecap:square;stroke-opacity:0.6;stroke-width:1.5;"/>
    </g>
    <g id="line2d_89"/>
    <g id="text_22">
     <!-- 5mA -->
     <g transform="translate(389.25625 144.089063)scale(0.1 -0.1)">
      <use xlink:href="#DejaVuSans-53"/>
      <use x="63.623047" xlink:href="#DejaVuSans-109"/>
      <use x="161.035156" xlink:href="#DejaVuSans-65"/>
     </g>
    </g>
   </g>
  </g>
 </g>
 <defs>
  <clipPath id="p859e4831ed">
   <rect height="193.1" width="361.822793" x="59.377207" y="54.1"/>
  </clipPath>
 </defs>
</svg>
