<?xml version="1.0" encoding="utf-8" standalone="no"?>
<!DOCTYPE svg PUBLIC "-//W3C//DTD SVG 1.1//EN"
  "http://www.w3.org/Graphics/SVG/1.1/DTD/svg11.dtd">
<!-- Created with matplotlib (https://matplotlib.org/) -->
<svg height="288pt" version="1.1" viewBox="0 0 432 288" width="432pt" xmlns="http://www.w3.org/2000/svg" xmlns:xlink="http://www.w3.org/1999/xlink">
 <metadata>
  <rdf:RDF xmlns:cc="http://creativecommons.org/ns#" xmlns:dc="http://purl.org/dc/elements/1.1/" xmlns:rdf="http://www.w3.org/1999/02/22-rdf-syntax-ns#">
   <cc:Work>
    <dc:type rdf:resource="http://purl.org/dc/dcmitype/StillImage"/>
    <dc:date>2021-06-09T17:55:05.630666</dc:date>
    <dc:format>image/svg+xml</dc:format>
    <dc:creator>
     <cc:Agent>
      <dc:title>Matplotlib v3.3.4, https://matplotlib.org/</dc:title>
     </cc:Agent>
    </dc:creator>
   </cc:Work>
  </rdf:RDF>
 </metadata>
 <defs>
  <style type="text/css">*{stroke-linecap:butt;stroke-linejoin:round;}</style>
 </defs>
 <g id="figure_1">
  <g id="patch_1">
   <path d="M 0 288 
L 432 288 
L 432 0 
L 0 0 
z
" style="fill:#ffffff;"/>
  </g>
  <g id="axes_1">
   <g id="patch_2">
    <path d="M 59.377207 247.2 
L 421.2 247.2 
L 421.2 54.1 
L 59.377207 54.1 
z
" style="fill:#ffffff;"/>
   </g>
   <g id="matplotlib.axis_1">
    <g id="xtick_1">
     <g id="line2d_1">
      <defs>
       <path d="M 0 0 
L 0 3.5 
" id="m826758ff54" style="stroke:#000000;stroke-width:0.8;"/>
      </defs>
      <g>
       <use style="stroke:#000000;stroke-width:0.8;" x="75.823698" xlink:href="#m826758ff54" y="247.2"/>
      </g>
     </g>
     <g id="text_1">
      <!-- 0 -->
      <g transform="translate(72.642448 261.798438)scale(0.1 -0.1)">
       <defs>
        <path d="M 31.78125 66.40625 
Q 24.171875 66.40625 20.328125 58.90625 
Q 16.5 51.421875 16.5 36.375 
Q 16.5 21.390625 20.328125 13.890625 
Q 24.171875 6.390625 31.78125 6.390625 
Q 39.453125 6.390625 43.28125 13.890625 
Q 47.125 21.390625 47.125 36.375 
Q 47.125 51.421875 43.28125 58.90625 
Q 39.453125 66.40625 31.78125 66.40625 
z
M 31.78125 74.21875 
Q 44.046875 74.21875 50.515625 64.515625 
Q 56.984375 54.828125 56.984375 36.375 
Q 56.984375 17.96875 50.515625 8.265625 
Q 44.046875 -1.421875 31.78125 -1.421875 
Q 19.53125 -1.421875 13.0625 8.265625 
Q 6.59375 17.96875 6.59375 36.375 
Q 6.59375 54.828125 13.0625 64.515625 
Q 19.53125 74.21875 31.78125 74.21875 
z
" id="DejaVuSans-48"/>
       </defs>
       <use xlink:href="#DejaVuSans-48"/>
      </g>
     </g>
    </g>
    <g id="xtick_2">
     <g id="line2d_2">
      <g>
       <use style="stroke:#000000;stroke-width:0.8;" x="141.60966" xlink:href="#m826758ff54" y="247.2"/>
      </g>
     </g>
     <g id="text_2">
      <!-- 50 -->
      <g transform="translate(135.24716 261.798438)scale(0.1 -0.1)">
       <defs>
        <path d="M 10.796875 72.90625 
L 49.515625 72.90625 
L 49.515625 64.59375 
L 19.828125 64.59375 
L 19.828125 46.734375 
Q 21.96875 47.46875 24.109375 47.828125 
Q 26.265625 48.1875 28.421875 48.1875 
Q 40.625 48.1875 47.75 41.5 
Q 54.890625 34.8125 54.890625 23.390625 
Q 54.890625 11.625 47.5625 5.09375 
Q 40.234375 -1.421875 26.90625 -1.421875 
Q 22.3125 -1.421875 17.546875 -0.640625 
Q 12.796875 0.140625 7.71875 1.703125 
L 7.71875 11.625 
Q 12.109375 9.234375 16.796875 8.0625 
Q 21.484375 6.890625 26.703125 6.890625 
Q 35.15625 6.890625 40.078125 11.328125 
Q 45.015625 15.765625 45.015625 23.390625 
Q 45.015625 31 40.078125 35.4375 
Q 35.15625 39.890625 26.703125 39.890625 
Q 22.75 39.890625 18.8125 39.015625 
Q 14.890625 38.140625 10.796875 36.28125 
z
" id="DejaVuSans-53"/>
       </defs>
       <use xlink:href="#DejaVuSans-53"/>
       <use x="63.623047" xlink:href="#DejaVuSans-48"/>
      </g>
     </g>
    </g>
    <g id="xtick_3">
     <g id="line2d_3">
      <g>
       <use style="stroke:#000000;stroke-width:0.8;" x="207.395622" xlink:href="#m826758ff54" y="247.2"/>
      </g>
     </g>
     <g id="text_3">
      <!-- 100 -->
      <g transform="translate(197.851872 261.798438)scale(0.1 -0.1)">
       <defs>
        <path d="M 12.40625 8.296875 
L 28.515625 8.296875 
L 28.515625 63.921875 
L 10.984375 60.40625 
L 10.984375 69.390625 
L 28.421875 72.90625 
L 38.28125 72.90625 
L 38.28125 8.296875 
L 54.390625 8.296875 
L 54.390625 0 
L 12.40625 0 
z
" id="DejaVuSans-49"/>
       </defs>
       <use xlink:href="#DejaVuSans-49"/>
       <use x="63.623047" xlink:href="#DejaVuSans-48"/>
       <use x="127.246094" xlink:href="#DejaVuSans-48"/>
      </g>
     </g>
    </g>
    <g id="xtick_4">
     <g id="line2d_4">
      <g>
       <use style="stroke:#000000;stroke-width:0.8;" x="273.181585" xlink:href="#m826758ff54" y="247.2"/>
      </g>
     </g>
     <g id="text_4">
      <!-- 150 -->
      <g transform="translate(263.637835 261.798438)scale(0.1 -0.1)">
       <use xlink:href="#DejaVuSans-49"/>
       <use x="63.623047" xlink:href="#DejaVuSans-53"/>
       <use x="127.246094" xlink:href="#DejaVuSans-48"/>
      </g>
     </g>
    </g>
    <g id="xtick_5">
     <g id="line2d_5">
      <g>
       <use style="stroke:#000000;stroke-width:0.8;" x="338.967547" xlink:href="#m826758ff54" y="247.2"/>
      </g>
     </g>
     <g id="text_5">
      <!-- 200 -->
      <g transform="translate(329.423797 261.798438)scale(0.1 -0.1)">
       <defs>
        <path d="M 19.1875 8.296875 
L 53.609375 8.296875 
L 53.609375 0 
L 7.328125 0 
L 7.328125 8.296875 
Q 12.9375 14.109375 22.625 23.890625 
Q 32.328125 33.6875 34.8125 36.53125 
Q 39.546875 41.84375 41.421875 45.53125 
Q 43.3125 49.21875 43.3125 52.78125 
Q 43.3125 58.59375 39.234375 62.25 
Q 35.15625 65.921875 28.609375 65.921875 
Q 23.96875 65.921875 18.8125 64.3125 
Q 13.671875 62.703125 7.8125 59.421875 
L 7.8125 69.390625 
Q 13.765625 71.78125 18.9375 73 
Q 24.125 74.21875 28.421875 74.21875 
Q 39.75 74.21875 46.484375 68.546875 
Q 53.21875 62.890625 53.21875 53.421875 
Q 53.21875 48.921875 51.53125 44.890625 
Q 49.859375 40.875 45.40625 35.40625 
Q 44.1875 33.984375 37.640625 27.21875 
Q 31.109375 20.453125 19.1875 8.296875 
z
" id="DejaVuSans-50"/>
       </defs>
       <use xlink:href="#DejaVuSans-50"/>
       <use x="63.623047" xlink:href="#DejaVuSans-48"/>
       <use x="127.246094" xlink:href="#DejaVuSans-48"/>
      </g>
     </g>
    </g>
    <g id="xtick_6">
     <g id="line2d_6">
      <g>
       <use style="stroke:#000000;stroke-width:0.8;" x="404.753509" xlink:href="#m826758ff54" y="247.2"/>
      </g>
     </g>
     <g id="text_6">
      <!-- 250 -->
      <g transform="translate(395.209759 261.798438)scale(0.1 -0.1)">
       <use xlink:href="#DejaVuSans-50"/>
       <use x="63.623047" xlink:href="#DejaVuSans-53"/>
       <use x="127.246094" xlink:href="#DejaVuSans-48"/>
      </g>
     </g>
    </g>
    <g id="text_7">
     <!-- frequency (Hz) -->
     <g transform="translate(203.337041 275.476562)scale(0.1 -0.1)">
      <defs>
       <path d="M 37.109375 75.984375 
L 37.109375 68.5 
L 28.515625 68.5 
Q 23.6875 68.5 21.796875 66.546875 
Q 19.921875 64.59375 19.921875 59.515625 
L 19.921875 54.6875 
L 34.71875 54.6875 
L 34.71875 47.703125 
L 19.921875 47.703125 
L 19.921875 0 
L 10.890625 0 
L 10.890625 47.703125 
L 2.296875 47.703125 
L 2.296875 54.6875 
L 10.890625 54.6875 
L 10.890625 58.5 
Q 10.890625 67.625 15.140625 71.796875 
Q 19.390625 75.984375 28.609375 75.984375 
z
" id="DejaVuSans-102"/>
       <path d="M 41.109375 46.296875 
Q 39.59375 47.171875 37.8125 47.578125 
Q 36.03125 48 33.890625 48 
Q 26.265625 48 22.1875 43.046875 
Q 18.109375 38.09375 18.109375 28.8125 
L 18.109375 0 
L 9.078125 0 
L 9.078125 54.6875 
L 18.109375 54.6875 
L 18.109375 46.1875 
Q 20.953125 51.171875 25.484375 53.578125 
Q 30.03125 56 36.53125 56 
Q 37.453125 56 38.578125 55.875 
Q 39.703125 55.765625 41.0625 55.515625 
z
" id="DejaVuSans-114"/>
       <path d="M 56.203125 29.59375 
L 56.203125 25.203125 
L 14.890625 25.203125 
Q 15.484375 15.921875 20.484375 11.0625 
Q 25.484375 6.203125 34.421875 6.203125 
Q 39.59375 6.203125 44.453125 7.46875 
Q 49.3125 8.734375 54.109375 11.28125 
L 54.109375 2.78125 
Q 49.265625 0.734375 44.1875 -0.34375 
Q 39.109375 -1.421875 33.890625 -1.421875 
Q 20.796875 -1.421875 13.15625 6.1875 
Q 5.515625 13.8125 5.515625 26.8125 
Q 5.515625 40.234375 12.765625 48.109375 
Q 20.015625 56 32.328125 56 
Q 43.359375 56 49.78125 48.890625 
Q 56.203125 41.796875 56.203125 29.59375 
z
M 47.21875 32.234375 
Q 47.125 39.59375 43.09375 43.984375 
Q 39.0625 48.390625 32.421875 48.390625 
Q 24.90625 48.390625 20.390625 44.140625 
Q 15.875 39.890625 15.1875 32.171875 
z
" id="DejaVuSans-101"/>
       <path d="M 14.796875 27.296875 
Q 14.796875 17.390625 18.875 11.75 
Q 22.953125 6.109375 30.078125 6.109375 
Q 37.203125 6.109375 41.296875 11.75 
Q 45.40625 17.390625 45.40625 27.296875 
Q 45.40625 37.203125 41.296875 42.84375 
Q 37.203125 48.484375 30.078125 48.484375 
Q 22.953125 48.484375 18.875 42.84375 
Q 14.796875 37.203125 14.796875 27.296875 
z
M 45.40625 8.203125 
Q 42.578125 3.328125 38.25 0.953125 
Q 33.9375 -1.421875 27.875 -1.421875 
Q 17.96875 -1.421875 11.734375 6.484375 
Q 5.515625 14.40625 5.515625 27.296875 
Q 5.515625 40.1875 11.734375 48.09375 
Q 17.96875 56 27.875 56 
Q 33.9375 56 38.25 53.625 
Q 42.578125 51.265625 45.40625 46.390625 
L 45.40625 54.6875 
L 54.390625 54.6875 
L 54.390625 -20.796875 
L 45.40625 -20.796875 
z
" id="DejaVuSans-113"/>
       <path d="M 8.5 21.578125 
L 8.5 54.6875 
L 17.484375 54.6875 
L 17.484375 21.921875 
Q 17.484375 14.15625 20.5 10.265625 
Q 23.53125 6.390625 29.59375 6.390625 
Q 36.859375 6.390625 41.078125 11.03125 
Q 45.3125 15.671875 45.3125 23.6875 
L 45.3125 54.6875 
L 54.296875 54.6875 
L 54.296875 0 
L 45.3125 0 
L 45.3125 8.40625 
Q 42.046875 3.421875 37.71875 1 
Q 33.40625 -1.421875 27.6875 -1.421875 
Q 18.265625 -1.421875 13.375 4.4375 
Q 8.5 10.296875 8.5 21.578125 
z
M 31.109375 56 
z
" id="DejaVuSans-117"/>
       <path d="M 54.890625 33.015625 
L 54.890625 0 
L 45.90625 0 
L 45.90625 32.71875 
Q 45.90625 40.484375 42.875 44.328125 
Q 39.84375 48.1875 33.796875 48.1875 
Q 26.515625 48.1875 22.3125 43.546875 
Q 18.109375 38.921875 18.109375 30.90625 
L 18.109375 0 
L 9.078125 0 
L 9.078125 54.6875 
L 18.109375 54.6875 
L 18.109375 46.1875 
Q 21.34375 51.125 25.703125 53.5625 
Q 30.078125 56 35.796875 56 
Q 45.21875 56 50.046875 50.171875 
Q 54.890625 44.34375 54.890625 33.015625 
z
" id="DejaVuSans-110"/>
       <path d="M 48.78125 52.59375 
L 48.78125 44.1875 
Q 44.96875 46.296875 41.140625 47.34375 
Q 37.3125 48.390625 33.40625 48.390625 
Q 24.65625 48.390625 19.8125 42.84375 
Q 14.984375 37.3125 14.984375 27.296875 
Q 14.984375 17.28125 19.8125 11.734375 
Q 24.65625 6.203125 33.40625 6.203125 
Q 37.3125 6.203125 41.140625 7.25 
Q 44.96875 8.296875 48.78125 10.40625 
L 48.78125 2.09375 
Q 45.015625 0.34375 40.984375 -0.53125 
Q 36.96875 -1.421875 32.421875 -1.421875 
Q 20.0625 -1.421875 12.78125 6.34375 
Q 5.515625 14.109375 5.515625 27.296875 
Q 5.515625 40.671875 12.859375 48.328125 
Q 20.21875 56 33.015625 56 
Q 37.15625 56 41.109375 55.140625 
Q 45.0625 54.296875 48.78125 52.59375 
z
" id="DejaVuSans-99"/>
       <path d="M 32.171875 -5.078125 
Q 28.375 -14.84375 24.75 -17.8125 
Q 21.140625 -20.796875 15.09375 -20.796875 
L 7.90625 -20.796875 
L 7.90625 -13.28125 
L 13.1875 -13.28125 
Q 16.890625 -13.28125 18.9375 -11.515625 
Q 21 -9.765625 23.484375 -3.21875 
L 25.09375 0.875 
L 2.984375 54.6875 
L 12.5 54.6875 
L 29.59375 11.921875 
L 46.6875 54.6875 
L 56.203125 54.6875 
z
" id="DejaVuSans-121"/>
       <path id="DejaVuSans-32"/>
       <path d="M 31 75.875 
Q 24.46875 64.65625 21.28125 53.65625 
Q 18.109375 42.671875 18.109375 31.390625 
Q 18.109375 20.125 21.3125 9.0625 
Q 24.515625 -2 31 -13.1875 
L 23.1875 -13.1875 
Q 15.875 -1.703125 12.234375 9.375 
Q 8.59375 20.453125 8.59375 31.390625 
Q 8.59375 42.28125 12.203125 53.3125 
Q 15.828125 64.359375 23.1875 75.875 
z
" id="DejaVuSans-40"/>
       <path d="M 9.8125 72.90625 
L 19.671875 72.90625 
L 19.671875 43.015625 
L 55.515625 43.015625 
L 55.515625 72.90625 
L 65.375 72.90625 
L 65.375 0 
L 55.515625 0 
L 55.515625 34.71875 
L 19.671875 34.71875 
L 19.671875 0 
L 9.8125 0 
z
" id="DejaVuSans-72"/>
       <path d="M 5.515625 54.6875 
L 48.1875 54.6875 
L 48.1875 46.484375 
L 14.40625 7.171875 
L 48.1875 7.171875 
L 48.1875 0 
L 4.296875 0 
L 4.296875 8.203125 
L 38.09375 47.515625 
L 5.515625 47.515625 
z
" id="DejaVuSans-122"/>
       <path d="M 8.015625 75.875 
L 15.828125 75.875 
Q 23.140625 64.359375 26.78125 53.3125 
Q 30.421875 42.28125 30.421875 31.390625 
Q 30.421875 20.453125 26.78125 9.375 
Q 23.140625 -1.703125 15.828125 -13.1875 
L 8.015625 -13.1875 
Q 14.5 -2 17.703125 9.0625 
Q 20.90625 20.125 20.90625 31.390625 
Q 20.90625 42.671875 17.703125 53.65625 
Q 14.5 64.65625 8.015625 75.875 
z
" id="DejaVuSans-41"/>
      </defs>
      <use xlink:href="#DejaVuSans-102"/>
      <use x="35.205078" xlink:href="#DejaVuSans-114"/>
      <use x="74.068359" xlink:href="#DejaVuSans-101"/>
      <use x="135.591797" xlink:href="#DejaVuSans-113"/>
      <use x="199.068359" xlink:href="#DejaVuSans-117"/>
      <use x="262.447266" xlink:href="#DejaVuSans-101"/>
      <use x="323.970703" xlink:href="#DejaVuSans-110"/>
      <use x="387.349609" xlink:href="#DejaVuSans-99"/>
      <use x="442.330078" xlink:href="#DejaVuSans-121"/>
      <use x="501.509766" xlink:href="#DejaVuSans-32"/>
      <use x="533.296875" xlink:href="#DejaVuSans-40"/>
      <use x="572.310547" xlink:href="#DejaVuSans-72"/>
      <use x="647.505859" xlink:href="#DejaVuSans-122"/>
      <use x="699.996094" xlink:href="#DejaVuSans-41"/>
     </g>
    </g>
   </g>
   <g id="matplotlib.axis_2">
    <g id="ytick_1">
     <g id="line2d_7">
      <defs>
       <path d="M 0 0 
L -3.5 0 
" id="m11464ff317" style="stroke:#000000;stroke-width:0.8;"/>
      </defs>
      <g>
       <use style="stroke:#000000;stroke-width:0.8;" x="59.377207" xlink:href="#m11464ff317" y="239.976962"/>
      </g>
     </g>
     <g id="text_8">
      <!-- $\mathdefault{10^{-10}}$ -->
      <g transform="translate(24.477207 243.77618)scale(0.1 -0.1)">
       <defs>
        <path d="M 10.59375 35.5 
L 73.1875 35.5 
L 73.1875 27.203125 
L 10.59375 27.203125 
z
" id="DejaVuSans-8722"/>
       </defs>
       <use transform="translate(0 0.765625)" xlink:href="#DejaVuSans-49"/>
       <use transform="translate(63.623047 0.765625)" xlink:href="#DejaVuSans-48"/>
       <use transform="translate(128.203125 39.046875)scale(0.7)" xlink:href="#DejaVuSans-8722"/>
       <use transform="translate(186.855469 39.046875)scale(0.7)" xlink:href="#DejaVuSans-49"/>
       <use transform="translate(231.391602 39.046875)scale(0.7)" xlink:href="#DejaVuSans-48"/>
      </g>
     </g>
    </g>
    <g id="ytick_2">
     <g id="line2d_8">
      <g>
       <use style="stroke:#000000;stroke-width:0.8;" x="59.377207" xlink:href="#m11464ff317" y="207.657887"/>
      </g>
     </g>
     <g id="text_9">
      <!-- $\mathdefault{10^{-9}}$ -->
      <g transform="translate(28.877207 211.457106)scale(0.1 -0.1)">
       <defs>
        <path d="M 10.984375 1.515625 
L 10.984375 10.5 
Q 14.703125 8.734375 18.5 7.8125 
Q 22.3125 6.890625 25.984375 6.890625 
Q 35.75 6.890625 40.890625 13.453125 
Q 46.046875 20.015625 46.78125 33.40625 
Q 43.953125 29.203125 39.59375 26.953125 
Q 35.25 24.703125 29.984375 24.703125 
Q 19.046875 24.703125 12.671875 31.3125 
Q 6.296875 37.9375 6.296875 49.421875 
Q 6.296875 60.640625 12.9375 67.421875 
Q 19.578125 74.21875 30.609375 74.21875 
Q 43.265625 74.21875 49.921875 64.515625 
Q 56.59375 54.828125 56.59375 36.375 
Q 56.59375 19.140625 48.40625 8.859375 
Q 40.234375 -1.421875 26.421875 -1.421875 
Q 22.703125 -1.421875 18.890625 -0.6875 
Q 15.09375 0.046875 10.984375 1.515625 
z
M 30.609375 32.421875 
Q 37.25 32.421875 41.125 36.953125 
Q 45.015625 41.5 45.015625 49.421875 
Q 45.015625 57.28125 41.125 61.84375 
Q 37.25 66.40625 30.609375 66.40625 
Q 23.96875 66.40625 20.09375 61.84375 
Q 16.21875 57.28125 16.21875 49.421875 
Q 16.21875 41.5 20.09375 36.953125 
Q 23.96875 32.421875 30.609375 32.421875 
z
" id="DejaVuSans-57"/>
       </defs>
       <use transform="translate(0 0.765625)" xlink:href="#DejaVuSans-49"/>
       <use transform="translate(63.623047 0.765625)" xlink:href="#DejaVuSans-48"/>
       <use transform="translate(128.203125 39.046875)scale(0.7)" xlink:href="#DejaVuSans-8722"/>
       <use transform="translate(186.855469 39.046875)scale(0.7)" xlink:href="#DejaVuSans-57"/>
      </g>
     </g>
    </g>
    <g id="ytick_3">
     <g id="line2d_9">
      <g>
       <use style="stroke:#000000;stroke-width:0.8;" x="59.377207" xlink:href="#m11464ff317" y="175.338813"/>
      </g>
     </g>
     <g id="text_10">
      <!-- $\mathdefault{10^{-8}}$ -->
      <g transform="translate(28.877207 179.138031)scale(0.1 -0.1)">
       <defs>
        <path d="M 31.78125 34.625 
Q 24.75 34.625 20.71875 30.859375 
Q 16.703125 27.09375 16.703125 20.515625 
Q 16.703125 13.921875 20.71875 10.15625 
Q 24.75 6.390625 31.78125 6.390625 
Q 38.8125 6.390625 42.859375 10.171875 
Q 46.921875 13.96875 46.921875 20.515625 
Q 46.921875 27.09375 42.890625 30.859375 
Q 38.875 34.625 31.78125 34.625 
z
M 21.921875 38.8125 
Q 15.578125 40.375 12.03125 44.71875 
Q 8.5 49.078125 8.5 55.328125 
Q 8.5 64.0625 14.71875 69.140625 
Q 20.953125 74.21875 31.78125 74.21875 
Q 42.671875 74.21875 48.875 69.140625 
Q 55.078125 64.0625 55.078125 55.328125 
Q 55.078125 49.078125 51.53125 44.71875 
Q 48 40.375 41.703125 38.8125 
Q 48.828125 37.15625 52.796875 32.3125 
Q 56.78125 27.484375 56.78125 20.515625 
Q 56.78125 9.90625 50.3125 4.234375 
Q 43.84375 -1.421875 31.78125 -1.421875 
Q 19.734375 -1.421875 13.25 4.234375 
Q 6.78125 9.90625 6.78125 20.515625 
Q 6.78125 27.484375 10.78125 32.3125 
Q 14.796875 37.15625 21.921875 38.8125 
z
M 18.3125 54.390625 
Q 18.3125 48.734375 21.84375 45.5625 
Q 25.390625 42.390625 31.78125 42.390625 
Q 38.140625 42.390625 41.71875 45.5625 
Q 45.3125 48.734375 45.3125 54.390625 
Q 45.3125 60.0625 41.71875 63.234375 
Q 38.140625 66.40625 31.78125 66.40625 
Q 25.390625 66.40625 21.84375 63.234375 
Q 18.3125 60.0625 18.3125 54.390625 
z
" id="DejaVuSans-56"/>
       </defs>
       <use transform="translate(0 0.765625)" xlink:href="#DejaVuSans-49"/>
       <use transform="translate(63.623047 0.765625)" xlink:href="#DejaVuSans-48"/>
       <use transform="translate(128.203125 39.046875)scale(0.7)" xlink:href="#DejaVuSans-8722"/>
       <use transform="translate(186.855469 39.046875)scale(0.7)" xlink:href="#DejaVuSans-56"/>
      </g>
     </g>
    </g>
    <g id="ytick_4">
     <g id="line2d_10">
      <g>
       <use style="stroke:#000000;stroke-width:0.8;" x="59.377207" xlink:href="#m11464ff317" y="143.019738"/>
      </g>
     </g>
     <g id="text_11">
      <!-- $\mathdefault{10^{-7}}$ -->
      <g transform="translate(28.877207 146.818957)scale(0.1 -0.1)">
       <defs>
        <path d="M 8.203125 72.90625 
L 55.078125 72.90625 
L 55.078125 68.703125 
L 28.609375 0 
L 18.3125 0 
L 43.21875 64.59375 
L 8.203125 64.59375 
z
" id="DejaVuSans-55"/>
       </defs>
       <use transform="translate(0 0.684375)" xlink:href="#DejaVuSans-49"/>
       <use transform="translate(63.623047 0.684375)" xlink:href="#DejaVuSans-48"/>
       <use transform="translate(128.203125 38.965625)scale(0.7)" xlink:href="#DejaVuSans-8722"/>
       <use transform="translate(186.855469 38.965625)scale(0.7)" xlink:href="#DejaVuSans-55"/>
      </g>
     </g>
    </g>
    <g id="ytick_5">
     <g id="line2d_11">
      <g>
       <use style="stroke:#000000;stroke-width:0.8;" x="59.377207" xlink:href="#m11464ff317" y="110.700664"/>
      </g>
     </g>
     <g id="text_12">
      <!-- $\mathdefault{10^{-6}}$ -->
      <g transform="translate(28.877207 114.499882)scale(0.1 -0.1)">
       <defs>
        <path d="M 33.015625 40.375 
Q 26.375 40.375 22.484375 35.828125 
Q 18.609375 31.296875 18.609375 23.390625 
Q 18.609375 15.53125 22.484375 10.953125 
Q 26.375 6.390625 33.015625 6.390625 
Q 39.65625 6.390625 43.53125 10.953125 
Q 47.40625 15.53125 47.40625 23.390625 
Q 47.40625 31.296875 43.53125 35.828125 
Q 39.65625 40.375 33.015625 40.375 
z
M 52.59375 71.296875 
L 52.59375 62.3125 
Q 48.875 64.0625 45.09375 64.984375 
Q 41.3125 65.921875 37.59375 65.921875 
Q 27.828125 65.921875 22.671875 59.328125 
Q 17.53125 52.734375 16.796875 39.40625 
Q 19.671875 43.65625 24.015625 45.921875 
Q 28.375 48.1875 33.59375 48.1875 
Q 44.578125 48.1875 50.953125 41.515625 
Q 57.328125 34.859375 57.328125 23.390625 
Q 57.328125 12.15625 50.6875 5.359375 
Q 44.046875 -1.421875 33.015625 -1.421875 
Q 20.359375 -1.421875 13.671875 8.265625 
Q 6.984375 17.96875 6.984375 36.375 
Q 6.984375 53.65625 15.1875 63.9375 
Q 23.390625 74.21875 37.203125 74.21875 
Q 40.921875 74.21875 44.703125 73.484375 
Q 48.484375 72.75 52.59375 71.296875 
z
" id="DejaVuSans-54"/>
       </defs>
       <use transform="translate(0 0.765625)" xlink:href="#DejaVuSans-49"/>
       <use transform="translate(63.623047 0.765625)" xlink:href="#DejaVuSans-48"/>
       <use transform="translate(128.203125 39.046875)scale(0.7)" xlink:href="#DejaVuSans-8722"/>
       <use transform="translate(186.855469 39.046875)scale(0.7)" xlink:href="#DejaVuSans-54"/>
      </g>
     </g>
    </g>
    <g id="ytick_6">
     <g id="line2d_12">
      <g>
       <use style="stroke:#000000;stroke-width:0.8;" x="59.377207" xlink:href="#m11464ff317" y="78.381589"/>
      </g>
     </g>
     <g id="text_13">
      <!-- $\mathdefault{10^{-5}}$ -->
      <g transform="translate(28.877207 82.180808)scale(0.1 -0.1)">
       <use transform="translate(0 0.684375)" xlink:href="#DejaVuSans-49"/>
       <use transform="translate(63.623047 0.684375)" xlink:href="#DejaVuSans-48"/>
       <use transform="translate(128.203125 38.965625)scale(0.7)" xlink:href="#DejaVuSans-8722"/>
       <use transform="translate(186.855469 38.965625)scale(0.7)" xlink:href="#DejaVuSans-53"/>
      </g>
     </g>
    </g>
    <g id="ytick_7">
     <g id="line2d_13">
      <defs>
       <path d="M 0 0 
L -2 0 
" id="mda8e70c03d" style="stroke:#000000;stroke-width:0.6;"/>
      </defs>
      <g>
       <use style="stroke:#000000;stroke-width:0.6;" x="59.377207" xlink:href="#mda8e70c03d" y="247.146908"/>
      </g>
     </g>
    </g>
    <g id="ytick_8">
     <g id="line2d_14">
      <g>
       <use style="stroke:#000000;stroke-width:0.6;" x="59.377207" xlink:href="#mda8e70c03d" y="244.98325"/>
      </g>
     </g>
    </g>
    <g id="ytick_9">
     <g id="line2d_15">
      <g>
       <use style="stroke:#000000;stroke-width:0.6;" x="59.377207" xlink:href="#mda8e70c03d" y="243.109004"/>
      </g>
     </g>
    </g>
    <g id="ytick_10">
     <g id="line2d_16">
      <g>
       <use style="stroke:#000000;stroke-width:0.6;" x="59.377207" xlink:href="#mda8e70c03d" y="241.455801"/>
      </g>
     </g>
    </g>
    <g id="ytick_11">
     <g id="line2d_17">
      <g>
       <use style="stroke:#000000;stroke-width:0.6;" x="59.377207" xlink:href="#mda8e70c03d" y="230.247951"/>
      </g>
     </g>
    </g>
    <g id="ytick_12">
     <g id="line2d_18">
      <g>
       <use style="stroke:#000000;stroke-width:0.6;" x="59.377207" xlink:href="#mda8e70c03d" y="224.556844"/>
      </g>
     </g>
    </g>
    <g id="ytick_13">
     <g id="line2d_19">
      <g>
       <use style="stroke:#000000;stroke-width:0.6;" x="59.377207" xlink:href="#mda8e70c03d" y="220.51894"/>
      </g>
     </g>
    </g>
    <g id="ytick_14">
     <g id="line2d_20">
      <g>
       <use style="stroke:#000000;stroke-width:0.6;" x="59.377207" xlink:href="#mda8e70c03d" y="217.386898"/>
      </g>
     </g>
    </g>
    <g id="ytick_15">
     <g id="line2d_21">
      <g>
       <use style="stroke:#000000;stroke-width:0.6;" x="59.377207" xlink:href="#mda8e70c03d" y="214.827833"/>
      </g>
     </g>
    </g>
    <g id="ytick_16">
     <g id="line2d_22">
      <g>
       <use style="stroke:#000000;stroke-width:0.6;" x="59.377207" xlink:href="#mda8e70c03d" y="212.664175"/>
      </g>
     </g>
    </g>
    <g id="ytick_17">
     <g id="line2d_23">
      <g>
       <use style="stroke:#000000;stroke-width:0.6;" x="59.377207" xlink:href="#mda8e70c03d" y="210.789929"/>
      </g>
     </g>
    </g>
    <g id="ytick_18">
     <g id="line2d_24">
      <g>
       <use style="stroke:#000000;stroke-width:0.6;" x="59.377207" xlink:href="#mda8e70c03d" y="209.136727"/>
      </g>
     </g>
    </g>
    <g id="ytick_19">
     <g id="line2d_25">
      <g>
       <use style="stroke:#000000;stroke-width:0.6;" x="59.377207" xlink:href="#mda8e70c03d" y="197.928876"/>
      </g>
     </g>
    </g>
    <g id="ytick_20">
     <g id="line2d_26">
      <g>
       <use style="stroke:#000000;stroke-width:0.6;" x="59.377207" xlink:href="#mda8e70c03d" y="192.23777"/>
      </g>
     </g>
    </g>
    <g id="ytick_21">
     <g id="line2d_27">
      <g>
       <use style="stroke:#000000;stroke-width:0.6;" x="59.377207" xlink:href="#mda8e70c03d" y="188.199865"/>
      </g>
     </g>
    </g>
    <g id="ytick_22">
     <g id="line2d_28">
      <g>
       <use style="stroke:#000000;stroke-width:0.6;" x="59.377207" xlink:href="#mda8e70c03d" y="185.067824"/>
      </g>
     </g>
    </g>
    <g id="ytick_23">
     <g id="line2d_29">
      <g>
       <use style="stroke:#000000;stroke-width:0.6;" x="59.377207" xlink:href="#mda8e70c03d" y="182.508759"/>
      </g>
     </g>
    </g>
    <g id="ytick_24">
     <g id="line2d_30">
      <g>
       <use style="stroke:#000000;stroke-width:0.6;" x="59.377207" xlink:href="#mda8e70c03d" y="180.345101"/>
      </g>
     </g>
    </g>
    <g id="ytick_25">
     <g id="line2d_31">
      <g>
       <use style="stroke:#000000;stroke-width:0.6;" x="59.377207" xlink:href="#mda8e70c03d" y="178.470855"/>
      </g>
     </g>
    </g>
    <g id="ytick_26">
     <g id="line2d_32">
      <g>
       <use style="stroke:#000000;stroke-width:0.6;" x="59.377207" xlink:href="#mda8e70c03d" y="176.817652"/>
      </g>
     </g>
    </g>
    <g id="ytick_27">
     <g id="line2d_33">
      <g>
       <use style="stroke:#000000;stroke-width:0.6;" x="59.377207" xlink:href="#mda8e70c03d" y="165.609802"/>
      </g>
     </g>
    </g>
    <g id="ytick_28">
     <g id="line2d_34">
      <g>
       <use style="stroke:#000000;stroke-width:0.6;" x="59.377207" xlink:href="#mda8e70c03d" y="159.918695"/>
      </g>
     </g>
    </g>
    <g id="ytick_29">
     <g id="line2d_35">
      <g>
       <use style="stroke:#000000;stroke-width:0.6;" x="59.377207" xlink:href="#mda8e70c03d" y="155.880791"/>
      </g>
     </g>
    </g>
    <g id="ytick_30">
     <g id="line2d_36">
      <g>
       <use style="stroke:#000000;stroke-width:0.6;" x="59.377207" xlink:href="#mda8e70c03d" y="152.748749"/>
      </g>
     </g>
    </g>
    <g id="ytick_31">
     <g id="line2d_37">
      <g>
       <use style="stroke:#000000;stroke-width:0.6;" x="59.377207" xlink:href="#mda8e70c03d" y="150.189684"/>
      </g>
     </g>
    </g>
    <g id="ytick_32">
     <g id="line2d_38">
      <g>
       <use style="stroke:#000000;stroke-width:0.6;" x="59.377207" xlink:href="#mda8e70c03d" y="148.026026"/>
      </g>
     </g>
    </g>
    <g id="ytick_33">
     <g id="line2d_39">
      <g>
       <use style="stroke:#000000;stroke-width:0.6;" x="59.377207" xlink:href="#mda8e70c03d" y="146.15178"/>
      </g>
     </g>
    </g>
    <g id="ytick_34">
     <g id="line2d_40">
      <g>
       <use style="stroke:#000000;stroke-width:0.6;" x="59.377207" xlink:href="#mda8e70c03d" y="144.498578"/>
      </g>
     </g>
    </g>
    <g id="ytick_35">
     <g id="line2d_41">
      <g>
       <use style="stroke:#000000;stroke-width:0.6;" x="59.377207" xlink:href="#mda8e70c03d" y="133.290727"/>
      </g>
     </g>
    </g>
    <g id="ytick_36">
     <g id="line2d_42">
      <g>
       <use style="stroke:#000000;stroke-width:0.6;" x="59.377207" xlink:href="#mda8e70c03d" y="127.599621"/>
      </g>
     </g>
    </g>
    <g id="ytick_37">
     <g id="line2d_43">
      <g>
       <use style="stroke:#000000;stroke-width:0.6;" x="59.377207" xlink:href="#mda8e70c03d" y="123.561716"/>
      </g>
     </g>
    </g>
    <g id="ytick_38">
     <g id="line2d_44">
      <g>
       <use style="stroke:#000000;stroke-width:0.6;" x="59.377207" xlink:href="#mda8e70c03d" y="120.429674"/>
      </g>
     </g>
    </g>
    <g id="ytick_39">
     <g id="line2d_45">
      <g>
       <use style="stroke:#000000;stroke-width:0.6;" x="59.377207" xlink:href="#mda8e70c03d" y="117.87061"/>
      </g>
     </g>
    </g>
    <g id="ytick_40">
     <g id="line2d_46">
      <g>
       <use style="stroke:#000000;stroke-width:0.6;" x="59.377207" xlink:href="#mda8e70c03d" y="115.706952"/>
      </g>
     </g>
    </g>
    <g id="ytick_41">
     <g id="line2d_47">
      <g>
       <use style="stroke:#000000;stroke-width:0.6;" x="59.377207" xlink:href="#mda8e70c03d" y="113.832706"/>
      </g>
     </g>
    </g>
    <g id="ytick_42">
     <g id="line2d_48">
      <g>
       <use style="stroke:#000000;stroke-width:0.6;" x="59.377207" xlink:href="#mda8e70c03d" y="112.179503"/>
      </g>
     </g>
    </g>
    <g id="ytick_43">
     <g id="line2d_49">
      <g>
       <use style="stroke:#000000;stroke-width:0.6;" x="59.377207" xlink:href="#mda8e70c03d" y="100.971653"/>
      </g>
     </g>
    </g>
    <g id="ytick_44">
     <g id="line2d_50">
      <g>
       <use style="stroke:#000000;stroke-width:0.6;" x="59.377207" xlink:href="#mda8e70c03d" y="95.280546"/>
      </g>
     </g>
    </g>
    <g id="ytick_45">
     <g id="line2d_51">
      <g>
       <use style="stroke:#000000;stroke-width:0.6;" x="59.377207" xlink:href="#mda8e70c03d" y="91.242642"/>
      </g>
     </g>
    </g>
    <g id="ytick_46">
     <g id="line2d_52">
      <g>
       <use style="stroke:#000000;stroke-width:0.6;" x="59.377207" xlink:href="#mda8e70c03d" y="88.1106"/>
      </g>
     </g>
    </g>
    <g id="ytick_47">
     <g id="line2d_53">
      <g>
       <use style="stroke:#000000;stroke-width:0.6;" x="59.377207" xlink:href="#mda8e70c03d" y="85.551535"/>
      </g>
     </g>
    </g>
    <g id="ytick_48">
     <g id="line2d_54">
      <g>
       <use style="stroke:#000000;stroke-width:0.6;" x="59.377207" xlink:href="#mda8e70c03d" y="83.387877"/>
      </g>
     </g>
    </g>
    <g id="ytick_49">
     <g id="line2d_55">
      <g>
       <use style="stroke:#000000;stroke-width:0.6;" x="59.377207" xlink:href="#mda8e70c03d" y="81.513631"/>
      </g>
     </g>
    </g>
    <g id="ytick_50">
     <g id="line2d_56">
      <g>
       <use style="stroke:#000000;stroke-width:0.6;" x="59.377207" xlink:href="#mda8e70c03d" y="79.860429"/>
      </g>
     </g>
    </g>
    <g id="ytick_51">
     <g id="line2d_57">
      <g>
       <use style="stroke:#000000;stroke-width:0.6;" x="59.377207" xlink:href="#mda8e70c03d" y="68.652578"/>
      </g>
     </g>
    </g>
    <g id="ytick_52">
     <g id="line2d_58">
      <g>
       <use style="stroke:#000000;stroke-width:0.6;" x="59.377207" xlink:href="#mda8e70c03d" y="62.961472"/>
      </g>
     </g>
    </g>
    <g id="ytick_53">
     <g id="line2d_59">
      <g>
       <use style="stroke:#000000;stroke-width:0.6;" x="59.377207" xlink:href="#mda8e70c03d" y="58.923567"/>
      </g>
     </g>
    </g>
    <g id="ytick_54">
     <g id="line2d_60">
      <g>
       <use style="stroke:#000000;stroke-width:0.6;" x="59.377207" xlink:href="#mda8e70c03d" y="55.791525"/>
      </g>
     </g>
    </g>
    <g id="text_14">
     <!-- PSD (mV**2/Hz) -->
     <g transform="translate(18.39752 190.720313)rotate(-90)scale(0.1 -0.1)">
      <defs>
       <path d="M 19.671875 64.796875 
L 19.671875 37.40625 
L 32.078125 37.40625 
Q 38.96875 37.40625 42.71875 40.96875 
Q 46.484375 44.53125 46.484375 51.125 
Q 46.484375 57.671875 42.71875 61.234375 
Q 38.96875 64.796875 32.078125 64.796875 
z
M 9.8125 72.90625 
L 32.078125 72.90625 
Q 44.34375 72.90625 50.609375 67.359375 
Q 56.890625 61.8125 56.890625 51.125 
Q 56.890625 40.328125 50.609375 34.8125 
Q 44.34375 29.296875 32.078125 29.296875 
L 19.671875 29.296875 
L 19.671875 0 
L 9.8125 0 
z
" id="DejaVuSans-80"/>
       <path d="M 53.515625 70.515625 
L 53.515625 60.890625 
Q 47.90625 63.578125 42.921875 64.890625 
Q 37.9375 66.21875 33.296875 66.21875 
Q 25.25 66.21875 20.875 63.09375 
Q 16.5 59.96875 16.5 54.203125 
Q 16.5 49.359375 19.40625 46.890625 
Q 22.3125 44.4375 30.421875 42.921875 
L 36.375 41.703125 
Q 47.40625 39.59375 52.65625 34.296875 
Q 57.90625 29 57.90625 20.125 
Q 57.90625 9.515625 50.796875 4.046875 
Q 43.703125 -1.421875 29.984375 -1.421875 
Q 24.8125 -1.421875 18.96875 -0.25 
Q 13.140625 0.921875 6.890625 3.21875 
L 6.890625 13.375 
Q 12.890625 10.015625 18.65625 8.296875 
Q 24.421875 6.59375 29.984375 6.59375 
Q 38.421875 6.59375 43.015625 9.90625 
Q 47.609375 13.234375 47.609375 19.390625 
Q 47.609375 24.75 44.3125 27.78125 
Q 41.015625 30.8125 33.5 32.328125 
L 27.484375 33.5 
Q 16.453125 35.6875 11.515625 40.375 
Q 6.59375 45.0625 6.59375 53.421875 
Q 6.59375 63.09375 13.40625 68.65625 
Q 20.21875 74.21875 32.171875 74.21875 
Q 37.3125 74.21875 42.625 73.28125 
Q 47.953125 72.359375 53.515625 70.515625 
z
" id="DejaVuSans-83"/>
       <path d="M 19.671875 64.796875 
L 19.671875 8.109375 
L 31.59375 8.109375 
Q 46.6875 8.109375 53.6875 14.9375 
Q 60.6875 21.78125 60.6875 36.53125 
Q 60.6875 51.171875 53.6875 57.984375 
Q 46.6875 64.796875 31.59375 64.796875 
z
M 9.8125 72.90625 
L 30.078125 72.90625 
Q 51.265625 72.90625 61.171875 64.09375 
Q 71.09375 55.28125 71.09375 36.53125 
Q 71.09375 17.671875 61.125 8.828125 
Q 51.171875 0 30.078125 0 
L 9.8125 0 
z
" id="DejaVuSans-68"/>
       <path d="M 52 44.1875 
Q 55.375 50.25 60.0625 53.125 
Q 64.75 56 71.09375 56 
Q 79.640625 56 84.28125 50.015625 
Q 88.921875 44.046875 88.921875 33.015625 
L 88.921875 0 
L 79.890625 0 
L 79.890625 32.71875 
Q 79.890625 40.578125 77.09375 44.375 
Q 74.3125 48.1875 68.609375 48.1875 
Q 61.625 48.1875 57.5625 43.546875 
Q 53.515625 38.921875 53.515625 30.90625 
L 53.515625 0 
L 44.484375 0 
L 44.484375 32.71875 
Q 44.484375 40.625 41.703125 44.40625 
Q 38.921875 48.1875 33.109375 48.1875 
Q 26.21875 48.1875 22.15625 43.53125 
Q 18.109375 38.875 18.109375 30.90625 
L 18.109375 0 
L 9.078125 0 
L 9.078125 54.6875 
L 18.109375 54.6875 
L 18.109375 46.1875 
Q 21.1875 51.21875 25.484375 53.609375 
Q 29.78125 56 35.6875 56 
Q 41.65625 56 45.828125 52.96875 
Q 50 49.953125 52 44.1875 
z
" id="DejaVuSans-109"/>
       <path d="M 28.609375 0 
L 0.78125 72.90625 
L 11.078125 72.90625 
L 34.1875 11.53125 
L 57.328125 72.90625 
L 67.578125 72.90625 
L 39.796875 0 
z
" id="DejaVuSans-86"/>
       <path d="M 47.015625 60.890625 
L 29.5 51.421875 
L 47.015625 41.890625 
L 44.1875 37.109375 
L 27.78125 47.015625 
L 27.78125 28.609375 
L 22.21875 28.609375 
L 22.21875 47.015625 
L 5.8125 37.109375 
L 2.984375 41.890625 
L 20.515625 51.421875 
L 2.984375 60.890625 
L 5.8125 65.71875 
L 22.21875 55.8125 
L 22.21875 74.21875 
L 27.78125 74.21875 
L 27.78125 55.8125 
L 44.1875 65.71875 
z
" id="DejaVuSans-42"/>
       <path d="M 25.390625 72.90625 
L 33.6875 72.90625 
L 8.296875 -9.28125 
L 0 -9.28125 
z
" id="DejaVuSans-47"/>
      </defs>
      <use xlink:href="#DejaVuSans-80"/>
      <use x="60.302734" xlink:href="#DejaVuSans-83"/>
      <use x="123.779297" xlink:href="#DejaVuSans-68"/>
      <use x="200.78125" xlink:href="#DejaVuSans-32"/>
      <use x="232.568359" xlink:href="#DejaVuSans-40"/>
      <use x="271.582031" xlink:href="#DejaVuSans-109"/>
      <use x="368.994141" xlink:href="#DejaVuSans-86"/>
      <use x="437.402344" xlink:href="#DejaVuSans-42"/>
      <use x="487.402344" xlink:href="#DejaVuSans-42"/>
      <use x="537.402344" xlink:href="#DejaVuSans-50"/>
      <use x="601.025391" xlink:href="#DejaVuSans-47"/>
      <use x="634.716797" xlink:href="#DejaVuSans-72"/>
      <use x="709.912109" xlink:href="#DejaVuSans-122"/>
      <use x="762.402344" xlink:href="#DejaVuSans-41"/>
     </g>
    </g>
   </g>
   <g id="line2d_61">
    <path clip-path="url(#pef58c66fa1)" d="M 75.823698 106.492795 
L 78.393462 80.163086 
L 80.963226 74.655617 
L 83.53299 75.211305 
L 86.102754 77.166565 
L 88.672518 80.18388 
L 91.242283 82.826534 
L 93.812047 82.68872 
L 96.381811 82.258162 
L 98.951575 81.060941 
L 101.521339 76.995576 
L 104.091103 68.338835 
L 106.660867 62.877273 
L 109.230632 67.600568 
L 111.800396 77.695912 
L 114.37016 82.416041 
L 116.939924 86.724851 
L 119.509688 89.293957 
L 122.079452 90.462407 
L 124.649217 94.19572 
L 127.218981 96.689761 
L 129.788745 97.571257 
L 132.358509 96.349436 
L 134.928273 96.83386 
L 137.498037 99.544944 
L 140.067801 101.543316 
L 142.637566 106.136766 
L 145.20733 105.691917 
L 147.777094 107.780027 
L 150.346858 111.032145 
L 152.916622 113.160061 
L 155.486386 115.015737 
L 158.056151 117.558422 
L 160.625915 118.437007 
L 163.195679 122.12791 
L 165.765443 122.636358 
L 168.335207 125.236253 
L 170.904971 126.712694 
L 173.474735 126.029313 
L 176.0445 126.70606 
L 178.614264 130.557576 
L 181.184028 130.969462 
L 183.753792 133.697901 
L 186.323556 135.191054 
L 188.89332 134.858101 
L 191.463085 135.034578 
L 194.032849 136.837473 
L 196.602613 140.085865 
L 199.172377 138.84661 
L 201.742141 137.848182 
L 204.311905 138.817799 
L 206.88167 139.307982 
L 209.451434 141.194425 
L 212.021198 140.803836 
L 214.590962 141.88445 
L 217.160726 143.88926 
L 222.300254 143.390589 
L 224.870019 145.288167 
L 230.009547 148.64423 
L 232.579311 148.056575 
L 235.149075 147.637406 
L 237.718839 149.016548 
L 240.288604 149.952218 
L 242.858368 148.051788 
L 245.428132 149.981958 
L 247.997896 150.676407 
L 250.56766 151.204887 
L 253.137424 153.650522 
L 255.707188 153.654671 
L 258.276953 154.812905 
L 260.846717 154.123234 
L 263.416481 156.396299 
L 265.986245 158.342856 
L 268.556009 154.845362 
L 271.125773 91.500251 
L 273.695538 68.478431 
L 276.265302 83.151285 
L 278.835066 152.935609 
L 281.40483 160.932346 
L 283.974594 163.28231 
L 286.544358 163.890119 
L 289.114122 162.410451 
L 291.683887 162.902175 
L 294.253651 164.35978 
L 296.823415 163.517919 
L 299.393179 164.314863 
L 301.962943 162.685455 
L 304.532707 162.605576 
L 307.102472 160.245774 
L 309.672236 163.971101 
L 312.242 165.189232 
L 314.811764 167.011318 
L 317.381528 167.187247 
L 319.951292 164.933748 
L 322.521056 165.863122 
L 325.090821 165.517387 
L 327.660585 166.687792 
L 330.230349 166.655613 
L 332.800113 167.149575 
L 335.369877 164.860089 
L 337.939641 162.931177 
L 340.509406 167.550886 
L 343.07917 170.16737 
L 345.648934 170.599211 
L 348.218698 171.427041 
L 358.497755 179.943866 
L 361.067519 183.030541 
L 363.637283 185.289992 
L 366.207047 188.939763 
L 371.346575 195.70003 
L 373.91634 197.380659 
L 381.625632 207.934527 
L 386.76516 212.580844 
L 389.334924 214.891394 
L 391.904689 215.51924 
L 394.474453 217.410374 
L 397.044217 219.059182 
L 399.613981 219.213812 
L 402.183745 221.136317 
L 404.753509 234.544928 
L 404.753509 234.544928 
" style="fill:none;stroke:#1f77b4;stroke-linecap:square;stroke-opacity:0.6;stroke-width:1.5;"/>
   </g>
   <g id="line2d_62">
    <path clip-path="url(#pef58c66fa1)" d="M 75.823698 112.231723 
L 78.393462 82.597657 
L 80.963226 76.916596 
L 83.53299 75.942929 
L 91.242283 82.637923 
L 93.812047 83.961539 
L 96.381811 82.211282 
L 98.951575 80.964847 
L 101.521339 79.487007 
L 104.091103 72.056869 
L 106.660867 66.749213 
L 109.230632 71.568382 
L 111.800396 80.240508 
L 114.37016 85.173521 
L 119.509688 90.977179 
L 122.079452 91.916795 
L 124.649217 94.927122 
L 127.218981 95.625581 
L 129.788745 96.621995 
L 132.358509 99.030709 
L 134.928273 100.071539 
L 137.498037 102.448209 
L 140.067801 103.432472 
L 142.637566 107.159931 
L 145.20733 107.917171 
L 147.777094 110.036889 
L 150.346858 113.045283 
L 152.916622 114.748134 
L 155.486386 115.534672 
L 158.056151 119.407015 
L 160.625915 121.242445 
L 163.195679 122.754485 
L 165.765443 122.639013 
L 168.335207 124.860073 
L 170.904971 125.306924 
L 173.474735 124.39372 
L 176.0445 124.357518 
L 178.614264 129.029193 
L 181.184028 130.007241 
L 183.753792 129.500491 
L 186.323556 132.633888 
L 188.89332 133.647359 
L 191.463085 133.827687 
L 194.032849 135.031882 
L 199.172377 135.828786 
L 201.742141 138.009997 
L 204.311905 137.231223 
L 206.88167 137.521672 
L 209.451434 139.193586 
L 212.021198 141.282102 
L 214.590962 141.379724 
L 217.160726 141.964768 
L 219.73049 144.197993 
L 222.300254 144.695213 
L 224.870019 144.239349 
L 227.439783 144.513078 
L 230.009547 145.10156 
L 232.579311 145.184456 
L 235.149075 147.322393 
L 237.718839 147.215558 
L 240.288604 146.72923 
L 242.858368 148.182497 
L 245.428132 146.582431 
L 247.997896 148.834522 
L 250.56766 151.737209 
L 253.137424 151.161566 
L 255.707188 152.467543 
L 258.276953 154.204251 
L 260.846717 156.171125 
L 263.416481 155.432979 
L 265.986245 156.282388 
L 268.556009 151.192132 
L 271.125773 91.91499 
L 273.695538 68.481537 
L 276.265302 83.022981 
L 278.835066 151.060027 
L 281.40483 158.954878 
L 283.974594 160.840679 
L 286.544358 163.689232 
L 289.114122 164.17189 
L 291.683887 164.416332 
L 294.253651 163.457967 
L 296.823415 164.222169 
L 299.393179 163.942486 
L 301.962943 160.25585 
L 304.532707 159.629668 
L 307.102472 161.195124 
L 309.672236 164.551613 
L 312.242 164.925363 
L 314.811764 164.907245 
L 317.381528 164.313502 
L 319.951292 164.060976 
L 322.521056 165.650214 
L 325.090821 166.718446 
L 327.660585 166.173813 
L 330.230349 163.983052 
L 332.800113 165.0022 
L 335.369877 163.093193 
L 337.939641 159.277659 
L 340.509406 166.656943 
L 343.07917 168.178869 
L 345.648934 170.860018 
L 348.218698 173.316922 
L 350.788462 172.718672 
L 353.358226 174.565023 
L 355.92799 177.451365 
L 358.497755 181.233497 
L 363.637283 185.219406 
L 368.776811 192.706782 
L 371.346575 194.401873 
L 373.91634 196.8487 
L 376.486104 200.539161 
L 379.055868 202.904742 
L 381.625632 205.480358 
L 384.195396 210.016412 
L 386.76516 213.619122 
L 389.334924 214.054769 
L 391.904689 214.692728 
L 394.474453 218.05672 
L 397.044217 218.388407 
L 399.613981 219.027306 
L 402.183745 221.305192 
L 404.753509 238.422727 
L 404.753509 238.422727 
" style="fill:none;stroke:#ff7f0e;stroke-linecap:square;stroke-opacity:0.6;stroke-width:1.5;"/>
   </g>
   <g id="line2d_63">
    <path clip-path="url(#pef58c66fa1)" d="M 75.823698 111.066766 
L 78.393462 81.244058 
L 80.963226 74.892308 
L 83.53299 76.138931 
L 86.102754 77.556635 
L 88.672518 81.392424 
L 91.242283 82.958143 
L 93.812047 82.45962 
L 96.381811 83.984139 
L 98.951575 83.390068 
L 101.521339 82.12878 
L 104.091103 74.6077 
L 106.660867 69.073903 
L 109.230632 72.646959 
L 111.800396 79.16332 
L 114.37016 86.799811 
L 116.939924 90.190666 
L 119.509688 92.416506 
L 122.079452 94.086459 
L 124.649217 94.114321 
L 127.218981 96.034674 
L 129.788745 99.469098 
L 132.358509 101.198069 
L 134.928273 100.685346 
L 137.498037 103.522281 
L 140.067801 104.188642 
L 142.637566 105.503081 
L 145.20733 106.640161 
L 147.777094 108.866624 
L 150.346858 111.9151 
L 152.916622 113.768835 
L 155.486386 116.212698 
L 158.056151 118.071407 
L 160.625915 118.724057 
L 163.195679 122.752122 
L 165.765443 121.413244 
L 168.335207 123.104866 
L 170.904971 124.172307 
L 173.474735 123.993786 
L 176.0445 125.627437 
L 178.614264 126.481214 
L 181.184028 128.259315 
L 183.753792 128.749716 
L 188.89332 131.223436 
L 191.463085 132.913879 
L 194.032849 133.899008 
L 196.602613 134.584339 
L 199.172377 135.817221 
L 201.742141 136.603972 
L 204.311905 136.070919 
L 206.88167 136.379098 
L 209.451434 138.199835 
L 212.021198 138.864963 
L 214.590962 140.716797 
L 217.160726 141.954657 
L 219.73049 141.678699 
L 222.300254 143.364447 
L 224.870019 144.240516 
L 227.439783 144.323326 
L 230.009547 143.181424 
L 232.579311 143.764392 
L 235.149075 146.074302 
L 237.718839 146.629424 
L 240.288604 145.435683 
L 242.858368 146.784891 
L 245.428132 148.841218 
L 247.997896 148.91333 
L 250.56766 150.777519 
L 253.137424 150.820753 
L 255.707188 153.103659 
L 258.276953 154.12049 
L 260.846717 154.423727 
L 263.416481 155.236242 
L 265.986245 157.653376 
L 268.556009 155.218905 
L 271.125773 98.955577 
L 273.695538 74.575703 
L 276.265302 89.570715 
L 278.835066 157.093412 
L 281.40483 160.323351 
L 283.974594 162.786968 
L 286.544358 160.509583 
L 289.114122 161.713809 
L 291.683887 161.358443 
L 294.253651 162.98415 
L 296.823415 162.852592 
L 299.393179 162.326334 
L 301.962943 160.11726 
L 304.532707 161.128092 
L 312.242 164.992455 
L 314.811764 163.634026 
L 317.381528 162.907287 
L 319.951292 165.591761 
L 322.521056 164.698319 
L 325.090821 165.099656 
L 327.660585 165.994148 
L 330.230349 166.357564 
L 332.800113 166.544602 
L 335.369877 167.242492 
L 337.939641 167.026475 
L 340.509406 167.211263 
L 343.07917 167.556498 
L 345.648934 171.111302 
L 348.218698 171.130143 
L 350.788462 172.804545 
L 353.358226 174.043501 
L 355.92799 176.689462 
L 358.497755 180.920057 
L 361.067519 183.069491 
L 368.776811 189.987919 
L 371.346575 194.088788 
L 373.91634 196.287839 
L 376.486104 199.048396 
L 379.055868 202.392279 
L 381.625632 205.371324 
L 384.195396 208.138872 
L 386.76516 210.508753 
L 389.334924 211.841411 
L 394.474453 215.605157 
L 397.044217 217.760612 
L 399.613981 218.413853 
L 402.183745 220.319962 
L 404.753509 234.411908 
L 404.753509 234.411908 
" style="fill:none;stroke:#2ca02c;stroke-linecap:square;stroke-opacity:0.6;stroke-width:1.5;"/>
   </g>
   <g id="line2d_64">
    <path clip-path="url(#pef58c66fa1)" d="M 75.823698 107.578816 
L 78.393462 78.046523 
L 80.963226 74.611248 
L 83.53299 75.463335 
L 86.102754 77.185079 
L 88.672518 83.449447 
L 91.242283 84.741738 
L 93.812047 83.977145 
L 96.381811 87.309488 
L 98.951575 85.3347 
L 101.521339 81.245719 
L 104.091103 73.06056 
L 106.660867 68.216825 
L 109.230632 68.697621 
L 111.800396 78.850099 
L 114.37016 85.689868 
L 119.509688 92.968976 
L 122.079452 93.566213 
L 124.649217 93.901269 
L 127.218981 97.943799 
L 129.788745 98.172205 
L 132.358509 98.253409 
L 134.928273 100.341266 
L 137.498037 101.779339 
L 140.067801 102.806032 
L 142.637566 106.673611 
L 145.20733 106.445276 
L 147.777094 109.547276 
L 150.346858 114.116646 
L 152.916622 115.979087 
L 155.486386 115.493221 
L 158.056151 117.340536 
L 160.625915 120.415234 
L 163.195679 119.946326 
L 165.765443 122.859312 
L 168.335207 124.154155 
L 170.904971 125.583405 
L 173.474735 125.424838 
L 176.0445 125.414522 
L 178.614264 126.860197 
L 181.184028 128.096766 
L 183.753792 130.747782 
L 186.323556 129.664615 
L 188.89332 131.707802 
L 191.463085 132.454741 
L 194.032849 132.197037 
L 196.602613 134.752526 
L 199.172377 135.174617 
L 204.311905 135.532787 
L 206.88167 137.959257 
L 209.451434 138.802013 
L 212.021198 137.532634 
L 214.590962 137.303302 
L 217.160726 140.413304 
L 219.73049 141.984151 
L 222.300254 142.704078 
L 224.870019 141.81978 
L 227.439783 142.579206 
L 230.009547 144.618642 
L 232.579311 146.139465 
L 235.149075 148.219716 
L 237.718839 145.320308 
L 240.288604 144.989352 
L 242.858368 147.855846 
L 245.428132 149.668579 
L 250.56766 150.469424 
L 253.137424 151.969124 
L 255.707188 151.930615 
L 258.276953 152.872628 
L 260.846717 155.327176 
L 263.416481 155.487748 
L 265.986245 156.068783 
L 268.556009 157.000214 
L 271.125773 108.110195 
L 273.695538 86.38588 
L 276.265302 99.615054 
L 278.835066 158.890065 
L 281.40483 159.229869 
L 283.974594 160.462454 
L 286.544358 162.398078 
L 291.683887 163.243795 
L 294.253651 163.017837 
L 296.823415 162.601932 
L 299.393179 164.340604 
L 301.962943 163.744103 
L 304.532707 162.035209 
L 307.102472 161.479788 
L 309.672236 163.867471 
L 312.242 163.788804 
L 314.811764 164.378887 
L 317.381528 165.609513 
L 319.951292 167.099678 
L 322.521056 165.457829 
L 325.090821 166.512608 
L 327.660585 165.004273 
L 330.230349 166.180951 
L 332.800113 163.781321 
L 335.369877 165.649991 
L 337.939641 167.734011 
L 343.07917 169.270462 
L 345.648934 170.503152 
L 348.218698 173.238492 
L 350.788462 172.840572 
L 353.358226 174.59518 
L 355.92799 177.004393 
L 358.497755 180.388233 
L 361.067519 181.393384 
L 363.637283 185.461311 
L 366.207047 186.793475 
L 368.776811 191.226273 
L 371.346575 193.070097 
L 373.91634 196.600861 
L 376.486104 199.490248 
L 379.055868 202.991029 
L 381.625632 205.260451 
L 384.195396 208.94788 
L 386.76516 210.198722 
L 389.334924 211.724508 
L 391.904689 214.075657 
L 394.474453 218.279522 
L 397.044217 218.866 
L 402.183745 218.675652 
L 404.753509 236.573424 
L 404.753509 236.573424 
" style="fill:none;stroke:#d62728;stroke-linecap:square;stroke-opacity:0.6;stroke-width:1.5;"/>
   </g>
   <g id="line2d_65">
    <path clip-path="url(#pef58c66fa1)" d="M 75.823698 107.586295 
L 78.393462 80.125148 
L 80.963226 74.252351 
L 83.53299 74.431626 
L 88.672518 82.358406 
L 91.242283 84.042371 
L 93.812047 86.489146 
L 96.381811 86.022192 
L 98.951575 87.158161 
L 101.521339 83.873634 
L 104.091103 76.727372 
L 106.660867 71.274861 
L 109.230632 69.674361 
L 114.37016 85.063583 
L 116.939924 89.560365 
L 119.509688 89.814823 
L 122.079452 90.265071 
L 124.649217 94.941209 
L 127.218981 97.855287 
L 129.788745 97.21049 
L 132.358509 98.157168 
L 134.928273 100.83987 
L 137.498037 100.820233 
L 140.067801 102.978225 
L 142.637566 104.173098 
L 145.20733 106.954862 
L 147.777094 110.702793 
L 150.346858 113.740268 
L 155.486386 116.025929 
L 158.056151 116.65134 
L 160.625915 117.618767 
L 163.195679 121.023098 
L 165.765443 121.489185 
L 168.335207 123.697215 
L 173.474735 121.940612 
L 176.0445 125.048772 
L 178.614264 126.320956 
L 181.184028 127.949031 
L 186.323556 127.881829 
L 188.89332 129.296244 
L 191.463085 130.165744 
L 194.032849 134.793701 
L 196.602613 134.459555 
L 199.172377 132.983825 
L 201.742141 133.447551 
L 204.311905 135.483212 
L 206.88167 136.457798 
L 209.451434 136.323035 
L 212.021198 138.777206 
L 214.590962 137.651013 
L 217.160726 135.443071 
L 219.73049 138.884721 
L 222.300254 140.996847 
L 224.870019 140.931793 
L 227.439783 139.466619 
L 230.009547 141.403114 
L 232.579311 141.828542 
L 235.149075 142.641792 
L 237.718839 143.660548 
L 240.288604 144.405582 
L 242.858368 145.438295 
L 245.428132 146.263121 
L 247.997896 146.001653 
L 250.56766 147.350378 
L 253.137424 149.074312 
L 255.707188 151.125084 
L 258.276953 151.410514 
L 263.416481 152.581033 
L 265.986245 154.059041 
L 268.556009 156.9582 
L 271.125773 109.842514 
L 273.695538 83.417919 
L 276.265302 99.980703 
L 278.835066 157.086177 
L 281.40483 159.69133 
L 283.974594 159.282173 
L 286.544358 160.144076 
L 289.114122 162.578998 
L 291.683887 161.490187 
L 294.253651 163.132763 
L 296.823415 163.257779 
L 299.393179 162.104835 
L 301.962943 161.571207 
L 304.532707 160.765158 
L 307.102472 160.642218 
L 309.672236 162.590454 
L 312.242 162.44092 
L 314.811764 163.159392 
L 317.381528 164.878029 
L 322.521056 166.218491 
L 325.090821 166.583779 
L 327.660585 165.028464 
L 330.230349 163.794874 
L 332.800113 165.056631 
L 337.939641 165.046206 
L 340.509406 167.945803 
L 343.07917 169.422533 
L 345.648934 167.965178 
L 348.218698 168.687091 
L 353.358226 173.859433 
L 355.92799 175.3662 
L 358.497755 177.551334 
L 361.067519 179.154256 
L 363.637283 182.568861 
L 366.207047 185.665844 
L 368.776811 191.144543 
L 371.346575 191.698946 
L 373.91634 195.099866 
L 376.486104 199.263422 
L 379.055868 200.837754 
L 381.625632 206.697235 
L 384.195396 209.701709 
L 386.76516 210.656791 
L 389.334924 212.265852 
L 391.904689 214.227673 
L 394.474453 216.642646 
L 397.044217 217.746349 
L 399.613981 218.7111 
L 402.183745 219.450837 
L 404.753509 235.911165 
L 404.753509 235.911165 
" style="fill:none;stroke:#9467bd;stroke-linecap:square;stroke-opacity:0.6;stroke-width:1.5;"/>
   </g>
   <g id="line2d_66">
    <path clip-path="url(#pef58c66fa1)" d="M 75.823698 107.880296 
L 78.393462 79.27728 
L 80.963226 73.28128 
L 83.53299 75.296444 
L 86.102754 76.450597 
L 88.672518 81.570384 
L 91.242283 82.639089 
L 93.812047 82.941279 
L 96.381811 84.183527 
L 98.951575 85.001903 
L 101.521339 81.942171 
L 104.091103 71.052819 
L 106.660867 67.529052 
L 109.230632 68.021936 
L 111.800396 77.917631 
L 114.37016 85.000358 
L 116.939924 89.797442 
L 119.509688 91.614705 
L 122.079452 90.792469 
L 124.649217 91.988476 
L 127.218981 95.273426 
L 129.788745 97.815785 
L 134.928273 97.734056 
L 137.498037 101.773942 
L 140.067801 101.714748 
L 142.637566 103.295152 
L 145.20733 107.616371 
L 150.346858 114.461049 
L 152.916622 114.561073 
L 155.486386 116.436154 
L 158.056151 117.399658 
L 160.625915 119.742014 
L 163.195679 119.537845 
L 165.765443 123.771331 
L 168.335207 125.134636 
L 170.904971 124.360562 
L 173.474735 124.445556 
L 176.0445 124.245494 
L 178.614264 125.451317 
L 183.753792 131.08461 
L 186.323556 129.858019 
L 188.89332 128.285623 
L 191.463085 132.160833 
L 194.032849 131.653698 
L 196.602613 133.408127 
L 199.172377 134.983538 
L 201.742141 134.832758 
L 204.311905 133.905945 
L 209.451434 138.162663 
L 212.021198 138.438534 
L 214.590962 137.584754 
L 217.160726 138.887349 
L 222.300254 142.195448 
L 224.870019 143.142517 
L 230.009547 143.072889 
L 232.579311 144.477467 
L 235.149075 144.475656 
L 237.718839 144.11758 
L 240.288604 143.901692 
L 242.858368 142.832672 
L 245.428132 145.570492 
L 247.997896 147.908373 
L 250.56766 149.171586 
L 253.137424 152.623404 
L 255.707188 151.352306 
L 258.276953 150.982095 
L 260.846717 153.006724 
L 263.416481 154.333117 
L 265.986245 156.473686 
L 268.556009 155.297564 
L 271.125773 118.69406 
L 273.695538 99.802834 
L 276.265302 111.889253 
L 278.835066 157.943637 
L 281.40483 161.178291 
L 283.974594 159.871247 
L 286.544358 161.290468 
L 289.114122 161.594659 
L 291.683887 159.824049 
L 294.253651 159.835704 
L 296.823415 161.638496 
L 299.393179 162.041679 
L 301.962943 160.782993 
L 304.532707 158.037732 
L 307.102472 160.781401 
L 309.672236 163.073302 
L 312.242 163.030071 
L 314.811764 164.357184 
L 317.381528 166.907778 
L 319.951292 165.721783 
L 322.521056 164.800149 
L 325.090821 165.002549 
L 327.660585 164.860058 
L 332.800113 165.001576 
L 335.369877 164.791189 
L 337.939641 165.669052 
L 340.509406 168.259679 
L 343.07917 170.601482 
L 345.648934 169.285419 
L 348.218698 170.292148 
L 350.788462 172.139566 
L 353.358226 172.291146 
L 355.92799 175.364043 
L 358.497755 180.85205 
L 361.067519 181.566417 
L 363.637283 185.152369 
L 366.207047 186.156964 
L 368.776811 190.027719 
L 371.346575 192.900963 
L 373.91634 197.499715 
L 376.486104 199.779512 
L 379.055868 203.264326 
L 381.625632 205.761268 
L 384.195396 207.91141 
L 386.76516 208.892466 
L 389.334924 211.832884 
L 391.904689 213.293876 
L 394.474453 215.506711 
L 397.044217 217.505492 
L 399.613981 219.324639 
L 402.183745 220.54438 
L 404.753509 234.313273 
L 404.753509 234.313273 
" style="fill:none;stroke:#8c564b;stroke-linecap:square;stroke-opacity:0.6;stroke-width:1.5;"/>
   </g>
   <g id="line2d_67">
    <path clip-path="url(#pef58c66fa1)" d="M 92.928048 247.2 
L 92.928048 54.1 
" style="fill:none;stroke:#cd5c5c;stroke-linecap:square;stroke-width:1.5;"/>
   </g>
   <g id="line2d_68">
    <path clip-path="url(#pef58c66fa1)" d="M 115.295275 247.2 
L 115.295275 54.1 
" style="fill:none;stroke:#cd5c5c;stroke-linecap:square;stroke-width:1.5;"/>
   </g>
   <g id="line2d_69">
    <path clip-path="url(#pef58c66fa1)" d="M 154.766852 247.2 
L 154.766852 54.1 
" style="fill:none;stroke:#2e8b57;stroke-linecap:square;stroke-width:1.5;"/>
   </g>
   <g id="line2d_70">
    <path clip-path="url(#pef58c66fa1)" d="M 194.23843 247.2 
L 194.23843 54.1 
" style="fill:none;stroke:#2e8b57;stroke-linecap:square;stroke-width:1.5;"/>
   </g>
   <g id="patch_3">
    <path d="M 59.377207 247.2 
L 59.377207 54.1 
" style="fill:none;stroke:#000000;stroke-linecap:square;stroke-linejoin:miter;stroke-width:0.8;"/>
   </g>
   <g id="patch_4">
    <path d="M 421.2 247.2 
L 421.2 54.1 
" style="fill:none;stroke:#000000;stroke-linecap:square;stroke-linejoin:miter;stroke-width:0.8;"/>
   </g>
   <g id="patch_5">
    <path d="M 59.377207 247.2 
L 421.2 247.2 
" style="fill:none;stroke:#000000;stroke-linecap:square;stroke-linejoin:miter;stroke-width:0.8;"/>
   </g>
   <g id="patch_6">
    <path d="M 59.377207 54.1 
L 421.2 54.1 
" style="fill:none;stroke:#000000;stroke-linecap:square;stroke-linejoin:miter;stroke-width:0.8;"/>
   </g>
   <g id="text_15">
    <!-- RCS09  gamma entrainment; med: ON; side: R -->
    <g transform="translate(100.331104 21.22525)scale(0.12 -0.12)">
     <defs>
      <path d="M 44.390625 34.1875 
Q 47.5625 33.109375 50.5625 29.59375 
Q 53.5625 26.078125 56.59375 19.921875 
L 66.609375 0 
L 56 0 
L 46.6875 18.703125 
Q 43.0625 26.03125 39.671875 28.421875 
Q 36.28125 30.8125 30.421875 30.8125 
L 19.671875 30.8125 
L 19.671875 0 
L 9.8125 0 
L 9.8125 72.90625 
L 32.078125 72.90625 
Q 44.578125 72.90625 50.734375 67.671875 
Q 56.890625 62.453125 56.890625 51.90625 
Q 56.890625 45.015625 53.6875 40.46875 
Q 50.484375 35.9375 44.390625 34.1875 
z
M 19.671875 64.796875 
L 19.671875 38.921875 
L 32.078125 38.921875 
Q 39.203125 38.921875 42.84375 42.21875 
Q 46.484375 45.515625 46.484375 51.90625 
Q 46.484375 58.296875 42.84375 61.546875 
Q 39.203125 64.796875 32.078125 64.796875 
z
" id="DejaVuSans-82"/>
      <path d="M 64.40625 67.28125 
L 64.40625 56.890625 
Q 59.421875 61.53125 53.78125 63.8125 
Q 48.140625 66.109375 41.796875 66.109375 
Q 29.296875 66.109375 22.65625 58.46875 
Q 16.015625 50.828125 16.015625 36.375 
Q 16.015625 21.96875 22.65625 14.328125 
Q 29.296875 6.6875 41.796875 6.6875 
Q 48.140625 6.6875 53.78125 8.984375 
Q 59.421875 11.28125 64.40625 15.921875 
L 64.40625 5.609375 
Q 59.234375 2.09375 53.4375 0.328125 
Q 47.65625 -1.421875 41.21875 -1.421875 
Q 24.65625 -1.421875 15.125 8.703125 
Q 5.609375 18.84375 5.609375 36.375 
Q 5.609375 53.953125 15.125 64.078125 
Q 24.65625 74.21875 41.21875 74.21875 
Q 47.75 74.21875 53.53125 72.484375 
Q 59.328125 70.75 64.40625 67.28125 
z
" id="DejaVuSans-67"/>
      <path d="M 45.40625 27.984375 
Q 45.40625 37.75 41.375 43.109375 
Q 37.359375 48.484375 30.078125 48.484375 
Q 22.859375 48.484375 18.828125 43.109375 
Q 14.796875 37.75 14.796875 27.984375 
Q 14.796875 18.265625 18.828125 12.890625 
Q 22.859375 7.515625 30.078125 7.515625 
Q 37.359375 7.515625 41.375 12.890625 
Q 45.40625 18.265625 45.40625 27.984375 
z
M 54.390625 6.78125 
Q 54.390625 -7.171875 48.1875 -13.984375 
Q 42 -20.796875 29.203125 -20.796875 
Q 24.46875 -20.796875 20.265625 -20.09375 
Q 16.0625 -19.390625 12.109375 -17.921875 
L 12.109375 -9.1875 
Q 16.0625 -11.328125 19.921875 -12.34375 
Q 23.78125 -13.375 27.78125 -13.375 
Q 36.625 -13.375 41.015625 -8.765625 
Q 45.40625 -4.15625 45.40625 5.171875 
L 45.40625 9.625 
Q 42.625 4.78125 38.28125 2.390625 
Q 33.9375 0 27.875 0 
Q 17.828125 0 11.671875 7.65625 
Q 5.515625 15.328125 5.515625 27.984375 
Q 5.515625 40.671875 11.671875 48.328125 
Q 17.828125 56 27.875 56 
Q 33.9375 56 38.28125 53.609375 
Q 42.625 51.21875 45.40625 46.390625 
L 45.40625 54.6875 
L 54.390625 54.6875 
z
" id="DejaVuSans-103"/>
      <path d="M 34.28125 27.484375 
Q 23.390625 27.484375 19.1875 25 
Q 14.984375 22.515625 14.984375 16.5 
Q 14.984375 11.71875 18.140625 8.90625 
Q 21.296875 6.109375 26.703125 6.109375 
Q 34.1875 6.109375 38.703125 11.40625 
Q 43.21875 16.703125 43.21875 25.484375 
L 43.21875 27.484375 
z
M 52.203125 31.203125 
L 52.203125 0 
L 43.21875 0 
L 43.21875 8.296875 
Q 40.140625 3.328125 35.546875 0.953125 
Q 30.953125 -1.421875 24.3125 -1.421875 
Q 15.921875 -1.421875 10.953125 3.296875 
Q 6 8.015625 6 15.921875 
Q 6 25.140625 12.171875 29.828125 
Q 18.359375 34.515625 30.609375 34.515625 
L 43.21875 34.515625 
L 43.21875 35.40625 
Q 43.21875 41.609375 39.140625 45 
Q 35.0625 48.390625 27.6875 48.390625 
Q 23 48.390625 18.546875 47.265625 
Q 14.109375 46.140625 10.015625 43.890625 
L 10.015625 52.203125 
Q 14.9375 54.109375 19.578125 55.046875 
Q 24.21875 56 28.609375 56 
Q 40.484375 56 46.34375 49.84375 
Q 52.203125 43.703125 52.203125 31.203125 
z
" id="DejaVuSans-97"/>
      <path d="M 18.3125 70.21875 
L 18.3125 54.6875 
L 36.8125 54.6875 
L 36.8125 47.703125 
L 18.3125 47.703125 
L 18.3125 18.015625 
Q 18.3125 11.328125 20.140625 9.421875 
Q 21.96875 7.515625 27.59375 7.515625 
L 36.8125 7.515625 
L 36.8125 0 
L 27.59375 0 
Q 17.1875 0 13.234375 3.875 
Q 9.28125 7.765625 9.28125 18.015625 
L 9.28125 47.703125 
L 2.6875 47.703125 
L 2.6875 54.6875 
L 9.28125 54.6875 
L 9.28125 70.21875 
z
" id="DejaVuSans-116"/>
      <path d="M 9.421875 54.6875 
L 18.40625 54.6875 
L 18.40625 0 
L 9.421875 0 
z
M 9.421875 75.984375 
L 18.40625 75.984375 
L 18.40625 64.59375 
L 9.421875 64.59375 
z
" id="DejaVuSans-105"/>
      <path d="M 11.71875 51.703125 
L 22.015625 51.703125 
L 22.015625 39.3125 
L 11.71875 39.3125 
z
M 11.71875 12.40625 
L 22.015625 12.40625 
L 22.015625 4 
L 14.015625 -11.625 
L 7.71875 -11.625 
L 11.71875 4 
z
" id="DejaVuSans-59"/>
      <path d="M 45.40625 46.390625 
L 45.40625 75.984375 
L 54.390625 75.984375 
L 54.390625 0 
L 45.40625 0 
L 45.40625 8.203125 
Q 42.578125 3.328125 38.25 0.953125 
Q 33.9375 -1.421875 27.875 -1.421875 
Q 17.96875 -1.421875 11.734375 6.484375 
Q 5.515625 14.40625 5.515625 27.296875 
Q 5.515625 40.1875 11.734375 48.09375 
Q 17.96875 56 27.875 56 
Q 33.9375 56 38.25 53.625 
Q 42.578125 51.265625 45.40625 46.390625 
z
M 14.796875 27.296875 
Q 14.796875 17.390625 18.875 11.75 
Q 22.953125 6.109375 30.078125 6.109375 
Q 37.203125 6.109375 41.296875 11.75 
Q 45.40625 17.390625 45.40625 27.296875 
Q 45.40625 37.203125 41.296875 42.84375 
Q 37.203125 48.484375 30.078125 48.484375 
Q 22.953125 48.484375 18.875 42.84375 
Q 14.796875 37.203125 14.796875 27.296875 
z
" id="DejaVuSans-100"/>
      <path d="M 11.71875 12.40625 
L 22.015625 12.40625 
L 22.015625 0 
L 11.71875 0 
z
M 11.71875 51.703125 
L 22.015625 51.703125 
L 22.015625 39.3125 
L 11.71875 39.3125 
z
" id="DejaVuSans-58"/>
      <path d="M 39.40625 66.21875 
Q 28.65625 66.21875 22.328125 58.203125 
Q 16.015625 50.203125 16.015625 36.375 
Q 16.015625 22.609375 22.328125 14.59375 
Q 28.65625 6.59375 39.40625 6.59375 
Q 50.140625 6.59375 56.421875 14.59375 
Q 62.703125 22.609375 62.703125 36.375 
Q 62.703125 50.203125 56.421875 58.203125 
Q 50.140625 66.21875 39.40625 66.21875 
z
M 39.40625 74.21875 
Q 54.734375 74.21875 63.90625 63.9375 
Q 73.09375 53.65625 73.09375 36.375 
Q 73.09375 19.140625 63.90625 8.859375 
Q 54.734375 -1.421875 39.40625 -1.421875 
Q 24.03125 -1.421875 14.8125 8.828125 
Q 5.609375 19.09375 5.609375 36.375 
Q 5.609375 53.65625 14.8125 63.9375 
Q 24.03125 74.21875 39.40625 74.21875 
z
" id="DejaVuSans-79"/>
      <path d="M 9.8125 72.90625 
L 23.09375 72.90625 
L 55.421875 11.921875 
L 55.421875 72.90625 
L 64.984375 72.90625 
L 64.984375 0 
L 51.703125 0 
L 19.390625 60.984375 
L 19.390625 0 
L 9.8125 0 
z
" id="DejaVuSans-78"/>
      <path d="M 44.28125 53.078125 
L 44.28125 44.578125 
Q 40.484375 46.53125 36.375 47.5 
Q 32.28125 48.484375 27.875 48.484375 
Q 21.1875 48.484375 17.84375 46.4375 
Q 14.5 44.390625 14.5 40.28125 
Q 14.5 37.15625 16.890625 35.375 
Q 19.28125 33.59375 26.515625 31.984375 
L 29.59375 31.296875 
Q 39.15625 29.25 43.1875 25.515625 
Q 47.21875 21.78125 47.21875 15.09375 
Q 47.21875 7.46875 41.1875 3.015625 
Q 35.15625 -1.421875 24.609375 -1.421875 
Q 20.21875 -1.421875 15.453125 -0.5625 
Q 10.6875 0.296875 5.421875 2 
L 5.421875 11.28125 
Q 10.40625 8.6875 15.234375 7.390625 
Q 20.0625 6.109375 24.8125 6.109375 
Q 31.15625 6.109375 34.5625 8.28125 
Q 37.984375 10.453125 37.984375 14.40625 
Q 37.984375 18.0625 35.515625 20.015625 
Q 33.0625 21.96875 24.703125 23.78125 
L 21.578125 24.515625 
Q 13.234375 26.265625 9.515625 29.90625 
Q 5.8125 33.546875 5.8125 39.890625 
Q 5.8125 47.609375 11.28125 51.796875 
Q 16.75 56 26.8125 56 
Q 31.78125 56 36.171875 55.265625 
Q 40.578125 54.546875 44.28125 53.078125 
z
" id="DejaVuSans-115"/>
     </defs>
     <use xlink:href="#DejaVuSans-82"/>
     <use x="64.482422" xlink:href="#DejaVuSans-67"/>
     <use x="134.306641" xlink:href="#DejaVuSans-83"/>
     <use x="197.783203" xlink:href="#DejaVuSans-48"/>
     <use x="261.40625" xlink:href="#DejaVuSans-57"/>
     <use x="325.029297" xlink:href="#DejaVuSans-32"/>
     <use x="356.816406" xlink:href="#DejaVuSans-32"/>
     <use x="388.603516" xlink:href="#DejaVuSans-103"/>
     <use x="452.080078" xlink:href="#DejaVuSans-97"/>
     <use x="513.359375" xlink:href="#DejaVuSans-109"/>
     <use x="610.771484" xlink:href="#DejaVuSans-109"/>
     <use x="708.183594" xlink:href="#DejaVuSans-97"/>
     <use x="769.462891" xlink:href="#DejaVuSans-32"/>
     <use x="801.25" xlink:href="#DejaVuSans-101"/>
     <use x="862.773438" xlink:href="#DejaVuSans-110"/>
     <use x="926.152344" xlink:href="#DejaVuSans-116"/>
     <use x="965.361328" xlink:href="#DejaVuSans-114"/>
     <use x="1006.474609" xlink:href="#DejaVuSans-97"/>
     <use x="1067.753906" xlink:href="#DejaVuSans-105"/>
     <use x="1095.537109" xlink:href="#DejaVuSans-110"/>
     <use x="1158.916016" xlink:href="#DejaVuSans-109"/>
     <use x="1256.328125" xlink:href="#DejaVuSans-101"/>
     <use x="1317.851562" xlink:href="#DejaVuSans-110"/>
     <use x="1381.230469" xlink:href="#DejaVuSans-116"/>
     <use x="1420.439453" xlink:href="#DejaVuSans-59"/>
     <use x="1454.130859" xlink:href="#DejaVuSans-32"/>
     <use x="1485.917969" xlink:href="#DejaVuSans-109"/>
     <use x="1583.330078" xlink:href="#DejaVuSans-101"/>
     <use x="1644.853516" xlink:href="#DejaVuSans-100"/>
     <use x="1708.330078" xlink:href="#DejaVuSans-58"/>
     <use x="1742.021484" xlink:href="#DejaVuSans-32"/>
     <use x="1773.808594" xlink:href="#DejaVuSans-79"/>
     <use x="1852.519531" xlink:href="#DejaVuSans-78"/>
     <use x="1927.324219" xlink:href="#DejaVuSans-59"/>
     <use x="1961.015625" xlink:href="#DejaVuSans-32"/>
     <use x="1992.802734" xlink:href="#DejaVuSans-115"/>
     <use x="2044.902344" xlink:href="#DejaVuSans-105"/>
     <use x="2072.685547" xlink:href="#DejaVuSans-100"/>
     <use x="2136.162109" xlink:href="#DejaVuSans-101"/>
     <use x="2197.685547" xlink:href="#DejaVuSans-58"/>
     <use x="2231.376953" xlink:href="#DejaVuSans-32"/>
     <use x="2263.164062" xlink:href="#DejaVuSans-82"/>
    </g>
    <!-- stim contact 2; stim freq 150.6; amps 0.0-5.0 -->
    <g transform="translate(103.823291 34.662625)scale(0.12 -0.12)">
     <defs>
      <path d="M 30.609375 48.390625 
Q 23.390625 48.390625 19.1875 42.75 
Q 14.984375 37.109375 14.984375 27.296875 
Q 14.984375 17.484375 19.15625 11.84375 
Q 23.34375 6.203125 30.609375 6.203125 
Q 37.796875 6.203125 41.984375 11.859375 
Q 46.1875 17.53125 46.1875 27.296875 
Q 46.1875 37.015625 41.984375 42.703125 
Q 37.796875 48.390625 30.609375 48.390625 
z
M 30.609375 56 
Q 42.328125 56 49.015625 48.375 
Q 55.71875 40.765625 55.71875 27.296875 
Q 55.71875 13.875 49.015625 6.21875 
Q 42.328125 -1.421875 30.609375 -1.421875 
Q 18.84375 -1.421875 12.171875 6.21875 
Q 5.515625 13.875 5.515625 27.296875 
Q 5.515625 40.765625 12.171875 48.375 
Q 18.84375 56 30.609375 56 
z
" id="DejaVuSans-111"/>
      <path d="M 10.6875 12.40625 
L 21 12.40625 
L 21 0 
L 10.6875 0 
z
" id="DejaVuSans-46"/>
      <path d="M 18.109375 8.203125 
L 18.109375 -20.796875 
L 9.078125 -20.796875 
L 9.078125 54.6875 
L 18.109375 54.6875 
L 18.109375 46.390625 
Q 20.953125 51.265625 25.265625 53.625 
Q 29.59375 56 35.59375 56 
Q 45.5625 56 51.78125 48.09375 
Q 58.015625 40.1875 58.015625 27.296875 
Q 58.015625 14.40625 51.78125 6.484375 
Q 45.5625 -1.421875 35.59375 -1.421875 
Q 29.59375 -1.421875 25.265625 0.953125 
Q 20.953125 3.328125 18.109375 8.203125 
z
M 48.6875 27.296875 
Q 48.6875 37.203125 44.609375 42.84375 
Q 40.53125 48.484375 33.40625 48.484375 
Q 26.265625 48.484375 22.1875 42.84375 
Q 18.109375 37.203125 18.109375 27.296875 
Q 18.109375 17.390625 22.1875 11.75 
Q 26.265625 6.109375 33.40625 6.109375 
Q 40.53125 6.109375 44.609375 11.75 
Q 48.6875 17.390625 48.6875 27.296875 
z
" id="DejaVuSans-112"/>
      <path d="M 4.890625 31.390625 
L 31.203125 31.390625 
L 31.203125 23.390625 
L 4.890625 23.390625 
z
" id="DejaVuSans-45"/>
     </defs>
     <use xlink:href="#DejaVuSans-115"/>
     <use x="52.099609" xlink:href="#DejaVuSans-116"/>
     <use x="91.308594" xlink:href="#DejaVuSans-105"/>
     <use x="119.091797" xlink:href="#DejaVuSans-109"/>
     <use x="216.503906" xlink:href="#DejaVuSans-32"/>
     <use x="248.291016" xlink:href="#DejaVuSans-99"/>
     <use x="303.271484" xlink:href="#DejaVuSans-111"/>
     <use x="364.453125" xlink:href="#DejaVuSans-110"/>
     <use x="427.832031" xlink:href="#DejaVuSans-116"/>
     <use x="467.041016" xlink:href="#DejaVuSans-97"/>
     <use x="528.320312" xlink:href="#DejaVuSans-99"/>
     <use x="583.300781" xlink:href="#DejaVuSans-116"/>
     <use x="622.509766" xlink:href="#DejaVuSans-32"/>
     <use x="654.296875" xlink:href="#DejaVuSans-50"/>
     <use x="717.919922" xlink:href="#DejaVuSans-59"/>
     <use x="751.611328" xlink:href="#DejaVuSans-32"/>
     <use x="783.398438" xlink:href="#DejaVuSans-115"/>
     <use x="835.498047" xlink:href="#DejaVuSans-116"/>
     <use x="874.707031" xlink:href="#DejaVuSans-105"/>
     <use x="902.490234" xlink:href="#DejaVuSans-109"/>
     <use x="999.902344" xlink:href="#DejaVuSans-32"/>
     <use x="1031.689453" xlink:href="#DejaVuSans-102"/>
     <use x="1066.894531" xlink:href="#DejaVuSans-114"/>
     <use x="1105.757812" xlink:href="#DejaVuSans-101"/>
     <use x="1167.28125" xlink:href="#DejaVuSans-113"/>
     <use x="1230.757812" xlink:href="#DejaVuSans-32"/>
     <use x="1262.544922" xlink:href="#DejaVuSans-49"/>
     <use x="1326.167969" xlink:href="#DejaVuSans-53"/>
     <use x="1389.791016" xlink:href="#DejaVuSans-48"/>
     <use x="1453.414062" xlink:href="#DejaVuSans-46"/>
     <use x="1485.201172" xlink:href="#DejaVuSans-54"/>
     <use x="1548.824219" xlink:href="#DejaVuSans-59"/>
     <use x="1582.515625" xlink:href="#DejaVuSans-32"/>
     <use x="1614.302734" xlink:href="#DejaVuSans-97"/>
     <use x="1675.582031" xlink:href="#DejaVuSans-109"/>
     <use x="1772.994141" xlink:href="#DejaVuSans-112"/>
     <use x="1836.470703" xlink:href="#DejaVuSans-115"/>
     <use x="1888.570312" xlink:href="#DejaVuSans-32"/>
     <use x="1920.357422" xlink:href="#DejaVuSans-48"/>
     <use x="1983.980469" xlink:href="#DejaVuSans-46"/>
     <use x="2015.767578" xlink:href="#DejaVuSans-48"/>
     <use x="2079.390625" xlink:href="#DejaVuSans-45"/>
     <use x="2115.474609" xlink:href="#DejaVuSans-53"/>
     <use x="2179.097656" xlink:href="#DejaVuSans-46"/>
     <use x="2210.884766" xlink:href="#DejaVuSans-48"/>
    </g>
    <!-- Ch 4 sense contacts 11+ 10- -->
    <g transform="translate(153.465791 48.1)scale(0.12 -0.12)">
     <defs>
      <path d="M 54.890625 33.015625 
L 54.890625 0 
L 45.90625 0 
L 45.90625 32.71875 
Q 45.90625 40.484375 42.875 44.328125 
Q 39.84375 48.1875 33.796875 48.1875 
Q 26.515625 48.1875 22.3125 43.546875 
Q 18.109375 38.921875 18.109375 30.90625 
L 18.109375 0 
L 9.078125 0 
L 9.078125 75.984375 
L 18.109375 75.984375 
L 18.109375 46.1875 
Q 21.34375 51.125 25.703125 53.5625 
Q 30.078125 56 35.796875 56 
Q 45.21875 56 50.046875 50.171875 
Q 54.890625 44.34375 54.890625 33.015625 
z
" id="DejaVuSans-104"/>
      <path d="M 37.796875 64.3125 
L 12.890625 25.390625 
L 37.796875 25.390625 
z
M 35.203125 72.90625 
L 47.609375 72.90625 
L 47.609375 25.390625 
L 58.015625 25.390625 
L 58.015625 17.1875 
L 47.609375 17.1875 
L 47.609375 0 
L 37.796875 0 
L 37.796875 17.1875 
L 4.890625 17.1875 
L 4.890625 26.703125 
z
" id="DejaVuSans-52"/>
      <path d="M 46 62.703125 
L 46 35.5 
L 73.1875 35.5 
L 73.1875 27.203125 
L 46 27.203125 
L 46 0 
L 37.796875 0 
L 37.796875 27.203125 
L 10.59375 27.203125 
L 10.59375 35.5 
L 37.796875 35.5 
L 37.796875 62.703125 
z
" id="DejaVuSans-43"/>
     </defs>
     <use xlink:href="#DejaVuSans-67"/>
     <use x="69.824219" xlink:href="#DejaVuSans-104"/>
     <use x="133.203125" xlink:href="#DejaVuSans-32"/>
     <use x="164.990234" xlink:href="#DejaVuSans-52"/>
     <use x="228.613281" xlink:href="#DejaVuSans-32"/>
     <use x="260.400391" xlink:href="#DejaVuSans-115"/>
     <use x="312.5" xlink:href="#DejaVuSans-101"/>
     <use x="374.023438" xlink:href="#DejaVuSans-110"/>
     <use x="437.402344" xlink:href="#DejaVuSans-115"/>
     <use x="489.501953" xlink:href="#DejaVuSans-101"/>
     <use x="551.025391" xlink:href="#DejaVuSans-32"/>
     <use x="582.8125" xlink:href="#DejaVuSans-99"/>
     <use x="637.792969" xlink:href="#DejaVuSans-111"/>
     <use x="698.974609" xlink:href="#DejaVuSans-110"/>
     <use x="762.353516" xlink:href="#DejaVuSans-116"/>
     <use x="801.5625" xlink:href="#DejaVuSans-97"/>
     <use x="862.841797" xlink:href="#DejaVuSans-99"/>
     <use x="917.822266" xlink:href="#DejaVuSans-116"/>
     <use x="957.03125" xlink:href="#DejaVuSans-115"/>
     <use x="1009.130859" xlink:href="#DejaVuSans-32"/>
     <use x="1040.917969" xlink:href="#DejaVuSans-49"/>
     <use x="1104.541016" xlink:href="#DejaVuSans-49"/>
     <use x="1168.164062" xlink:href="#DejaVuSans-43"/>
     <use x="1251.953125" xlink:href="#DejaVuSans-32"/>
     <use x="1283.740234" xlink:href="#DejaVuSans-49"/>
     <use x="1347.363281" xlink:href="#DejaVuSans-48"/>
     <use x="1410.986328" xlink:href="#DejaVuSans-45"/>
    </g>
   </g>
   <g id="legend_1">
    <g id="patch_7">
     <path d="M 359.25625 150.16875 
L 414.2 150.16875 
Q 416.2 150.16875 416.2 148.16875 
L 416.2 61.1 
Q 416.2 59.1 414.2 59.1 
L 359.25625 59.1 
Q 357.25625 59.1 357.25625 61.1 
L 357.25625 148.16875 
Q 357.25625 150.16875 359.25625 150.16875 
z
" style="fill:#ffffff;opacity:0.8;stroke:#cccccc;stroke-linejoin:miter;"/>
    </g>
    <g id="line2d_71">
     <path d="M 361.25625 67.198438 
L 381.25625 67.198438 
" style="fill:none;stroke:#1f77b4;stroke-linecap:square;stroke-opacity:0.6;stroke-width:1.5;"/>
    </g>
    <g id="line2d_72"/>
    <g id="text_16">
     <!-- 0mA -->
     <g transform="translate(389.25625 70.698438)scale(0.1 -0.1)">
      <defs>
       <path d="M 34.1875 63.1875 
L 20.796875 26.90625 
L 47.609375 26.90625 
z
M 28.609375 72.90625 
L 39.796875 72.90625 
L 67.578125 0 
L 57.328125 0 
L 50.6875 18.703125 
L 17.828125 18.703125 
L 11.1875 0 
L 0.78125 0 
z
" id="DejaVuSans-65"/>
      </defs>
      <use xlink:href="#DejaVuSans-48"/>
      <use x="63.623047" xlink:href="#DejaVuSans-109"/>
      <use x="161.035156" xlink:href="#DejaVuSans-65"/>
     </g>
    </g>
    <g id="line2d_73">
     <path d="M 361.25625 81.876563 
L 381.25625 81.876563 
" style="fill:none;stroke:#ff7f0e;stroke-linecap:square;stroke-opacity:0.6;stroke-width:1.5;"/>
    </g>
    <g id="line2d_74"/>
    <g id="text_17">
     <!-- 1mA -->
     <g transform="translate(389.25625 85.376563)scale(0.1 -0.1)">
      <use xlink:href="#DejaVuSans-49"/>
      <use x="63.623047" xlink:href="#DejaVuSans-109"/>
      <use x="161.035156" xlink:href="#DejaVuSans-65"/>
     </g>
    </g>
    <g id="line2d_75">
     <path d="M 361.25625 96.554688 
L 381.25625 96.554688 
" style="fill:none;stroke:#2ca02c;stroke-linecap:square;stroke-opacity:0.6;stroke-width:1.5;"/>
    </g>
    <g id="line2d_76"/>
    <g id="text_18">
     <!-- 2mA -->
     <g transform="translate(389.25625 100.054688)scale(0.1 -0.1)">
      <use xlink:href="#DejaVuSans-50"/>
      <use x="63.623047" xlink:href="#DejaVuSans-109"/>
      <use x="161.035156" xlink:href="#DejaVuSans-65"/>
     </g>
    </g>
    <g id="line2d_77">
     <path d="M 361.25625 111.232813 
L 381.25625 111.232813 
" style="fill:none;stroke:#d62728;stroke-linecap:square;stroke-opacity:0.6;stroke-width:1.5;"/>
    </g>
    <g id="line2d_78"/>
    <g id="text_19">
     <!-- 3mA -->
     <g transform="translate(389.25625 114.732813)scale(0.1 -0.1)">
      <defs>
       <path d="M 40.578125 39.3125 
Q 47.65625 37.796875 51.625 33 
Q 55.609375 28.21875 55.609375 21.1875 
Q 55.609375 10.40625 48.1875 4.484375 
Q 40.765625 -1.421875 27.09375 -1.421875 
Q 22.515625 -1.421875 17.65625 -0.515625 
Q 12.796875 0.390625 7.625 2.203125 
L 7.625 11.71875 
Q 11.71875 9.328125 16.59375 8.109375 
Q 21.484375 6.890625 26.8125 6.890625 
Q 36.078125 6.890625 40.9375 10.546875 
Q 45.796875 14.203125 45.796875 21.1875 
Q 45.796875 27.640625 41.28125 31.265625 
Q 36.765625 34.90625 28.71875 34.90625 
L 20.21875 34.90625 
L 20.21875 43.015625 
L 29.109375 43.015625 
Q 36.375 43.015625 40.234375 45.921875 
Q 44.09375 48.828125 44.09375 54.296875 
Q 44.09375 59.90625 40.109375 62.90625 
Q 36.140625 65.921875 28.71875 65.921875 
Q 24.65625 65.921875 20.015625 65.03125 
Q 15.375 64.15625 9.8125 62.3125 
L 9.8125 71.09375 
Q 15.4375 72.65625 20.34375 73.4375 
Q 25.25 74.21875 29.59375 74.21875 
Q 40.828125 74.21875 47.359375 69.109375 
Q 53.90625 64.015625 53.90625 55.328125 
Q 53.90625 49.265625 50.4375 45.09375 
Q 46.96875 40.921875 40.578125 39.3125 
z
" id="DejaVuSans-51"/>
      </defs>
      <use xlink:href="#DejaVuSans-51"/>
      <use x="63.623047" xlink:href="#DejaVuSans-109"/>
      <use x="161.035156" xlink:href="#DejaVuSans-65"/>
     </g>
    </g>
    <g id="line2d_79">
     <path d="M 361.25625 125.910938 
L 381.25625 125.910938 
" style="fill:none;stroke:#9467bd;stroke-linecap:square;stroke-opacity:0.6;stroke-width:1.5;"/>
    </g>
    <g id="line2d_80"/>
    <g id="text_20">
     <!-- 4mA -->
     <g transform="translate(389.25625 129.410938)scale(0.1 -0.1)">
      <use xlink:href="#DejaVuSans-52"/>
      <use x="63.623047" xlink:href="#DejaVuSans-109"/>
      <use x="161.035156" xlink:href="#DejaVuSans-65"/>
     </g>
    </g>
    <g id="line2d_81">
     <path d="M 361.25625 140.589063 
L 381.25625 140.589063 
" style="fill:none;stroke:#8c564b;stroke-linecap:square;stroke-opacity:0.6;stroke-width:1.5;"/>
    </g>
    <g id="line2d_82"/>
    <g id="text_21">
     <!-- 5mA -->
     <g transform="translate(389.25625 144.089063)scale(0.1 -0.1)">
      <use xlink:href="#DejaVuSans-53"/>
      <use x="63.623047" xlink:href="#DejaVuSans-109"/>
      <use x="161.035156" xlink:href="#DejaVuSans-65"/>
     </g>
    </g>
   </g>
  </g>
 </g>
 <defs>
  <clipPath id="pef58c66fa1">
   <rect height="193.1" width="361.822793" x="59.377207" y="54.1"/>
  </clipPath>
 </defs>
</svg>
