<?xml version="1.0" encoding="utf-8" standalone="no"?>
<!DOCTYPE svg PUBLIC "-//W3C//DTD SVG 1.1//EN"
  "http://www.w3.org/Graphics/SVG/1.1/DTD/svg11.dtd">
<!-- Created with matplotlib (https://matplotlib.org/) -->
<svg height="288pt" version="1.1" viewBox="0 0 432 288" width="432pt" xmlns="http://www.w3.org/2000/svg" xmlns:xlink="http://www.w3.org/1999/xlink">
 <metadata>
  <rdf:RDF xmlns:cc="http://creativecommons.org/ns#" xmlns:dc="http://purl.org/dc/elements/1.1/" xmlns:rdf="http://www.w3.org/1999/02/22-rdf-syntax-ns#">
   <cc:Work>
    <dc:type rdf:resource="http://purl.org/dc/dcmitype/StillImage"/>
    <dc:date>2021-06-09T17:47:02.339608</dc:date>
    <dc:format>image/svg+xml</dc:format>
    <dc:creator>
     <cc:Agent>
      <dc:title>Matplotlib v3.3.4, https://matplotlib.org/</dc:title>
     </cc:Agent>
    </dc:creator>
   </cc:Work>
  </rdf:RDF>
 </metadata>
 <defs>
  <style type="text/css">*{stroke-linecap:butt;stroke-linejoin:round;}</style>
 </defs>
 <g id="figure_1">
  <g id="patch_1">
   <path d="M 0 288 
L 432 288 
L 432 0 
L 0 0 
z
" style="fill:#ffffff;"/>
  </g>
  <g id="axes_1">
   <g id="patch_2">
    <path d="M 59.377207 247.2 
L 421.2 247.2 
L 421.2 54.1 
L 59.377207 54.1 
z
" style="fill:#ffffff;"/>
   </g>
   <g id="matplotlib.axis_1">
    <g id="xtick_1">
     <g id="line2d_1">
      <defs>
       <path d="M 0 0 
L 0 3.5 
" id="m7bba5868fb" style="stroke:#000000;stroke-width:0.8;"/>
      </defs>
      <g>
       <use style="stroke:#000000;stroke-width:0.8;" x="75.823698" xlink:href="#m7bba5868fb" y="247.2"/>
      </g>
     </g>
     <g id="text_1">
      <!-- 0 -->
      <g transform="translate(72.642448 261.798438)scale(0.1 -0.1)">
       <defs>
        <path d="M 31.78125 66.40625 
Q 24.171875 66.40625 20.328125 58.90625 
Q 16.5 51.421875 16.5 36.375 
Q 16.5 21.390625 20.328125 13.890625 
Q 24.171875 6.390625 31.78125 6.390625 
Q 39.453125 6.390625 43.28125 13.890625 
Q 47.125 21.390625 47.125 36.375 
Q 47.125 51.421875 43.28125 58.90625 
Q 39.453125 66.40625 31.78125 66.40625 
z
M 31.78125 74.21875 
Q 44.046875 74.21875 50.515625 64.515625 
Q 56.984375 54.828125 56.984375 36.375 
Q 56.984375 17.96875 50.515625 8.265625 
Q 44.046875 -1.421875 31.78125 -1.421875 
Q 19.53125 -1.421875 13.0625 8.265625 
Q 6.59375 17.96875 6.59375 36.375 
Q 6.59375 54.828125 13.0625 64.515625 
Q 19.53125 74.21875 31.78125 74.21875 
z
" id="DejaVuSans-48"/>
       </defs>
       <use xlink:href="#DejaVuSans-48"/>
      </g>
     </g>
    </g>
    <g id="xtick_2">
     <g id="line2d_2">
      <g>
       <use style="stroke:#000000;stroke-width:0.8;" x="141.60966" xlink:href="#m7bba5868fb" y="247.2"/>
      </g>
     </g>
     <g id="text_2">
      <!-- 50 -->
      <g transform="translate(135.24716 261.798438)scale(0.1 -0.1)">
       <defs>
        <path d="M 10.796875 72.90625 
L 49.515625 72.90625 
L 49.515625 64.59375 
L 19.828125 64.59375 
L 19.828125 46.734375 
Q 21.96875 47.46875 24.109375 47.828125 
Q 26.265625 48.1875 28.421875 48.1875 
Q 40.625 48.1875 47.75 41.5 
Q 54.890625 34.8125 54.890625 23.390625 
Q 54.890625 11.625 47.5625 5.09375 
Q 40.234375 -1.421875 26.90625 -1.421875 
Q 22.3125 -1.421875 17.546875 -0.640625 
Q 12.796875 0.140625 7.71875 1.703125 
L 7.71875 11.625 
Q 12.109375 9.234375 16.796875 8.0625 
Q 21.484375 6.890625 26.703125 6.890625 
Q 35.15625 6.890625 40.078125 11.328125 
Q 45.015625 15.765625 45.015625 23.390625 
Q 45.015625 31 40.078125 35.4375 
Q 35.15625 39.890625 26.703125 39.890625 
Q 22.75 39.890625 18.8125 39.015625 
Q 14.890625 38.140625 10.796875 36.28125 
z
" id="DejaVuSans-53"/>
       </defs>
       <use xlink:href="#DejaVuSans-53"/>
       <use x="63.623047" xlink:href="#DejaVuSans-48"/>
      </g>
     </g>
    </g>
    <g id="xtick_3">
     <g id="line2d_3">
      <g>
       <use style="stroke:#000000;stroke-width:0.8;" x="207.395622" xlink:href="#m7bba5868fb" y="247.2"/>
      </g>
     </g>
     <g id="text_3">
      <!-- 100 -->
      <g transform="translate(197.851872 261.798438)scale(0.1 -0.1)">
       <defs>
        <path d="M 12.40625 8.296875 
L 28.515625 8.296875 
L 28.515625 63.921875 
L 10.984375 60.40625 
L 10.984375 69.390625 
L 28.421875 72.90625 
L 38.28125 72.90625 
L 38.28125 8.296875 
L 54.390625 8.296875 
L 54.390625 0 
L 12.40625 0 
z
" id="DejaVuSans-49"/>
       </defs>
       <use xlink:href="#DejaVuSans-49"/>
       <use x="63.623047" xlink:href="#DejaVuSans-48"/>
       <use x="127.246094" xlink:href="#DejaVuSans-48"/>
      </g>
     </g>
    </g>
    <g id="xtick_4">
     <g id="line2d_4">
      <g>
       <use style="stroke:#000000;stroke-width:0.8;" x="273.181585" xlink:href="#m7bba5868fb" y="247.2"/>
      </g>
     </g>
     <g id="text_4">
      <!-- 150 -->
      <g transform="translate(263.637835 261.798438)scale(0.1 -0.1)">
       <use xlink:href="#DejaVuSans-49"/>
       <use x="63.623047" xlink:href="#DejaVuSans-53"/>
       <use x="127.246094" xlink:href="#DejaVuSans-48"/>
      </g>
     </g>
    </g>
    <g id="xtick_5">
     <g id="line2d_5">
      <g>
       <use style="stroke:#000000;stroke-width:0.8;" x="338.967547" xlink:href="#m7bba5868fb" y="247.2"/>
      </g>
     </g>
     <g id="text_5">
      <!-- 200 -->
      <g transform="translate(329.423797 261.798438)scale(0.1 -0.1)">
       <defs>
        <path d="M 19.1875 8.296875 
L 53.609375 8.296875 
L 53.609375 0 
L 7.328125 0 
L 7.328125 8.296875 
Q 12.9375 14.109375 22.625 23.890625 
Q 32.328125 33.6875 34.8125 36.53125 
Q 39.546875 41.84375 41.421875 45.53125 
Q 43.3125 49.21875 43.3125 52.78125 
Q 43.3125 58.59375 39.234375 62.25 
Q 35.15625 65.921875 28.609375 65.921875 
Q 23.96875 65.921875 18.8125 64.3125 
Q 13.671875 62.703125 7.8125 59.421875 
L 7.8125 69.390625 
Q 13.765625 71.78125 18.9375 73 
Q 24.125 74.21875 28.421875 74.21875 
Q 39.75 74.21875 46.484375 68.546875 
Q 53.21875 62.890625 53.21875 53.421875 
Q 53.21875 48.921875 51.53125 44.890625 
Q 49.859375 40.875 45.40625 35.40625 
Q 44.1875 33.984375 37.640625 27.21875 
Q 31.109375 20.453125 19.1875 8.296875 
z
" id="DejaVuSans-50"/>
       </defs>
       <use xlink:href="#DejaVuSans-50"/>
       <use x="63.623047" xlink:href="#DejaVuSans-48"/>
       <use x="127.246094" xlink:href="#DejaVuSans-48"/>
      </g>
     </g>
    </g>
    <g id="xtick_6">
     <g id="line2d_6">
      <g>
       <use style="stroke:#000000;stroke-width:0.8;" x="404.753509" xlink:href="#m7bba5868fb" y="247.2"/>
      </g>
     </g>
     <g id="text_6">
      <!-- 250 -->
      <g transform="translate(395.209759 261.798438)scale(0.1 -0.1)">
       <use xlink:href="#DejaVuSans-50"/>
       <use x="63.623047" xlink:href="#DejaVuSans-53"/>
       <use x="127.246094" xlink:href="#DejaVuSans-48"/>
      </g>
     </g>
    </g>
    <g id="text_7">
     <!-- frequency (Hz) -->
     <g transform="translate(203.337041 275.476562)scale(0.1 -0.1)">
      <defs>
       <path d="M 37.109375 75.984375 
L 37.109375 68.5 
L 28.515625 68.5 
Q 23.6875 68.5 21.796875 66.546875 
Q 19.921875 64.59375 19.921875 59.515625 
L 19.921875 54.6875 
L 34.71875 54.6875 
L 34.71875 47.703125 
L 19.921875 47.703125 
L 19.921875 0 
L 10.890625 0 
L 10.890625 47.703125 
L 2.296875 47.703125 
L 2.296875 54.6875 
L 10.890625 54.6875 
L 10.890625 58.5 
Q 10.890625 67.625 15.140625 71.796875 
Q 19.390625 75.984375 28.609375 75.984375 
z
" id="DejaVuSans-102"/>
       <path d="M 41.109375 46.296875 
Q 39.59375 47.171875 37.8125 47.578125 
Q 36.03125 48 33.890625 48 
Q 26.265625 48 22.1875 43.046875 
Q 18.109375 38.09375 18.109375 28.8125 
L 18.109375 0 
L 9.078125 0 
L 9.078125 54.6875 
L 18.109375 54.6875 
L 18.109375 46.1875 
Q 20.953125 51.171875 25.484375 53.578125 
Q 30.03125 56 36.53125 56 
Q 37.453125 56 38.578125 55.875 
Q 39.703125 55.765625 41.0625 55.515625 
z
" id="DejaVuSans-114"/>
       <path d="M 56.203125 29.59375 
L 56.203125 25.203125 
L 14.890625 25.203125 
Q 15.484375 15.921875 20.484375 11.0625 
Q 25.484375 6.203125 34.421875 6.203125 
Q 39.59375 6.203125 44.453125 7.46875 
Q 49.3125 8.734375 54.109375 11.28125 
L 54.109375 2.78125 
Q 49.265625 0.734375 44.1875 -0.34375 
Q 39.109375 -1.421875 33.890625 -1.421875 
Q 20.796875 -1.421875 13.15625 6.1875 
Q 5.515625 13.8125 5.515625 26.8125 
Q 5.515625 40.234375 12.765625 48.109375 
Q 20.015625 56 32.328125 56 
Q 43.359375 56 49.78125 48.890625 
Q 56.203125 41.796875 56.203125 29.59375 
z
M 47.21875 32.234375 
Q 47.125 39.59375 43.09375 43.984375 
Q 39.0625 48.390625 32.421875 48.390625 
Q 24.90625 48.390625 20.390625 44.140625 
Q 15.875 39.890625 15.1875 32.171875 
z
" id="DejaVuSans-101"/>
       <path d="M 14.796875 27.296875 
Q 14.796875 17.390625 18.875 11.75 
Q 22.953125 6.109375 30.078125 6.109375 
Q 37.203125 6.109375 41.296875 11.75 
Q 45.40625 17.390625 45.40625 27.296875 
Q 45.40625 37.203125 41.296875 42.84375 
Q 37.203125 48.484375 30.078125 48.484375 
Q 22.953125 48.484375 18.875 42.84375 
Q 14.796875 37.203125 14.796875 27.296875 
z
M 45.40625 8.203125 
Q 42.578125 3.328125 38.25 0.953125 
Q 33.9375 -1.421875 27.875 -1.421875 
Q 17.96875 -1.421875 11.734375 6.484375 
Q 5.515625 14.40625 5.515625 27.296875 
Q 5.515625 40.1875 11.734375 48.09375 
Q 17.96875 56 27.875 56 
Q 33.9375 56 38.25 53.625 
Q 42.578125 51.265625 45.40625 46.390625 
L 45.40625 54.6875 
L 54.390625 54.6875 
L 54.390625 -20.796875 
L 45.40625 -20.796875 
z
" id="DejaVuSans-113"/>
       <path d="M 8.5 21.578125 
L 8.5 54.6875 
L 17.484375 54.6875 
L 17.484375 21.921875 
Q 17.484375 14.15625 20.5 10.265625 
Q 23.53125 6.390625 29.59375 6.390625 
Q 36.859375 6.390625 41.078125 11.03125 
Q 45.3125 15.671875 45.3125 23.6875 
L 45.3125 54.6875 
L 54.296875 54.6875 
L 54.296875 0 
L 45.3125 0 
L 45.3125 8.40625 
Q 42.046875 3.421875 37.71875 1 
Q 33.40625 -1.421875 27.6875 -1.421875 
Q 18.265625 -1.421875 13.375 4.4375 
Q 8.5 10.296875 8.5 21.578125 
z
M 31.109375 56 
z
" id="DejaVuSans-117"/>
       <path d="M 54.890625 33.015625 
L 54.890625 0 
L 45.90625 0 
L 45.90625 32.71875 
Q 45.90625 40.484375 42.875 44.328125 
Q 39.84375 48.1875 33.796875 48.1875 
Q 26.515625 48.1875 22.3125 43.546875 
Q 18.109375 38.921875 18.109375 30.90625 
L 18.109375 0 
L 9.078125 0 
L 9.078125 54.6875 
L 18.109375 54.6875 
L 18.109375 46.1875 
Q 21.34375 51.125 25.703125 53.5625 
Q 30.078125 56 35.796875 56 
Q 45.21875 56 50.046875 50.171875 
Q 54.890625 44.34375 54.890625 33.015625 
z
" id="DejaVuSans-110"/>
       <path d="M 48.78125 52.59375 
L 48.78125 44.1875 
Q 44.96875 46.296875 41.140625 47.34375 
Q 37.3125 48.390625 33.40625 48.390625 
Q 24.65625 48.390625 19.8125 42.84375 
Q 14.984375 37.3125 14.984375 27.296875 
Q 14.984375 17.28125 19.8125 11.734375 
Q 24.65625 6.203125 33.40625 6.203125 
Q 37.3125 6.203125 41.140625 7.25 
Q 44.96875 8.296875 48.78125 10.40625 
L 48.78125 2.09375 
Q 45.015625 0.34375 40.984375 -0.53125 
Q 36.96875 -1.421875 32.421875 -1.421875 
Q 20.0625 -1.421875 12.78125 6.34375 
Q 5.515625 14.109375 5.515625 27.296875 
Q 5.515625 40.671875 12.859375 48.328125 
Q 20.21875 56 33.015625 56 
Q 37.15625 56 41.109375 55.140625 
Q 45.0625 54.296875 48.78125 52.59375 
z
" id="DejaVuSans-99"/>
       <path d="M 32.171875 -5.078125 
Q 28.375 -14.84375 24.75 -17.8125 
Q 21.140625 -20.796875 15.09375 -20.796875 
L 7.90625 -20.796875 
L 7.90625 -13.28125 
L 13.1875 -13.28125 
Q 16.890625 -13.28125 18.9375 -11.515625 
Q 21 -9.765625 23.484375 -3.21875 
L 25.09375 0.875 
L 2.984375 54.6875 
L 12.5 54.6875 
L 29.59375 11.921875 
L 46.6875 54.6875 
L 56.203125 54.6875 
z
" id="DejaVuSans-121"/>
       <path id="DejaVuSans-32"/>
       <path d="M 31 75.875 
Q 24.46875 64.65625 21.28125 53.65625 
Q 18.109375 42.671875 18.109375 31.390625 
Q 18.109375 20.125 21.3125 9.0625 
Q 24.515625 -2 31 -13.1875 
L 23.1875 -13.1875 
Q 15.875 -1.703125 12.234375 9.375 
Q 8.59375 20.453125 8.59375 31.390625 
Q 8.59375 42.28125 12.203125 53.3125 
Q 15.828125 64.359375 23.1875 75.875 
z
" id="DejaVuSans-40"/>
       <path d="M 9.8125 72.90625 
L 19.671875 72.90625 
L 19.671875 43.015625 
L 55.515625 43.015625 
L 55.515625 72.90625 
L 65.375 72.90625 
L 65.375 0 
L 55.515625 0 
L 55.515625 34.71875 
L 19.671875 34.71875 
L 19.671875 0 
L 9.8125 0 
z
" id="DejaVuSans-72"/>
       <path d="M 5.515625 54.6875 
L 48.1875 54.6875 
L 48.1875 46.484375 
L 14.40625 7.171875 
L 48.1875 7.171875 
L 48.1875 0 
L 4.296875 0 
L 4.296875 8.203125 
L 38.09375 47.515625 
L 5.515625 47.515625 
z
" id="DejaVuSans-122"/>
       <path d="M 8.015625 75.875 
L 15.828125 75.875 
Q 23.140625 64.359375 26.78125 53.3125 
Q 30.421875 42.28125 30.421875 31.390625 
Q 30.421875 20.453125 26.78125 9.375 
Q 23.140625 -1.703125 15.828125 -13.1875 
L 8.015625 -13.1875 
Q 14.5 -2 17.703125 9.0625 
Q 20.90625 20.125 20.90625 31.390625 
Q 20.90625 42.671875 17.703125 53.65625 
Q 14.5 64.65625 8.015625 75.875 
z
" id="DejaVuSans-41"/>
      </defs>
      <use xlink:href="#DejaVuSans-102"/>
      <use x="35.205078" xlink:href="#DejaVuSans-114"/>
      <use x="74.068359" xlink:href="#DejaVuSans-101"/>
      <use x="135.591797" xlink:href="#DejaVuSans-113"/>
      <use x="199.068359" xlink:href="#DejaVuSans-117"/>
      <use x="262.447266" xlink:href="#DejaVuSans-101"/>
      <use x="323.970703" xlink:href="#DejaVuSans-110"/>
      <use x="387.349609" xlink:href="#DejaVuSans-99"/>
      <use x="442.330078" xlink:href="#DejaVuSans-121"/>
      <use x="501.509766" xlink:href="#DejaVuSans-32"/>
      <use x="533.296875" xlink:href="#DejaVuSans-40"/>
      <use x="572.310547" xlink:href="#DejaVuSans-72"/>
      <use x="647.505859" xlink:href="#DejaVuSans-122"/>
      <use x="699.996094" xlink:href="#DejaVuSans-41"/>
     </g>
    </g>
   </g>
   <g id="matplotlib.axis_2">
    <g id="ytick_1">
     <g id="line2d_7">
      <defs>
       <path d="M 0 0 
L -3.5 0 
" id="ma2bd6dc9ea" style="stroke:#000000;stroke-width:0.8;"/>
      </defs>
      <g>
       <use style="stroke:#000000;stroke-width:0.8;" x="59.377207" xlink:href="#ma2bd6dc9ea" y="218.846172"/>
      </g>
     </g>
     <g id="text_8">
      <!-- $\mathdefault{10^{-10}}$ -->
      <g transform="translate(24.477207 222.645391)scale(0.1 -0.1)">
       <defs>
        <path d="M 10.59375 35.5 
L 73.1875 35.5 
L 73.1875 27.203125 
L 10.59375 27.203125 
z
" id="DejaVuSans-8722"/>
       </defs>
       <use transform="translate(0 0.765625)" xlink:href="#DejaVuSans-49"/>
       <use transform="translate(63.623047 0.765625)" xlink:href="#DejaVuSans-48"/>
       <use transform="translate(128.203125 39.046875)scale(0.7)" xlink:href="#DejaVuSans-8722"/>
       <use transform="translate(186.855469 39.046875)scale(0.7)" xlink:href="#DejaVuSans-49"/>
       <use transform="translate(231.391602 39.046875)scale(0.7)" xlink:href="#DejaVuSans-48"/>
      </g>
     </g>
    </g>
    <g id="ytick_2">
     <g id="line2d_8">
      <g>
       <use style="stroke:#000000;stroke-width:0.8;" x="59.377207" xlink:href="#ma2bd6dc9ea" y="174.690844"/>
      </g>
     </g>
     <g id="text_9">
      <!-- $\mathdefault{10^{-8}}$ -->
      <g transform="translate(28.877207 178.490062)scale(0.1 -0.1)">
       <defs>
        <path d="M 31.78125 34.625 
Q 24.75 34.625 20.71875 30.859375 
Q 16.703125 27.09375 16.703125 20.515625 
Q 16.703125 13.921875 20.71875 10.15625 
Q 24.75 6.390625 31.78125 6.390625 
Q 38.8125 6.390625 42.859375 10.171875 
Q 46.921875 13.96875 46.921875 20.515625 
Q 46.921875 27.09375 42.890625 30.859375 
Q 38.875 34.625 31.78125 34.625 
z
M 21.921875 38.8125 
Q 15.578125 40.375 12.03125 44.71875 
Q 8.5 49.078125 8.5 55.328125 
Q 8.5 64.0625 14.71875 69.140625 
Q 20.953125 74.21875 31.78125 74.21875 
Q 42.671875 74.21875 48.875 69.140625 
Q 55.078125 64.0625 55.078125 55.328125 
Q 55.078125 49.078125 51.53125 44.71875 
Q 48 40.375 41.703125 38.8125 
Q 48.828125 37.15625 52.796875 32.3125 
Q 56.78125 27.484375 56.78125 20.515625 
Q 56.78125 9.90625 50.3125 4.234375 
Q 43.84375 -1.421875 31.78125 -1.421875 
Q 19.734375 -1.421875 13.25 4.234375 
Q 6.78125 9.90625 6.78125 20.515625 
Q 6.78125 27.484375 10.78125 32.3125 
Q 14.796875 37.15625 21.921875 38.8125 
z
M 18.3125 54.390625 
Q 18.3125 48.734375 21.84375 45.5625 
Q 25.390625 42.390625 31.78125 42.390625 
Q 38.140625 42.390625 41.71875 45.5625 
Q 45.3125 48.734375 45.3125 54.390625 
Q 45.3125 60.0625 41.71875 63.234375 
Q 38.140625 66.40625 31.78125 66.40625 
Q 25.390625 66.40625 21.84375 63.234375 
Q 18.3125 60.0625 18.3125 54.390625 
z
" id="DejaVuSans-56"/>
       </defs>
       <use transform="translate(0 0.765625)" xlink:href="#DejaVuSans-49"/>
       <use transform="translate(63.623047 0.765625)" xlink:href="#DejaVuSans-48"/>
       <use transform="translate(128.203125 39.046875)scale(0.7)" xlink:href="#DejaVuSans-8722"/>
       <use transform="translate(186.855469 39.046875)scale(0.7)" xlink:href="#DejaVuSans-56"/>
      </g>
     </g>
    </g>
    <g id="ytick_3">
     <g id="line2d_9">
      <g>
       <use style="stroke:#000000;stroke-width:0.8;" x="59.377207" xlink:href="#ma2bd6dc9ea" y="130.535515"/>
      </g>
     </g>
     <g id="text_10">
      <!-- $\mathdefault{10^{-6}}$ -->
      <g transform="translate(28.877207 134.334734)scale(0.1 -0.1)">
       <defs>
        <path d="M 33.015625 40.375 
Q 26.375 40.375 22.484375 35.828125 
Q 18.609375 31.296875 18.609375 23.390625 
Q 18.609375 15.53125 22.484375 10.953125 
Q 26.375 6.390625 33.015625 6.390625 
Q 39.65625 6.390625 43.53125 10.953125 
Q 47.40625 15.53125 47.40625 23.390625 
Q 47.40625 31.296875 43.53125 35.828125 
Q 39.65625 40.375 33.015625 40.375 
z
M 52.59375 71.296875 
L 52.59375 62.3125 
Q 48.875 64.0625 45.09375 64.984375 
Q 41.3125 65.921875 37.59375 65.921875 
Q 27.828125 65.921875 22.671875 59.328125 
Q 17.53125 52.734375 16.796875 39.40625 
Q 19.671875 43.65625 24.015625 45.921875 
Q 28.375 48.1875 33.59375 48.1875 
Q 44.578125 48.1875 50.953125 41.515625 
Q 57.328125 34.859375 57.328125 23.390625 
Q 57.328125 12.15625 50.6875 5.359375 
Q 44.046875 -1.421875 33.015625 -1.421875 
Q 20.359375 -1.421875 13.671875 8.265625 
Q 6.984375 17.96875 6.984375 36.375 
Q 6.984375 53.65625 15.1875 63.9375 
Q 23.390625 74.21875 37.203125 74.21875 
Q 40.921875 74.21875 44.703125 73.484375 
Q 48.484375 72.75 52.59375 71.296875 
z
" id="DejaVuSans-54"/>
       </defs>
       <use transform="translate(0 0.765625)" xlink:href="#DejaVuSans-49"/>
       <use transform="translate(63.623047 0.765625)" xlink:href="#DejaVuSans-48"/>
       <use transform="translate(128.203125 39.046875)scale(0.7)" xlink:href="#DejaVuSans-8722"/>
       <use transform="translate(186.855469 39.046875)scale(0.7)" xlink:href="#DejaVuSans-54"/>
      </g>
     </g>
    </g>
    <g id="ytick_4">
     <g id="line2d_10">
      <g>
       <use style="stroke:#000000;stroke-width:0.8;" x="59.377207" xlink:href="#ma2bd6dc9ea" y="86.380186"/>
      </g>
     </g>
     <g id="text_11">
      <!-- $\mathdefault{10^{-4}}$ -->
      <g transform="translate(28.877207 90.179405)scale(0.1 -0.1)">
       <defs>
        <path d="M 37.796875 64.3125 
L 12.890625 25.390625 
L 37.796875 25.390625 
z
M 35.203125 72.90625 
L 47.609375 72.90625 
L 47.609375 25.390625 
L 58.015625 25.390625 
L 58.015625 17.1875 
L 47.609375 17.1875 
L 47.609375 0 
L 37.796875 0 
L 37.796875 17.1875 
L 4.890625 17.1875 
L 4.890625 26.703125 
z
" id="DejaVuSans-52"/>
       </defs>
       <use transform="translate(0 0.684375)" xlink:href="#DejaVuSans-49"/>
       <use transform="translate(63.623047 0.684375)" xlink:href="#DejaVuSans-48"/>
       <use transform="translate(128.203125 38.965625)scale(0.7)" xlink:href="#DejaVuSans-8722"/>
       <use transform="translate(186.855469 38.965625)scale(0.7)" xlink:href="#DejaVuSans-52"/>
      </g>
     </g>
    </g>
    <g id="text_12">
     <!-- PSD (mV**2/Hz) -->
     <g transform="translate(18.39752 190.720313)rotate(-90)scale(0.1 -0.1)">
      <defs>
       <path d="M 19.671875 64.796875 
L 19.671875 37.40625 
L 32.078125 37.40625 
Q 38.96875 37.40625 42.71875 40.96875 
Q 46.484375 44.53125 46.484375 51.125 
Q 46.484375 57.671875 42.71875 61.234375 
Q 38.96875 64.796875 32.078125 64.796875 
z
M 9.8125 72.90625 
L 32.078125 72.90625 
Q 44.34375 72.90625 50.609375 67.359375 
Q 56.890625 61.8125 56.890625 51.125 
Q 56.890625 40.328125 50.609375 34.8125 
Q 44.34375 29.296875 32.078125 29.296875 
L 19.671875 29.296875 
L 19.671875 0 
L 9.8125 0 
z
" id="DejaVuSans-80"/>
       <path d="M 53.515625 70.515625 
L 53.515625 60.890625 
Q 47.90625 63.578125 42.921875 64.890625 
Q 37.9375 66.21875 33.296875 66.21875 
Q 25.25 66.21875 20.875 63.09375 
Q 16.5 59.96875 16.5 54.203125 
Q 16.5 49.359375 19.40625 46.890625 
Q 22.3125 44.4375 30.421875 42.921875 
L 36.375 41.703125 
Q 47.40625 39.59375 52.65625 34.296875 
Q 57.90625 29 57.90625 20.125 
Q 57.90625 9.515625 50.796875 4.046875 
Q 43.703125 -1.421875 29.984375 -1.421875 
Q 24.8125 -1.421875 18.96875 -0.25 
Q 13.140625 0.921875 6.890625 3.21875 
L 6.890625 13.375 
Q 12.890625 10.015625 18.65625 8.296875 
Q 24.421875 6.59375 29.984375 6.59375 
Q 38.421875 6.59375 43.015625 9.90625 
Q 47.609375 13.234375 47.609375 19.390625 
Q 47.609375 24.75 44.3125 27.78125 
Q 41.015625 30.8125 33.5 32.328125 
L 27.484375 33.5 
Q 16.453125 35.6875 11.515625 40.375 
Q 6.59375 45.0625 6.59375 53.421875 
Q 6.59375 63.09375 13.40625 68.65625 
Q 20.21875 74.21875 32.171875 74.21875 
Q 37.3125 74.21875 42.625 73.28125 
Q 47.953125 72.359375 53.515625 70.515625 
z
" id="DejaVuSans-83"/>
       <path d="M 19.671875 64.796875 
L 19.671875 8.109375 
L 31.59375 8.109375 
Q 46.6875 8.109375 53.6875 14.9375 
Q 60.6875 21.78125 60.6875 36.53125 
Q 60.6875 51.171875 53.6875 57.984375 
Q 46.6875 64.796875 31.59375 64.796875 
z
M 9.8125 72.90625 
L 30.078125 72.90625 
Q 51.265625 72.90625 61.171875 64.09375 
Q 71.09375 55.28125 71.09375 36.53125 
Q 71.09375 17.671875 61.125 8.828125 
Q 51.171875 0 30.078125 0 
L 9.8125 0 
z
" id="DejaVuSans-68"/>
       <path d="M 52 44.1875 
Q 55.375 50.25 60.0625 53.125 
Q 64.75 56 71.09375 56 
Q 79.640625 56 84.28125 50.015625 
Q 88.921875 44.046875 88.921875 33.015625 
L 88.921875 0 
L 79.890625 0 
L 79.890625 32.71875 
Q 79.890625 40.578125 77.09375 44.375 
Q 74.3125 48.1875 68.609375 48.1875 
Q 61.625 48.1875 57.5625 43.546875 
Q 53.515625 38.921875 53.515625 30.90625 
L 53.515625 0 
L 44.484375 0 
L 44.484375 32.71875 
Q 44.484375 40.625 41.703125 44.40625 
Q 38.921875 48.1875 33.109375 48.1875 
Q 26.21875 48.1875 22.15625 43.53125 
Q 18.109375 38.875 18.109375 30.90625 
L 18.109375 0 
L 9.078125 0 
L 9.078125 54.6875 
L 18.109375 54.6875 
L 18.109375 46.1875 
Q 21.1875 51.21875 25.484375 53.609375 
Q 29.78125 56 35.6875 56 
Q 41.65625 56 45.828125 52.96875 
Q 50 49.953125 52 44.1875 
z
" id="DejaVuSans-109"/>
       <path d="M 28.609375 0 
L 0.78125 72.90625 
L 11.078125 72.90625 
L 34.1875 11.53125 
L 57.328125 72.90625 
L 67.578125 72.90625 
L 39.796875 0 
z
" id="DejaVuSans-86"/>
       <path d="M 47.015625 60.890625 
L 29.5 51.421875 
L 47.015625 41.890625 
L 44.1875 37.109375 
L 27.78125 47.015625 
L 27.78125 28.609375 
L 22.21875 28.609375 
L 22.21875 47.015625 
L 5.8125 37.109375 
L 2.984375 41.890625 
L 20.515625 51.421875 
L 2.984375 60.890625 
L 5.8125 65.71875 
L 22.21875 55.8125 
L 22.21875 74.21875 
L 27.78125 74.21875 
L 27.78125 55.8125 
L 44.1875 65.71875 
z
" id="DejaVuSans-42"/>
       <path d="M 25.390625 72.90625 
L 33.6875 72.90625 
L 8.296875 -9.28125 
L 0 -9.28125 
z
" id="DejaVuSans-47"/>
      </defs>
      <use xlink:href="#DejaVuSans-80"/>
      <use x="60.302734" xlink:href="#DejaVuSans-83"/>
      <use x="123.779297" xlink:href="#DejaVuSans-68"/>
      <use x="200.78125" xlink:href="#DejaVuSans-32"/>
      <use x="232.568359" xlink:href="#DejaVuSans-40"/>
      <use x="271.582031" xlink:href="#DejaVuSans-109"/>
      <use x="368.994141" xlink:href="#DejaVuSans-86"/>
      <use x="437.402344" xlink:href="#DejaVuSans-42"/>
      <use x="487.402344" xlink:href="#DejaVuSans-42"/>
      <use x="537.402344" xlink:href="#DejaVuSans-50"/>
      <use x="601.025391" xlink:href="#DejaVuSans-47"/>
      <use x="634.716797" xlink:href="#DejaVuSans-72"/>
      <use x="709.912109" xlink:href="#DejaVuSans-122"/>
      <use x="762.402344" xlink:href="#DejaVuSans-41"/>
     </g>
    </g>
   </g>
   <g id="line2d_11">
    <path clip-path="url(#p03aff9ef3d)" d="M 75.823698 117.483002 
L 78.393462 99.023566 
L 80.963226 105.224387 
L 83.53299 119.100209 
L 86.102754 122.83843 
L 88.672518 123.835211 
L 91.242283 127.366683 
L 93.812047 128.364942 
L 98.951575 132.007215 
L 101.521339 134.366975 
L 104.091103 134.125306 
L 106.660867 135.019098 
L 109.230632 138.319867 
L 111.800396 139.817516 
L 114.37016 141.670339 
L 116.939924 141.42641 
L 119.509688 142.650442 
L 122.079452 143.093593 
L 124.649217 144.863785 
L 127.218981 146.92805 
L 129.788745 146.904236 
L 132.358509 148.311556 
L 134.928273 149.405522 
L 137.498037 151.326438 
L 140.067801 152.337968 
L 142.637566 154.32981 
L 145.20733 153.776104 
L 147.777094 153.567923 
L 150.346858 154.837381 
L 152.916622 156.238955 
L 155.486386 156.910001 
L 158.056151 157.054934 
L 160.625915 157.659544 
L 163.195679 158.871202 
L 165.765443 158.525342 
L 168.335207 159.981717 
L 170.904971 159.347823 
L 173.474735 161.299798 
L 176.0445 162.350621 
L 178.614264 160.952433 
L 181.184028 162.785345 
L 183.753792 162.21557 
L 186.323556 163.639792 
L 188.89332 163.873908 
L 191.463085 165.438156 
L 194.032849 165.886782 
L 199.172377 166.645985 
L 201.742141 168.93032 
L 204.311905 169.720055 
L 206.88167 170.732505 
L 209.451434 170.472639 
L 212.021198 170.558332 
L 214.590962 172.605058 
L 219.73049 170.102155 
L 222.300254 171.229842 
L 224.870019 173.071311 
L 227.439783 172.702956 
L 230.009547 173.12464 
L 232.579311 174.938448 
L 235.149075 174.660998 
L 237.718839 174.589627 
L 240.288604 175.137934 
L 242.858368 175.003482 
L 245.428132 174.373626 
L 247.997896 174.551369 
L 250.56766 176.50607 
L 253.137424 175.7685 
L 255.707188 174.796989 
L 258.276953 176.29671 
L 260.846717 174.690224 
L 263.416481 173.800559 
L 265.986245 166.1292 
L 268.556009 145.016607 
L 271.125773 83.688401 
L 273.695538 67.266176 
L 276.265302 77.491451 
L 278.835066 138.142625 
L 281.40483 164.195395 
L 283.974594 177.26195 
L 286.544358 180.096384 
L 289.114122 181.392439 
L 291.683887 182.194234 
L 294.253651 184.057455 
L 296.823415 183.901866 
L 299.393179 183.536596 
L 301.962943 185.111509 
L 304.532707 185.66837 
L 307.102472 187.682992 
L 309.672236 186.405858 
L 312.242 186.936728 
L 314.811764 186.633128 
L 317.381528 186.980827 
L 319.951292 187.954688 
L 322.521056 188.793074 
L 325.090821 187.573388 
L 327.660585 186.950238 
L 330.230349 187.87004 
L 332.800113 187.472929 
L 335.369877 181.18654 
L 337.939641 175.992797 
L 340.509406 186.375621 
L 343.07917 189.039511 
L 345.648934 190.36255 
L 348.218698 190.011086 
L 353.358226 193.601676 
L 355.92799 196.718644 
L 358.497755 198.053112 
L 363.637283 201.245744 
L 366.207047 203.877515 
L 368.776811 205.035302 
L 371.346575 208.090884 
L 373.91634 210.134897 
L 376.486104 212.508757 
L 379.055868 213.678284 
L 381.625632 215.562926 
L 386.76516 219.739863 
L 389.334924 222.261949 
L 394.474453 222.822742 
L 397.044217 224.445303 
L 399.613981 228.070537 
L 402.183745 225.988151 
L 404.753509 237.351286 
L 404.753509 237.351286 
" style="fill:none;stroke:#1f77b4;stroke-linecap:square;stroke-opacity:0.6;stroke-width:1.5;"/>
   </g>
   <g id="line2d_12">
    <path clip-path="url(#p03aff9ef3d)" d="M 75.823698 118.638329 
L 78.393462 100.372702 
L 80.963226 107.844949 
L 83.53299 119.249469 
L 86.102754 123.016615 
L 88.672518 126.063142 
L 91.242283 126.779812 
L 93.812047 128.776237 
L 96.381811 130.263756 
L 98.951575 131.90288 
L 101.521339 133.173715 
L 104.091103 135.626002 
L 106.660867 135.431701 
L 109.230632 137.731756 
L 111.800396 140.182601 
L 114.37016 141.55883 
L 116.939924 143.143 
L 119.509688 145.163545 
L 122.079452 145.023124 
L 124.649217 146.022437 
L 127.218981 147.44142 
L 132.358509 148.610675 
L 137.498037 150.289693 
L 140.067801 151.629082 
L 142.637566 152.763788 
L 145.20733 153.402525 
L 147.777094 154.874094 
L 150.346858 154.693867 
L 152.916622 156.430637 
L 155.486386 157.71325 
L 158.056151 158.104184 
L 160.625915 157.349438 
L 163.195679 158.326576 
L 165.765443 156.409071 
L 170.904971 161.194931 
L 173.474735 161.561395 
L 176.0445 162.834655 
L 181.184028 163.915052 
L 183.753792 162.941208 
L 186.323556 163.950536 
L 188.89332 163.821625 
L 191.463085 165.805044 
L 194.032849 167.127932 
L 196.602613 167.460389 
L 199.172377 167.236184 
L 201.742141 168.426565 
L 204.311905 168.589231 
L 206.88167 170.058718 
L 209.451434 171.101381 
L 212.021198 170.656803 
L 214.590962 171.361068 
L 217.160726 172.740728 
L 219.73049 171.489438 
L 222.300254 173.079512 
L 224.870019 173.355742 
L 227.439783 174.29279 
L 230.009547 173.529791 
L 232.579311 174.57595 
L 235.149075 175.213441 
L 237.718839 173.934948 
L 240.288604 174.007004 
L 242.858368 175.236305 
L 245.428132 175.074513 
L 247.997896 174.471886 
L 250.56766 173.279513 
L 253.137424 175.528599 
L 255.707188 175.432529 
L 258.276953 174.980926 
L 260.846717 175.419719 
L 263.416481 175.63202 
L 265.986245 168.203208 
L 268.556009 144.817974 
L 271.125773 79.387253 
L 273.695538 62.877273 
L 276.265302 73.119513 
L 278.835066 136.548666 
L 281.40483 165.635829 
L 283.974594 177.746308 
L 286.544358 182.541254 
L 289.114122 182.249889 
L 291.683887 182.434057 
L 294.253651 183.07736 
L 296.823415 182.902908 
L 299.393179 183.636987 
L 301.962943 185.286402 
L 304.532707 184.830119 
L 307.102472 186.144963 
L 309.672236 186.829236 
L 312.242 186.732275 
L 314.811764 185.863234 
L 317.381528 186.814174 
L 319.951292 187.406501 
L 322.521056 187.731355 
L 325.090821 187.197145 
L 327.660585 188.249779 
L 330.230349 188.370564 
L 332.800113 188.179953 
L 335.369877 182.213159 
L 337.939641 177.573624 
L 340.509406 188.017403 
L 343.07917 189.345725 
L 345.648934 191.703023 
L 348.218698 191.330684 
L 353.358226 193.561512 
L 355.92799 196.034554 
L 358.497755 197.252042 
L 361.067519 199.084036 
L 363.637283 200.683988 
L 366.207047 203.304946 
L 368.776811 204.727002 
L 371.346575 206.974558 
L 373.91634 210.144287 
L 376.486104 211.985885 
L 379.055868 213.567287 
L 384.195396 217.649506 
L 386.76516 219.130085 
L 389.334924 219.773241 
L 391.904689 222.487364 
L 394.474453 223.179341 
L 397.044217 224.901312 
L 399.613981 227.403833 
L 402.183745 227.188109 
L 404.753509 235.929478 
L 404.753509 235.929478 
" style="fill:none;stroke:#ff7f0e;stroke-linecap:square;stroke-opacity:0.6;stroke-width:1.5;"/>
   </g>
   <g id="line2d_13">
    <path clip-path="url(#p03aff9ef3d)" d="M 75.823698 120.912535 
L 78.393462 102.632241 
L 80.963226 109.064867 
L 83.53299 120.447711 
L 86.102754 123.887714 
L 88.672518 126.702299 
L 91.242283 128.626521 
L 93.812047 131.052219 
L 96.381811 133.214753 
L 98.951575 134.687216 
L 101.521339 136.496503 
L 104.091103 138.042717 
L 106.660867 139.177613 
L 109.230632 140.692248 
L 114.37016 143.950851 
L 116.939924 145.541957 
L 119.509688 147.529665 
L 122.079452 147.200792 
L 124.649217 147.485074 
L 127.218981 148.498709 
L 129.788745 150.476059 
L 132.358509 150.425855 
L 134.928273 150.803506 
L 137.498037 152.529887 
L 140.067801 153.199045 
L 142.637566 154.365653 
L 145.20733 155.347068 
L 147.777094 155.009039 
L 150.346858 157.314892 
L 152.916622 157.817465 
L 155.486386 158.881063 
L 158.056151 158.727989 
L 160.625915 160.326469 
L 163.195679 161.56247 
L 165.765443 161.354864 
L 170.904971 163.446788 
L 173.474735 164.734577 
L 176.0445 165.697251 
L 178.614264 164.612079 
L 181.184028 165.293231 
L 183.753792 164.730096 
L 186.323556 167.350714 
L 188.89332 167.457311 
L 191.463085 166.883371 
L 194.032849 168.377593 
L 196.602613 168.301284 
L 199.172377 170.331267 
L 201.742141 169.821152 
L 204.311905 171.156831 
L 206.88167 170.80451 
L 209.451434 170.920175 
L 212.021198 171.96881 
L 214.590962 172.479877 
L 217.160726 173.296639 
L 219.73049 173.012619 
L 222.300254 172.846079 
L 224.870019 173.615322 
L 227.439783 174.122757 
L 230.009547 174.914719 
L 235.149075 174.548249 
L 237.718839 175.118461 
L 240.288604 176.051781 
L 242.858368 174.990676 
L 245.428132 175.517921 
L 247.997896 176.410169 
L 250.56766 176.456324 
L 253.137424 177.21775 
L 255.707188 177.695053 
L 258.276953 177.858601 
L 260.846717 176.09049 
L 263.416481 176.6684 
L 265.986245 171.239027 
L 268.556009 151.759012 
L 271.125773 94.276737 
L 273.695538 78.527113 
L 276.265302 88.627301 
L 278.835066 145.30031 
L 281.40483 170.56386 
L 283.974594 180.623025 
L 286.544358 182.516893 
L 289.114122 182.706386 
L 291.683887 182.279967 
L 294.253651 183.643274 
L 296.823415 183.703378 
L 299.393179 184.997072 
L 301.962943 185.761079 
L 304.532707 185.64347 
L 307.102472 186.032741 
L 314.811764 186.422085 
L 317.381528 187.424228 
L 319.951292 187.438986 
L 322.521056 187.049488 
L 325.090821 188.216881 
L 327.660585 188.387779 
L 332.800113 189.083076 
L 335.369877 185.009553 
L 337.939641 182.824093 
L 340.509406 188.182168 
L 343.07917 190.557331 
L 345.648934 191.157781 
L 348.218698 191.399314 
L 350.788462 193.585216 
L 355.92799 195.286458 
L 361.067519 199.326527 
L 363.637283 200.272056 
L 366.207047 203.149949 
L 368.776811 205.823535 
L 371.346575 207.870984 
L 373.91634 210.715247 
L 376.486104 213.11973 
L 379.055868 214.660864 
L 381.625632 215.990976 
L 384.195396 217.463077 
L 386.76516 219.140134 
L 389.334924 221.053205 
L 391.904689 223.363189 
L 394.474453 224.274292 
L 397.044217 225.885995 
L 399.613981 226.505574 
L 402.183745 226.393519 
L 404.753509 235.770558 
L 404.753509 235.770558 
" style="fill:none;stroke:#2ca02c;stroke-linecap:square;stroke-opacity:0.6;stroke-width:1.5;"/>
   </g>
   <g id="line2d_14">
    <path clip-path="url(#p03aff9ef3d)" d="M 75.823698 120.072584 
L 78.393462 101.633558 
L 80.963226 109.746314 
L 83.53299 120.763333 
L 86.102754 124.163249 
L 88.672518 127.131789 
L 91.242283 129.497648 
L 93.812047 132.106514 
L 96.381811 133.705853 
L 98.951575 134.99502 
L 101.521339 136.573117 
L 104.091103 138.62484 
L 106.660867 139.637095 
L 111.800396 143.136641 
L 114.37016 145.462992 
L 116.939924 147.262475 
L 119.509688 146.795878 
L 122.079452 148.630797 
L 124.649217 148.69219 
L 127.218981 150.675027 
L 129.788745 150.09445 
L 132.358509 151.413284 
L 134.928273 152.567878 
L 137.498037 153.071759 
L 140.067801 153.732187 
L 142.637566 156.876141 
L 145.20733 156.607729 
L 147.777094 157.419626 
L 150.346858 159.433864 
L 152.916622 159.685875 
L 155.486386 160.189953 
L 158.056151 161.029126 
L 160.625915 162.226619 
L 163.195679 161.770441 
L 165.765443 162.506846 
L 170.904971 164.88868 
L 173.474735 166.611497 
L 176.0445 165.40143 
L 178.614264 165.055802 
L 181.184028 166.262841 
L 183.753792 166.048973 
L 186.323556 168.422259 
L 188.89332 169.093247 
L 191.463085 168.792533 
L 194.032849 169.997917 
L 196.602613 169.500782 
L 199.172377 171.869969 
L 201.742141 170.332967 
L 204.311905 170.005973 
L 206.88167 172.030658 
L 209.451434 172.809503 
L 212.021198 172.337103 
L 214.590962 173.060893 
L 217.160726 173.131456 
L 219.73049 173.485372 
L 222.300254 173.270203 
L 224.870019 173.812749 
L 227.439783 175.628538 
L 230.009547 176.392223 
L 232.579311 175.338871 
L 235.149075 177.213237 
L 237.718839 176.112599 
L 240.288604 175.489765 
L 242.858368 176.175886 
L 245.428132 176.278273 
L 247.997896 176.63548 
L 250.56766 176.788356 
L 253.137424 177.160785 
L 255.707188 177.39316 
L 258.276953 178.233788 
L 260.846717 177.484637 
L 263.416481 178.221531 
L 265.986245 174.648196 
L 268.556009 155.082954 
L 271.125773 87.685161 
L 273.695538 71.097548 
L 276.265302 81.358106 
L 278.835066 146.465688 
L 281.40483 173.212668 
L 283.974594 181.337842 
L 286.544358 182.916262 
L 289.114122 183.458005 
L 291.683887 183.281403 
L 294.253651 184.65617 
L 296.823415 185.380425 
L 299.393179 184.560565 
L 301.962943 185.844252 
L 304.532707 185.99788 
L 307.102472 185.965927 
L 309.672236 186.574452 
L 312.242 187.624289 
L 314.811764 188.253182 
L 317.381528 187.717977 
L 319.951292 188.271362 
L 322.521056 188.202929 
L 325.090821 188.308785 
L 327.660585 189.578843 
L 330.230349 188.513383 
L 332.800113 188.653322 
L 335.369877 185.991681 
L 337.939641 184.488472 
L 340.509406 189.674392 
L 343.07917 190.414936 
L 345.648934 190.362556 
L 348.218698 191.119753 
L 350.788462 192.853878 
L 353.358226 195.159377 
L 355.92799 196.512649 
L 358.497755 197.410715 
L 361.067519 199.956952 
L 363.637283 201.245976 
L 366.207047 203.839879 
L 371.346575 208.141779 
L 373.91634 209.066612 
L 379.055868 214.492682 
L 381.625632 215.155525 
L 384.195396 217.398221 
L 386.76516 219.115491 
L 389.334924 221.444841 
L 391.904689 223.089827 
L 394.474453 224.331898 
L 397.044217 224.269655 
L 399.613981 225.368293 
L 402.183745 228.61767 
L 404.753509 238.422727 
L 404.753509 238.422727 
" style="fill:none;stroke:#d62728;stroke-linecap:square;stroke-opacity:0.6;stroke-width:1.5;"/>
   </g>
   <g id="line2d_15">
    <path clip-path="url(#p03aff9ef3d)" d="M 75.823698 124.040968 
L 78.393462 102.107912 
L 80.963226 109.6071 
L 83.53299 123.155456 
L 86.102754 125.212985 
L 88.672518 129.429725 
L 91.242283 131.37204 
L 93.812047 133.090753 
L 96.381811 136.23592 
L 98.951575 137.161494 
L 101.521339 138.461781 
L 104.091103 137.401905 
L 106.660867 139.81174 
L 109.230632 141.97362 
L 111.800396 144.967998 
L 114.37016 145.718622 
L 119.509688 149.031803 
L 122.079452 149.604669 
L 124.649217 150.748826 
L 127.218981 153.4528 
L 129.788745 151.834553 
L 132.358509 153.143852 
L 134.928273 154.774527 
L 137.498037 156.850321 
L 140.067801 156.818739 
L 142.637566 156.899789 
L 145.20733 158.37739 
L 147.777094 158.142403 
L 150.346858 158.337674 
L 152.916622 161.354935 
L 155.486386 161.731199 
L 158.056151 163.610048 
L 160.625915 163.034997 
L 163.195679 164.745009 
L 165.765443 164.748169 
L 168.335207 163.632856 
L 170.904971 165.530813 
L 173.474735 167.866774 
L 176.0445 167.115087 
L 178.614264 166.659083 
L 181.184028 168.248938 
L 183.753792 168.305078 
L 186.323556 169.525063 
L 188.89332 168.873744 
L 191.463085 169.05081 
L 194.032849 170.356176 
L 196.602613 170.688614 
L 199.172377 171.507023 
L 201.742141 171.784714 
L 204.311905 171.667217 
L 206.88167 172.627937 
L 209.451434 174.457732 
L 212.021198 173.48688 
L 214.590962 174.05071 
L 217.160726 173.527276 
L 219.73049 174.376552 
L 222.300254 175.412844 
L 224.870019 174.595763 
L 227.439783 175.346873 
L 230.009547 175.194285 
L 232.579311 176.390071 
L 235.149075 177.439312 
L 240.288604 176.388187 
L 242.858368 176.39268 
L 245.428132 177.096065 
L 247.997896 177.410823 
L 250.56766 176.825848 
L 253.137424 178.491485 
L 255.707188 177.754062 
L 258.276953 177.830157 
L 260.846717 178.359246 
L 263.416481 177.604551 
L 265.986245 179.191317 
L 268.556009 164.151571 
L 271.125773 94.012306 
L 273.695538 77.295531 
L 276.265302 87.619065 
L 278.835066 157.402998 
L 281.40483 179.127102 
L 283.974594 183.545877 
L 286.544358 181.87715 
L 289.114122 183.392612 
L 291.683887 183.604178 
L 294.253651 184.905157 
L 296.823415 184.834876 
L 299.393179 184.912152 
L 301.962943 185.150088 
L 307.102472 186.229914 
L 309.672236 187.296599 
L 312.242 187.275282 
L 314.811764 187.052565 
L 317.381528 188.839573 
L 319.951292 188.145425 
L 322.521056 189.647467 
L 325.090821 188.824674 
L 327.660585 187.382096 
L 330.230349 188.743462 
L 332.800113 188.550981 
L 335.369877 188.50708 
L 337.939641 187.257998 
L 340.509406 189.113741 
L 343.07917 188.554776 
L 345.648934 190.458855 
L 348.218698 191.723076 
L 350.788462 192.190537 
L 353.358226 194.554792 
L 355.92799 196.250821 
L 358.497755 198.599181 
L 361.067519 199.539979 
L 363.637283 200.627253 
L 366.207047 202.731402 
L 371.346575 207.61589 
L 373.91634 208.791953 
L 379.055868 215.435087 
L 381.625632 216.87916 
L 384.195396 217.946112 
L 386.76516 219.438559 
L 389.334924 219.771994 
L 391.904689 223.628802 
L 394.474453 222.761573 
L 397.044217 225.662629 
L 399.613981 225.633513 
L 402.183745 225.735495 
L 404.753509 237.148291 
L 404.753509 237.148291 
" style="fill:none;stroke:#9467bd;stroke-linecap:square;stroke-opacity:0.6;stroke-width:1.5;"/>
   </g>
   <g id="line2d_16">
    <path clip-path="url(#p03aff9ef3d)" d="M 75.823698 120.834556 
L 78.393462 103.056386 
L 80.963226 110.603431 
L 83.53299 120.420436 
L 86.102754 125.076819 
L 88.672518 128.824113 
L 91.242283 131.26202 
L 93.812047 132.4869 
L 96.381811 135.130106 
L 98.951575 137.381401 
L 101.521339 138.171499 
L 104.091103 139.912241 
L 106.660867 140.728446 
L 109.230632 143.059369 
L 111.800396 144.614482 
L 114.37016 147.156874 
L 116.939924 148.129039 
L 119.509688 148.294979 
L 127.218981 152.29082 
L 129.788745 152.370833 
L 132.358509 154.218987 
L 134.928273 154.739719 
L 137.498037 154.77922 
L 140.067801 156.342603 
L 142.637566 158.104902 
L 145.20733 159.172995 
L 147.777094 159.081661 
L 150.346858 161.60732 
L 152.916622 162.102944 
L 155.486386 161.224889 
L 158.056151 162.415234 
L 160.625915 162.824721 
L 163.195679 163.758345 
L 165.765443 163.0578 
L 168.335207 165.456621 
L 173.474735 166.26745 
L 176.0445 168.525528 
L 178.614264 167.337688 
L 181.184028 167.411644 
L 183.753792 165.269358 
L 186.323556 168.802923 
L 188.89332 170.68837 
L 191.463085 170.325412 
L 194.032849 170.839583 
L 196.602613 173.150745 
L 199.172377 172.580149 
L 201.742141 170.965585 
L 204.311905 171.99591 
L 206.88167 172.323498 
L 209.451434 174.026094 
L 212.021198 173.885493 
L 214.590962 175.746803 
L 217.160726 174.528499 
L 222.300254 175.96572 
L 227.439783 175.346536 
L 230.009547 177.739662 
L 232.579311 178.978561 
L 235.149075 178.168618 
L 237.718839 176.921126 
L 240.288604 177.428252 
L 242.858368 176.846082 
L 245.428132 177.112227 
L 247.997896 177.077674 
L 250.56766 176.611073 
L 253.137424 177.797224 
L 255.707188 178.114477 
L 258.276953 177.108922 
L 260.846717 177.070556 
L 263.416481 178.554163 
L 265.986245 179.075774 
L 268.556009 169.167515 
L 271.125773 127.754766 
L 273.695538 112.376045 
L 276.265302 122.345084 
L 278.835066 166.354745 
L 281.40483 182.34111 
L 283.974594 182.999182 
L 286.544358 182.421373 
L 289.114122 183.041866 
L 291.683887 184.117853 
L 294.253651 184.123986 
L 296.823415 185.641174 
L 299.393179 185.245714 
L 301.962943 186.362215 
L 304.532707 186.37902 
L 307.102472 187.240801 
L 309.672236 186.415459 
L 314.811764 187.397631 
L 317.381528 187.505702 
L 319.951292 187.332897 
L 322.521056 188.318968 
L 327.660585 187.318049 
L 330.230349 187.282518 
L 332.800113 188.088174 
L 335.369877 187.917456 
L 337.939641 187.064357 
L 340.509406 188.209158 
L 343.07917 189.734423 
L 345.648934 189.278398 
L 348.218698 190.168548 
L 350.788462 193.043616 
L 355.92799 195.157498 
L 358.497755 195.934848 
L 361.067519 198.622099 
L 363.637283 198.242503 
L 366.207047 202.278779 
L 368.776811 205.265729 
L 371.346575 206.816906 
L 373.91634 209.744303 
L 376.486104 211.396198 
L 379.055868 213.387824 
L 381.625632 214.075022 
L 384.195396 217.472213 
L 386.76516 218.324956 
L 389.334924 220.662869 
L 391.904689 222.575877 
L 394.474453 223.555106 
L 397.044217 225.811831 
L 399.613981 226.669405 
L 402.183745 225.412016 
L 404.753509 234.759444 
L 404.753509 234.759444 
" style="fill:none;stroke:#8c564b;stroke-linecap:square;stroke-opacity:0.6;stroke-width:1.5;"/>
   </g>
   <g id="line2d_17">
    <path clip-path="url(#p03aff9ef3d)" d="M 92.928048 247.2 
L 92.928048 54.1 
" style="fill:none;stroke:#cd5c5c;stroke-linecap:square;stroke-width:1.5;"/>
   </g>
   <g id="line2d_18">
    <path clip-path="url(#p03aff9ef3d)" d="M 115.295275 247.2 
L 115.295275 54.1 
" style="fill:none;stroke:#cd5c5c;stroke-linecap:square;stroke-width:1.5;"/>
   </g>
   <g id="line2d_19">
    <path clip-path="url(#p03aff9ef3d)" d="M 154.766852 247.2 
L 154.766852 54.1 
" style="fill:none;stroke:#2e8b57;stroke-linecap:square;stroke-width:1.5;"/>
   </g>
   <g id="line2d_20">
    <path clip-path="url(#p03aff9ef3d)" d="M 194.23843 247.2 
L 194.23843 54.1 
" style="fill:none;stroke:#2e8b57;stroke-linecap:square;stroke-width:1.5;"/>
   </g>
   <g id="patch_3">
    <path d="M 59.377207 247.2 
L 59.377207 54.1 
" style="fill:none;stroke:#000000;stroke-linecap:square;stroke-linejoin:miter;stroke-width:0.8;"/>
   </g>
   <g id="patch_4">
    <path d="M 421.2 247.2 
L 421.2 54.1 
" style="fill:none;stroke:#000000;stroke-linecap:square;stroke-linejoin:miter;stroke-width:0.8;"/>
   </g>
   <g id="patch_5">
    <path d="M 59.377207 247.2 
L 421.2 247.2 
" style="fill:none;stroke:#000000;stroke-linecap:square;stroke-linejoin:miter;stroke-width:0.8;"/>
   </g>
   <g id="patch_6">
    <path d="M 59.377207 54.1 
L 421.2 54.1 
" style="fill:none;stroke:#000000;stroke-linecap:square;stroke-linejoin:miter;stroke-width:0.8;"/>
   </g>
   <g id="text_13">
    <!-- RCS09  gamma entrainment; med: ON; side: L -->
    <g transform="translate(101.157041 21.22525)scale(0.12 -0.12)">
     <defs>
      <path d="M 44.390625 34.1875 
Q 47.5625 33.109375 50.5625 29.59375 
Q 53.5625 26.078125 56.59375 19.921875 
L 66.609375 0 
L 56 0 
L 46.6875 18.703125 
Q 43.0625 26.03125 39.671875 28.421875 
Q 36.28125 30.8125 30.421875 30.8125 
L 19.671875 30.8125 
L 19.671875 0 
L 9.8125 0 
L 9.8125 72.90625 
L 32.078125 72.90625 
Q 44.578125 72.90625 50.734375 67.671875 
Q 56.890625 62.453125 56.890625 51.90625 
Q 56.890625 45.015625 53.6875 40.46875 
Q 50.484375 35.9375 44.390625 34.1875 
z
M 19.671875 64.796875 
L 19.671875 38.921875 
L 32.078125 38.921875 
Q 39.203125 38.921875 42.84375 42.21875 
Q 46.484375 45.515625 46.484375 51.90625 
Q 46.484375 58.296875 42.84375 61.546875 
Q 39.203125 64.796875 32.078125 64.796875 
z
" id="DejaVuSans-82"/>
      <path d="M 64.40625 67.28125 
L 64.40625 56.890625 
Q 59.421875 61.53125 53.78125 63.8125 
Q 48.140625 66.109375 41.796875 66.109375 
Q 29.296875 66.109375 22.65625 58.46875 
Q 16.015625 50.828125 16.015625 36.375 
Q 16.015625 21.96875 22.65625 14.328125 
Q 29.296875 6.6875 41.796875 6.6875 
Q 48.140625 6.6875 53.78125 8.984375 
Q 59.421875 11.28125 64.40625 15.921875 
L 64.40625 5.609375 
Q 59.234375 2.09375 53.4375 0.328125 
Q 47.65625 -1.421875 41.21875 -1.421875 
Q 24.65625 -1.421875 15.125 8.703125 
Q 5.609375 18.84375 5.609375 36.375 
Q 5.609375 53.953125 15.125 64.078125 
Q 24.65625 74.21875 41.21875 74.21875 
Q 47.75 74.21875 53.53125 72.484375 
Q 59.328125 70.75 64.40625 67.28125 
z
" id="DejaVuSans-67"/>
      <path d="M 10.984375 1.515625 
L 10.984375 10.5 
Q 14.703125 8.734375 18.5 7.8125 
Q 22.3125 6.890625 25.984375 6.890625 
Q 35.75 6.890625 40.890625 13.453125 
Q 46.046875 20.015625 46.78125 33.40625 
Q 43.953125 29.203125 39.59375 26.953125 
Q 35.25 24.703125 29.984375 24.703125 
Q 19.046875 24.703125 12.671875 31.3125 
Q 6.296875 37.9375 6.296875 49.421875 
Q 6.296875 60.640625 12.9375 67.421875 
Q 19.578125 74.21875 30.609375 74.21875 
Q 43.265625 74.21875 49.921875 64.515625 
Q 56.59375 54.828125 56.59375 36.375 
Q 56.59375 19.140625 48.40625 8.859375 
Q 40.234375 -1.421875 26.421875 -1.421875 
Q 22.703125 -1.421875 18.890625 -0.6875 
Q 15.09375 0.046875 10.984375 1.515625 
z
M 30.609375 32.421875 
Q 37.25 32.421875 41.125 36.953125 
Q 45.015625 41.5 45.015625 49.421875 
Q 45.015625 57.28125 41.125 61.84375 
Q 37.25 66.40625 30.609375 66.40625 
Q 23.96875 66.40625 20.09375 61.84375 
Q 16.21875 57.28125 16.21875 49.421875 
Q 16.21875 41.5 20.09375 36.953125 
Q 23.96875 32.421875 30.609375 32.421875 
z
" id="DejaVuSans-57"/>
      <path d="M 45.40625 27.984375 
Q 45.40625 37.75 41.375 43.109375 
Q 37.359375 48.484375 30.078125 48.484375 
Q 22.859375 48.484375 18.828125 43.109375 
Q 14.796875 37.75 14.796875 27.984375 
Q 14.796875 18.265625 18.828125 12.890625 
Q 22.859375 7.515625 30.078125 7.515625 
Q 37.359375 7.515625 41.375 12.890625 
Q 45.40625 18.265625 45.40625 27.984375 
z
M 54.390625 6.78125 
Q 54.390625 -7.171875 48.1875 -13.984375 
Q 42 -20.796875 29.203125 -20.796875 
Q 24.46875 -20.796875 20.265625 -20.09375 
Q 16.0625 -19.390625 12.109375 -17.921875 
L 12.109375 -9.1875 
Q 16.0625 -11.328125 19.921875 -12.34375 
Q 23.78125 -13.375 27.78125 -13.375 
Q 36.625 -13.375 41.015625 -8.765625 
Q 45.40625 -4.15625 45.40625 5.171875 
L 45.40625 9.625 
Q 42.625 4.78125 38.28125 2.390625 
Q 33.9375 0 27.875 0 
Q 17.828125 0 11.671875 7.65625 
Q 5.515625 15.328125 5.515625 27.984375 
Q 5.515625 40.671875 11.671875 48.328125 
Q 17.828125 56 27.875 56 
Q 33.9375 56 38.28125 53.609375 
Q 42.625 51.21875 45.40625 46.390625 
L 45.40625 54.6875 
L 54.390625 54.6875 
z
" id="DejaVuSans-103"/>
      <path d="M 34.28125 27.484375 
Q 23.390625 27.484375 19.1875 25 
Q 14.984375 22.515625 14.984375 16.5 
Q 14.984375 11.71875 18.140625 8.90625 
Q 21.296875 6.109375 26.703125 6.109375 
Q 34.1875 6.109375 38.703125 11.40625 
Q 43.21875 16.703125 43.21875 25.484375 
L 43.21875 27.484375 
z
M 52.203125 31.203125 
L 52.203125 0 
L 43.21875 0 
L 43.21875 8.296875 
Q 40.140625 3.328125 35.546875 0.953125 
Q 30.953125 -1.421875 24.3125 -1.421875 
Q 15.921875 -1.421875 10.953125 3.296875 
Q 6 8.015625 6 15.921875 
Q 6 25.140625 12.171875 29.828125 
Q 18.359375 34.515625 30.609375 34.515625 
L 43.21875 34.515625 
L 43.21875 35.40625 
Q 43.21875 41.609375 39.140625 45 
Q 35.0625 48.390625 27.6875 48.390625 
Q 23 48.390625 18.546875 47.265625 
Q 14.109375 46.140625 10.015625 43.890625 
L 10.015625 52.203125 
Q 14.9375 54.109375 19.578125 55.046875 
Q 24.21875 56 28.609375 56 
Q 40.484375 56 46.34375 49.84375 
Q 52.203125 43.703125 52.203125 31.203125 
z
" id="DejaVuSans-97"/>
      <path d="M 18.3125 70.21875 
L 18.3125 54.6875 
L 36.8125 54.6875 
L 36.8125 47.703125 
L 18.3125 47.703125 
L 18.3125 18.015625 
Q 18.3125 11.328125 20.140625 9.421875 
Q 21.96875 7.515625 27.59375 7.515625 
L 36.8125 7.515625 
L 36.8125 0 
L 27.59375 0 
Q 17.1875 0 13.234375 3.875 
Q 9.28125 7.765625 9.28125 18.015625 
L 9.28125 47.703125 
L 2.6875 47.703125 
L 2.6875 54.6875 
L 9.28125 54.6875 
L 9.28125 70.21875 
z
" id="DejaVuSans-116"/>
      <path d="M 9.421875 54.6875 
L 18.40625 54.6875 
L 18.40625 0 
L 9.421875 0 
z
M 9.421875 75.984375 
L 18.40625 75.984375 
L 18.40625 64.59375 
L 9.421875 64.59375 
z
" id="DejaVuSans-105"/>
      <path d="M 11.71875 51.703125 
L 22.015625 51.703125 
L 22.015625 39.3125 
L 11.71875 39.3125 
z
M 11.71875 12.40625 
L 22.015625 12.40625 
L 22.015625 4 
L 14.015625 -11.625 
L 7.71875 -11.625 
L 11.71875 4 
z
" id="DejaVuSans-59"/>
      <path d="M 45.40625 46.390625 
L 45.40625 75.984375 
L 54.390625 75.984375 
L 54.390625 0 
L 45.40625 0 
L 45.40625 8.203125 
Q 42.578125 3.328125 38.25 0.953125 
Q 33.9375 -1.421875 27.875 -1.421875 
Q 17.96875 -1.421875 11.734375 6.484375 
Q 5.515625 14.40625 5.515625 27.296875 
Q 5.515625 40.1875 11.734375 48.09375 
Q 17.96875 56 27.875 56 
Q 33.9375 56 38.25 53.625 
Q 42.578125 51.265625 45.40625 46.390625 
z
M 14.796875 27.296875 
Q 14.796875 17.390625 18.875 11.75 
Q 22.953125 6.109375 30.078125 6.109375 
Q 37.203125 6.109375 41.296875 11.75 
Q 45.40625 17.390625 45.40625 27.296875 
Q 45.40625 37.203125 41.296875 42.84375 
Q 37.203125 48.484375 30.078125 48.484375 
Q 22.953125 48.484375 18.875 42.84375 
Q 14.796875 37.203125 14.796875 27.296875 
z
" id="DejaVuSans-100"/>
      <path d="M 11.71875 12.40625 
L 22.015625 12.40625 
L 22.015625 0 
L 11.71875 0 
z
M 11.71875 51.703125 
L 22.015625 51.703125 
L 22.015625 39.3125 
L 11.71875 39.3125 
z
" id="DejaVuSans-58"/>
      <path d="M 39.40625 66.21875 
Q 28.65625 66.21875 22.328125 58.203125 
Q 16.015625 50.203125 16.015625 36.375 
Q 16.015625 22.609375 22.328125 14.59375 
Q 28.65625 6.59375 39.40625 6.59375 
Q 50.140625 6.59375 56.421875 14.59375 
Q 62.703125 22.609375 62.703125 36.375 
Q 62.703125 50.203125 56.421875 58.203125 
Q 50.140625 66.21875 39.40625 66.21875 
z
M 39.40625 74.21875 
Q 54.734375 74.21875 63.90625 63.9375 
Q 73.09375 53.65625 73.09375 36.375 
Q 73.09375 19.140625 63.90625 8.859375 
Q 54.734375 -1.421875 39.40625 -1.421875 
Q 24.03125 -1.421875 14.8125 8.828125 
Q 5.609375 19.09375 5.609375 36.375 
Q 5.609375 53.65625 14.8125 63.9375 
Q 24.03125 74.21875 39.40625 74.21875 
z
" id="DejaVuSans-79"/>
      <path d="M 9.8125 72.90625 
L 23.09375 72.90625 
L 55.421875 11.921875 
L 55.421875 72.90625 
L 64.984375 72.90625 
L 64.984375 0 
L 51.703125 0 
L 19.390625 60.984375 
L 19.390625 0 
L 9.8125 0 
z
" id="DejaVuSans-78"/>
      <path d="M 44.28125 53.078125 
L 44.28125 44.578125 
Q 40.484375 46.53125 36.375 47.5 
Q 32.28125 48.484375 27.875 48.484375 
Q 21.1875 48.484375 17.84375 46.4375 
Q 14.5 44.390625 14.5 40.28125 
Q 14.5 37.15625 16.890625 35.375 
Q 19.28125 33.59375 26.515625 31.984375 
L 29.59375 31.296875 
Q 39.15625 29.25 43.1875 25.515625 
Q 47.21875 21.78125 47.21875 15.09375 
Q 47.21875 7.46875 41.1875 3.015625 
Q 35.15625 -1.421875 24.609375 -1.421875 
Q 20.21875 -1.421875 15.453125 -0.5625 
Q 10.6875 0.296875 5.421875 2 
L 5.421875 11.28125 
Q 10.40625 8.6875 15.234375 7.390625 
Q 20.0625 6.109375 24.8125 6.109375 
Q 31.15625 6.109375 34.5625 8.28125 
Q 37.984375 10.453125 37.984375 14.40625 
Q 37.984375 18.0625 35.515625 20.015625 
Q 33.0625 21.96875 24.703125 23.78125 
L 21.578125 24.515625 
Q 13.234375 26.265625 9.515625 29.90625 
Q 5.8125 33.546875 5.8125 39.890625 
Q 5.8125 47.609375 11.28125 51.796875 
Q 16.75 56 26.8125 56 
Q 31.78125 56 36.171875 55.265625 
Q 40.578125 54.546875 44.28125 53.078125 
z
" id="DejaVuSans-115"/>
      <path d="M 9.8125 72.90625 
L 19.671875 72.90625 
L 19.671875 8.296875 
L 55.171875 8.296875 
L 55.171875 0 
L 9.8125 0 
z
" id="DejaVuSans-76"/>
     </defs>
     <use xlink:href="#DejaVuSans-82"/>
     <use x="64.482422" xlink:href="#DejaVuSans-67"/>
     <use x="134.306641" xlink:href="#DejaVuSans-83"/>
     <use x="197.783203" xlink:href="#DejaVuSans-48"/>
     <use x="261.40625" xlink:href="#DejaVuSans-57"/>
     <use x="325.029297" xlink:href="#DejaVuSans-32"/>
     <use x="356.816406" xlink:href="#DejaVuSans-32"/>
     <use x="388.603516" xlink:href="#DejaVuSans-103"/>
     <use x="452.080078" xlink:href="#DejaVuSans-97"/>
     <use x="513.359375" xlink:href="#DejaVuSans-109"/>
     <use x="610.771484" xlink:href="#DejaVuSans-109"/>
     <use x="708.183594" xlink:href="#DejaVuSans-97"/>
     <use x="769.462891" xlink:href="#DejaVuSans-32"/>
     <use x="801.25" xlink:href="#DejaVuSans-101"/>
     <use x="862.773438" xlink:href="#DejaVuSans-110"/>
     <use x="926.152344" xlink:href="#DejaVuSans-116"/>
     <use x="965.361328" xlink:href="#DejaVuSans-114"/>
     <use x="1006.474609" xlink:href="#DejaVuSans-97"/>
     <use x="1067.753906" xlink:href="#DejaVuSans-105"/>
     <use x="1095.537109" xlink:href="#DejaVuSans-110"/>
     <use x="1158.916016" xlink:href="#DejaVuSans-109"/>
     <use x="1256.328125" xlink:href="#DejaVuSans-101"/>
     <use x="1317.851562" xlink:href="#DejaVuSans-110"/>
     <use x="1381.230469" xlink:href="#DejaVuSans-116"/>
     <use x="1420.439453" xlink:href="#DejaVuSans-59"/>
     <use x="1454.130859" xlink:href="#DejaVuSans-32"/>
     <use x="1485.917969" xlink:href="#DejaVuSans-109"/>
     <use x="1583.330078" xlink:href="#DejaVuSans-101"/>
     <use x="1644.853516" xlink:href="#DejaVuSans-100"/>
     <use x="1708.330078" xlink:href="#DejaVuSans-58"/>
     <use x="1742.021484" xlink:href="#DejaVuSans-32"/>
     <use x="1773.808594" xlink:href="#DejaVuSans-79"/>
     <use x="1852.519531" xlink:href="#DejaVuSans-78"/>
     <use x="1927.324219" xlink:href="#DejaVuSans-59"/>
     <use x="1961.015625" xlink:href="#DejaVuSans-32"/>
     <use x="1992.802734" xlink:href="#DejaVuSans-115"/>
     <use x="2044.902344" xlink:href="#DejaVuSans-105"/>
     <use x="2072.685547" xlink:href="#DejaVuSans-100"/>
     <use x="2136.162109" xlink:href="#DejaVuSans-101"/>
     <use x="2197.685547" xlink:href="#DejaVuSans-58"/>
     <use x="2231.376953" xlink:href="#DejaVuSans-32"/>
     <use x="2263.164062" xlink:href="#DejaVuSans-76"/>
    </g>
    <!-- stim contact 2; stim freq 150.6; amps 0.0-5.0 -->
    <g transform="translate(103.823291 34.662625)scale(0.12 -0.12)">
     <defs>
      <path d="M 30.609375 48.390625 
Q 23.390625 48.390625 19.1875 42.75 
Q 14.984375 37.109375 14.984375 27.296875 
Q 14.984375 17.484375 19.15625 11.84375 
Q 23.34375 6.203125 30.609375 6.203125 
Q 37.796875 6.203125 41.984375 11.859375 
Q 46.1875 17.53125 46.1875 27.296875 
Q 46.1875 37.015625 41.984375 42.703125 
Q 37.796875 48.390625 30.609375 48.390625 
z
M 30.609375 56 
Q 42.328125 56 49.015625 48.375 
Q 55.71875 40.765625 55.71875 27.296875 
Q 55.71875 13.875 49.015625 6.21875 
Q 42.328125 -1.421875 30.609375 -1.421875 
Q 18.84375 -1.421875 12.171875 6.21875 
Q 5.515625 13.875 5.515625 27.296875 
Q 5.515625 40.765625 12.171875 48.375 
Q 18.84375 56 30.609375 56 
z
" id="DejaVuSans-111"/>
      <path d="M 10.6875 12.40625 
L 21 12.40625 
L 21 0 
L 10.6875 0 
z
" id="DejaVuSans-46"/>
      <path d="M 18.109375 8.203125 
L 18.109375 -20.796875 
L 9.078125 -20.796875 
L 9.078125 54.6875 
L 18.109375 54.6875 
L 18.109375 46.390625 
Q 20.953125 51.265625 25.265625 53.625 
Q 29.59375 56 35.59375 56 
Q 45.5625 56 51.78125 48.09375 
Q 58.015625 40.1875 58.015625 27.296875 
Q 58.015625 14.40625 51.78125 6.484375 
Q 45.5625 -1.421875 35.59375 -1.421875 
Q 29.59375 -1.421875 25.265625 0.953125 
Q 20.953125 3.328125 18.109375 8.203125 
z
M 48.6875 27.296875 
Q 48.6875 37.203125 44.609375 42.84375 
Q 40.53125 48.484375 33.40625 48.484375 
Q 26.265625 48.484375 22.1875 42.84375 
Q 18.109375 37.203125 18.109375 27.296875 
Q 18.109375 17.390625 22.1875 11.75 
Q 26.265625 6.109375 33.40625 6.109375 
Q 40.53125 6.109375 44.609375 11.75 
Q 48.6875 17.390625 48.6875 27.296875 
z
" id="DejaVuSans-112"/>
      <path d="M 4.890625 31.390625 
L 31.203125 31.390625 
L 31.203125 23.390625 
L 4.890625 23.390625 
z
" id="DejaVuSans-45"/>
     </defs>
     <use xlink:href="#DejaVuSans-115"/>
     <use x="52.099609" xlink:href="#DejaVuSans-116"/>
     <use x="91.308594" xlink:href="#DejaVuSans-105"/>
     <use x="119.091797" xlink:href="#DejaVuSans-109"/>
     <use x="216.503906" xlink:href="#DejaVuSans-32"/>
     <use x="248.291016" xlink:href="#DejaVuSans-99"/>
     <use x="303.271484" xlink:href="#DejaVuSans-111"/>
     <use x="364.453125" xlink:href="#DejaVuSans-110"/>
     <use x="427.832031" xlink:href="#DejaVuSans-116"/>
     <use x="467.041016" xlink:href="#DejaVuSans-97"/>
     <use x="528.320312" xlink:href="#DejaVuSans-99"/>
     <use x="583.300781" xlink:href="#DejaVuSans-116"/>
     <use x="622.509766" xlink:href="#DejaVuSans-32"/>
     <use x="654.296875" xlink:href="#DejaVuSans-50"/>
     <use x="717.919922" xlink:href="#DejaVuSans-59"/>
     <use x="751.611328" xlink:href="#DejaVuSans-32"/>
     <use x="783.398438" xlink:href="#DejaVuSans-115"/>
     <use x="835.498047" xlink:href="#DejaVuSans-116"/>
     <use x="874.707031" xlink:href="#DejaVuSans-105"/>
     <use x="902.490234" xlink:href="#DejaVuSans-109"/>
     <use x="999.902344" xlink:href="#DejaVuSans-32"/>
     <use x="1031.689453" xlink:href="#DejaVuSans-102"/>
     <use x="1066.894531" xlink:href="#DejaVuSans-114"/>
     <use x="1105.757812" xlink:href="#DejaVuSans-101"/>
     <use x="1167.28125" xlink:href="#DejaVuSans-113"/>
     <use x="1230.757812" xlink:href="#DejaVuSans-32"/>
     <use x="1262.544922" xlink:href="#DejaVuSans-49"/>
     <use x="1326.167969" xlink:href="#DejaVuSans-53"/>
     <use x="1389.791016" xlink:href="#DejaVuSans-48"/>
     <use x="1453.414062" xlink:href="#DejaVuSans-46"/>
     <use x="1485.201172" xlink:href="#DejaVuSans-54"/>
     <use x="1548.824219" xlink:href="#DejaVuSans-59"/>
     <use x="1582.515625" xlink:href="#DejaVuSans-32"/>
     <use x="1614.302734" xlink:href="#DejaVuSans-97"/>
     <use x="1675.582031" xlink:href="#DejaVuSans-109"/>
     <use x="1772.994141" xlink:href="#DejaVuSans-112"/>
     <use x="1836.470703" xlink:href="#DejaVuSans-115"/>
     <use x="1888.570312" xlink:href="#DejaVuSans-32"/>
     <use x="1920.357422" xlink:href="#DejaVuSans-48"/>
     <use x="1983.980469" xlink:href="#DejaVuSans-46"/>
     <use x="2015.767578" xlink:href="#DejaVuSans-48"/>
     <use x="2079.390625" xlink:href="#DejaVuSans-45"/>
     <use x="2115.474609" xlink:href="#DejaVuSans-53"/>
     <use x="2179.097656" xlink:href="#DejaVuSans-46"/>
     <use x="2210.884766" xlink:href="#DejaVuSans-48"/>
    </g>
    <!-- Ch 2 sense contacts 3+ 1- -->
    <g transform="translate(161.100791 48.1)scale(0.12 -0.12)">
     <defs>
      <path d="M 54.890625 33.015625 
L 54.890625 0 
L 45.90625 0 
L 45.90625 32.71875 
Q 45.90625 40.484375 42.875 44.328125 
Q 39.84375 48.1875 33.796875 48.1875 
Q 26.515625 48.1875 22.3125 43.546875 
Q 18.109375 38.921875 18.109375 30.90625 
L 18.109375 0 
L 9.078125 0 
L 9.078125 75.984375 
L 18.109375 75.984375 
L 18.109375 46.1875 
Q 21.34375 51.125 25.703125 53.5625 
Q 30.078125 56 35.796875 56 
Q 45.21875 56 50.046875 50.171875 
Q 54.890625 44.34375 54.890625 33.015625 
z
" id="DejaVuSans-104"/>
      <path d="M 40.578125 39.3125 
Q 47.65625 37.796875 51.625 33 
Q 55.609375 28.21875 55.609375 21.1875 
Q 55.609375 10.40625 48.1875 4.484375 
Q 40.765625 -1.421875 27.09375 -1.421875 
Q 22.515625 -1.421875 17.65625 -0.515625 
Q 12.796875 0.390625 7.625 2.203125 
L 7.625 11.71875 
Q 11.71875 9.328125 16.59375 8.109375 
Q 21.484375 6.890625 26.8125 6.890625 
Q 36.078125 6.890625 40.9375 10.546875 
Q 45.796875 14.203125 45.796875 21.1875 
Q 45.796875 27.640625 41.28125 31.265625 
Q 36.765625 34.90625 28.71875 34.90625 
L 20.21875 34.90625 
L 20.21875 43.015625 
L 29.109375 43.015625 
Q 36.375 43.015625 40.234375 45.921875 
Q 44.09375 48.828125 44.09375 54.296875 
Q 44.09375 59.90625 40.109375 62.90625 
Q 36.140625 65.921875 28.71875 65.921875 
Q 24.65625 65.921875 20.015625 65.03125 
Q 15.375 64.15625 9.8125 62.3125 
L 9.8125 71.09375 
Q 15.4375 72.65625 20.34375 73.4375 
Q 25.25 74.21875 29.59375 74.21875 
Q 40.828125 74.21875 47.359375 69.109375 
Q 53.90625 64.015625 53.90625 55.328125 
Q 53.90625 49.265625 50.4375 45.09375 
Q 46.96875 40.921875 40.578125 39.3125 
z
" id="DejaVuSans-51"/>
      <path d="M 46 62.703125 
L 46 35.5 
L 73.1875 35.5 
L 73.1875 27.203125 
L 46 27.203125 
L 46 0 
L 37.796875 0 
L 37.796875 27.203125 
L 10.59375 27.203125 
L 10.59375 35.5 
L 37.796875 35.5 
L 37.796875 62.703125 
z
" id="DejaVuSans-43"/>
     </defs>
     <use xlink:href="#DejaVuSans-67"/>
     <use x="69.824219" xlink:href="#DejaVuSans-104"/>
     <use x="133.203125" xlink:href="#DejaVuSans-32"/>
     <use x="164.990234" xlink:href="#DejaVuSans-50"/>
     <use x="228.613281" xlink:href="#DejaVuSans-32"/>
     <use x="260.400391" xlink:href="#DejaVuSans-115"/>
     <use x="312.5" xlink:href="#DejaVuSans-101"/>
     <use x="374.023438" xlink:href="#DejaVuSans-110"/>
     <use x="437.402344" xlink:href="#DejaVuSans-115"/>
     <use x="489.501953" xlink:href="#DejaVuSans-101"/>
     <use x="551.025391" xlink:href="#DejaVuSans-32"/>
     <use x="582.8125" xlink:href="#DejaVuSans-99"/>
     <use x="637.792969" xlink:href="#DejaVuSans-111"/>
     <use x="698.974609" xlink:href="#DejaVuSans-110"/>
     <use x="762.353516" xlink:href="#DejaVuSans-116"/>
     <use x="801.5625" xlink:href="#DejaVuSans-97"/>
     <use x="862.841797" xlink:href="#DejaVuSans-99"/>
     <use x="917.822266" xlink:href="#DejaVuSans-116"/>
     <use x="957.03125" xlink:href="#DejaVuSans-115"/>
     <use x="1009.130859" xlink:href="#DejaVuSans-32"/>
     <use x="1040.917969" xlink:href="#DejaVuSans-51"/>
     <use x="1104.541016" xlink:href="#DejaVuSans-43"/>
     <use x="1188.330078" xlink:href="#DejaVuSans-32"/>
     <use x="1220.117188" xlink:href="#DejaVuSans-49"/>
     <use x="1283.740234" xlink:href="#DejaVuSans-45"/>
    </g>
   </g>
   <g id="legend_1">
    <g id="patch_7">
     <path d="M 359.25625 150.16875 
L 414.2 150.16875 
Q 416.2 150.16875 416.2 148.16875 
L 416.2 61.1 
Q 416.2 59.1 414.2 59.1 
L 359.25625 59.1 
Q 357.25625 59.1 357.25625 61.1 
L 357.25625 148.16875 
Q 357.25625 150.16875 359.25625 150.16875 
z
" style="fill:#ffffff;opacity:0.8;stroke:#cccccc;stroke-linejoin:miter;"/>
    </g>
    <g id="line2d_21">
     <path d="M 361.25625 67.198438 
L 381.25625 67.198438 
" style="fill:none;stroke:#1f77b4;stroke-linecap:square;stroke-opacity:0.6;stroke-width:1.5;"/>
    </g>
    <g id="line2d_22"/>
    <g id="text_14">
     <!-- 0mA -->
     <g transform="translate(389.25625 70.698438)scale(0.1 -0.1)">
      <defs>
       <path d="M 34.1875 63.1875 
L 20.796875 26.90625 
L 47.609375 26.90625 
z
M 28.609375 72.90625 
L 39.796875 72.90625 
L 67.578125 0 
L 57.328125 0 
L 50.6875 18.703125 
L 17.828125 18.703125 
L 11.1875 0 
L 0.78125 0 
z
" id="DejaVuSans-65"/>
      </defs>
      <use xlink:href="#DejaVuSans-48"/>
      <use x="63.623047" xlink:href="#DejaVuSans-109"/>
      <use x="161.035156" xlink:href="#DejaVuSans-65"/>
     </g>
    </g>
    <g id="line2d_23">
     <path d="M 361.25625 81.876563 
L 381.25625 81.876563 
" style="fill:none;stroke:#ff7f0e;stroke-linecap:square;stroke-opacity:0.6;stroke-width:1.5;"/>
    </g>
    <g id="line2d_24"/>
    <g id="text_15">
     <!-- 1mA -->
     <g transform="translate(389.25625 85.376563)scale(0.1 -0.1)">
      <use xlink:href="#DejaVuSans-49"/>
      <use x="63.623047" xlink:href="#DejaVuSans-109"/>
      <use x="161.035156" xlink:href="#DejaVuSans-65"/>
     </g>
    </g>
    <g id="line2d_25">
     <path d="M 361.25625 96.554688 
L 381.25625 96.554688 
" style="fill:none;stroke:#2ca02c;stroke-linecap:square;stroke-opacity:0.6;stroke-width:1.5;"/>
    </g>
    <g id="line2d_26"/>
    <g id="text_16">
     <!-- 2mA -->
     <g transform="translate(389.25625 100.054688)scale(0.1 -0.1)">
      <use xlink:href="#DejaVuSans-50"/>
      <use x="63.623047" xlink:href="#DejaVuSans-109"/>
      <use x="161.035156" xlink:href="#DejaVuSans-65"/>
     </g>
    </g>
    <g id="line2d_27">
     <path d="M 361.25625 111.232813 
L 381.25625 111.232813 
" style="fill:none;stroke:#d62728;stroke-linecap:square;stroke-opacity:0.6;stroke-width:1.5;"/>
    </g>
    <g id="line2d_28"/>
    <g id="text_17">
     <!-- 3mA -->
     <g transform="translate(389.25625 114.732813)scale(0.1 -0.1)">
      <use xlink:href="#DejaVuSans-51"/>
      <use x="63.623047" xlink:href="#DejaVuSans-109"/>
      <use x="161.035156" xlink:href="#DejaVuSans-65"/>
     </g>
    </g>
    <g id="line2d_29">
     <path d="M 361.25625 125.910938 
L 381.25625 125.910938 
" style="fill:none;stroke:#9467bd;stroke-linecap:square;stroke-opacity:0.6;stroke-width:1.5;"/>
    </g>
    <g id="line2d_30"/>
    <g id="text_18">
     <!-- 4mA -->
     <g transform="translate(389.25625 129.410938)scale(0.1 -0.1)">
      <use xlink:href="#DejaVuSans-52"/>
      <use x="63.623047" xlink:href="#DejaVuSans-109"/>
      <use x="161.035156" xlink:href="#DejaVuSans-65"/>
     </g>
    </g>
    <g id="line2d_31">
     <path d="M 361.25625 140.589063 
L 381.25625 140.589063 
" style="fill:none;stroke:#8c564b;stroke-linecap:square;stroke-opacity:0.6;stroke-width:1.5;"/>
    </g>
    <g id="line2d_32"/>
    <g id="text_19">
     <!-- 5mA -->
     <g transform="translate(389.25625 144.089063)scale(0.1 -0.1)">
      <use xlink:href="#DejaVuSans-53"/>
      <use x="63.623047" xlink:href="#DejaVuSans-109"/>
      <use x="161.035156" xlink:href="#DejaVuSans-65"/>
     </g>
    </g>
   </g>
  </g>
 </g>
 <defs>
  <clipPath id="p03aff9ef3d">
   <rect height="193.1" width="361.822793" x="59.377207" y="54.1"/>
  </clipPath>
 </defs>
</svg>
