<?xml version="1.0" encoding="utf-8" standalone="no"?>
<!DOCTYPE svg PUBLIC "-//W3C//DTD SVG 1.1//EN"
  "http://www.w3.org/Graphics/SVG/1.1/DTD/svg11.dtd">
<!-- Created with matplotlib (https://matplotlib.org/) -->
<svg height="288pt" version="1.1" viewBox="0 0 432 288" width="432pt" xmlns="http://www.w3.org/2000/svg" xmlns:xlink="http://www.w3.org/1999/xlink">
 <metadata>
  <rdf:RDF xmlns:cc="http://creativecommons.org/ns#" xmlns:dc="http://purl.org/dc/elements/1.1/" xmlns:rdf="http://www.w3.org/1999/02/22-rdf-syntax-ns#">
   <cc:Work>
    <dc:type rdf:resource="http://purl.org/dc/dcmitype/StillImage"/>
    <dc:date>2021-06-09T17:48:02.188368</dc:date>
    <dc:format>image/svg+xml</dc:format>
    <dc:creator>
     <cc:Agent>
      <dc:title>Matplotlib v3.3.4, https://matplotlib.org/</dc:title>
     </cc:Agent>
    </dc:creator>
   </cc:Work>
  </rdf:RDF>
 </metadata>
 <defs>
  <style type="text/css">*{stroke-linecap:butt;stroke-linejoin:round;}</style>
 </defs>
 <g id="figure_1">
  <g id="patch_1">
   <path d="M 0 288 
L 432 288 
L 432 0 
L 0 0 
z
" style="fill:#ffffff;"/>
  </g>
  <g id="axes_1">
   <g id="patch_2">
    <path d="M 59.377207 247.2 
L 421.2 247.2 
L 421.2 54.1 
L 59.377207 54.1 
z
" style="fill:#ffffff;"/>
   </g>
   <g id="matplotlib.axis_1">
    <g id="xtick_1">
     <g id="line2d_1">
      <defs>
       <path d="M 0 0 
L 0 3.5 
" id="m15a81dfb85" style="stroke:#000000;stroke-width:0.8;"/>
      </defs>
      <g>
       <use style="stroke:#000000;stroke-width:0.8;" x="75.823698" xlink:href="#m15a81dfb85" y="247.2"/>
      </g>
     </g>
     <g id="text_1">
      <!-- 0 -->
      <g transform="translate(72.642448 261.798438)scale(0.1 -0.1)">
       <defs>
        <path d="M 31.78125 66.40625 
Q 24.171875 66.40625 20.328125 58.90625 
Q 16.5 51.421875 16.5 36.375 
Q 16.5 21.390625 20.328125 13.890625 
Q 24.171875 6.390625 31.78125 6.390625 
Q 39.453125 6.390625 43.28125 13.890625 
Q 47.125 21.390625 47.125 36.375 
Q 47.125 51.421875 43.28125 58.90625 
Q 39.453125 66.40625 31.78125 66.40625 
z
M 31.78125 74.21875 
Q 44.046875 74.21875 50.515625 64.515625 
Q 56.984375 54.828125 56.984375 36.375 
Q 56.984375 17.96875 50.515625 8.265625 
Q 44.046875 -1.421875 31.78125 -1.421875 
Q 19.53125 -1.421875 13.0625 8.265625 
Q 6.59375 17.96875 6.59375 36.375 
Q 6.59375 54.828125 13.0625 64.515625 
Q 19.53125 74.21875 31.78125 74.21875 
z
" id="DejaVuSans-48"/>
       </defs>
       <use xlink:href="#DejaVuSans-48"/>
      </g>
     </g>
    </g>
    <g id="xtick_2">
     <g id="line2d_2">
      <g>
       <use style="stroke:#000000;stroke-width:0.8;" x="141.60966" xlink:href="#m15a81dfb85" y="247.2"/>
      </g>
     </g>
     <g id="text_2">
      <!-- 50 -->
      <g transform="translate(135.24716 261.798438)scale(0.1 -0.1)">
       <defs>
        <path d="M 10.796875 72.90625 
L 49.515625 72.90625 
L 49.515625 64.59375 
L 19.828125 64.59375 
L 19.828125 46.734375 
Q 21.96875 47.46875 24.109375 47.828125 
Q 26.265625 48.1875 28.421875 48.1875 
Q 40.625 48.1875 47.75 41.5 
Q 54.890625 34.8125 54.890625 23.390625 
Q 54.890625 11.625 47.5625 5.09375 
Q 40.234375 -1.421875 26.90625 -1.421875 
Q 22.3125 -1.421875 17.546875 -0.640625 
Q 12.796875 0.140625 7.71875 1.703125 
L 7.71875 11.625 
Q 12.109375 9.234375 16.796875 8.0625 
Q 21.484375 6.890625 26.703125 6.890625 
Q 35.15625 6.890625 40.078125 11.328125 
Q 45.015625 15.765625 45.015625 23.390625 
Q 45.015625 31 40.078125 35.4375 
Q 35.15625 39.890625 26.703125 39.890625 
Q 22.75 39.890625 18.8125 39.015625 
Q 14.890625 38.140625 10.796875 36.28125 
z
" id="DejaVuSans-53"/>
       </defs>
       <use xlink:href="#DejaVuSans-53"/>
       <use x="63.623047" xlink:href="#DejaVuSans-48"/>
      </g>
     </g>
    </g>
    <g id="xtick_3">
     <g id="line2d_3">
      <g>
       <use style="stroke:#000000;stroke-width:0.8;" x="207.395622" xlink:href="#m15a81dfb85" y="247.2"/>
      </g>
     </g>
     <g id="text_3">
      <!-- 100 -->
      <g transform="translate(197.851872 261.798438)scale(0.1 -0.1)">
       <defs>
        <path d="M 12.40625 8.296875 
L 28.515625 8.296875 
L 28.515625 63.921875 
L 10.984375 60.40625 
L 10.984375 69.390625 
L 28.421875 72.90625 
L 38.28125 72.90625 
L 38.28125 8.296875 
L 54.390625 8.296875 
L 54.390625 0 
L 12.40625 0 
z
" id="DejaVuSans-49"/>
       </defs>
       <use xlink:href="#DejaVuSans-49"/>
       <use x="63.623047" xlink:href="#DejaVuSans-48"/>
       <use x="127.246094" xlink:href="#DejaVuSans-48"/>
      </g>
     </g>
    </g>
    <g id="xtick_4">
     <g id="line2d_4">
      <g>
       <use style="stroke:#000000;stroke-width:0.8;" x="273.181585" xlink:href="#m15a81dfb85" y="247.2"/>
      </g>
     </g>
     <g id="text_4">
      <!-- 150 -->
      <g transform="translate(263.637835 261.798438)scale(0.1 -0.1)">
       <use xlink:href="#DejaVuSans-49"/>
       <use x="63.623047" xlink:href="#DejaVuSans-53"/>
       <use x="127.246094" xlink:href="#DejaVuSans-48"/>
      </g>
     </g>
    </g>
    <g id="xtick_5">
     <g id="line2d_5">
      <g>
       <use style="stroke:#000000;stroke-width:0.8;" x="338.967547" xlink:href="#m15a81dfb85" y="247.2"/>
      </g>
     </g>
     <g id="text_5">
      <!-- 200 -->
      <g transform="translate(329.423797 261.798438)scale(0.1 -0.1)">
       <defs>
        <path d="M 19.1875 8.296875 
L 53.609375 8.296875 
L 53.609375 0 
L 7.328125 0 
L 7.328125 8.296875 
Q 12.9375 14.109375 22.625 23.890625 
Q 32.328125 33.6875 34.8125 36.53125 
Q 39.546875 41.84375 41.421875 45.53125 
Q 43.3125 49.21875 43.3125 52.78125 
Q 43.3125 58.59375 39.234375 62.25 
Q 35.15625 65.921875 28.609375 65.921875 
Q 23.96875 65.921875 18.8125 64.3125 
Q 13.671875 62.703125 7.8125 59.421875 
L 7.8125 69.390625 
Q 13.765625 71.78125 18.9375 73 
Q 24.125 74.21875 28.421875 74.21875 
Q 39.75 74.21875 46.484375 68.546875 
Q 53.21875 62.890625 53.21875 53.421875 
Q 53.21875 48.921875 51.53125 44.890625 
Q 49.859375 40.875 45.40625 35.40625 
Q 44.1875 33.984375 37.640625 27.21875 
Q 31.109375 20.453125 19.1875 8.296875 
z
" id="DejaVuSans-50"/>
       </defs>
       <use xlink:href="#DejaVuSans-50"/>
       <use x="63.623047" xlink:href="#DejaVuSans-48"/>
       <use x="127.246094" xlink:href="#DejaVuSans-48"/>
      </g>
     </g>
    </g>
    <g id="xtick_6">
     <g id="line2d_6">
      <g>
       <use style="stroke:#000000;stroke-width:0.8;" x="404.753509" xlink:href="#m15a81dfb85" y="247.2"/>
      </g>
     </g>
     <g id="text_6">
      <!-- 250 -->
      <g transform="translate(395.209759 261.798438)scale(0.1 -0.1)">
       <use xlink:href="#DejaVuSans-50"/>
       <use x="63.623047" xlink:href="#DejaVuSans-53"/>
       <use x="127.246094" xlink:href="#DejaVuSans-48"/>
      </g>
     </g>
    </g>
    <g id="text_7">
     <!-- frequency (Hz) -->
     <g transform="translate(203.337041 275.476562)scale(0.1 -0.1)">
      <defs>
       <path d="M 37.109375 75.984375 
L 37.109375 68.5 
L 28.515625 68.5 
Q 23.6875 68.5 21.796875 66.546875 
Q 19.921875 64.59375 19.921875 59.515625 
L 19.921875 54.6875 
L 34.71875 54.6875 
L 34.71875 47.703125 
L 19.921875 47.703125 
L 19.921875 0 
L 10.890625 0 
L 10.890625 47.703125 
L 2.296875 47.703125 
L 2.296875 54.6875 
L 10.890625 54.6875 
L 10.890625 58.5 
Q 10.890625 67.625 15.140625 71.796875 
Q 19.390625 75.984375 28.609375 75.984375 
z
" id="DejaVuSans-102"/>
       <path d="M 41.109375 46.296875 
Q 39.59375 47.171875 37.8125 47.578125 
Q 36.03125 48 33.890625 48 
Q 26.265625 48 22.1875 43.046875 
Q 18.109375 38.09375 18.109375 28.8125 
L 18.109375 0 
L 9.078125 0 
L 9.078125 54.6875 
L 18.109375 54.6875 
L 18.109375 46.1875 
Q 20.953125 51.171875 25.484375 53.578125 
Q 30.03125 56 36.53125 56 
Q 37.453125 56 38.578125 55.875 
Q 39.703125 55.765625 41.0625 55.515625 
z
" id="DejaVuSans-114"/>
       <path d="M 56.203125 29.59375 
L 56.203125 25.203125 
L 14.890625 25.203125 
Q 15.484375 15.921875 20.484375 11.0625 
Q 25.484375 6.203125 34.421875 6.203125 
Q 39.59375 6.203125 44.453125 7.46875 
Q 49.3125 8.734375 54.109375 11.28125 
L 54.109375 2.78125 
Q 49.265625 0.734375 44.1875 -0.34375 
Q 39.109375 -1.421875 33.890625 -1.421875 
Q 20.796875 -1.421875 13.15625 6.1875 
Q 5.515625 13.8125 5.515625 26.8125 
Q 5.515625 40.234375 12.765625 48.109375 
Q 20.015625 56 32.328125 56 
Q 43.359375 56 49.78125 48.890625 
Q 56.203125 41.796875 56.203125 29.59375 
z
M 47.21875 32.234375 
Q 47.125 39.59375 43.09375 43.984375 
Q 39.0625 48.390625 32.421875 48.390625 
Q 24.90625 48.390625 20.390625 44.140625 
Q 15.875 39.890625 15.1875 32.171875 
z
" id="DejaVuSans-101"/>
       <path d="M 14.796875 27.296875 
Q 14.796875 17.390625 18.875 11.75 
Q 22.953125 6.109375 30.078125 6.109375 
Q 37.203125 6.109375 41.296875 11.75 
Q 45.40625 17.390625 45.40625 27.296875 
Q 45.40625 37.203125 41.296875 42.84375 
Q 37.203125 48.484375 30.078125 48.484375 
Q 22.953125 48.484375 18.875 42.84375 
Q 14.796875 37.203125 14.796875 27.296875 
z
M 45.40625 8.203125 
Q 42.578125 3.328125 38.25 0.953125 
Q 33.9375 -1.421875 27.875 -1.421875 
Q 17.96875 -1.421875 11.734375 6.484375 
Q 5.515625 14.40625 5.515625 27.296875 
Q 5.515625 40.1875 11.734375 48.09375 
Q 17.96875 56 27.875 56 
Q 33.9375 56 38.25 53.625 
Q 42.578125 51.265625 45.40625 46.390625 
L 45.40625 54.6875 
L 54.390625 54.6875 
L 54.390625 -20.796875 
L 45.40625 -20.796875 
z
" id="DejaVuSans-113"/>
       <path d="M 8.5 21.578125 
L 8.5 54.6875 
L 17.484375 54.6875 
L 17.484375 21.921875 
Q 17.484375 14.15625 20.5 10.265625 
Q 23.53125 6.390625 29.59375 6.390625 
Q 36.859375 6.390625 41.078125 11.03125 
Q 45.3125 15.671875 45.3125 23.6875 
L 45.3125 54.6875 
L 54.296875 54.6875 
L 54.296875 0 
L 45.3125 0 
L 45.3125 8.40625 
Q 42.046875 3.421875 37.71875 1 
Q 33.40625 -1.421875 27.6875 -1.421875 
Q 18.265625 -1.421875 13.375 4.4375 
Q 8.5 10.296875 8.5 21.578125 
z
M 31.109375 56 
z
" id="DejaVuSans-117"/>
       <path d="M 54.890625 33.015625 
L 54.890625 0 
L 45.90625 0 
L 45.90625 32.71875 
Q 45.90625 40.484375 42.875 44.328125 
Q 39.84375 48.1875 33.796875 48.1875 
Q 26.515625 48.1875 22.3125 43.546875 
Q 18.109375 38.921875 18.109375 30.90625 
L 18.109375 0 
L 9.078125 0 
L 9.078125 54.6875 
L 18.109375 54.6875 
L 18.109375 46.1875 
Q 21.34375 51.125 25.703125 53.5625 
Q 30.078125 56 35.796875 56 
Q 45.21875 56 50.046875 50.171875 
Q 54.890625 44.34375 54.890625 33.015625 
z
" id="DejaVuSans-110"/>
       <path d="M 48.78125 52.59375 
L 48.78125 44.1875 
Q 44.96875 46.296875 41.140625 47.34375 
Q 37.3125 48.390625 33.40625 48.390625 
Q 24.65625 48.390625 19.8125 42.84375 
Q 14.984375 37.3125 14.984375 27.296875 
Q 14.984375 17.28125 19.8125 11.734375 
Q 24.65625 6.203125 33.40625 6.203125 
Q 37.3125 6.203125 41.140625 7.25 
Q 44.96875 8.296875 48.78125 10.40625 
L 48.78125 2.09375 
Q 45.015625 0.34375 40.984375 -0.53125 
Q 36.96875 -1.421875 32.421875 -1.421875 
Q 20.0625 -1.421875 12.78125 6.34375 
Q 5.515625 14.109375 5.515625 27.296875 
Q 5.515625 40.671875 12.859375 48.328125 
Q 20.21875 56 33.015625 56 
Q 37.15625 56 41.109375 55.140625 
Q 45.0625 54.296875 48.78125 52.59375 
z
" id="DejaVuSans-99"/>
       <path d="M 32.171875 -5.078125 
Q 28.375 -14.84375 24.75 -17.8125 
Q 21.140625 -20.796875 15.09375 -20.796875 
L 7.90625 -20.796875 
L 7.90625 -13.28125 
L 13.1875 -13.28125 
Q 16.890625 -13.28125 18.9375 -11.515625 
Q 21 -9.765625 23.484375 -3.21875 
L 25.09375 0.875 
L 2.984375 54.6875 
L 12.5 54.6875 
L 29.59375 11.921875 
L 46.6875 54.6875 
L 56.203125 54.6875 
z
" id="DejaVuSans-121"/>
       <path id="DejaVuSans-32"/>
       <path d="M 31 75.875 
Q 24.46875 64.65625 21.28125 53.65625 
Q 18.109375 42.671875 18.109375 31.390625 
Q 18.109375 20.125 21.3125 9.0625 
Q 24.515625 -2 31 -13.1875 
L 23.1875 -13.1875 
Q 15.875 -1.703125 12.234375 9.375 
Q 8.59375 20.453125 8.59375 31.390625 
Q 8.59375 42.28125 12.203125 53.3125 
Q 15.828125 64.359375 23.1875 75.875 
z
" id="DejaVuSans-40"/>
       <path d="M 9.8125 72.90625 
L 19.671875 72.90625 
L 19.671875 43.015625 
L 55.515625 43.015625 
L 55.515625 72.90625 
L 65.375 72.90625 
L 65.375 0 
L 55.515625 0 
L 55.515625 34.71875 
L 19.671875 34.71875 
L 19.671875 0 
L 9.8125 0 
z
" id="DejaVuSans-72"/>
       <path d="M 5.515625 54.6875 
L 48.1875 54.6875 
L 48.1875 46.484375 
L 14.40625 7.171875 
L 48.1875 7.171875 
L 48.1875 0 
L 4.296875 0 
L 4.296875 8.203125 
L 38.09375 47.515625 
L 5.515625 47.515625 
z
" id="DejaVuSans-122"/>
       <path d="M 8.015625 75.875 
L 15.828125 75.875 
Q 23.140625 64.359375 26.78125 53.3125 
Q 30.421875 42.28125 30.421875 31.390625 
Q 30.421875 20.453125 26.78125 9.375 
Q 23.140625 -1.703125 15.828125 -13.1875 
L 8.015625 -13.1875 
Q 14.5 -2 17.703125 9.0625 
Q 20.90625 20.125 20.90625 31.390625 
Q 20.90625 42.671875 17.703125 53.65625 
Q 14.5 64.65625 8.015625 75.875 
z
" id="DejaVuSans-41"/>
      </defs>
      <use xlink:href="#DejaVuSans-102"/>
      <use x="35.205078" xlink:href="#DejaVuSans-114"/>
      <use x="74.068359" xlink:href="#DejaVuSans-101"/>
      <use x="135.591797" xlink:href="#DejaVuSans-113"/>
      <use x="199.068359" xlink:href="#DejaVuSans-117"/>
      <use x="262.447266" xlink:href="#DejaVuSans-101"/>
      <use x="323.970703" xlink:href="#DejaVuSans-110"/>
      <use x="387.349609" xlink:href="#DejaVuSans-99"/>
      <use x="442.330078" xlink:href="#DejaVuSans-121"/>
      <use x="501.509766" xlink:href="#DejaVuSans-32"/>
      <use x="533.296875" xlink:href="#DejaVuSans-40"/>
      <use x="572.310547" xlink:href="#DejaVuSans-72"/>
      <use x="647.505859" xlink:href="#DejaVuSans-122"/>
      <use x="699.996094" xlink:href="#DejaVuSans-41"/>
     </g>
    </g>
   </g>
   <g id="matplotlib.axis_2">
    <g id="ytick_1">
     <g id="line2d_7">
      <defs>
       <path d="M 0 0 
L -3.5 0 
" id="m7334aed47a" style="stroke:#000000;stroke-width:0.8;"/>
      </defs>
      <g>
       <use style="stroke:#000000;stroke-width:0.8;" x="59.377207" xlink:href="#m7334aed47a" y="233.559068"/>
      </g>
     </g>
     <g id="text_8">
      <!-- $\mathdefault{10^{-10}}$ -->
      <g transform="translate(24.477207 237.358287)scale(0.1 -0.1)">
       <defs>
        <path d="M 10.59375 35.5 
L 73.1875 35.5 
L 73.1875 27.203125 
L 10.59375 27.203125 
z
" id="DejaVuSans-8722"/>
       </defs>
       <use transform="translate(0 0.765625)" xlink:href="#DejaVuSans-49"/>
       <use transform="translate(63.623047 0.765625)" xlink:href="#DejaVuSans-48"/>
       <use transform="translate(128.203125 39.046875)scale(0.7)" xlink:href="#DejaVuSans-8722"/>
       <use transform="translate(186.855469 39.046875)scale(0.7)" xlink:href="#DejaVuSans-49"/>
       <use transform="translate(231.391602 39.046875)scale(0.7)" xlink:href="#DejaVuSans-48"/>
      </g>
     </g>
    </g>
    <g id="ytick_2">
     <g id="line2d_8">
      <g>
       <use style="stroke:#000000;stroke-width:0.8;" x="59.377207" xlink:href="#m7334aed47a" y="199.55426"/>
      </g>
     </g>
     <g id="text_9">
      <!-- $\mathdefault{10^{-9}}$ -->
      <g transform="translate(28.877207 203.353479)scale(0.1 -0.1)">
       <defs>
        <path d="M 10.984375 1.515625 
L 10.984375 10.5 
Q 14.703125 8.734375 18.5 7.8125 
Q 22.3125 6.890625 25.984375 6.890625 
Q 35.75 6.890625 40.890625 13.453125 
Q 46.046875 20.015625 46.78125 33.40625 
Q 43.953125 29.203125 39.59375 26.953125 
Q 35.25 24.703125 29.984375 24.703125 
Q 19.046875 24.703125 12.671875 31.3125 
Q 6.296875 37.9375 6.296875 49.421875 
Q 6.296875 60.640625 12.9375 67.421875 
Q 19.578125 74.21875 30.609375 74.21875 
Q 43.265625 74.21875 49.921875 64.515625 
Q 56.59375 54.828125 56.59375 36.375 
Q 56.59375 19.140625 48.40625 8.859375 
Q 40.234375 -1.421875 26.421875 -1.421875 
Q 22.703125 -1.421875 18.890625 -0.6875 
Q 15.09375 0.046875 10.984375 1.515625 
z
M 30.609375 32.421875 
Q 37.25 32.421875 41.125 36.953125 
Q 45.015625 41.5 45.015625 49.421875 
Q 45.015625 57.28125 41.125 61.84375 
Q 37.25 66.40625 30.609375 66.40625 
Q 23.96875 66.40625 20.09375 61.84375 
Q 16.21875 57.28125 16.21875 49.421875 
Q 16.21875 41.5 20.09375 36.953125 
Q 23.96875 32.421875 30.609375 32.421875 
z
" id="DejaVuSans-57"/>
       </defs>
       <use transform="translate(0 0.765625)" xlink:href="#DejaVuSans-49"/>
       <use transform="translate(63.623047 0.765625)" xlink:href="#DejaVuSans-48"/>
       <use transform="translate(128.203125 39.046875)scale(0.7)" xlink:href="#DejaVuSans-8722"/>
       <use transform="translate(186.855469 39.046875)scale(0.7)" xlink:href="#DejaVuSans-57"/>
      </g>
     </g>
    </g>
    <g id="ytick_3">
     <g id="line2d_9">
      <g>
       <use style="stroke:#000000;stroke-width:0.8;" x="59.377207" xlink:href="#m7334aed47a" y="165.549453"/>
      </g>
     </g>
     <g id="text_10">
      <!-- $\mathdefault{10^{-8}}$ -->
      <g transform="translate(28.877207 169.348671)scale(0.1 -0.1)">
       <defs>
        <path d="M 31.78125 34.625 
Q 24.75 34.625 20.71875 30.859375 
Q 16.703125 27.09375 16.703125 20.515625 
Q 16.703125 13.921875 20.71875 10.15625 
Q 24.75 6.390625 31.78125 6.390625 
Q 38.8125 6.390625 42.859375 10.171875 
Q 46.921875 13.96875 46.921875 20.515625 
Q 46.921875 27.09375 42.890625 30.859375 
Q 38.875 34.625 31.78125 34.625 
z
M 21.921875 38.8125 
Q 15.578125 40.375 12.03125 44.71875 
Q 8.5 49.078125 8.5 55.328125 
Q 8.5 64.0625 14.71875 69.140625 
Q 20.953125 74.21875 31.78125 74.21875 
Q 42.671875 74.21875 48.875 69.140625 
Q 55.078125 64.0625 55.078125 55.328125 
Q 55.078125 49.078125 51.53125 44.71875 
Q 48 40.375 41.703125 38.8125 
Q 48.828125 37.15625 52.796875 32.3125 
Q 56.78125 27.484375 56.78125 20.515625 
Q 56.78125 9.90625 50.3125 4.234375 
Q 43.84375 -1.421875 31.78125 -1.421875 
Q 19.734375 -1.421875 13.25 4.234375 
Q 6.78125 9.90625 6.78125 20.515625 
Q 6.78125 27.484375 10.78125 32.3125 
Q 14.796875 37.15625 21.921875 38.8125 
z
M 18.3125 54.390625 
Q 18.3125 48.734375 21.84375 45.5625 
Q 25.390625 42.390625 31.78125 42.390625 
Q 38.140625 42.390625 41.71875 45.5625 
Q 45.3125 48.734375 45.3125 54.390625 
Q 45.3125 60.0625 41.71875 63.234375 
Q 38.140625 66.40625 31.78125 66.40625 
Q 25.390625 66.40625 21.84375 63.234375 
Q 18.3125 60.0625 18.3125 54.390625 
z
" id="DejaVuSans-56"/>
       </defs>
       <use transform="translate(0 0.765625)" xlink:href="#DejaVuSans-49"/>
       <use transform="translate(63.623047 0.765625)" xlink:href="#DejaVuSans-48"/>
       <use transform="translate(128.203125 39.046875)scale(0.7)" xlink:href="#DejaVuSans-8722"/>
       <use transform="translate(186.855469 39.046875)scale(0.7)" xlink:href="#DejaVuSans-56"/>
      </g>
     </g>
    </g>
    <g id="ytick_4">
     <g id="line2d_10">
      <g>
       <use style="stroke:#000000;stroke-width:0.8;" x="59.377207" xlink:href="#m7334aed47a" y="131.544645"/>
      </g>
     </g>
     <g id="text_11">
      <!-- $\mathdefault{10^{-7}}$ -->
      <g transform="translate(28.877207 135.343864)scale(0.1 -0.1)">
       <defs>
        <path d="M 8.203125 72.90625 
L 55.078125 72.90625 
L 55.078125 68.703125 
L 28.609375 0 
L 18.3125 0 
L 43.21875 64.59375 
L 8.203125 64.59375 
z
" id="DejaVuSans-55"/>
       </defs>
       <use transform="translate(0 0.684375)" xlink:href="#DejaVuSans-49"/>
       <use transform="translate(63.623047 0.684375)" xlink:href="#DejaVuSans-48"/>
       <use transform="translate(128.203125 38.965625)scale(0.7)" xlink:href="#DejaVuSans-8722"/>
       <use transform="translate(186.855469 38.965625)scale(0.7)" xlink:href="#DejaVuSans-55"/>
      </g>
     </g>
    </g>
    <g id="ytick_5">
     <g id="line2d_11">
      <g>
       <use style="stroke:#000000;stroke-width:0.8;" x="59.377207" xlink:href="#m7334aed47a" y="97.539837"/>
      </g>
     </g>
     <g id="text_12">
      <!-- $\mathdefault{10^{-6}}$ -->
      <g transform="translate(28.877207 101.339056)scale(0.1 -0.1)">
       <defs>
        <path d="M 33.015625 40.375 
Q 26.375 40.375 22.484375 35.828125 
Q 18.609375 31.296875 18.609375 23.390625 
Q 18.609375 15.53125 22.484375 10.953125 
Q 26.375 6.390625 33.015625 6.390625 
Q 39.65625 6.390625 43.53125 10.953125 
Q 47.40625 15.53125 47.40625 23.390625 
Q 47.40625 31.296875 43.53125 35.828125 
Q 39.65625 40.375 33.015625 40.375 
z
M 52.59375 71.296875 
L 52.59375 62.3125 
Q 48.875 64.0625 45.09375 64.984375 
Q 41.3125 65.921875 37.59375 65.921875 
Q 27.828125 65.921875 22.671875 59.328125 
Q 17.53125 52.734375 16.796875 39.40625 
Q 19.671875 43.65625 24.015625 45.921875 
Q 28.375 48.1875 33.59375 48.1875 
Q 44.578125 48.1875 50.953125 41.515625 
Q 57.328125 34.859375 57.328125 23.390625 
Q 57.328125 12.15625 50.6875 5.359375 
Q 44.046875 -1.421875 33.015625 -1.421875 
Q 20.359375 -1.421875 13.671875 8.265625 
Q 6.984375 17.96875 6.984375 36.375 
Q 6.984375 53.65625 15.1875 63.9375 
Q 23.390625 74.21875 37.203125 74.21875 
Q 40.921875 74.21875 44.703125 73.484375 
Q 48.484375 72.75 52.59375 71.296875 
z
" id="DejaVuSans-54"/>
       </defs>
       <use transform="translate(0 0.765625)" xlink:href="#DejaVuSans-49"/>
       <use transform="translate(63.623047 0.765625)" xlink:href="#DejaVuSans-48"/>
       <use transform="translate(128.203125 39.046875)scale(0.7)" xlink:href="#DejaVuSans-8722"/>
       <use transform="translate(186.855469 39.046875)scale(0.7)" xlink:href="#DejaVuSans-54"/>
      </g>
     </g>
    </g>
    <g id="ytick_6">
     <g id="line2d_12">
      <g>
       <use style="stroke:#000000;stroke-width:0.8;" x="59.377207" xlink:href="#m7334aed47a" y="63.535029"/>
      </g>
     </g>
     <g id="text_13">
      <!-- $\mathdefault{10^{-5}}$ -->
      <g transform="translate(28.877207 67.334248)scale(0.1 -0.1)">
       <use transform="translate(0 0.684375)" xlink:href="#DejaVuSans-49"/>
       <use transform="translate(63.623047 0.684375)" xlink:href="#DejaVuSans-48"/>
       <use transform="translate(128.203125 38.965625)scale(0.7)" xlink:href="#DejaVuSans-8722"/>
       <use transform="translate(186.855469 38.965625)scale(0.7)" xlink:href="#DejaVuSans-53"/>
      </g>
     </g>
    </g>
    <g id="ytick_7">
     <g id="line2d_13">
      <defs>
       <path d="M 0 0 
L -2 0 
" id="mcc35070bdc" style="stroke:#000000;stroke-width:0.6;"/>
      </defs>
      <g>
       <use style="stroke:#000000;stroke-width:0.6;" x="59.377207" xlink:href="#mcc35070bdc" y="247.090941"/>
      </g>
     </g>
    </g>
    <g id="ytick_8">
     <g id="line2d_14">
      <g>
       <use style="stroke:#000000;stroke-width:0.6;" x="59.377207" xlink:href="#mcc35070bdc" y="243.795535"/>
      </g>
     </g>
    </g>
    <g id="ytick_9">
     <g id="line2d_15">
      <g>
       <use style="stroke:#000000;stroke-width:0.6;" x="59.377207" xlink:href="#mcc35070bdc" y="241.102992"/>
      </g>
     </g>
    </g>
    <g id="ytick_10">
     <g id="line2d_16">
      <g>
       <use style="stroke:#000000;stroke-width:0.6;" x="59.377207" xlink:href="#mcc35070bdc" y="238.826479"/>
      </g>
     </g>
    </g>
    <g id="ytick_11">
     <g id="line2d_17">
      <g>
       <use style="stroke:#000000;stroke-width:0.6;" x="59.377207" xlink:href="#mcc35070bdc" y="236.854474"/>
      </g>
     </g>
    </g>
    <g id="ytick_12">
     <g id="line2d_18">
      <g>
       <use style="stroke:#000000;stroke-width:0.6;" x="59.377207" xlink:href="#mcc35070bdc" y="235.115043"/>
      </g>
     </g>
    </g>
    <g id="ytick_13">
     <g id="line2d_19">
      <g>
       <use style="stroke:#000000;stroke-width:0.6;" x="59.377207" xlink:href="#mcc35070bdc" y="223.322601"/>
      </g>
     </g>
    </g>
    <g id="ytick_14">
     <g id="line2d_20">
      <g>
       <use style="stroke:#000000;stroke-width:0.6;" x="59.377207" xlink:href="#mcc35070bdc" y="217.334651"/>
      </g>
     </g>
    </g>
    <g id="ytick_15">
     <g id="line2d_21">
      <g>
       <use style="stroke:#000000;stroke-width:0.6;" x="59.377207" xlink:href="#mcc35070bdc" y="213.086134"/>
      </g>
     </g>
    </g>
    <g id="ytick_16">
     <g id="line2d_22">
      <g>
       <use style="stroke:#000000;stroke-width:0.6;" x="59.377207" xlink:href="#mcc35070bdc" y="209.790727"/>
      </g>
     </g>
    </g>
    <g id="ytick_17">
     <g id="line2d_23">
      <g>
       <use style="stroke:#000000;stroke-width:0.6;" x="59.377207" xlink:href="#mcc35070bdc" y="207.098184"/>
      </g>
     </g>
    </g>
    <g id="ytick_18">
     <g id="line2d_24">
      <g>
       <use style="stroke:#000000;stroke-width:0.6;" x="59.377207" xlink:href="#mcc35070bdc" y="204.821672"/>
      </g>
     </g>
    </g>
    <g id="ytick_19">
     <g id="line2d_25">
      <g>
       <use style="stroke:#000000;stroke-width:0.6;" x="59.377207" xlink:href="#mcc35070bdc" y="202.849667"/>
      </g>
     </g>
    </g>
    <g id="ytick_20">
     <g id="line2d_26">
      <g>
       <use style="stroke:#000000;stroke-width:0.6;" x="59.377207" xlink:href="#mcc35070bdc" y="201.110235"/>
      </g>
     </g>
    </g>
    <g id="ytick_21">
     <g id="line2d_27">
      <g>
       <use style="stroke:#000000;stroke-width:0.6;" x="59.377207" xlink:href="#mcc35070bdc" y="189.317793"/>
      </g>
     </g>
    </g>
    <g id="ytick_22">
     <g id="line2d_28">
      <g>
       <use style="stroke:#000000;stroke-width:0.6;" x="59.377207" xlink:href="#mcc35070bdc" y="183.329844"/>
      </g>
     </g>
    </g>
    <g id="ytick_23">
     <g id="line2d_29">
      <g>
       <use style="stroke:#000000;stroke-width:0.6;" x="59.377207" xlink:href="#mcc35070bdc" y="179.081326"/>
      </g>
     </g>
    </g>
    <g id="ytick_24">
     <g id="line2d_30">
      <g>
       <use style="stroke:#000000;stroke-width:0.6;" x="59.377207" xlink:href="#mcc35070bdc" y="175.78592"/>
      </g>
     </g>
    </g>
    <g id="ytick_25">
     <g id="line2d_31">
      <g>
       <use style="stroke:#000000;stroke-width:0.6;" x="59.377207" xlink:href="#mcc35070bdc" y="173.093377"/>
      </g>
     </g>
    </g>
    <g id="ytick_26">
     <g id="line2d_32">
      <g>
       <use style="stroke:#000000;stroke-width:0.6;" x="59.377207" xlink:href="#mcc35070bdc" y="170.816864"/>
      </g>
     </g>
    </g>
    <g id="ytick_27">
     <g id="line2d_33">
      <g>
       <use style="stroke:#000000;stroke-width:0.6;" x="59.377207" xlink:href="#mcc35070bdc" y="168.844859"/>
      </g>
     </g>
    </g>
    <g id="ytick_28">
     <g id="line2d_34">
      <g>
       <use style="stroke:#000000;stroke-width:0.6;" x="59.377207" xlink:href="#mcc35070bdc" y="167.105427"/>
      </g>
     </g>
    </g>
    <g id="ytick_29">
     <g id="line2d_35">
      <g>
       <use style="stroke:#000000;stroke-width:0.6;" x="59.377207" xlink:href="#mcc35070bdc" y="155.312985"/>
      </g>
     </g>
    </g>
    <g id="ytick_30">
     <g id="line2d_36">
      <g>
       <use style="stroke:#000000;stroke-width:0.6;" x="59.377207" xlink:href="#mcc35070bdc" y="149.325036"/>
      </g>
     </g>
    </g>
    <g id="ytick_31">
     <g id="line2d_37">
      <g>
       <use style="stroke:#000000;stroke-width:0.6;" x="59.377207" xlink:href="#mcc35070bdc" y="145.076518"/>
      </g>
     </g>
    </g>
    <g id="ytick_32">
     <g id="line2d_38">
      <g>
       <use style="stroke:#000000;stroke-width:0.6;" x="59.377207" xlink:href="#mcc35070bdc" y="141.781112"/>
      </g>
     </g>
    </g>
    <g id="ytick_33">
     <g id="line2d_39">
      <g>
       <use style="stroke:#000000;stroke-width:0.6;" x="59.377207" xlink:href="#mcc35070bdc" y="139.088569"/>
      </g>
     </g>
    </g>
    <g id="ytick_34">
     <g id="line2d_40">
      <g>
       <use style="stroke:#000000;stroke-width:0.6;" x="59.377207" xlink:href="#mcc35070bdc" y="136.812056"/>
      </g>
     </g>
    </g>
    <g id="ytick_35">
     <g id="line2d_41">
      <g>
       <use style="stroke:#000000;stroke-width:0.6;" x="59.377207" xlink:href="#mcc35070bdc" y="134.840051"/>
      </g>
     </g>
    </g>
    <g id="ytick_36">
     <g id="line2d_42">
      <g>
       <use style="stroke:#000000;stroke-width:0.6;" x="59.377207" xlink:href="#mcc35070bdc" y="133.10062"/>
      </g>
     </g>
    </g>
    <g id="ytick_37">
     <g id="line2d_43">
      <g>
       <use style="stroke:#000000;stroke-width:0.6;" x="59.377207" xlink:href="#mcc35070bdc" y="121.308178"/>
      </g>
     </g>
    </g>
    <g id="ytick_38">
     <g id="line2d_44">
      <g>
       <use style="stroke:#000000;stroke-width:0.6;" x="59.377207" xlink:href="#mcc35070bdc" y="115.320228"/>
      </g>
     </g>
    </g>
    <g id="ytick_39">
     <g id="line2d_45">
      <g>
       <use style="stroke:#000000;stroke-width:0.6;" x="59.377207" xlink:href="#mcc35070bdc" y="111.071711"/>
      </g>
     </g>
    </g>
    <g id="ytick_40">
     <g id="line2d_46">
      <g>
       <use style="stroke:#000000;stroke-width:0.6;" x="59.377207" xlink:href="#mcc35070bdc" y="107.776304"/>
      </g>
     </g>
    </g>
    <g id="ytick_41">
     <g id="line2d_47">
      <g>
       <use style="stroke:#000000;stroke-width:0.6;" x="59.377207" xlink:href="#mcc35070bdc" y="105.083761"/>
      </g>
     </g>
    </g>
    <g id="ytick_42">
     <g id="line2d_48">
      <g>
       <use style="stroke:#000000;stroke-width:0.6;" x="59.377207" xlink:href="#mcc35070bdc" y="102.807249"/>
      </g>
     </g>
    </g>
    <g id="ytick_43">
     <g id="line2d_49">
      <g>
       <use style="stroke:#000000;stroke-width:0.6;" x="59.377207" xlink:href="#mcc35070bdc" y="100.835244"/>
      </g>
     </g>
    </g>
    <g id="ytick_44">
     <g id="line2d_50">
      <g>
       <use style="stroke:#000000;stroke-width:0.6;" x="59.377207" xlink:href="#mcc35070bdc" y="99.095812"/>
      </g>
     </g>
    </g>
    <g id="ytick_45">
     <g id="line2d_51">
      <g>
       <use style="stroke:#000000;stroke-width:0.6;" x="59.377207" xlink:href="#mcc35070bdc" y="87.30337"/>
      </g>
     </g>
    </g>
    <g id="ytick_46">
     <g id="line2d_52">
      <g>
       <use style="stroke:#000000;stroke-width:0.6;" x="59.377207" xlink:href="#mcc35070bdc" y="81.315421"/>
      </g>
     </g>
    </g>
    <g id="ytick_47">
     <g id="line2d_53">
      <g>
       <use style="stroke:#000000;stroke-width:0.6;" x="59.377207" xlink:href="#mcc35070bdc" y="77.066903"/>
      </g>
     </g>
    </g>
    <g id="ytick_48">
     <g id="line2d_54">
      <g>
       <use style="stroke:#000000;stroke-width:0.6;" x="59.377207" xlink:href="#mcc35070bdc" y="73.771497"/>
      </g>
     </g>
    </g>
    <g id="ytick_49">
     <g id="line2d_55">
      <g>
       <use style="stroke:#000000;stroke-width:0.6;" x="59.377207" xlink:href="#mcc35070bdc" y="71.078954"/>
      </g>
     </g>
    </g>
    <g id="ytick_50">
     <g id="line2d_56">
      <g>
       <use style="stroke:#000000;stroke-width:0.6;" x="59.377207" xlink:href="#mcc35070bdc" y="68.802441"/>
      </g>
     </g>
    </g>
    <g id="ytick_51">
     <g id="line2d_57">
      <g>
       <use style="stroke:#000000;stroke-width:0.6;" x="59.377207" xlink:href="#mcc35070bdc" y="66.830436"/>
      </g>
     </g>
    </g>
    <g id="ytick_52">
     <g id="line2d_58">
      <g>
       <use style="stroke:#000000;stroke-width:0.6;" x="59.377207" xlink:href="#mcc35070bdc" y="65.091004"/>
      </g>
     </g>
    </g>
    <g id="text_14">
     <!-- PSD (mV**2/Hz) -->
     <g transform="translate(18.39752 190.720313)rotate(-90)scale(0.1 -0.1)">
      <defs>
       <path d="M 19.671875 64.796875 
L 19.671875 37.40625 
L 32.078125 37.40625 
Q 38.96875 37.40625 42.71875 40.96875 
Q 46.484375 44.53125 46.484375 51.125 
Q 46.484375 57.671875 42.71875 61.234375 
Q 38.96875 64.796875 32.078125 64.796875 
z
M 9.8125 72.90625 
L 32.078125 72.90625 
Q 44.34375 72.90625 50.609375 67.359375 
Q 56.890625 61.8125 56.890625 51.125 
Q 56.890625 40.328125 50.609375 34.8125 
Q 44.34375 29.296875 32.078125 29.296875 
L 19.671875 29.296875 
L 19.671875 0 
L 9.8125 0 
z
" id="DejaVuSans-80"/>
       <path d="M 53.515625 70.515625 
L 53.515625 60.890625 
Q 47.90625 63.578125 42.921875 64.890625 
Q 37.9375 66.21875 33.296875 66.21875 
Q 25.25 66.21875 20.875 63.09375 
Q 16.5 59.96875 16.5 54.203125 
Q 16.5 49.359375 19.40625 46.890625 
Q 22.3125 44.4375 30.421875 42.921875 
L 36.375 41.703125 
Q 47.40625 39.59375 52.65625 34.296875 
Q 57.90625 29 57.90625 20.125 
Q 57.90625 9.515625 50.796875 4.046875 
Q 43.703125 -1.421875 29.984375 -1.421875 
Q 24.8125 -1.421875 18.96875 -0.25 
Q 13.140625 0.921875 6.890625 3.21875 
L 6.890625 13.375 
Q 12.890625 10.015625 18.65625 8.296875 
Q 24.421875 6.59375 29.984375 6.59375 
Q 38.421875 6.59375 43.015625 9.90625 
Q 47.609375 13.234375 47.609375 19.390625 
Q 47.609375 24.75 44.3125 27.78125 
Q 41.015625 30.8125 33.5 32.328125 
L 27.484375 33.5 
Q 16.453125 35.6875 11.515625 40.375 
Q 6.59375 45.0625 6.59375 53.421875 
Q 6.59375 63.09375 13.40625 68.65625 
Q 20.21875 74.21875 32.171875 74.21875 
Q 37.3125 74.21875 42.625 73.28125 
Q 47.953125 72.359375 53.515625 70.515625 
z
" id="DejaVuSans-83"/>
       <path d="M 19.671875 64.796875 
L 19.671875 8.109375 
L 31.59375 8.109375 
Q 46.6875 8.109375 53.6875 14.9375 
Q 60.6875 21.78125 60.6875 36.53125 
Q 60.6875 51.171875 53.6875 57.984375 
Q 46.6875 64.796875 31.59375 64.796875 
z
M 9.8125 72.90625 
L 30.078125 72.90625 
Q 51.265625 72.90625 61.171875 64.09375 
Q 71.09375 55.28125 71.09375 36.53125 
Q 71.09375 17.671875 61.125 8.828125 
Q 51.171875 0 30.078125 0 
L 9.8125 0 
z
" id="DejaVuSans-68"/>
       <path d="M 52 44.1875 
Q 55.375 50.25 60.0625 53.125 
Q 64.75 56 71.09375 56 
Q 79.640625 56 84.28125 50.015625 
Q 88.921875 44.046875 88.921875 33.015625 
L 88.921875 0 
L 79.890625 0 
L 79.890625 32.71875 
Q 79.890625 40.578125 77.09375 44.375 
Q 74.3125 48.1875 68.609375 48.1875 
Q 61.625 48.1875 57.5625 43.546875 
Q 53.515625 38.921875 53.515625 30.90625 
L 53.515625 0 
L 44.484375 0 
L 44.484375 32.71875 
Q 44.484375 40.625 41.703125 44.40625 
Q 38.921875 48.1875 33.109375 48.1875 
Q 26.21875 48.1875 22.15625 43.53125 
Q 18.109375 38.875 18.109375 30.90625 
L 18.109375 0 
L 9.078125 0 
L 9.078125 54.6875 
L 18.109375 54.6875 
L 18.109375 46.1875 
Q 21.1875 51.21875 25.484375 53.609375 
Q 29.78125 56 35.6875 56 
Q 41.65625 56 45.828125 52.96875 
Q 50 49.953125 52 44.1875 
z
" id="DejaVuSans-109"/>
       <path d="M 28.609375 0 
L 0.78125 72.90625 
L 11.078125 72.90625 
L 34.1875 11.53125 
L 57.328125 72.90625 
L 67.578125 72.90625 
L 39.796875 0 
z
" id="DejaVuSans-86"/>
       <path d="M 47.015625 60.890625 
L 29.5 51.421875 
L 47.015625 41.890625 
L 44.1875 37.109375 
L 27.78125 47.015625 
L 27.78125 28.609375 
L 22.21875 28.609375 
L 22.21875 47.015625 
L 5.8125 37.109375 
L 2.984375 41.890625 
L 20.515625 51.421875 
L 2.984375 60.890625 
L 5.8125 65.71875 
L 22.21875 55.8125 
L 22.21875 74.21875 
L 27.78125 74.21875 
L 27.78125 55.8125 
L 44.1875 65.71875 
z
" id="DejaVuSans-42"/>
       <path d="M 25.390625 72.90625 
L 33.6875 72.90625 
L 8.296875 -9.28125 
L 0 -9.28125 
z
" id="DejaVuSans-47"/>
      </defs>
      <use xlink:href="#DejaVuSans-80"/>
      <use x="60.302734" xlink:href="#DejaVuSans-83"/>
      <use x="123.779297" xlink:href="#DejaVuSans-68"/>
      <use x="200.78125" xlink:href="#DejaVuSans-32"/>
      <use x="232.568359" xlink:href="#DejaVuSans-40"/>
      <use x="271.582031" xlink:href="#DejaVuSans-109"/>
      <use x="368.994141" xlink:href="#DejaVuSans-86"/>
      <use x="437.402344" xlink:href="#DejaVuSans-42"/>
      <use x="487.402344" xlink:href="#DejaVuSans-42"/>
      <use x="537.402344" xlink:href="#DejaVuSans-50"/>
      <use x="601.025391" xlink:href="#DejaVuSans-47"/>
      <use x="634.716797" xlink:href="#DejaVuSans-72"/>
      <use x="709.912109" xlink:href="#DejaVuSans-122"/>
      <use x="762.402344" xlink:href="#DejaVuSans-41"/>
     </g>
    </g>
   </g>
   <g id="line2d_59">
    <path clip-path="url(#p95474e92f9)" d="M 75.823698 108.755833 
L 78.393462 78.842951 
L 80.963226 76.303225 
L 83.53299 77.81197 
L 86.102754 80.406931 
L 88.672518 82.307765 
L 91.242283 84.452193 
L 93.812047 88.49462 
L 96.381811 90.496935 
L 98.951575 92.080178 
L 101.521339 91.838906 
L 104.091103 89.359665 
L 106.660867 90.820605 
L 109.230632 94.435416 
L 114.37016 100.433771 
L 116.939924 102.634785 
L 119.509688 102.644223 
L 122.079452 104.569188 
L 124.649217 104.005993 
L 127.218981 105.354864 
L 129.788745 106.472497 
L 132.358509 107.354132 
L 134.928273 106.285936 
L 137.498037 109.609467 
L 140.067801 111.194672 
L 142.637566 113.038374 
L 145.20733 114.081868 
L 147.777094 117.838761 
L 150.346858 118.765859 
L 152.916622 120.652762 
L 155.486386 123.533497 
L 158.056151 124.790883 
L 160.625915 125.902675 
L 163.195679 128.071159 
L 165.765443 129.113381 
L 168.335207 131.26506 
L 170.904971 133.004574 
L 173.474735 132.90356 
L 176.0445 133.047291 
L 178.614264 134.165501 
L 181.184028 135.740622 
L 183.753792 136.848191 
L 186.323556 140.058708 
L 188.89332 140.96373 
L 191.463085 139.703533 
L 194.032849 140.836534 
L 196.602613 141.570115 
L 199.172377 143.112262 
L 201.742141 142.665277 
L 204.311905 144.66148 
L 206.88167 146.500349 
L 209.451434 147.872135 
L 212.021198 147.699713 
L 214.590962 148.854895 
L 217.160726 147.489786 
L 219.73049 139.996679 
L 222.300254 148.03865 
L 224.870019 153.191963 
L 227.439783 153.001584 
L 230.009547 151.82851 
L 232.579311 152.834162 
L 235.149075 152.742325 
L 237.718839 154.60091 
L 240.288604 155.471859 
L 242.858368 154.03199 
L 245.428132 153.90482 
L 250.56766 154.356382 
L 253.137424 155.182635 
L 255.707188 157.064304 
L 258.276953 156.490592 
L 260.846717 157.838646 
L 263.416481 157.761157 
L 265.986245 160.865945 
L 268.556009 157.070244 
L 271.125773 97.514035 
L 273.695538 74.717813 
L 276.265302 89.510563 
L 278.835066 157.356388 
L 281.40483 161.443507 
L 283.974594 163.795636 
L 286.544358 162.807029 
L 289.114122 161.987318 
L 294.253651 165.320778 
L 296.823415 163.773475 
L 299.393179 165.470501 
L 301.962943 166.203706 
L 304.532707 166.364881 
L 307.102472 163.592604 
L 309.672236 163.75526 
L 312.242 164.653514 
L 314.811764 165.275842 
L 317.381528 163.306046 
L 319.951292 164.704252 
L 322.521056 164.745568 
L 325.090821 165.115057 
L 327.660585 162.694794 
L 330.230349 165.713851 
L 332.800113 164.817953 
L 335.369877 161.93556 
L 337.939641 161.251756 
L 340.509406 165.64206 
L 343.07917 167.005303 
L 345.648934 168.743691 
L 348.218698 169.529691 
L 350.788462 171.223199 
L 353.358226 174.397222 
L 355.92799 175.206032 
L 358.497755 177.490918 
L 361.067519 177.942383 
L 363.637283 168.525179 
L 366.207047 177.427478 
L 368.776811 189.995981 
L 371.346575 193.398993 
L 373.91634 194.56666 
L 376.486104 198.239459 
L 379.055868 202.619164 
L 381.625632 205.369704 
L 384.195396 206.362077 
L 386.76516 208.738526 
L 389.334924 209.885431 
L 391.904689 213.184905 
L 394.474453 216.960315 
L 397.044217 219.436578 
L 399.613981 218.730707 
L 402.183745 219.365044 
L 404.753509 235.904267 
L 404.753509 235.904267 
" style="fill:none;stroke:#1f77b4;stroke-linecap:square;stroke-opacity:0.6;stroke-width:1.5;"/>
   </g>
   <g id="line2d_60">
    <path clip-path="url(#p95474e92f9)" d="M 75.823698 109.686049 
L 78.393462 78.920287 
L 80.963226 76.8543 
L 83.53299 79.827802 
L 86.102754 78.547646 
L 88.672518 80.681468 
L 91.242283 84.927488 
L 93.812047 87.993305 
L 96.381811 90.776335 
L 98.951575 91.251567 
L 101.521339 91.419987 
L 104.091103 89.944713 
L 106.660867 89.526583 
L 109.230632 92.604236 
L 111.800396 96.236288 
L 114.37016 101.131616 
L 116.939924 105.47835 
L 119.509688 104.908143 
L 122.079452 106.875305 
L 124.649217 104.792254 
L 127.218981 104.678465 
L 132.358509 106.12456 
L 134.928273 108.004451 
L 137.498037 110.318247 
L 140.067801 110.115018 
L 142.637566 113.321596 
L 145.20733 115.996827 
L 147.777094 117.0921 
L 150.346858 119.632971 
L 152.916622 121.105759 
L 155.486386 123.272323 
L 158.056151 123.493837 
L 160.625915 125.247384 
L 163.195679 125.801278 
L 165.765443 128.117482 
L 168.335207 128.536888 
L 170.904971 130.687955 
L 176.0445 132.50033 
L 178.614264 134.662566 
L 181.184028 138.022262 
L 183.753792 136.832704 
L 186.323556 137.476109 
L 188.89332 137.867219 
L 191.463085 139.604077 
L 194.032849 139.217268 
L 199.172377 142.549609 
L 201.742141 144.314169 
L 204.311905 144.151529 
L 206.88167 144.603571 
L 209.451434 146.564621 
L 212.021198 146.21772 
L 214.590962 148.854016 
L 217.160726 148.54401 
L 219.73049 141.130408 
L 222.300254 145.568734 
L 224.870019 148.495533 
L 227.439783 150.853566 
L 230.009547 152.140589 
L 232.579311 152.01826 
L 235.149075 151.615995 
L 237.718839 151.857036 
L 240.288604 152.854287 
L 242.858368 151.778643 
L 245.428132 152.531969 
L 247.997896 152.617212 
L 250.56766 153.067628 
L 253.137424 154.982804 
L 255.707188 154.345149 
L 258.276953 157.070579 
L 260.846717 157.179759 
L 263.416481 158.750624 
L 265.986245 157.053333 
L 268.556009 150.456073 
L 271.125773 97.838809 
L 273.695538 73.355902 
L 276.265302 88.804122 
L 278.835066 150.680451 
L 281.40483 158.595321 
L 283.974594 161.873741 
L 286.544358 163.172386 
L 289.114122 163.122831 
L 291.683887 162.558069 
L 294.253651 164.21066 
L 296.823415 166.146671 
L 299.393179 165.987956 
L 301.962943 164.243957 
L 304.532707 163.989737 
L 307.102472 165.39382 
L 309.672236 164.631 
L 312.242 164.253181 
L 314.811764 165.413614 
L 317.381528 164.502442 
L 319.951292 164.205257 
L 322.521056 162.782282 
L 327.660585 165.915097 
L 330.230349 163.698645 
L 332.800113 164.293283 
L 335.369877 158.997285 
L 337.939641 156.038099 
L 340.509406 163.99486 
L 343.07917 167.118054 
L 345.648934 168.114258 
L 348.218698 168.636726 
L 350.788462 170.614072 
L 353.358226 175.239106 
L 355.92799 175.244407 
L 358.497755 178.426226 
L 361.067519 176.522041 
L 363.637283 168.516608 
L 366.207047 177.373802 
L 368.776811 189.627859 
L 371.346575 192.053753 
L 373.91634 195.435771 
L 376.486104 197.447466 
L 379.055868 200.018701 
L 381.625632 203.233236 
L 384.195396 206.230308 
L 389.334924 211.440716 
L 391.904689 212.270846 
L 397.044217 218.325503 
L 399.613981 219.697466 
L 402.183745 219.981615 
L 404.753509 235.781625 
L 404.753509 235.781625 
" style="fill:none;stroke:#ff7f0e;stroke-linecap:square;stroke-opacity:0.6;stroke-width:1.5;"/>
   </g>
   <g id="line2d_61">
    <path clip-path="url(#p95474e92f9)" d="M 75.823698 109.476722 
L 78.393462 78.479967 
L 80.963226 76.446548 
L 83.53299 79.056041 
L 86.102754 79.502354 
L 88.672518 80.538215 
L 91.242283 83.820471 
L 93.812047 86.38817 
L 96.381811 90.996908 
L 98.951575 93.134355 
L 101.521339 92.786937 
L 106.660867 88.613219 
L 109.230632 94.335142 
L 111.800396 98.722406 
L 114.37016 100.748303 
L 116.939924 101.622704 
L 119.509688 103.87381 
L 124.649217 105.40221 
L 127.218981 105.818099 
L 129.788745 105.33334 
L 132.358509 106.471756 
L 134.928273 108.626138 
L 137.498037 108.784618 
L 140.067801 110.602127 
L 142.637566 114.18396 
L 145.20733 115.711683 
L 147.777094 115.768344 
L 150.346858 119.280945 
L 152.916622 119.075045 
L 155.486386 121.827756 
L 158.056151 123.490558 
L 160.625915 125.886689 
L 163.195679 126.163161 
L 165.765443 127.718159 
L 168.335207 130.214978 
L 170.904971 131.464054 
L 173.474735 131.931792 
L 176.0445 133.10258 
L 178.614264 134.052624 
L 181.184028 137.348447 
L 183.753792 137.069493 
L 186.323556 137.135861 
L 188.89332 138.961226 
L 191.463085 139.078738 
L 194.032849 140.235825 
L 196.602613 143.402606 
L 199.172377 143.33154 
L 201.742141 144.416448 
L 204.311905 146.193949 
L 206.88167 145.27822 
L 209.451434 148.364428 
L 212.021198 147.896387 
L 214.590962 147.269013 
L 217.160726 145.778889 
L 219.73049 139.776265 
L 222.300254 147.299325 
L 224.870019 150.944077 
L 227.439783 151.694399 
L 230.009547 151.9274 
L 232.579311 152.336252 
L 235.149075 153.877272 
L 237.718839 153.178535 
L 240.288604 153.304483 
L 242.858368 154.756491 
L 245.428132 155.982868 
L 247.997896 153.6935 
L 250.56766 154.577222 
L 253.137424 154.910459 
L 255.707188 156.64765 
L 258.276953 157.190603 
L 260.846717 156.948716 
L 263.416481 158.660043 
L 265.986245 157.888713 
L 268.556009 154.034775 
L 271.125773 99.845744 
L 273.695538 80.343614 
L 276.265302 94.216903 
L 278.835066 155.264139 
L 281.40483 161.692476 
L 283.974594 162.328439 
L 286.544358 161.819143 
L 289.114122 163.23891 
L 291.683887 162.688989 
L 294.253651 162.334058 
L 296.823415 164.319485 
L 299.393179 163.473958 
L 301.962943 163.570799 
L 304.532707 164.627149 
L 307.102472 165.992726 
L 309.672236 166.140069 
L 312.242 164.364591 
L 314.811764 165.809695 
L 317.381528 166.790612 
L 319.951292 164.450696 
L 322.521056 165.326128 
L 325.090821 164.765357 
L 327.660585 165.292059 
L 330.230349 166.152628 
L 335.369877 161.835149 
L 337.939641 162.027703 
L 340.509406 162.534135 
L 343.07917 165.379253 
L 345.648934 167.520895 
L 348.218698 169.483958 
L 350.788462 170.879543 
L 353.358226 174.402376 
L 355.92799 176.47166 
L 358.497755 178.173294 
L 361.067519 178.065932 
L 363.637283 168.981932 
L 366.207047 177.998982 
L 368.776811 189.298919 
L 371.346575 194.507517 
L 373.91634 196.712022 
L 376.486104 198.453162 
L 379.055868 201.080588 
L 381.625632 201.175304 
L 384.195396 204.622363 
L 386.76516 209.179773 
L 389.334924 212.179714 
L 397.044217 217.403218 
L 399.613981 218.161923 
L 402.183745 219.569456 
L 404.753509 238.422727 
L 404.753509 238.422727 
" style="fill:none;stroke:#2ca02c;stroke-linecap:square;stroke-opacity:0.6;stroke-width:1.5;"/>
   </g>
   <g id="line2d_62">
    <path clip-path="url(#p95474e92f9)" d="M 75.823698 109.490136 
L 78.393462 78.877026 
L 80.963226 76.628209 
L 83.53299 79.051116 
L 86.102754 80.654043 
L 88.672518 83.163927 
L 91.242283 87.009713 
L 93.812047 87.783436 
L 96.381811 90.879378 
L 98.951575 93.051148 
L 101.521339 93.449656 
L 104.091103 92.939477 
L 106.660867 90.840919 
L 109.230632 94.855762 
L 111.800396 99.108815 
L 114.37016 101.009541 
L 116.939924 103.799673 
L 119.509688 104.838229 
L 122.079452 105.41058 
L 124.649217 106.192126 
L 127.218981 106.577142 
L 129.788745 108.299057 
L 132.358509 106.920079 
L 134.928273 110.962838 
L 137.498037 107.794103 
L 140.067801 110.013276 
L 142.637566 113.054463 
L 145.20733 114.411922 
L 147.777094 115.97351 
L 150.346858 119.377714 
L 152.916622 122.219138 
L 155.486386 122.169147 
L 158.056151 124.634825 
L 160.625915 126.327238 
L 163.195679 128.253486 
L 165.765443 128.144789 
L 168.335207 128.606882 
L 170.904971 130.472213 
L 173.474735 132.913292 
L 176.0445 135.024758 
L 178.614264 136.306016 
L 181.184028 134.728983 
L 183.753792 135.406353 
L 186.323556 136.904007 
L 188.89332 136.914253 
L 191.463085 139.746809 
L 194.032849 141.200555 
L 196.602613 142.465605 
L 199.172377 140.424877 
L 201.742141 141.365251 
L 204.311905 144.360598 
L 206.88167 145.766169 
L 209.451434 146.143964 
L 212.021198 147.991972 
L 214.590962 147.340579 
L 217.160726 145.587236 
L 219.73049 140.891587 
L 224.870019 149.229373 
L 230.009547 151.989263 
L 232.579311 151.255626 
L 235.149075 151.264631 
L 237.718839 152.520903 
L 240.288604 153.191709 
L 242.858368 151.985796 
L 245.428132 154.846166 
L 247.997896 153.733305 
L 250.56766 153.594697 
L 253.137424 156.725552 
L 255.707188 155.634453 
L 258.276953 155.126174 
L 260.846717 156.574259 
L 263.416481 157.488955 
L 265.986245 156.810227 
L 268.556009 157.469939 
L 271.125773 88.229718 
L 273.695538 62.877273 
L 276.265302 78.888712 
L 278.835066 159.239451 
L 281.40483 161.432994 
L 283.974594 160.945637 
L 286.544358 161.827792 
L 289.114122 162.355831 
L 291.683887 161.9357 
L 294.253651 162.044902 
L 296.823415 163.895298 
L 299.393179 165.048486 
L 301.962943 165.191061 
L 304.532707 164.279057 
L 307.102472 164.133713 
L 312.242 166.778433 
L 314.811764 165.252299 
L 317.381528 165.760358 
L 319.951292 165.005391 
L 322.521056 165.165862 
L 325.090821 163.85693 
L 327.660585 166.583389 
L 330.230349 166.380446 
L 332.800113 165.219974 
L 335.369877 164.191881 
L 337.939641 163.726138 
L 340.509406 165.712965 
L 343.07917 165.659901 
L 345.648934 167.406498 
L 348.218698 168.565551 
L 350.788462 173.178498 
L 353.358226 172.992119 
L 355.92799 175.762679 
L 358.497755 178.256223 
L 361.067519 179.883186 
L 363.637283 168.926235 
L 366.207047 178.776394 
L 368.776811 190.459178 
L 371.346575 191.285736 
L 379.055868 202.132614 
L 381.625632 204.646294 
L 384.195396 207.517515 
L 386.76516 208.876818 
L 389.334924 211.180163 
L 391.904689 212.855851 
L 394.474453 215.527419 
L 397.044217 217.4324 
L 399.613981 217.278187 
L 402.183745 218.497632 
L 404.753509 236.014984 
L 404.753509 236.014984 
" style="fill:none;stroke:#d62728;stroke-linecap:square;stroke-opacity:0.6;stroke-width:1.5;"/>
   </g>
   <g id="line2d_63">
    <path clip-path="url(#p95474e92f9)" d="M 75.823698 112.83837 
L 78.393462 78.786226 
L 80.963226 75.529931 
L 83.53299 78.924698 
L 86.102754 80.974316 
L 91.242283 85.99435 
L 93.812047 89.620517 
L 96.381811 91.043151 
L 98.951575 93.983448 
L 101.521339 95.489962 
L 104.091103 93.486122 
L 106.660867 92.415957 
L 109.230632 95.411228 
L 111.800396 98.763582 
L 114.37016 100.441282 
L 116.939924 103.047671 
L 119.509688 102.578984 
L 122.079452 103.660929 
L 124.649217 109.136989 
L 127.218981 106.262703 
L 129.788745 107.934157 
L 132.358509 105.401126 
L 134.928273 105.757322 
L 137.498037 107.759139 
L 140.067801 111.385461 
L 142.637566 111.242734 
L 145.20733 116.807426 
L 147.777094 116.865218 
L 150.346858 117.5374 
L 152.916622 117.888387 
L 155.486386 121.890407 
L 158.056151 122.21264 
L 160.625915 122.807057 
L 163.195679 126.399528 
L 165.765443 125.554032 
L 168.335207 129.049388 
L 170.904971 128.465675 
L 173.474735 131.414684 
L 176.0445 130.926271 
L 178.614264 132.59842 
L 181.184028 130.985727 
L 183.753792 135.982347 
L 186.323556 136.478496 
L 188.89332 138.708566 
L 191.463085 136.903742 
L 194.032849 140.279675 
L 196.602613 141.854214 
L 199.172377 141.278356 
L 201.742141 144.460445 
L 204.311905 143.273939 
L 206.88167 142.412948 
L 209.451434 143.79642 
L 212.021198 144.341121 
L 214.590962 146.589553 
L 217.160726 144.301568 
L 219.73049 138.232931 
L 222.300254 144.29942 
L 224.870019 148.385055 
L 227.439783 149.234307 
L 230.009547 152.222061 
L 232.579311 150.49055 
L 235.149075 150.140767 
L 237.718839 152.832799 
L 240.288604 152.301559 
L 242.858368 152.298277 
L 245.428132 152.458577 
L 247.997896 151.710548 
L 250.56766 152.105081 
L 253.137424 153.464014 
L 255.707188 152.600365 
L 258.276953 154.421132 
L 260.846717 156.055108 
L 265.986245 158.714795 
L 268.556009 156.912267 
L 271.125773 104.138147 
L 273.695538 76.179848 
L 276.265302 93.008339 
L 278.835066 158.451499 
L 281.40483 161.870196 
L 283.974594 161.401856 
L 286.544358 160.45863 
L 289.114122 161.005333 
L 291.683887 162.855775 
L 294.253651 163.984825 
L 296.823415 162.882023 
L 299.393179 165.08884 
L 301.962943 162.974784 
L 304.532707 165.40072 
L 307.102472 163.434228 
L 309.672236 162.937784 
L 312.242 163.434211 
L 314.811764 164.684406 
L 319.951292 164.977387 
L 322.521056 165.907632 
L 325.090821 163.413947 
L 327.660585 164.401996 
L 330.230349 164.77021 
L 332.800113 164.807592 
L 335.369877 163.844594 
L 337.939641 165.984302 
L 340.509406 165.64529 
L 343.07917 167.685485 
L 345.648934 169.968792 
L 348.218698 168.482062 
L 350.788462 170.840282 
L 353.358226 174.801039 
L 355.92799 176.021439 
L 358.497755 177.669151 
L 361.067519 177.679714 
L 363.637283 167.480556 
L 366.207047 177.804784 
L 368.776811 188.950009 
L 371.346575 191.748581 
L 373.91634 195.103412 
L 376.486104 199.144185 
L 379.055868 201.393927 
L 381.625632 204.513725 
L 384.195396 204.569064 
L 386.76516 206.982431 
L 389.334924 212.076034 
L 391.904689 212.174167 
L 394.474453 216.397948 
L 397.044217 216.620336 
L 399.613981 217.030438 
L 402.183745 216.87534 
L 404.753509 232.320768 
L 404.753509 232.320768 
" style="fill:none;stroke:#9467bd;stroke-linecap:square;stroke-opacity:0.6;stroke-width:1.5;"/>
   </g>
   <g id="line2d_64">
    <path clip-path="url(#p95474e92f9)" d="M 75.823698 109.350709 
L 78.393462 76.133184 
L 80.963226 72.377032 
L 83.53299 74.649763 
L 86.102754 81.28207 
L 88.672518 84.701078 
L 91.242283 87.325334 
L 93.812047 87.593474 
L 96.381811 91.115701 
L 98.951575 93.012386 
L 101.521339 92.410564 
L 104.091103 90.420019 
L 106.660867 91.992773 
L 109.230632 93.738856 
L 111.800396 97.987393 
L 114.37016 99.815825 
L 116.939924 101.057817 
L 119.509688 104.04772 
L 122.079452 105.842593 
L 124.649217 107.273297 
L 127.218981 106.065828 
L 129.788745 107.115156 
L 132.358509 106.511731 
L 134.928273 106.800476 
L 137.498037 106.542224 
L 140.067801 109.255188 
L 142.637566 109.952879 
L 145.20733 114.238463 
L 147.777094 114.844111 
L 150.346858 115.903055 
L 152.916622 118.426535 
L 155.486386 118.666036 
L 158.056151 122.420666 
L 160.625915 125.062135 
L 163.195679 123.883164 
L 165.765443 125.31782 
L 168.335207 126.409584 
L 170.904971 128.833848 
L 173.474735 129.113033 
L 176.0445 131.981825 
L 178.614264 132.693783 
L 181.184028 133.87152 
L 183.753792 136.115509 
L 186.323556 134.83248 
L 188.89332 136.727852 
L 191.463085 137.733898 
L 194.032849 138.540766 
L 196.602613 139.042255 
L 199.172377 142.135288 
L 201.742141 140.049739 
L 204.311905 141.896621 
L 206.88167 143.99134 
L 209.451434 144.361941 
L 214.590962 143.307516 
L 217.160726 143.475734 
L 219.73049 138.691863 
L 222.300254 143.867846 
L 224.870019 147.702766 
L 227.439783 150.001676 
L 230.009547 149.583039 
L 232.579311 150.271172 
L 235.149075 150.127844 
L 237.718839 148.753734 
L 240.288604 149.730262 
L 242.858368 152.199304 
L 245.428132 151.697418 
L 247.997896 152.416039 
L 250.56766 155.082924 
L 253.137424 153.942209 
L 255.707188 156.245835 
L 258.276953 153.497244 
L 260.846717 155.163275 
L 263.416481 155.738442 
L 265.986245 155.322419 
L 268.556009 154.554167 
L 271.125773 116.201903 
L 273.695538 96.141944 
L 276.265302 109.590231 
L 278.835066 159.765936 
L 281.40483 162.696142 
L 283.974594 163.929686 
L 286.544358 161.550078 
L 289.114122 159.952446 
L 291.683887 160.756081 
L 294.253651 162.16304 
L 296.823415 161.308401 
L 299.393179 162.268348 
L 301.962943 162.664527 
L 304.532707 164.638742 
L 307.102472 164.870505 
L 309.672236 165.262426 
L 312.242 163.78708 
L 314.811764 165.793375 
L 317.381528 165.586101 
L 319.951292 165.812212 
L 322.521056 163.029784 
L 325.090821 162.758932 
L 327.660585 165.542197 
L 330.230349 163.791764 
L 332.800113 163.360652 
L 335.369877 164.427065 
L 337.939641 163.947298 
L 340.509406 165.822452 
L 343.07917 166.649212 
L 345.648934 166.61787 
L 348.218698 169.261083 
L 350.788462 171.510288 
L 353.358226 174.890626 
L 355.92799 174.706483 
L 358.497755 176.334713 
L 361.067519 177.022677 
L 363.637283 169.963758 
L 366.207047 177.789212 
L 368.776811 189.256185 
L 371.346575 191.338603 
L 373.91634 194.277156 
L 376.486104 198.311193 
L 379.055868 200.753155 
L 381.625632 203.70442 
L 384.195396 207.17926 
L 386.76516 209.472738 
L 389.334924 212.040751 
L 391.904689 213.342012 
L 394.474453 214.135504 
L 397.044217 217.602073 
L 399.613981 216.150138 
L 402.183745 217.494094 
L 404.753509 237.634721 
L 404.753509 237.634721 
" style="fill:none;stroke:#8c564b;stroke-linecap:square;stroke-opacity:0.6;stroke-width:1.5;"/>
   </g>
   <g id="line2d_65">
    <path clip-path="url(#p95474e92f9)" d="M 92.928048 247.2 
L 92.928048 54.1 
" style="fill:none;stroke:#cd5c5c;stroke-linecap:square;stroke-width:1.5;"/>
   </g>
   <g id="line2d_66">
    <path clip-path="url(#p95474e92f9)" d="M 115.295275 247.2 
L 115.295275 54.1 
" style="fill:none;stroke:#cd5c5c;stroke-linecap:square;stroke-width:1.5;"/>
   </g>
   <g id="line2d_67">
    <path clip-path="url(#p95474e92f9)" d="M 154.766852 247.2 
L 154.766852 54.1 
" style="fill:none;stroke:#2e8b57;stroke-linecap:square;stroke-width:1.5;"/>
   </g>
   <g id="line2d_68">
    <path clip-path="url(#p95474e92f9)" d="M 194.23843 247.2 
L 194.23843 54.1 
" style="fill:none;stroke:#2e8b57;stroke-linecap:square;stroke-width:1.5;"/>
   </g>
   <g id="patch_3">
    <path d="M 59.377207 247.2 
L 59.377207 54.1 
" style="fill:none;stroke:#000000;stroke-linecap:square;stroke-linejoin:miter;stroke-width:0.8;"/>
   </g>
   <g id="patch_4">
    <path d="M 421.2 247.2 
L 421.2 54.1 
" style="fill:none;stroke:#000000;stroke-linecap:square;stroke-linejoin:miter;stroke-width:0.8;"/>
   </g>
   <g id="patch_5">
    <path d="M 59.377207 247.2 
L 421.2 247.2 
" style="fill:none;stroke:#000000;stroke-linecap:square;stroke-linejoin:miter;stroke-width:0.8;"/>
   </g>
   <g id="patch_6">
    <path d="M 59.377207 54.1 
L 421.2 54.1 
" style="fill:none;stroke:#000000;stroke-linecap:square;stroke-linejoin:miter;stroke-width:0.8;"/>
   </g>
   <g id="text_15">
    <!-- RCS09  gamma entrainment; med: ON; side: L -->
    <g transform="translate(101.157041 21.22525)scale(0.12 -0.12)">
     <defs>
      <path d="M 44.390625 34.1875 
Q 47.5625 33.109375 50.5625 29.59375 
Q 53.5625 26.078125 56.59375 19.921875 
L 66.609375 0 
L 56 0 
L 46.6875 18.703125 
Q 43.0625 26.03125 39.671875 28.421875 
Q 36.28125 30.8125 30.421875 30.8125 
L 19.671875 30.8125 
L 19.671875 0 
L 9.8125 0 
L 9.8125 72.90625 
L 32.078125 72.90625 
Q 44.578125 72.90625 50.734375 67.671875 
Q 56.890625 62.453125 56.890625 51.90625 
Q 56.890625 45.015625 53.6875 40.46875 
Q 50.484375 35.9375 44.390625 34.1875 
z
M 19.671875 64.796875 
L 19.671875 38.921875 
L 32.078125 38.921875 
Q 39.203125 38.921875 42.84375 42.21875 
Q 46.484375 45.515625 46.484375 51.90625 
Q 46.484375 58.296875 42.84375 61.546875 
Q 39.203125 64.796875 32.078125 64.796875 
z
" id="DejaVuSans-82"/>
      <path d="M 64.40625 67.28125 
L 64.40625 56.890625 
Q 59.421875 61.53125 53.78125 63.8125 
Q 48.140625 66.109375 41.796875 66.109375 
Q 29.296875 66.109375 22.65625 58.46875 
Q 16.015625 50.828125 16.015625 36.375 
Q 16.015625 21.96875 22.65625 14.328125 
Q 29.296875 6.6875 41.796875 6.6875 
Q 48.140625 6.6875 53.78125 8.984375 
Q 59.421875 11.28125 64.40625 15.921875 
L 64.40625 5.609375 
Q 59.234375 2.09375 53.4375 0.328125 
Q 47.65625 -1.421875 41.21875 -1.421875 
Q 24.65625 -1.421875 15.125 8.703125 
Q 5.609375 18.84375 5.609375 36.375 
Q 5.609375 53.953125 15.125 64.078125 
Q 24.65625 74.21875 41.21875 74.21875 
Q 47.75 74.21875 53.53125 72.484375 
Q 59.328125 70.75 64.40625 67.28125 
z
" id="DejaVuSans-67"/>
      <path d="M 45.40625 27.984375 
Q 45.40625 37.75 41.375 43.109375 
Q 37.359375 48.484375 30.078125 48.484375 
Q 22.859375 48.484375 18.828125 43.109375 
Q 14.796875 37.75 14.796875 27.984375 
Q 14.796875 18.265625 18.828125 12.890625 
Q 22.859375 7.515625 30.078125 7.515625 
Q 37.359375 7.515625 41.375 12.890625 
Q 45.40625 18.265625 45.40625 27.984375 
z
M 54.390625 6.78125 
Q 54.390625 -7.171875 48.1875 -13.984375 
Q 42 -20.796875 29.203125 -20.796875 
Q 24.46875 -20.796875 20.265625 -20.09375 
Q 16.0625 -19.390625 12.109375 -17.921875 
L 12.109375 -9.1875 
Q 16.0625 -11.328125 19.921875 -12.34375 
Q 23.78125 -13.375 27.78125 -13.375 
Q 36.625 -13.375 41.015625 -8.765625 
Q 45.40625 -4.15625 45.40625 5.171875 
L 45.40625 9.625 
Q 42.625 4.78125 38.28125 2.390625 
Q 33.9375 0 27.875 0 
Q 17.828125 0 11.671875 7.65625 
Q 5.515625 15.328125 5.515625 27.984375 
Q 5.515625 40.671875 11.671875 48.328125 
Q 17.828125 56 27.875 56 
Q 33.9375 56 38.28125 53.609375 
Q 42.625 51.21875 45.40625 46.390625 
L 45.40625 54.6875 
L 54.390625 54.6875 
z
" id="DejaVuSans-103"/>
      <path d="M 34.28125 27.484375 
Q 23.390625 27.484375 19.1875 25 
Q 14.984375 22.515625 14.984375 16.5 
Q 14.984375 11.71875 18.140625 8.90625 
Q 21.296875 6.109375 26.703125 6.109375 
Q 34.1875 6.109375 38.703125 11.40625 
Q 43.21875 16.703125 43.21875 25.484375 
L 43.21875 27.484375 
z
M 52.203125 31.203125 
L 52.203125 0 
L 43.21875 0 
L 43.21875 8.296875 
Q 40.140625 3.328125 35.546875 0.953125 
Q 30.953125 -1.421875 24.3125 -1.421875 
Q 15.921875 -1.421875 10.953125 3.296875 
Q 6 8.015625 6 15.921875 
Q 6 25.140625 12.171875 29.828125 
Q 18.359375 34.515625 30.609375 34.515625 
L 43.21875 34.515625 
L 43.21875 35.40625 
Q 43.21875 41.609375 39.140625 45 
Q 35.0625 48.390625 27.6875 48.390625 
Q 23 48.390625 18.546875 47.265625 
Q 14.109375 46.140625 10.015625 43.890625 
L 10.015625 52.203125 
Q 14.9375 54.109375 19.578125 55.046875 
Q 24.21875 56 28.609375 56 
Q 40.484375 56 46.34375 49.84375 
Q 52.203125 43.703125 52.203125 31.203125 
z
" id="DejaVuSans-97"/>
      <path d="M 18.3125 70.21875 
L 18.3125 54.6875 
L 36.8125 54.6875 
L 36.8125 47.703125 
L 18.3125 47.703125 
L 18.3125 18.015625 
Q 18.3125 11.328125 20.140625 9.421875 
Q 21.96875 7.515625 27.59375 7.515625 
L 36.8125 7.515625 
L 36.8125 0 
L 27.59375 0 
Q 17.1875 0 13.234375 3.875 
Q 9.28125 7.765625 9.28125 18.015625 
L 9.28125 47.703125 
L 2.6875 47.703125 
L 2.6875 54.6875 
L 9.28125 54.6875 
L 9.28125 70.21875 
z
" id="DejaVuSans-116"/>
      <path d="M 9.421875 54.6875 
L 18.40625 54.6875 
L 18.40625 0 
L 9.421875 0 
z
M 9.421875 75.984375 
L 18.40625 75.984375 
L 18.40625 64.59375 
L 9.421875 64.59375 
z
" id="DejaVuSans-105"/>
      <path d="M 11.71875 51.703125 
L 22.015625 51.703125 
L 22.015625 39.3125 
L 11.71875 39.3125 
z
M 11.71875 12.40625 
L 22.015625 12.40625 
L 22.015625 4 
L 14.015625 -11.625 
L 7.71875 -11.625 
L 11.71875 4 
z
" id="DejaVuSans-59"/>
      <path d="M 45.40625 46.390625 
L 45.40625 75.984375 
L 54.390625 75.984375 
L 54.390625 0 
L 45.40625 0 
L 45.40625 8.203125 
Q 42.578125 3.328125 38.25 0.953125 
Q 33.9375 -1.421875 27.875 -1.421875 
Q 17.96875 -1.421875 11.734375 6.484375 
Q 5.515625 14.40625 5.515625 27.296875 
Q 5.515625 40.1875 11.734375 48.09375 
Q 17.96875 56 27.875 56 
Q 33.9375 56 38.25 53.625 
Q 42.578125 51.265625 45.40625 46.390625 
z
M 14.796875 27.296875 
Q 14.796875 17.390625 18.875 11.75 
Q 22.953125 6.109375 30.078125 6.109375 
Q 37.203125 6.109375 41.296875 11.75 
Q 45.40625 17.390625 45.40625 27.296875 
Q 45.40625 37.203125 41.296875 42.84375 
Q 37.203125 48.484375 30.078125 48.484375 
Q 22.953125 48.484375 18.875 42.84375 
Q 14.796875 37.203125 14.796875 27.296875 
z
" id="DejaVuSans-100"/>
      <path d="M 11.71875 12.40625 
L 22.015625 12.40625 
L 22.015625 0 
L 11.71875 0 
z
M 11.71875 51.703125 
L 22.015625 51.703125 
L 22.015625 39.3125 
L 11.71875 39.3125 
z
" id="DejaVuSans-58"/>
      <path d="M 39.40625 66.21875 
Q 28.65625 66.21875 22.328125 58.203125 
Q 16.015625 50.203125 16.015625 36.375 
Q 16.015625 22.609375 22.328125 14.59375 
Q 28.65625 6.59375 39.40625 6.59375 
Q 50.140625 6.59375 56.421875 14.59375 
Q 62.703125 22.609375 62.703125 36.375 
Q 62.703125 50.203125 56.421875 58.203125 
Q 50.140625 66.21875 39.40625 66.21875 
z
M 39.40625 74.21875 
Q 54.734375 74.21875 63.90625 63.9375 
Q 73.09375 53.65625 73.09375 36.375 
Q 73.09375 19.140625 63.90625 8.859375 
Q 54.734375 -1.421875 39.40625 -1.421875 
Q 24.03125 -1.421875 14.8125 8.828125 
Q 5.609375 19.09375 5.609375 36.375 
Q 5.609375 53.65625 14.8125 63.9375 
Q 24.03125 74.21875 39.40625 74.21875 
z
" id="DejaVuSans-79"/>
      <path d="M 9.8125 72.90625 
L 23.09375 72.90625 
L 55.421875 11.921875 
L 55.421875 72.90625 
L 64.984375 72.90625 
L 64.984375 0 
L 51.703125 0 
L 19.390625 60.984375 
L 19.390625 0 
L 9.8125 0 
z
" id="DejaVuSans-78"/>
      <path d="M 44.28125 53.078125 
L 44.28125 44.578125 
Q 40.484375 46.53125 36.375 47.5 
Q 32.28125 48.484375 27.875 48.484375 
Q 21.1875 48.484375 17.84375 46.4375 
Q 14.5 44.390625 14.5 40.28125 
Q 14.5 37.15625 16.890625 35.375 
Q 19.28125 33.59375 26.515625 31.984375 
L 29.59375 31.296875 
Q 39.15625 29.25 43.1875 25.515625 
Q 47.21875 21.78125 47.21875 15.09375 
Q 47.21875 7.46875 41.1875 3.015625 
Q 35.15625 -1.421875 24.609375 -1.421875 
Q 20.21875 -1.421875 15.453125 -0.5625 
Q 10.6875 0.296875 5.421875 2 
L 5.421875 11.28125 
Q 10.40625 8.6875 15.234375 7.390625 
Q 20.0625 6.109375 24.8125 6.109375 
Q 31.15625 6.109375 34.5625 8.28125 
Q 37.984375 10.453125 37.984375 14.40625 
Q 37.984375 18.0625 35.515625 20.015625 
Q 33.0625 21.96875 24.703125 23.78125 
L 21.578125 24.515625 
Q 13.234375 26.265625 9.515625 29.90625 
Q 5.8125 33.546875 5.8125 39.890625 
Q 5.8125 47.609375 11.28125 51.796875 
Q 16.75 56 26.8125 56 
Q 31.78125 56 36.171875 55.265625 
Q 40.578125 54.546875 44.28125 53.078125 
z
" id="DejaVuSans-115"/>
      <path d="M 9.8125 72.90625 
L 19.671875 72.90625 
L 19.671875 8.296875 
L 55.171875 8.296875 
L 55.171875 0 
L 9.8125 0 
z
" id="DejaVuSans-76"/>
     </defs>
     <use xlink:href="#DejaVuSans-82"/>
     <use x="64.482422" xlink:href="#DejaVuSans-67"/>
     <use x="134.306641" xlink:href="#DejaVuSans-83"/>
     <use x="197.783203" xlink:href="#DejaVuSans-48"/>
     <use x="261.40625" xlink:href="#DejaVuSans-57"/>
     <use x="325.029297" xlink:href="#DejaVuSans-32"/>
     <use x="356.816406" xlink:href="#DejaVuSans-32"/>
     <use x="388.603516" xlink:href="#DejaVuSans-103"/>
     <use x="452.080078" xlink:href="#DejaVuSans-97"/>
     <use x="513.359375" xlink:href="#DejaVuSans-109"/>
     <use x="610.771484" xlink:href="#DejaVuSans-109"/>
     <use x="708.183594" xlink:href="#DejaVuSans-97"/>
     <use x="769.462891" xlink:href="#DejaVuSans-32"/>
     <use x="801.25" xlink:href="#DejaVuSans-101"/>
     <use x="862.773438" xlink:href="#DejaVuSans-110"/>
     <use x="926.152344" xlink:href="#DejaVuSans-116"/>
     <use x="965.361328" xlink:href="#DejaVuSans-114"/>
     <use x="1006.474609" xlink:href="#DejaVuSans-97"/>
     <use x="1067.753906" xlink:href="#DejaVuSans-105"/>
     <use x="1095.537109" xlink:href="#DejaVuSans-110"/>
     <use x="1158.916016" xlink:href="#DejaVuSans-109"/>
     <use x="1256.328125" xlink:href="#DejaVuSans-101"/>
     <use x="1317.851562" xlink:href="#DejaVuSans-110"/>
     <use x="1381.230469" xlink:href="#DejaVuSans-116"/>
     <use x="1420.439453" xlink:href="#DejaVuSans-59"/>
     <use x="1454.130859" xlink:href="#DejaVuSans-32"/>
     <use x="1485.917969" xlink:href="#DejaVuSans-109"/>
     <use x="1583.330078" xlink:href="#DejaVuSans-101"/>
     <use x="1644.853516" xlink:href="#DejaVuSans-100"/>
     <use x="1708.330078" xlink:href="#DejaVuSans-58"/>
     <use x="1742.021484" xlink:href="#DejaVuSans-32"/>
     <use x="1773.808594" xlink:href="#DejaVuSans-79"/>
     <use x="1852.519531" xlink:href="#DejaVuSans-78"/>
     <use x="1927.324219" xlink:href="#DejaVuSans-59"/>
     <use x="1961.015625" xlink:href="#DejaVuSans-32"/>
     <use x="1992.802734" xlink:href="#DejaVuSans-115"/>
     <use x="2044.902344" xlink:href="#DejaVuSans-105"/>
     <use x="2072.685547" xlink:href="#DejaVuSans-100"/>
     <use x="2136.162109" xlink:href="#DejaVuSans-101"/>
     <use x="2197.685547" xlink:href="#DejaVuSans-58"/>
     <use x="2231.376953" xlink:href="#DejaVuSans-32"/>
     <use x="2263.164062" xlink:href="#DejaVuSans-76"/>
    </g>
    <!-- stim contact 2; stim freq 150.6; amps 0.0-5.0 -->
    <g transform="translate(103.823291 34.662625)scale(0.12 -0.12)">
     <defs>
      <path d="M 30.609375 48.390625 
Q 23.390625 48.390625 19.1875 42.75 
Q 14.984375 37.109375 14.984375 27.296875 
Q 14.984375 17.484375 19.15625 11.84375 
Q 23.34375 6.203125 30.609375 6.203125 
Q 37.796875 6.203125 41.984375 11.859375 
Q 46.1875 17.53125 46.1875 27.296875 
Q 46.1875 37.015625 41.984375 42.703125 
Q 37.796875 48.390625 30.609375 48.390625 
z
M 30.609375 56 
Q 42.328125 56 49.015625 48.375 
Q 55.71875 40.765625 55.71875 27.296875 
Q 55.71875 13.875 49.015625 6.21875 
Q 42.328125 -1.421875 30.609375 -1.421875 
Q 18.84375 -1.421875 12.171875 6.21875 
Q 5.515625 13.875 5.515625 27.296875 
Q 5.515625 40.765625 12.171875 48.375 
Q 18.84375 56 30.609375 56 
z
" id="DejaVuSans-111"/>
      <path d="M 10.6875 12.40625 
L 21 12.40625 
L 21 0 
L 10.6875 0 
z
" id="DejaVuSans-46"/>
      <path d="M 18.109375 8.203125 
L 18.109375 -20.796875 
L 9.078125 -20.796875 
L 9.078125 54.6875 
L 18.109375 54.6875 
L 18.109375 46.390625 
Q 20.953125 51.265625 25.265625 53.625 
Q 29.59375 56 35.59375 56 
Q 45.5625 56 51.78125 48.09375 
Q 58.015625 40.1875 58.015625 27.296875 
Q 58.015625 14.40625 51.78125 6.484375 
Q 45.5625 -1.421875 35.59375 -1.421875 
Q 29.59375 -1.421875 25.265625 0.953125 
Q 20.953125 3.328125 18.109375 8.203125 
z
M 48.6875 27.296875 
Q 48.6875 37.203125 44.609375 42.84375 
Q 40.53125 48.484375 33.40625 48.484375 
Q 26.265625 48.484375 22.1875 42.84375 
Q 18.109375 37.203125 18.109375 27.296875 
Q 18.109375 17.390625 22.1875 11.75 
Q 26.265625 6.109375 33.40625 6.109375 
Q 40.53125 6.109375 44.609375 11.75 
Q 48.6875 17.390625 48.6875 27.296875 
z
" id="DejaVuSans-112"/>
      <path d="M 4.890625 31.390625 
L 31.203125 31.390625 
L 31.203125 23.390625 
L 4.890625 23.390625 
z
" id="DejaVuSans-45"/>
     </defs>
     <use xlink:href="#DejaVuSans-115"/>
     <use x="52.099609" xlink:href="#DejaVuSans-116"/>
     <use x="91.308594" xlink:href="#DejaVuSans-105"/>
     <use x="119.091797" xlink:href="#DejaVuSans-109"/>
     <use x="216.503906" xlink:href="#DejaVuSans-32"/>
     <use x="248.291016" xlink:href="#DejaVuSans-99"/>
     <use x="303.271484" xlink:href="#DejaVuSans-111"/>
     <use x="364.453125" xlink:href="#DejaVuSans-110"/>
     <use x="427.832031" xlink:href="#DejaVuSans-116"/>
     <use x="467.041016" xlink:href="#DejaVuSans-97"/>
     <use x="528.320312" xlink:href="#DejaVuSans-99"/>
     <use x="583.300781" xlink:href="#DejaVuSans-116"/>
     <use x="622.509766" xlink:href="#DejaVuSans-32"/>
     <use x="654.296875" xlink:href="#DejaVuSans-50"/>
     <use x="717.919922" xlink:href="#DejaVuSans-59"/>
     <use x="751.611328" xlink:href="#DejaVuSans-32"/>
     <use x="783.398438" xlink:href="#DejaVuSans-115"/>
     <use x="835.498047" xlink:href="#DejaVuSans-116"/>
     <use x="874.707031" xlink:href="#DejaVuSans-105"/>
     <use x="902.490234" xlink:href="#DejaVuSans-109"/>
     <use x="999.902344" xlink:href="#DejaVuSans-32"/>
     <use x="1031.689453" xlink:href="#DejaVuSans-102"/>
     <use x="1066.894531" xlink:href="#DejaVuSans-114"/>
     <use x="1105.757812" xlink:href="#DejaVuSans-101"/>
     <use x="1167.28125" xlink:href="#DejaVuSans-113"/>
     <use x="1230.757812" xlink:href="#DejaVuSans-32"/>
     <use x="1262.544922" xlink:href="#DejaVuSans-49"/>
     <use x="1326.167969" xlink:href="#DejaVuSans-53"/>
     <use x="1389.791016" xlink:href="#DejaVuSans-48"/>
     <use x="1453.414062" xlink:href="#DejaVuSans-46"/>
     <use x="1485.201172" xlink:href="#DejaVuSans-54"/>
     <use x="1548.824219" xlink:href="#DejaVuSans-59"/>
     <use x="1582.515625" xlink:href="#DejaVuSans-32"/>
     <use x="1614.302734" xlink:href="#DejaVuSans-97"/>
     <use x="1675.582031" xlink:href="#DejaVuSans-109"/>
     <use x="1772.994141" xlink:href="#DejaVuSans-112"/>
     <use x="1836.470703" xlink:href="#DejaVuSans-115"/>
     <use x="1888.570312" xlink:href="#DejaVuSans-32"/>
     <use x="1920.357422" xlink:href="#DejaVuSans-48"/>
     <use x="1983.980469" xlink:href="#DejaVuSans-46"/>
     <use x="2015.767578" xlink:href="#DejaVuSans-48"/>
     <use x="2079.390625" xlink:href="#DejaVuSans-45"/>
     <use x="2115.474609" xlink:href="#DejaVuSans-53"/>
     <use x="2179.097656" xlink:href="#DejaVuSans-46"/>
     <use x="2210.884766" xlink:href="#DejaVuSans-48"/>
    </g>
    <!-- Ch 3 sense contacts 9+ 8- -->
    <g transform="translate(161.100791 48.1)scale(0.12 -0.12)">
     <defs>
      <path d="M 54.890625 33.015625 
L 54.890625 0 
L 45.90625 0 
L 45.90625 32.71875 
Q 45.90625 40.484375 42.875 44.328125 
Q 39.84375 48.1875 33.796875 48.1875 
Q 26.515625 48.1875 22.3125 43.546875 
Q 18.109375 38.921875 18.109375 30.90625 
L 18.109375 0 
L 9.078125 0 
L 9.078125 75.984375 
L 18.109375 75.984375 
L 18.109375 46.1875 
Q 21.34375 51.125 25.703125 53.5625 
Q 30.078125 56 35.796875 56 
Q 45.21875 56 50.046875 50.171875 
Q 54.890625 44.34375 54.890625 33.015625 
z
" id="DejaVuSans-104"/>
      <path d="M 40.578125 39.3125 
Q 47.65625 37.796875 51.625 33 
Q 55.609375 28.21875 55.609375 21.1875 
Q 55.609375 10.40625 48.1875 4.484375 
Q 40.765625 -1.421875 27.09375 -1.421875 
Q 22.515625 -1.421875 17.65625 -0.515625 
Q 12.796875 0.390625 7.625 2.203125 
L 7.625 11.71875 
Q 11.71875 9.328125 16.59375 8.109375 
Q 21.484375 6.890625 26.8125 6.890625 
Q 36.078125 6.890625 40.9375 10.546875 
Q 45.796875 14.203125 45.796875 21.1875 
Q 45.796875 27.640625 41.28125 31.265625 
Q 36.765625 34.90625 28.71875 34.90625 
L 20.21875 34.90625 
L 20.21875 43.015625 
L 29.109375 43.015625 
Q 36.375 43.015625 40.234375 45.921875 
Q 44.09375 48.828125 44.09375 54.296875 
Q 44.09375 59.90625 40.109375 62.90625 
Q 36.140625 65.921875 28.71875 65.921875 
Q 24.65625 65.921875 20.015625 65.03125 
Q 15.375 64.15625 9.8125 62.3125 
L 9.8125 71.09375 
Q 15.4375 72.65625 20.34375 73.4375 
Q 25.25 74.21875 29.59375 74.21875 
Q 40.828125 74.21875 47.359375 69.109375 
Q 53.90625 64.015625 53.90625 55.328125 
Q 53.90625 49.265625 50.4375 45.09375 
Q 46.96875 40.921875 40.578125 39.3125 
z
" id="DejaVuSans-51"/>
      <path d="M 46 62.703125 
L 46 35.5 
L 73.1875 35.5 
L 73.1875 27.203125 
L 46 27.203125 
L 46 0 
L 37.796875 0 
L 37.796875 27.203125 
L 10.59375 27.203125 
L 10.59375 35.5 
L 37.796875 35.5 
L 37.796875 62.703125 
z
" id="DejaVuSans-43"/>
     </defs>
     <use xlink:href="#DejaVuSans-67"/>
     <use x="69.824219" xlink:href="#DejaVuSans-104"/>
     <use x="133.203125" xlink:href="#DejaVuSans-32"/>
     <use x="164.990234" xlink:href="#DejaVuSans-51"/>
     <use x="228.613281" xlink:href="#DejaVuSans-32"/>
     <use x="260.400391" xlink:href="#DejaVuSans-115"/>
     <use x="312.5" xlink:href="#DejaVuSans-101"/>
     <use x="374.023438" xlink:href="#DejaVuSans-110"/>
     <use x="437.402344" xlink:href="#DejaVuSans-115"/>
     <use x="489.501953" xlink:href="#DejaVuSans-101"/>
     <use x="551.025391" xlink:href="#DejaVuSans-32"/>
     <use x="582.8125" xlink:href="#DejaVuSans-99"/>
     <use x="637.792969" xlink:href="#DejaVuSans-111"/>
     <use x="698.974609" xlink:href="#DejaVuSans-110"/>
     <use x="762.353516" xlink:href="#DejaVuSans-116"/>
     <use x="801.5625" xlink:href="#DejaVuSans-97"/>
     <use x="862.841797" xlink:href="#DejaVuSans-99"/>
     <use x="917.822266" xlink:href="#DejaVuSans-116"/>
     <use x="957.03125" xlink:href="#DejaVuSans-115"/>
     <use x="1009.130859" xlink:href="#DejaVuSans-32"/>
     <use x="1040.917969" xlink:href="#DejaVuSans-57"/>
     <use x="1104.541016" xlink:href="#DejaVuSans-43"/>
     <use x="1188.330078" xlink:href="#DejaVuSans-32"/>
     <use x="1220.117188" xlink:href="#DejaVuSans-56"/>
     <use x="1283.740234" xlink:href="#DejaVuSans-45"/>
    </g>
   </g>
   <g id="legend_1">
    <g id="patch_7">
     <path d="M 359.25625 150.16875 
L 414.2 150.16875 
Q 416.2 150.16875 416.2 148.16875 
L 416.2 61.1 
Q 416.2 59.1 414.2 59.1 
L 359.25625 59.1 
Q 357.25625 59.1 357.25625 61.1 
L 357.25625 148.16875 
Q 357.25625 150.16875 359.25625 150.16875 
z
" style="fill:#ffffff;opacity:0.8;stroke:#cccccc;stroke-linejoin:miter;"/>
    </g>
    <g id="line2d_69">
     <path d="M 361.25625 67.198438 
L 381.25625 67.198438 
" style="fill:none;stroke:#1f77b4;stroke-linecap:square;stroke-opacity:0.6;stroke-width:1.5;"/>
    </g>
    <g id="line2d_70"/>
    <g id="text_16">
     <!-- 0mA -->
     <g transform="translate(389.25625 70.698438)scale(0.1 -0.1)">
      <defs>
       <path d="M 34.1875 63.1875 
L 20.796875 26.90625 
L 47.609375 26.90625 
z
M 28.609375 72.90625 
L 39.796875 72.90625 
L 67.578125 0 
L 57.328125 0 
L 50.6875 18.703125 
L 17.828125 18.703125 
L 11.1875 0 
L 0.78125 0 
z
" id="DejaVuSans-65"/>
      </defs>
      <use xlink:href="#DejaVuSans-48"/>
      <use x="63.623047" xlink:href="#DejaVuSans-109"/>
      <use x="161.035156" xlink:href="#DejaVuSans-65"/>
     </g>
    </g>
    <g id="line2d_71">
     <path d="M 361.25625 81.876563 
L 381.25625 81.876563 
" style="fill:none;stroke:#ff7f0e;stroke-linecap:square;stroke-opacity:0.6;stroke-width:1.5;"/>
    </g>
    <g id="line2d_72"/>
    <g id="text_17">
     <!-- 1mA -->
     <g transform="translate(389.25625 85.376563)scale(0.1 -0.1)">
      <use xlink:href="#DejaVuSans-49"/>
      <use x="63.623047" xlink:href="#DejaVuSans-109"/>
      <use x="161.035156" xlink:href="#DejaVuSans-65"/>
     </g>
    </g>
    <g id="line2d_73">
     <path d="M 361.25625 96.554688 
L 381.25625 96.554688 
" style="fill:none;stroke:#2ca02c;stroke-linecap:square;stroke-opacity:0.6;stroke-width:1.5;"/>
    </g>
    <g id="line2d_74"/>
    <g id="text_18">
     <!-- 2mA -->
     <g transform="translate(389.25625 100.054688)scale(0.1 -0.1)">
      <use xlink:href="#DejaVuSans-50"/>
      <use x="63.623047" xlink:href="#DejaVuSans-109"/>
      <use x="161.035156" xlink:href="#DejaVuSans-65"/>
     </g>
    </g>
    <g id="line2d_75">
     <path d="M 361.25625 111.232813 
L 381.25625 111.232813 
" style="fill:none;stroke:#d62728;stroke-linecap:square;stroke-opacity:0.6;stroke-width:1.5;"/>
    </g>
    <g id="line2d_76"/>
    <g id="text_19">
     <!-- 3mA -->
     <g transform="translate(389.25625 114.732813)scale(0.1 -0.1)">
      <use xlink:href="#DejaVuSans-51"/>
      <use x="63.623047" xlink:href="#DejaVuSans-109"/>
      <use x="161.035156" xlink:href="#DejaVuSans-65"/>
     </g>
    </g>
    <g id="line2d_77">
     <path d="M 361.25625 125.910938 
L 381.25625 125.910938 
" style="fill:none;stroke:#9467bd;stroke-linecap:square;stroke-opacity:0.6;stroke-width:1.5;"/>
    </g>
    <g id="line2d_78"/>
    <g id="text_20">
     <!-- 4mA -->
     <g transform="translate(389.25625 129.410938)scale(0.1 -0.1)">
      <defs>
       <path d="M 37.796875 64.3125 
L 12.890625 25.390625 
L 37.796875 25.390625 
z
M 35.203125 72.90625 
L 47.609375 72.90625 
L 47.609375 25.390625 
L 58.015625 25.390625 
L 58.015625 17.1875 
L 47.609375 17.1875 
L 47.609375 0 
L 37.796875 0 
L 37.796875 17.1875 
L 4.890625 17.1875 
L 4.890625 26.703125 
z
" id="DejaVuSans-52"/>
      </defs>
      <use xlink:href="#DejaVuSans-52"/>
      <use x="63.623047" xlink:href="#DejaVuSans-109"/>
      <use x="161.035156" xlink:href="#DejaVuSans-65"/>
     </g>
    </g>
    <g id="line2d_79">
     <path d="M 361.25625 140.589063 
L 381.25625 140.589063 
" style="fill:none;stroke:#8c564b;stroke-linecap:square;stroke-opacity:0.6;stroke-width:1.5;"/>
    </g>
    <g id="line2d_80"/>
    <g id="text_21">
     <!-- 5mA -->
     <g transform="translate(389.25625 144.089063)scale(0.1 -0.1)">
      <use xlink:href="#DejaVuSans-53"/>
      <use x="63.623047" xlink:href="#DejaVuSans-109"/>
      <use x="161.035156" xlink:href="#DejaVuSans-65"/>
     </g>
    </g>
   </g>
  </g>
 </g>
 <defs>
  <clipPath id="p95474e92f9">
   <rect height="193.1" width="361.822793" x="59.377207" y="54.1"/>
  </clipPath>
 </defs>
</svg>
