<?xml version="1.0" encoding="utf-8" standalone="no"?>
<!DOCTYPE svg PUBLIC "-//W3C//DTD SVG 1.1//EN"
  "http://www.w3.org/Graphics/SVG/1.1/DTD/svg11.dtd">
<!-- Created with matplotlib (https://matplotlib.org/) -->
<svg height="288pt" version="1.1" viewBox="0 0 432 288" width="432pt" xmlns="http://www.w3.org/2000/svg" xmlns:xlink="http://www.w3.org/1999/xlink">
 <metadata>
  <rdf:RDF xmlns:cc="http://creativecommons.org/ns#" xmlns:dc="http://purl.org/dc/elements/1.1/" xmlns:rdf="http://www.w3.org/1999/02/22-rdf-syntax-ns#">
   <cc:Work>
    <dc:type rdf:resource="http://purl.org/dc/dcmitype/StillImage"/>
    <dc:date>2021-06-09T15:42:20.135701</dc:date>
    <dc:format>image/svg+xml</dc:format>
    <dc:creator>
     <cc:Agent>
      <dc:title>Matplotlib v3.3.4, https://matplotlib.org/</dc:title>
     </cc:Agent>
    </dc:creator>
   </cc:Work>
  </rdf:RDF>
 </metadata>
 <defs>
  <style type="text/css">*{stroke-linecap:butt;stroke-linejoin:round;}</style>
 </defs>
 <g id="figure_1">
  <g id="patch_1">
   <path d="M 0 288 
L 432 288 
L 432 0 
L 0 0 
z
" style="fill:#ffffff;"/>
  </g>
  <g id="axes_1">
   <g id="patch_2">
    <path d="M 59.377207 247.2 
L 421.2 247.2 
L 421.2 54.1 
L 59.377207 54.1 
z
" style="fill:#ffffff;"/>
   </g>
   <g id="matplotlib.axis_1">
    <g id="xtick_1">
     <g id="line2d_1">
      <defs>
       <path d="M 0 0 
L 0 3.5 
" id="m5fcddc9a70" style="stroke:#000000;stroke-width:0.8;"/>
      </defs>
      <g>
       <use style="stroke:#000000;stroke-width:0.8;" x="75.823698" xlink:href="#m5fcddc9a70" y="247.2"/>
      </g>
     </g>
     <g id="text_1">
      <!-- 0 -->
      <g transform="translate(72.642448 261.798438)scale(0.1 -0.1)">
       <defs>
        <path d="M 31.78125 66.40625 
Q 24.171875 66.40625 20.328125 58.90625 
Q 16.5 51.421875 16.5 36.375 
Q 16.5 21.390625 20.328125 13.890625 
Q 24.171875 6.390625 31.78125 6.390625 
Q 39.453125 6.390625 43.28125 13.890625 
Q 47.125 21.390625 47.125 36.375 
Q 47.125 51.421875 43.28125 58.90625 
Q 39.453125 66.40625 31.78125 66.40625 
z
M 31.78125 74.21875 
Q 44.046875 74.21875 50.515625 64.515625 
Q 56.984375 54.828125 56.984375 36.375 
Q 56.984375 17.96875 50.515625 8.265625 
Q 44.046875 -1.421875 31.78125 -1.421875 
Q 19.53125 -1.421875 13.0625 8.265625 
Q 6.59375 17.96875 6.59375 36.375 
Q 6.59375 54.828125 13.0625 64.515625 
Q 19.53125 74.21875 31.78125 74.21875 
z
" id="DejaVuSans-48"/>
       </defs>
       <use xlink:href="#DejaVuSans-48"/>
      </g>
     </g>
    </g>
    <g id="xtick_2">
     <g id="line2d_2">
      <g>
       <use style="stroke:#000000;stroke-width:0.8;" x="141.60966" xlink:href="#m5fcddc9a70" y="247.2"/>
      </g>
     </g>
     <g id="text_2">
      <!-- 50 -->
      <g transform="translate(135.24716 261.798438)scale(0.1 -0.1)">
       <defs>
        <path d="M 10.796875 72.90625 
L 49.515625 72.90625 
L 49.515625 64.59375 
L 19.828125 64.59375 
L 19.828125 46.734375 
Q 21.96875 47.46875 24.109375 47.828125 
Q 26.265625 48.1875 28.421875 48.1875 
Q 40.625 48.1875 47.75 41.5 
Q 54.890625 34.8125 54.890625 23.390625 
Q 54.890625 11.625 47.5625 5.09375 
Q 40.234375 -1.421875 26.90625 -1.421875 
Q 22.3125 -1.421875 17.546875 -0.640625 
Q 12.796875 0.140625 7.71875 1.703125 
L 7.71875 11.625 
Q 12.109375 9.234375 16.796875 8.0625 
Q 21.484375 6.890625 26.703125 6.890625 
Q 35.15625 6.890625 40.078125 11.328125 
Q 45.015625 15.765625 45.015625 23.390625 
Q 45.015625 31 40.078125 35.4375 
Q 35.15625 39.890625 26.703125 39.890625 
Q 22.75 39.890625 18.8125 39.015625 
Q 14.890625 38.140625 10.796875 36.28125 
z
" id="DejaVuSans-53"/>
       </defs>
       <use xlink:href="#DejaVuSans-53"/>
       <use x="63.623047" xlink:href="#DejaVuSans-48"/>
      </g>
     </g>
    </g>
    <g id="xtick_3">
     <g id="line2d_3">
      <g>
       <use style="stroke:#000000;stroke-width:0.8;" x="207.395622" xlink:href="#m5fcddc9a70" y="247.2"/>
      </g>
     </g>
     <g id="text_3">
      <!-- 100 -->
      <g transform="translate(197.851872 261.798438)scale(0.1 -0.1)">
       <defs>
        <path d="M 12.40625 8.296875 
L 28.515625 8.296875 
L 28.515625 63.921875 
L 10.984375 60.40625 
L 10.984375 69.390625 
L 28.421875 72.90625 
L 38.28125 72.90625 
L 38.28125 8.296875 
L 54.390625 8.296875 
L 54.390625 0 
L 12.40625 0 
z
" id="DejaVuSans-49"/>
       </defs>
       <use xlink:href="#DejaVuSans-49"/>
       <use x="63.623047" xlink:href="#DejaVuSans-48"/>
       <use x="127.246094" xlink:href="#DejaVuSans-48"/>
      </g>
     </g>
    </g>
    <g id="xtick_4">
     <g id="line2d_4">
      <g>
       <use style="stroke:#000000;stroke-width:0.8;" x="273.181585" xlink:href="#m5fcddc9a70" y="247.2"/>
      </g>
     </g>
     <g id="text_4">
      <!-- 150 -->
      <g transform="translate(263.637835 261.798438)scale(0.1 -0.1)">
       <use xlink:href="#DejaVuSans-49"/>
       <use x="63.623047" xlink:href="#DejaVuSans-53"/>
       <use x="127.246094" xlink:href="#DejaVuSans-48"/>
      </g>
     </g>
    </g>
    <g id="xtick_5">
     <g id="line2d_5">
      <g>
       <use style="stroke:#000000;stroke-width:0.8;" x="338.967547" xlink:href="#m5fcddc9a70" y="247.2"/>
      </g>
     </g>
     <g id="text_5">
      <!-- 200 -->
      <g transform="translate(329.423797 261.798438)scale(0.1 -0.1)">
       <defs>
        <path d="M 19.1875 8.296875 
L 53.609375 8.296875 
L 53.609375 0 
L 7.328125 0 
L 7.328125 8.296875 
Q 12.9375 14.109375 22.625 23.890625 
Q 32.328125 33.6875 34.8125 36.53125 
Q 39.546875 41.84375 41.421875 45.53125 
Q 43.3125 49.21875 43.3125 52.78125 
Q 43.3125 58.59375 39.234375 62.25 
Q 35.15625 65.921875 28.609375 65.921875 
Q 23.96875 65.921875 18.8125 64.3125 
Q 13.671875 62.703125 7.8125 59.421875 
L 7.8125 69.390625 
Q 13.765625 71.78125 18.9375 73 
Q 24.125 74.21875 28.421875 74.21875 
Q 39.75 74.21875 46.484375 68.546875 
Q 53.21875 62.890625 53.21875 53.421875 
Q 53.21875 48.921875 51.53125 44.890625 
Q 49.859375 40.875 45.40625 35.40625 
Q 44.1875 33.984375 37.640625 27.21875 
Q 31.109375 20.453125 19.1875 8.296875 
z
" id="DejaVuSans-50"/>
       </defs>
       <use xlink:href="#DejaVuSans-50"/>
       <use x="63.623047" xlink:href="#DejaVuSans-48"/>
       <use x="127.246094" xlink:href="#DejaVuSans-48"/>
      </g>
     </g>
    </g>
    <g id="xtick_6">
     <g id="line2d_6">
      <g>
       <use style="stroke:#000000;stroke-width:0.8;" x="404.753509" xlink:href="#m5fcddc9a70" y="247.2"/>
      </g>
     </g>
     <g id="text_6">
      <!-- 250 -->
      <g transform="translate(395.209759 261.798438)scale(0.1 -0.1)">
       <use xlink:href="#DejaVuSans-50"/>
       <use x="63.623047" xlink:href="#DejaVuSans-53"/>
       <use x="127.246094" xlink:href="#DejaVuSans-48"/>
      </g>
     </g>
    </g>
    <g id="text_7">
     <!-- frequency (Hz) -->
     <g transform="translate(203.337041 275.476562)scale(0.1 -0.1)">
      <defs>
       <path d="M 37.109375 75.984375 
L 37.109375 68.5 
L 28.515625 68.5 
Q 23.6875 68.5 21.796875 66.546875 
Q 19.921875 64.59375 19.921875 59.515625 
L 19.921875 54.6875 
L 34.71875 54.6875 
L 34.71875 47.703125 
L 19.921875 47.703125 
L 19.921875 0 
L 10.890625 0 
L 10.890625 47.703125 
L 2.296875 47.703125 
L 2.296875 54.6875 
L 10.890625 54.6875 
L 10.890625 58.5 
Q 10.890625 67.625 15.140625 71.796875 
Q 19.390625 75.984375 28.609375 75.984375 
z
" id="DejaVuSans-102"/>
       <path d="M 41.109375 46.296875 
Q 39.59375 47.171875 37.8125 47.578125 
Q 36.03125 48 33.890625 48 
Q 26.265625 48 22.1875 43.046875 
Q 18.109375 38.09375 18.109375 28.8125 
L 18.109375 0 
L 9.078125 0 
L 9.078125 54.6875 
L 18.109375 54.6875 
L 18.109375 46.1875 
Q 20.953125 51.171875 25.484375 53.578125 
Q 30.03125 56 36.53125 56 
Q 37.453125 56 38.578125 55.875 
Q 39.703125 55.765625 41.0625 55.515625 
z
" id="DejaVuSans-114"/>
       <path d="M 56.203125 29.59375 
L 56.203125 25.203125 
L 14.890625 25.203125 
Q 15.484375 15.921875 20.484375 11.0625 
Q 25.484375 6.203125 34.421875 6.203125 
Q 39.59375 6.203125 44.453125 7.46875 
Q 49.3125 8.734375 54.109375 11.28125 
L 54.109375 2.78125 
Q 49.265625 0.734375 44.1875 -0.34375 
Q 39.109375 -1.421875 33.890625 -1.421875 
Q 20.796875 -1.421875 13.15625 6.1875 
Q 5.515625 13.8125 5.515625 26.8125 
Q 5.515625 40.234375 12.765625 48.109375 
Q 20.015625 56 32.328125 56 
Q 43.359375 56 49.78125 48.890625 
Q 56.203125 41.796875 56.203125 29.59375 
z
M 47.21875 32.234375 
Q 47.125 39.59375 43.09375 43.984375 
Q 39.0625 48.390625 32.421875 48.390625 
Q 24.90625 48.390625 20.390625 44.140625 
Q 15.875 39.890625 15.1875 32.171875 
z
" id="DejaVuSans-101"/>
       <path d="M 14.796875 27.296875 
Q 14.796875 17.390625 18.875 11.75 
Q 22.953125 6.109375 30.078125 6.109375 
Q 37.203125 6.109375 41.296875 11.75 
Q 45.40625 17.390625 45.40625 27.296875 
Q 45.40625 37.203125 41.296875 42.84375 
Q 37.203125 48.484375 30.078125 48.484375 
Q 22.953125 48.484375 18.875 42.84375 
Q 14.796875 37.203125 14.796875 27.296875 
z
M 45.40625 8.203125 
Q 42.578125 3.328125 38.25 0.953125 
Q 33.9375 -1.421875 27.875 -1.421875 
Q 17.96875 -1.421875 11.734375 6.484375 
Q 5.515625 14.40625 5.515625 27.296875 
Q 5.515625 40.1875 11.734375 48.09375 
Q 17.96875 56 27.875 56 
Q 33.9375 56 38.25 53.625 
Q 42.578125 51.265625 45.40625 46.390625 
L 45.40625 54.6875 
L 54.390625 54.6875 
L 54.390625 -20.796875 
L 45.40625 -20.796875 
z
" id="DejaVuSans-113"/>
       <path d="M 8.5 21.578125 
L 8.5 54.6875 
L 17.484375 54.6875 
L 17.484375 21.921875 
Q 17.484375 14.15625 20.5 10.265625 
Q 23.53125 6.390625 29.59375 6.390625 
Q 36.859375 6.390625 41.078125 11.03125 
Q 45.3125 15.671875 45.3125 23.6875 
L 45.3125 54.6875 
L 54.296875 54.6875 
L 54.296875 0 
L 45.3125 0 
L 45.3125 8.40625 
Q 42.046875 3.421875 37.71875 1 
Q 33.40625 -1.421875 27.6875 -1.421875 
Q 18.265625 -1.421875 13.375 4.4375 
Q 8.5 10.296875 8.5 21.578125 
z
M 31.109375 56 
z
" id="DejaVuSans-117"/>
       <path d="M 54.890625 33.015625 
L 54.890625 0 
L 45.90625 0 
L 45.90625 32.71875 
Q 45.90625 40.484375 42.875 44.328125 
Q 39.84375 48.1875 33.796875 48.1875 
Q 26.515625 48.1875 22.3125 43.546875 
Q 18.109375 38.921875 18.109375 30.90625 
L 18.109375 0 
L 9.078125 0 
L 9.078125 54.6875 
L 18.109375 54.6875 
L 18.109375 46.1875 
Q 21.34375 51.125 25.703125 53.5625 
Q 30.078125 56 35.796875 56 
Q 45.21875 56 50.046875 50.171875 
Q 54.890625 44.34375 54.890625 33.015625 
z
" id="DejaVuSans-110"/>
       <path d="M 48.78125 52.59375 
L 48.78125 44.1875 
Q 44.96875 46.296875 41.140625 47.34375 
Q 37.3125 48.390625 33.40625 48.390625 
Q 24.65625 48.390625 19.8125 42.84375 
Q 14.984375 37.3125 14.984375 27.296875 
Q 14.984375 17.28125 19.8125 11.734375 
Q 24.65625 6.203125 33.40625 6.203125 
Q 37.3125 6.203125 41.140625 7.25 
Q 44.96875 8.296875 48.78125 10.40625 
L 48.78125 2.09375 
Q 45.015625 0.34375 40.984375 -0.53125 
Q 36.96875 -1.421875 32.421875 -1.421875 
Q 20.0625 -1.421875 12.78125 6.34375 
Q 5.515625 14.109375 5.515625 27.296875 
Q 5.515625 40.671875 12.859375 48.328125 
Q 20.21875 56 33.015625 56 
Q 37.15625 56 41.109375 55.140625 
Q 45.0625 54.296875 48.78125 52.59375 
z
" id="DejaVuSans-99"/>
       <path d="M 32.171875 -5.078125 
Q 28.375 -14.84375 24.75 -17.8125 
Q 21.140625 -20.796875 15.09375 -20.796875 
L 7.90625 -20.796875 
L 7.90625 -13.28125 
L 13.1875 -13.28125 
Q 16.890625 -13.28125 18.9375 -11.515625 
Q 21 -9.765625 23.484375 -3.21875 
L 25.09375 0.875 
L 2.984375 54.6875 
L 12.5 54.6875 
L 29.59375 11.921875 
L 46.6875 54.6875 
L 56.203125 54.6875 
z
" id="DejaVuSans-121"/>
       <path id="DejaVuSans-32"/>
       <path d="M 31 75.875 
Q 24.46875 64.65625 21.28125 53.65625 
Q 18.109375 42.671875 18.109375 31.390625 
Q 18.109375 20.125 21.3125 9.0625 
Q 24.515625 -2 31 -13.1875 
L 23.1875 -13.1875 
Q 15.875 -1.703125 12.234375 9.375 
Q 8.59375 20.453125 8.59375 31.390625 
Q 8.59375 42.28125 12.203125 53.3125 
Q 15.828125 64.359375 23.1875 75.875 
z
" id="DejaVuSans-40"/>
       <path d="M 9.8125 72.90625 
L 19.671875 72.90625 
L 19.671875 43.015625 
L 55.515625 43.015625 
L 55.515625 72.90625 
L 65.375 72.90625 
L 65.375 0 
L 55.515625 0 
L 55.515625 34.71875 
L 19.671875 34.71875 
L 19.671875 0 
L 9.8125 0 
z
" id="DejaVuSans-72"/>
       <path d="M 5.515625 54.6875 
L 48.1875 54.6875 
L 48.1875 46.484375 
L 14.40625 7.171875 
L 48.1875 7.171875 
L 48.1875 0 
L 4.296875 0 
L 4.296875 8.203125 
L 38.09375 47.515625 
L 5.515625 47.515625 
z
" id="DejaVuSans-122"/>
       <path d="M 8.015625 75.875 
L 15.828125 75.875 
Q 23.140625 64.359375 26.78125 53.3125 
Q 30.421875 42.28125 30.421875 31.390625 
Q 30.421875 20.453125 26.78125 9.375 
Q 23.140625 -1.703125 15.828125 -13.1875 
L 8.015625 -13.1875 
Q 14.5 -2 17.703125 9.0625 
Q 20.90625 20.125 20.90625 31.390625 
Q 20.90625 42.671875 17.703125 53.65625 
Q 14.5 64.65625 8.015625 75.875 
z
" id="DejaVuSans-41"/>
      </defs>
      <use xlink:href="#DejaVuSans-102"/>
      <use x="35.205078" xlink:href="#DejaVuSans-114"/>
      <use x="74.068359" xlink:href="#DejaVuSans-101"/>
      <use x="135.591797" xlink:href="#DejaVuSans-113"/>
      <use x="199.068359" xlink:href="#DejaVuSans-117"/>
      <use x="262.447266" xlink:href="#DejaVuSans-101"/>
      <use x="323.970703" xlink:href="#DejaVuSans-110"/>
      <use x="387.349609" xlink:href="#DejaVuSans-99"/>
      <use x="442.330078" xlink:href="#DejaVuSans-121"/>
      <use x="501.509766" xlink:href="#DejaVuSans-32"/>
      <use x="533.296875" xlink:href="#DejaVuSans-40"/>
      <use x="572.310547" xlink:href="#DejaVuSans-72"/>
      <use x="647.505859" xlink:href="#DejaVuSans-122"/>
      <use x="699.996094" xlink:href="#DejaVuSans-41"/>
     </g>
    </g>
   </g>
   <g id="matplotlib.axis_2">
    <g id="ytick_1">
     <g id="line2d_7">
      <defs>
       <path d="M 0 0 
L -3.5 0 
" id="m440e3c29db" style="stroke:#000000;stroke-width:0.8;"/>
      </defs>
      <g>
       <use style="stroke:#000000;stroke-width:0.8;" x="59.377207" xlink:href="#m440e3c29db" y="244.707928"/>
      </g>
     </g>
     <g id="text_8">
      <!-- $\mathdefault{10^{-10}}$ -->
      <g transform="translate(24.477207 248.507147)scale(0.1 -0.1)">
       <defs>
        <path d="M 10.59375 35.5 
L 73.1875 35.5 
L 73.1875 27.203125 
L 10.59375 27.203125 
z
" id="DejaVuSans-8722"/>
       </defs>
       <use transform="translate(0 0.765625)" xlink:href="#DejaVuSans-49"/>
       <use transform="translate(63.623047 0.765625)" xlink:href="#DejaVuSans-48"/>
       <use transform="translate(128.203125 39.046875)scale(0.7)" xlink:href="#DejaVuSans-8722"/>
       <use transform="translate(186.855469 39.046875)scale(0.7)" xlink:href="#DejaVuSans-49"/>
       <use transform="translate(231.391602 39.046875)scale(0.7)" xlink:href="#DejaVuSans-48"/>
      </g>
     </g>
    </g>
    <g id="ytick_2">
     <g id="line2d_8">
      <g>
       <use style="stroke:#000000;stroke-width:0.8;" x="59.377207" xlink:href="#m440e3c29db" y="210.749592"/>
      </g>
     </g>
     <g id="text_9">
      <!-- $\mathdefault{10^{-9}}$ -->
      <g transform="translate(28.877207 214.54881)scale(0.1 -0.1)">
       <defs>
        <path d="M 10.984375 1.515625 
L 10.984375 10.5 
Q 14.703125 8.734375 18.5 7.8125 
Q 22.3125 6.890625 25.984375 6.890625 
Q 35.75 6.890625 40.890625 13.453125 
Q 46.046875 20.015625 46.78125 33.40625 
Q 43.953125 29.203125 39.59375 26.953125 
Q 35.25 24.703125 29.984375 24.703125 
Q 19.046875 24.703125 12.671875 31.3125 
Q 6.296875 37.9375 6.296875 49.421875 
Q 6.296875 60.640625 12.9375 67.421875 
Q 19.578125 74.21875 30.609375 74.21875 
Q 43.265625 74.21875 49.921875 64.515625 
Q 56.59375 54.828125 56.59375 36.375 
Q 56.59375 19.140625 48.40625 8.859375 
Q 40.234375 -1.421875 26.421875 -1.421875 
Q 22.703125 -1.421875 18.890625 -0.6875 
Q 15.09375 0.046875 10.984375 1.515625 
z
M 30.609375 32.421875 
Q 37.25 32.421875 41.125 36.953125 
Q 45.015625 41.5 45.015625 49.421875 
Q 45.015625 57.28125 41.125 61.84375 
Q 37.25 66.40625 30.609375 66.40625 
Q 23.96875 66.40625 20.09375 61.84375 
Q 16.21875 57.28125 16.21875 49.421875 
Q 16.21875 41.5 20.09375 36.953125 
Q 23.96875 32.421875 30.609375 32.421875 
z
" id="DejaVuSans-57"/>
       </defs>
       <use transform="translate(0 0.765625)" xlink:href="#DejaVuSans-49"/>
       <use transform="translate(63.623047 0.765625)" xlink:href="#DejaVuSans-48"/>
       <use transform="translate(128.203125 39.046875)scale(0.7)" xlink:href="#DejaVuSans-8722"/>
       <use transform="translate(186.855469 39.046875)scale(0.7)" xlink:href="#DejaVuSans-57"/>
      </g>
     </g>
    </g>
    <g id="ytick_3">
     <g id="line2d_9">
      <g>
       <use style="stroke:#000000;stroke-width:0.8;" x="59.377207" xlink:href="#m440e3c29db" y="176.791255"/>
      </g>
     </g>
     <g id="text_10">
      <!-- $\mathdefault{10^{-8}}$ -->
      <g transform="translate(28.877207 180.590474)scale(0.1 -0.1)">
       <defs>
        <path d="M 31.78125 34.625 
Q 24.75 34.625 20.71875 30.859375 
Q 16.703125 27.09375 16.703125 20.515625 
Q 16.703125 13.921875 20.71875 10.15625 
Q 24.75 6.390625 31.78125 6.390625 
Q 38.8125 6.390625 42.859375 10.171875 
Q 46.921875 13.96875 46.921875 20.515625 
Q 46.921875 27.09375 42.890625 30.859375 
Q 38.875 34.625 31.78125 34.625 
z
M 21.921875 38.8125 
Q 15.578125 40.375 12.03125 44.71875 
Q 8.5 49.078125 8.5 55.328125 
Q 8.5 64.0625 14.71875 69.140625 
Q 20.953125 74.21875 31.78125 74.21875 
Q 42.671875 74.21875 48.875 69.140625 
Q 55.078125 64.0625 55.078125 55.328125 
Q 55.078125 49.078125 51.53125 44.71875 
Q 48 40.375 41.703125 38.8125 
Q 48.828125 37.15625 52.796875 32.3125 
Q 56.78125 27.484375 56.78125 20.515625 
Q 56.78125 9.90625 50.3125 4.234375 
Q 43.84375 -1.421875 31.78125 -1.421875 
Q 19.734375 -1.421875 13.25 4.234375 
Q 6.78125 9.90625 6.78125 20.515625 
Q 6.78125 27.484375 10.78125 32.3125 
Q 14.796875 37.15625 21.921875 38.8125 
z
M 18.3125 54.390625 
Q 18.3125 48.734375 21.84375 45.5625 
Q 25.390625 42.390625 31.78125 42.390625 
Q 38.140625 42.390625 41.71875 45.5625 
Q 45.3125 48.734375 45.3125 54.390625 
Q 45.3125 60.0625 41.71875 63.234375 
Q 38.140625 66.40625 31.78125 66.40625 
Q 25.390625 66.40625 21.84375 63.234375 
Q 18.3125 60.0625 18.3125 54.390625 
z
" id="DejaVuSans-56"/>
       </defs>
       <use transform="translate(0 0.765625)" xlink:href="#DejaVuSans-49"/>
       <use transform="translate(63.623047 0.765625)" xlink:href="#DejaVuSans-48"/>
       <use transform="translate(128.203125 39.046875)scale(0.7)" xlink:href="#DejaVuSans-8722"/>
       <use transform="translate(186.855469 39.046875)scale(0.7)" xlink:href="#DejaVuSans-56"/>
      </g>
     </g>
    </g>
    <g id="ytick_4">
     <g id="line2d_10">
      <g>
       <use style="stroke:#000000;stroke-width:0.8;" x="59.377207" xlink:href="#m440e3c29db" y="142.832919"/>
      </g>
     </g>
     <g id="text_11">
      <!-- $\mathdefault{10^{-7}}$ -->
      <g transform="translate(28.877207 146.632137)scale(0.1 -0.1)">
       <defs>
        <path d="M 8.203125 72.90625 
L 55.078125 72.90625 
L 55.078125 68.703125 
L 28.609375 0 
L 18.3125 0 
L 43.21875 64.59375 
L 8.203125 64.59375 
z
" id="DejaVuSans-55"/>
       </defs>
       <use transform="translate(0 0.684375)" xlink:href="#DejaVuSans-49"/>
       <use transform="translate(63.623047 0.684375)" xlink:href="#DejaVuSans-48"/>
       <use transform="translate(128.203125 38.965625)scale(0.7)" xlink:href="#DejaVuSans-8722"/>
       <use transform="translate(186.855469 38.965625)scale(0.7)" xlink:href="#DejaVuSans-55"/>
      </g>
     </g>
    </g>
    <g id="ytick_5">
     <g id="line2d_11">
      <g>
       <use style="stroke:#000000;stroke-width:0.8;" x="59.377207" xlink:href="#m440e3c29db" y="108.874582"/>
      </g>
     </g>
     <g id="text_12">
      <!-- $\mathdefault{10^{-6}}$ -->
      <g transform="translate(28.877207 112.673801)scale(0.1 -0.1)">
       <defs>
        <path d="M 33.015625 40.375 
Q 26.375 40.375 22.484375 35.828125 
Q 18.609375 31.296875 18.609375 23.390625 
Q 18.609375 15.53125 22.484375 10.953125 
Q 26.375 6.390625 33.015625 6.390625 
Q 39.65625 6.390625 43.53125 10.953125 
Q 47.40625 15.53125 47.40625 23.390625 
Q 47.40625 31.296875 43.53125 35.828125 
Q 39.65625 40.375 33.015625 40.375 
z
M 52.59375 71.296875 
L 52.59375 62.3125 
Q 48.875 64.0625 45.09375 64.984375 
Q 41.3125 65.921875 37.59375 65.921875 
Q 27.828125 65.921875 22.671875 59.328125 
Q 17.53125 52.734375 16.796875 39.40625 
Q 19.671875 43.65625 24.015625 45.921875 
Q 28.375 48.1875 33.59375 48.1875 
Q 44.578125 48.1875 50.953125 41.515625 
Q 57.328125 34.859375 57.328125 23.390625 
Q 57.328125 12.15625 50.6875 5.359375 
Q 44.046875 -1.421875 33.015625 -1.421875 
Q 20.359375 -1.421875 13.671875 8.265625 
Q 6.984375 17.96875 6.984375 36.375 
Q 6.984375 53.65625 15.1875 63.9375 
Q 23.390625 74.21875 37.203125 74.21875 
Q 40.921875 74.21875 44.703125 73.484375 
Q 48.484375 72.75 52.59375 71.296875 
z
" id="DejaVuSans-54"/>
       </defs>
       <use transform="translate(0 0.765625)" xlink:href="#DejaVuSans-49"/>
       <use transform="translate(63.623047 0.765625)" xlink:href="#DejaVuSans-48"/>
       <use transform="translate(128.203125 39.046875)scale(0.7)" xlink:href="#DejaVuSans-8722"/>
       <use transform="translate(186.855469 39.046875)scale(0.7)" xlink:href="#DejaVuSans-54"/>
      </g>
     </g>
    </g>
    <g id="ytick_6">
     <g id="line2d_12">
      <g>
       <use style="stroke:#000000;stroke-width:0.8;" x="59.377207" xlink:href="#m440e3c29db" y="74.916245"/>
      </g>
     </g>
     <g id="text_13">
      <!-- $\mathdefault{10^{-5}}$ -->
      <g transform="translate(28.877207 78.715464)scale(0.1 -0.1)">
       <use transform="translate(0 0.684375)" xlink:href="#DejaVuSans-49"/>
       <use transform="translate(63.623047 0.684375)" xlink:href="#DejaVuSans-48"/>
       <use transform="translate(128.203125 38.965625)scale(0.7)" xlink:href="#DejaVuSans-8722"/>
       <use transform="translate(186.855469 38.965625)scale(0.7)" xlink:href="#DejaVuSans-53"/>
      </g>
     </g>
    </g>
    <g id="ytick_7">
     <g id="line2d_13">
      <defs>
       <path d="M 0 0 
L -2 0 
" id="m6ab07cf316" style="stroke:#000000;stroke-width:0.6;"/>
      </defs>
      <g>
       <use style="stroke:#000000;stroke-width:0.6;" x="59.377207" xlink:href="#m6ab07cf316" y="246.261776"/>
      </g>
     </g>
    </g>
    <g id="ytick_8">
     <g id="line2d_14">
      <g>
       <use style="stroke:#000000;stroke-width:0.6;" x="59.377207" xlink:href="#m6ab07cf316" y="234.48545"/>
      </g>
     </g>
    </g>
    <g id="ytick_9">
     <g id="line2d_15">
      <g>
       <use style="stroke:#000000;stroke-width:0.6;" x="59.377207" xlink:href="#m6ab07cf316" y="228.505684"/>
      </g>
     </g>
    </g>
    <g id="ytick_10">
     <g id="line2d_16">
      <g>
       <use style="stroke:#000000;stroke-width:0.6;" x="59.377207" xlink:href="#m6ab07cf316" y="224.262972"/>
      </g>
     </g>
    </g>
    <g id="ytick_11">
     <g id="line2d_17">
      <g>
       <use style="stroke:#000000;stroke-width:0.6;" x="59.377207" xlink:href="#m6ab07cf316" y="220.97207"/>
      </g>
     </g>
    </g>
    <g id="ytick_12">
     <g id="line2d_18">
      <g>
       <use style="stroke:#000000;stroke-width:0.6;" x="59.377207" xlink:href="#m6ab07cf316" y="218.283206"/>
      </g>
     </g>
    </g>
    <g id="ytick_13">
     <g id="line2d_19">
      <g>
       <use style="stroke:#000000;stroke-width:0.6;" x="59.377207" xlink:href="#m6ab07cf316" y="216.009804"/>
      </g>
     </g>
    </g>
    <g id="ytick_14">
     <g id="line2d_20">
      <g>
       <use style="stroke:#000000;stroke-width:0.6;" x="59.377207" xlink:href="#m6ab07cf316" y="214.040494"/>
      </g>
     </g>
    </g>
    <g id="ytick_15">
     <g id="line2d_21">
      <g>
       <use style="stroke:#000000;stroke-width:0.6;" x="59.377207" xlink:href="#m6ab07cf316" y="212.30344"/>
      </g>
     </g>
    </g>
    <g id="ytick_16">
     <g id="line2d_22">
      <g>
       <use style="stroke:#000000;stroke-width:0.6;" x="59.377207" xlink:href="#m6ab07cf316" y="200.527114"/>
      </g>
     </g>
    </g>
    <g id="ytick_17">
     <g id="line2d_23">
      <g>
       <use style="stroke:#000000;stroke-width:0.6;" x="59.377207" xlink:href="#m6ab07cf316" y="194.547347"/>
      </g>
     </g>
    </g>
    <g id="ytick_18">
     <g id="line2d_24">
      <g>
       <use style="stroke:#000000;stroke-width:0.6;" x="59.377207" xlink:href="#m6ab07cf316" y="190.304636"/>
      </g>
     </g>
    </g>
    <g id="ytick_19">
     <g id="line2d_25">
      <g>
       <use style="stroke:#000000;stroke-width:0.6;" x="59.377207" xlink:href="#m6ab07cf316" y="187.013733"/>
      </g>
     </g>
    </g>
    <g id="ytick_20">
     <g id="line2d_26">
      <g>
       <use style="stroke:#000000;stroke-width:0.6;" x="59.377207" xlink:href="#m6ab07cf316" y="184.32487"/>
      </g>
     </g>
    </g>
    <g id="ytick_21">
     <g id="line2d_27">
      <g>
       <use style="stroke:#000000;stroke-width:0.6;" x="59.377207" xlink:href="#m6ab07cf316" y="182.051468"/>
      </g>
     </g>
    </g>
    <g id="ytick_22">
     <g id="line2d_28">
      <g>
       <use style="stroke:#000000;stroke-width:0.6;" x="59.377207" xlink:href="#m6ab07cf316" y="180.082158"/>
      </g>
     </g>
    </g>
    <g id="ytick_23">
     <g id="line2d_29">
      <g>
       <use style="stroke:#000000;stroke-width:0.6;" x="59.377207" xlink:href="#m6ab07cf316" y="178.345103"/>
      </g>
     </g>
    </g>
    <g id="ytick_24">
     <g id="line2d_30">
      <g>
       <use style="stroke:#000000;stroke-width:0.6;" x="59.377207" xlink:href="#m6ab07cf316" y="166.568777"/>
      </g>
     </g>
    </g>
    <g id="ytick_25">
     <g id="line2d_31">
      <g>
       <use style="stroke:#000000;stroke-width:0.6;" x="59.377207" xlink:href="#m6ab07cf316" y="160.589011"/>
      </g>
     </g>
    </g>
    <g id="ytick_26">
     <g id="line2d_32">
      <g>
       <use style="stroke:#000000;stroke-width:0.6;" x="59.377207" xlink:href="#m6ab07cf316" y="156.346299"/>
      </g>
     </g>
    </g>
    <g id="ytick_27">
     <g id="line2d_33">
      <g>
       <use style="stroke:#000000;stroke-width:0.6;" x="59.377207" xlink:href="#m6ab07cf316" y="153.055396"/>
      </g>
     </g>
    </g>
    <g id="ytick_28">
     <g id="line2d_34">
      <g>
       <use style="stroke:#000000;stroke-width:0.6;" x="59.377207" xlink:href="#m6ab07cf316" y="150.366533"/>
      </g>
     </g>
    </g>
    <g id="ytick_29">
     <g id="line2d_35">
      <g>
       <use style="stroke:#000000;stroke-width:0.6;" x="59.377207" xlink:href="#m6ab07cf316" y="148.093131"/>
      </g>
     </g>
    </g>
    <g id="ytick_30">
     <g id="line2d_36">
      <g>
       <use style="stroke:#000000;stroke-width:0.6;" x="59.377207" xlink:href="#m6ab07cf316" y="146.123821"/>
      </g>
     </g>
    </g>
    <g id="ytick_31">
     <g id="line2d_37">
      <g>
       <use style="stroke:#000000;stroke-width:0.6;" x="59.377207" xlink:href="#m6ab07cf316" y="144.386767"/>
      </g>
     </g>
    </g>
    <g id="ytick_32">
     <g id="line2d_38">
      <g>
       <use style="stroke:#000000;stroke-width:0.6;" x="59.377207" xlink:href="#m6ab07cf316" y="132.610441"/>
      </g>
     </g>
    </g>
    <g id="ytick_33">
     <g id="line2d_39">
      <g>
       <use style="stroke:#000000;stroke-width:0.6;" x="59.377207" xlink:href="#m6ab07cf316" y="126.630674"/>
      </g>
     </g>
    </g>
    <g id="ytick_34">
     <g id="line2d_40">
      <g>
       <use style="stroke:#000000;stroke-width:0.6;" x="59.377207" xlink:href="#m6ab07cf316" y="122.387963"/>
      </g>
     </g>
    </g>
    <g id="ytick_35">
     <g id="line2d_41">
      <g>
       <use style="stroke:#000000;stroke-width:0.6;" x="59.377207" xlink:href="#m6ab07cf316" y="119.09706"/>
      </g>
     </g>
    </g>
    <g id="ytick_36">
     <g id="line2d_42">
      <g>
       <use style="stroke:#000000;stroke-width:0.6;" x="59.377207" xlink:href="#m6ab07cf316" y="116.408196"/>
      </g>
     </g>
    </g>
    <g id="ytick_37">
     <g id="line2d_43">
      <g>
       <use style="stroke:#000000;stroke-width:0.6;" x="59.377207" xlink:href="#m6ab07cf316" y="114.134795"/>
      </g>
     </g>
    </g>
    <g id="ytick_38">
     <g id="line2d_44">
      <g>
       <use style="stroke:#000000;stroke-width:0.6;" x="59.377207" xlink:href="#m6ab07cf316" y="112.165485"/>
      </g>
     </g>
    </g>
    <g id="ytick_39">
     <g id="line2d_45">
      <g>
       <use style="stroke:#000000;stroke-width:0.6;" x="59.377207" xlink:href="#m6ab07cf316" y="110.42843"/>
      </g>
     </g>
    </g>
    <g id="ytick_40">
     <g id="line2d_46">
      <g>
       <use style="stroke:#000000;stroke-width:0.6;" x="59.377207" xlink:href="#m6ab07cf316" y="98.652104"/>
      </g>
     </g>
    </g>
    <g id="ytick_41">
     <g id="line2d_47">
      <g>
       <use style="stroke:#000000;stroke-width:0.6;" x="59.377207" xlink:href="#m6ab07cf316" y="92.672338"/>
      </g>
     </g>
    </g>
    <g id="ytick_42">
     <g id="line2d_48">
      <g>
       <use style="stroke:#000000;stroke-width:0.6;" x="59.377207" xlink:href="#m6ab07cf316" y="88.429626"/>
      </g>
     </g>
    </g>
    <g id="ytick_43">
     <g id="line2d_49">
      <g>
       <use style="stroke:#000000;stroke-width:0.6;" x="59.377207" xlink:href="#m6ab07cf316" y="85.138723"/>
      </g>
     </g>
    </g>
    <g id="ytick_44">
     <g id="line2d_50">
      <g>
       <use style="stroke:#000000;stroke-width:0.6;" x="59.377207" xlink:href="#m6ab07cf316" y="82.44986"/>
      </g>
     </g>
    </g>
    <g id="ytick_45">
     <g id="line2d_51">
      <g>
       <use style="stroke:#000000;stroke-width:0.6;" x="59.377207" xlink:href="#m6ab07cf316" y="80.176458"/>
      </g>
     </g>
    </g>
    <g id="ytick_46">
     <g id="line2d_52">
      <g>
       <use style="stroke:#000000;stroke-width:0.6;" x="59.377207" xlink:href="#m6ab07cf316" y="78.207148"/>
      </g>
     </g>
    </g>
    <g id="ytick_47">
     <g id="line2d_53">
      <g>
       <use style="stroke:#000000;stroke-width:0.6;" x="59.377207" xlink:href="#m6ab07cf316" y="76.470094"/>
      </g>
     </g>
    </g>
    <g id="ytick_48">
     <g id="line2d_54">
      <g>
       <use style="stroke:#000000;stroke-width:0.6;" x="59.377207" xlink:href="#m6ab07cf316" y="64.693768"/>
      </g>
     </g>
    </g>
    <g id="ytick_49">
     <g id="line2d_55">
      <g>
       <use style="stroke:#000000;stroke-width:0.6;" x="59.377207" xlink:href="#m6ab07cf316" y="58.714001"/>
      </g>
     </g>
    </g>
    <g id="ytick_50">
     <g id="line2d_56">
      <g>
       <use style="stroke:#000000;stroke-width:0.6;" x="59.377207" xlink:href="#m6ab07cf316" y="54.47129"/>
      </g>
     </g>
    </g>
    <g id="text_14">
     <!-- PSD (mV**2/Hz) -->
     <g transform="translate(18.39752 190.720313)rotate(-90)scale(0.1 -0.1)">
      <defs>
       <path d="M 19.671875 64.796875 
L 19.671875 37.40625 
L 32.078125 37.40625 
Q 38.96875 37.40625 42.71875 40.96875 
Q 46.484375 44.53125 46.484375 51.125 
Q 46.484375 57.671875 42.71875 61.234375 
Q 38.96875 64.796875 32.078125 64.796875 
z
M 9.8125 72.90625 
L 32.078125 72.90625 
Q 44.34375 72.90625 50.609375 67.359375 
Q 56.890625 61.8125 56.890625 51.125 
Q 56.890625 40.328125 50.609375 34.8125 
Q 44.34375 29.296875 32.078125 29.296875 
L 19.671875 29.296875 
L 19.671875 0 
L 9.8125 0 
z
" id="DejaVuSans-80"/>
       <path d="M 53.515625 70.515625 
L 53.515625 60.890625 
Q 47.90625 63.578125 42.921875 64.890625 
Q 37.9375 66.21875 33.296875 66.21875 
Q 25.25 66.21875 20.875 63.09375 
Q 16.5 59.96875 16.5 54.203125 
Q 16.5 49.359375 19.40625 46.890625 
Q 22.3125 44.4375 30.421875 42.921875 
L 36.375 41.703125 
Q 47.40625 39.59375 52.65625 34.296875 
Q 57.90625 29 57.90625 20.125 
Q 57.90625 9.515625 50.796875 4.046875 
Q 43.703125 -1.421875 29.984375 -1.421875 
Q 24.8125 -1.421875 18.96875 -0.25 
Q 13.140625 0.921875 6.890625 3.21875 
L 6.890625 13.375 
Q 12.890625 10.015625 18.65625 8.296875 
Q 24.421875 6.59375 29.984375 6.59375 
Q 38.421875 6.59375 43.015625 9.90625 
Q 47.609375 13.234375 47.609375 19.390625 
Q 47.609375 24.75 44.3125 27.78125 
Q 41.015625 30.8125 33.5 32.328125 
L 27.484375 33.5 
Q 16.453125 35.6875 11.515625 40.375 
Q 6.59375 45.0625 6.59375 53.421875 
Q 6.59375 63.09375 13.40625 68.65625 
Q 20.21875 74.21875 32.171875 74.21875 
Q 37.3125 74.21875 42.625 73.28125 
Q 47.953125 72.359375 53.515625 70.515625 
z
" id="DejaVuSans-83"/>
       <path d="M 19.671875 64.796875 
L 19.671875 8.109375 
L 31.59375 8.109375 
Q 46.6875 8.109375 53.6875 14.9375 
Q 60.6875 21.78125 60.6875 36.53125 
Q 60.6875 51.171875 53.6875 57.984375 
Q 46.6875 64.796875 31.59375 64.796875 
z
M 9.8125 72.90625 
L 30.078125 72.90625 
Q 51.265625 72.90625 61.171875 64.09375 
Q 71.09375 55.28125 71.09375 36.53125 
Q 71.09375 17.671875 61.125 8.828125 
Q 51.171875 0 30.078125 0 
L 9.8125 0 
z
" id="DejaVuSans-68"/>
       <path d="M 52 44.1875 
Q 55.375 50.25 60.0625 53.125 
Q 64.75 56 71.09375 56 
Q 79.640625 56 84.28125 50.015625 
Q 88.921875 44.046875 88.921875 33.015625 
L 88.921875 0 
L 79.890625 0 
L 79.890625 32.71875 
Q 79.890625 40.578125 77.09375 44.375 
Q 74.3125 48.1875 68.609375 48.1875 
Q 61.625 48.1875 57.5625 43.546875 
Q 53.515625 38.921875 53.515625 30.90625 
L 53.515625 0 
L 44.484375 0 
L 44.484375 32.71875 
Q 44.484375 40.625 41.703125 44.40625 
Q 38.921875 48.1875 33.109375 48.1875 
Q 26.21875 48.1875 22.15625 43.53125 
Q 18.109375 38.875 18.109375 30.90625 
L 18.109375 0 
L 9.078125 0 
L 9.078125 54.6875 
L 18.109375 54.6875 
L 18.109375 46.1875 
Q 21.1875 51.21875 25.484375 53.609375 
Q 29.78125 56 35.6875 56 
Q 41.65625 56 45.828125 52.96875 
Q 50 49.953125 52 44.1875 
z
" id="DejaVuSans-109"/>
       <path d="M 28.609375 0 
L 0.78125 72.90625 
L 11.078125 72.90625 
L 34.1875 11.53125 
L 57.328125 72.90625 
L 67.578125 72.90625 
L 39.796875 0 
z
" id="DejaVuSans-86"/>
       <path d="M 47.015625 60.890625 
L 29.5 51.421875 
L 47.015625 41.890625 
L 44.1875 37.109375 
L 27.78125 47.015625 
L 27.78125 28.609375 
L 22.21875 28.609375 
L 22.21875 47.015625 
L 5.8125 37.109375 
L 2.984375 41.890625 
L 20.515625 51.421875 
L 2.984375 60.890625 
L 5.8125 65.71875 
L 22.21875 55.8125 
L 22.21875 74.21875 
L 27.78125 74.21875 
L 27.78125 55.8125 
L 44.1875 65.71875 
z
" id="DejaVuSans-42"/>
       <path d="M 25.390625 72.90625 
L 33.6875 72.90625 
L 8.296875 -9.28125 
L 0 -9.28125 
z
" id="DejaVuSans-47"/>
      </defs>
      <use xlink:href="#DejaVuSans-80"/>
      <use x="60.302734" xlink:href="#DejaVuSans-83"/>
      <use x="123.779297" xlink:href="#DejaVuSans-68"/>
      <use x="200.78125" xlink:href="#DejaVuSans-32"/>
      <use x="232.568359" xlink:href="#DejaVuSans-40"/>
      <use x="271.582031" xlink:href="#DejaVuSans-109"/>
      <use x="368.994141" xlink:href="#DejaVuSans-86"/>
      <use x="437.402344" xlink:href="#DejaVuSans-42"/>
      <use x="487.402344" xlink:href="#DejaVuSans-42"/>
      <use x="537.402344" xlink:href="#DejaVuSans-50"/>
      <use x="601.025391" xlink:href="#DejaVuSans-47"/>
      <use x="634.716797" xlink:href="#DejaVuSans-72"/>
      <use x="709.912109" xlink:href="#DejaVuSans-122"/>
      <use x="762.402344" xlink:href="#DejaVuSans-41"/>
     </g>
    </g>
   </g>
   <g id="line2d_57">
    <path clip-path="url(#pafce250205)" d="M 75.823698 105.638713 
L 78.393462 72.964467 
L 80.963226 68.833679 
L 83.53299 67.825118 
L 86.102754 69.245799 
L 88.672518 72.584691 
L 91.242283 76.119806 
L 93.812047 76.627348 
L 96.381811 77.692732 
L 98.951575 79.084059 
L 101.521339 79.980891 
L 104.091103 75.783717 
L 106.660867 66.86511 
L 109.230632 64.438113 
L 111.800396 73.709423 
L 114.37016 80.452552 
L 116.939924 84.269657 
L 122.079452 87.637282 
L 124.649217 89.032471 
L 127.218981 89.143994 
L 129.788745 90.816179 
L 132.358509 93.870706 
L 134.928273 95.287346 
L 137.498037 96.502051 
L 140.067801 96.782675 
L 142.637566 100.526786 
L 145.20733 103.406654 
L 147.777094 104.790488 
L 150.346858 108.910458 
L 152.916622 108.436421 
L 155.486386 111.604686 
L 158.056151 111.304745 
L 160.625915 113.477017 
L 163.195679 115.249059 
L 165.765443 115.553878 
L 168.335207 116.901887 
L 170.904971 119.087357 
L 173.474735 117.177247 
L 176.0445 118.342467 
L 178.614264 120.908831 
L 181.184028 121.580598 
L 183.753792 121.176399 
L 186.323556 123.562994 
L 188.89332 124.942294 
L 191.463085 124.158116 
L 194.032849 124.754586 
L 196.602613 126.095959 
L 199.172377 126.097772 
L 201.742141 127.216716 
L 204.311905 127.543952 
L 206.88167 129.31871 
L 209.451434 128.966669 
L 212.021198 130.465913 
L 214.590962 132.100877 
L 217.160726 129.89108 
L 219.73049 131.314451 
L 222.300254 133.179202 
L 227.439783 135.301652 
L 230.009547 134.254459 
L 232.579311 136.422222 
L 235.149075 136.463539 
L 237.718839 136.257224 
L 240.288604 137.889135 
L 245.428132 138.339964 
L 247.997896 138.463903 
L 250.56766 141.42326 
L 253.137424 143.528498 
L 255.707188 144.731855 
L 258.276953 146.391366 
L 260.846717 147.792523 
L 263.416481 149.620523 
L 265.986245 150.76435 
L 268.556009 148.730192 
L 271.125773 99.754007 
L 273.695538 75.767921 
L 276.265302 91.123429 
L 278.835066 152.699495 
L 281.40483 154.361303 
L 283.974594 155.78024 
L 286.544358 155.189165 
L 289.114122 156.177567 
L 294.253651 158.893671 
L 296.823415 158.401518 
L 299.393179 158.521976 
L 301.962943 155.214911 
L 304.532707 155.06026 
L 307.102472 157.804609 
L 309.672236 158.205056 
L 312.242 159.266459 
L 314.811764 162.102191 
L 317.381528 158.726905 
L 319.951292 160.242068 
L 325.090821 160.80912 
L 327.660585 160.444142 
L 330.230349 161.068245 
L 332.800113 161.246371 
L 335.369877 160.662098 
L 337.939641 159.190643 
L 343.07917 164.028872 
L 345.648934 165.711774 
L 348.218698 168.829649 
L 350.788462 169.812981 
L 353.358226 171.429994 
L 355.92799 173.923491 
L 358.497755 176.652408 
L 361.067519 179.930103 
L 363.637283 182.490696 
L 366.207047 183.741677 
L 368.776811 185.887706 
L 371.346575 191.076861 
L 373.91634 194.072116 
L 376.486104 196.881921 
L 379.055868 197.785328 
L 381.625632 204.761587 
L 384.195396 205.482703 
L 386.76516 209.059498 
L 389.334924 212.340048 
L 391.904689 214.32271 
L 394.474453 214.859114 
L 397.044217 217.686192 
L 399.613981 221.61396 
L 402.183745 220.416914 
L 404.753509 237.695439 
L 404.753509 237.695439 
" style="fill:none;stroke:#1f77b4;stroke-linecap:square;stroke-opacity:0.6;stroke-width:1.5;"/>
   </g>
   <g id="line2d_58">
    <path clip-path="url(#pafce250205)" d="M 75.823698 104.048005 
L 78.393462 73.313182 
L 80.963226 68.744561 
L 83.53299 68.006008 
L 86.102754 69.217013 
L 88.672518 76.944921 
L 91.242283 77.956066 
L 93.812047 77.067565 
L 96.381811 79.1743 
L 98.951575 82.020587 
L 101.521339 81.589378 
L 104.091103 76.438367 
L 106.660867 64.678974 
L 109.230632 62.877273 
L 111.800396 72.400995 
L 114.37016 80.799448 
L 116.939924 86.710838 
L 119.509688 86.109521 
L 122.079452 86.991913 
L 124.649217 87.743471 
L 127.218981 88.241832 
L 129.788745 90.78653 
L 132.358509 95.692569 
L 134.928273 99.047183 
L 137.498037 97.387992 
L 140.067801 95.159495 
L 142.637566 102.23829 
L 145.20733 104.996528 
L 147.777094 105.221187 
L 150.346858 106.318739 
L 152.916622 107.62769 
L 155.486386 110.545925 
L 158.056151 111.362948 
L 160.625915 114.723919 
L 163.195679 114.161495 
L 165.765443 117.40987 
L 168.335207 116.252809 
L 170.904971 115.749134 
L 173.474735 117.964585 
L 176.0445 116.849744 
L 178.614264 121.929124 
L 181.184028 121.045588 
L 183.753792 124.464003 
L 186.323556 124.253356 
L 188.89332 125.309132 
L 191.463085 129.268861 
L 194.032849 126.996973 
L 196.602613 126.99555 
L 199.172377 127.719411 
L 201.742141 127.109871 
L 204.311905 129.033436 
L 206.88167 131.413281 
L 209.451434 131.438338 
L 212.021198 133.253881 
L 214.590962 134.699163 
L 217.160726 133.286128 
L 219.73049 132.237978 
L 222.300254 134.784741 
L 224.870019 137.791217 
L 227.439783 140.381986 
L 232.579311 138.648924 
L 235.149075 138.403892 
L 237.718839 139.756903 
L 240.288604 142.085567 
L 242.858368 142.600708 
L 245.428132 142.279023 
L 247.997896 144.271342 
L 250.56766 144.707177 
L 253.137424 144.809254 
L 255.707188 146.546873 
L 258.276953 146.637201 
L 260.846717 148.640983 
L 263.416481 148.001607 
L 265.986245 150.340329 
L 268.556009 149.276279 
L 271.125773 106.698696 
L 273.695538 81.933228 
L 276.265302 97.957368 
L 278.835066 155.371271 
L 281.40483 155.443132 
L 283.974594 156.686515 
L 286.544358 155.997795 
L 289.114122 156.835201 
L 291.683887 160.2987 
L 294.253651 159.654505 
L 296.823415 160.956136 
L 299.393179 158.991587 
L 301.962943 158.576967 
L 304.532707 156.681476 
L 307.102472 154.579301 
L 309.672236 157.35186 
L 312.242 161.28893 
L 314.811764 161.510301 
L 317.381528 161.979592 
L 319.951292 161.817312 
L 322.521056 164.129558 
L 325.090821 162.966048 
L 327.660585 160.666004 
L 330.230349 162.05929 
L 332.800113 163.955547 
L 335.369877 163.395329 
L 337.939641 162.53705 
L 340.509406 164.155472 
L 343.07917 166.223983 
L 345.648934 164.706533 
L 348.218698 166.542694 
L 350.788462 170.188673 
L 353.358226 173.466421 
L 355.92799 174.469706 
L 358.497755 176.07016 
L 363.637283 181.605107 
L 366.207047 185.861349 
L 368.776811 191.252858 
L 371.346575 192.980112 
L 376.486104 195.977254 
L 379.055868 202.294289 
L 381.625632 204.297168 
L 384.195396 208.318183 
L 386.76516 210.585267 
L 389.334924 214.499412 
L 391.904689 213.492413 
L 394.474453 213.252809 
L 399.613981 218.636406 
L 402.183745 220.318337 
L 404.753509 238.422727 
L 404.753509 238.422727 
" style="fill:none;stroke:#ff7f0e;stroke-linecap:square;stroke-opacity:0.6;stroke-width:1.5;"/>
   </g>
   <g id="line2d_59">
    <path clip-path="url(#pafce250205)" d="M 75.823698 100.204894 
L 78.393462 71.740889 
L 80.963226 67.115002 
L 83.53299 66.397791 
L 86.102754 71.478631 
L 88.672518 74.731244 
L 91.242283 78.398824 
L 93.812047 79.443018 
L 96.381811 79.959269 
L 98.951575 80.029476 
L 101.521339 80.396806 
L 104.091103 78.686921 
L 106.660867 71.294892 
L 109.230632 70.096683 
L 111.800396 73.871584 
L 114.37016 80.359395 
L 116.939924 84.257865 
L 119.509688 86.909386 
L 124.649217 87.686763 
L 127.218981 89.793269 
L 129.788745 91.058914 
L 132.358509 93.567178 
L 134.928273 94.845146 
L 137.498037 96.628935 
L 140.067801 99.375975 
L 142.637566 99.491708 
L 145.20733 103.307083 
L 147.777094 104.94224 
L 150.346858 106.876506 
L 152.916622 108.0321 
L 155.486386 110.367449 
L 158.056151 111.52761 
L 160.625915 113.405234 
L 163.195679 116.140263 
L 168.335207 116.522699 
L 170.904971 117.185109 
L 173.474735 118.47096 
L 176.0445 120.275683 
L 178.614264 119.578772 
L 181.184028 120.706483 
L 183.753792 120.772395 
L 186.323556 120.725992 
L 188.89332 122.537707 
L 191.463085 124.199404 
L 194.032849 124.640023 
L 196.602613 125.323013 
L 199.172377 126.671399 
L 201.742141 126.228487 
L 204.311905 127.111825 
L 206.88167 127.051295 
L 209.451434 129.479762 
L 212.021198 129.618291 
L 214.590962 129.392773 
L 217.160726 129.67624 
L 219.73049 130.672904 
L 222.300254 130.714551 
L 224.870019 134.002197 
L 227.439783 133.696732 
L 230.009547 134.721508 
L 232.579311 134.851664 
L 235.149075 136.201714 
L 237.718839 136.594801 
L 240.288604 134.811718 
L 242.858368 137.266213 
L 245.428132 139.154807 
L 247.997896 139.363917 
L 250.56766 140.563731 
L 253.137424 141.563509 
L 255.707188 144.266375 
L 258.276953 146.409011 
L 260.846717 145.923865 
L 263.416481 146.496855 
L 265.986245 147.796229 
L 268.556009 148.255765 
L 271.125773 106.507656 
L 273.695538 81.675917 
L 276.265302 97.008295 
L 278.835066 151.395499 
L 281.40483 153.453755 
L 283.974594 153.60981 
L 289.114122 156.867283 
L 291.683887 154.835326 
L 294.253651 156.72161 
L 296.823415 157.200958 
L 299.393179 155.67954 
L 301.962943 156.007125 
L 304.532707 155.117595 
L 307.102472 156.996891 
L 309.672236 156.506373 
L 312.242 158.166773 
L 314.811764 158.47386 
L 317.381528 159.806029 
L 319.951292 160.459426 
L 322.521056 160.743252 
L 325.090821 159.18362 
L 327.660585 159.031365 
L 330.230349 157.973491 
L 332.800113 159.492209 
L 335.369877 159.16141 
L 337.939641 158.175763 
L 340.509406 162.30631 
L 343.07917 164.168985 
L 345.648934 163.942436 
L 348.218698 165.007477 
L 350.788462 166.198012 
L 353.358226 168.746843 
L 355.92799 172.93909 
L 358.497755 174.876541 
L 363.637283 180.650968 
L 366.207047 183.321681 
L 368.776811 186.896332 
L 371.346575 189.384676 
L 376.486104 196.392496 
L 379.055868 200.519372 
L 381.625632 202.954955 
L 384.195396 204.866114 
L 389.334924 211.277902 
L 391.904689 212.787817 
L 394.474453 215.316867 
L 397.044217 216.61158 
L 399.613981 216.646512 
L 402.183745 218.515228 
L 404.753509 234.636929 
L 404.753509 234.636929 
" style="fill:none;stroke:#2ca02c;stroke-linecap:square;stroke-opacity:0.6;stroke-width:1.5;"/>
   </g>
   <g id="line2d_60">
    <path clip-path="url(#pafce250205)" d="M 75.823698 102.906979 
L 78.393462 73.051851 
L 80.963226 67.211454 
L 83.53299 67.084301 
L 86.102754 71.013712 
L 88.672518 75.657462 
L 91.242283 78.482234 
L 93.812047 80.09564 
L 96.381811 82.278391 
L 98.951575 82.49683 
L 101.521339 83.812757 
L 104.091103 79.629021 
L 106.660867 72.590751 
L 109.230632 67.517649 
L 111.800396 75.981126 
L 114.37016 81.574266 
L 116.939924 88.043014 
L 119.509688 89.764069 
L 122.079452 91.310829 
L 124.649217 88.574709 
L 127.218981 91.489308 
L 129.788745 92.065006 
L 132.358509 93.212654 
L 134.928273 99.16222 
L 137.498037 99.957761 
L 140.067801 99.597517 
L 142.637566 103.639648 
L 145.20733 104.921546 
L 147.777094 108.136782 
L 150.346858 107.717862 
L 152.916622 108.322047 
L 155.486386 110.25185 
L 158.056151 112.756935 
L 160.625915 112.012312 
L 165.765443 116.534479 
L 168.335207 116.883554 
L 170.904971 119.453784 
L 173.474735 118.928674 
L 176.0445 119.842789 
L 178.614264 121.020376 
L 181.184028 122.439445 
L 186.323556 123.358104 
L 188.89332 123.070599 
L 191.463085 123.997476 
L 194.032849 122.541203 
L 196.602613 124.992218 
L 199.172377 127.126681 
L 201.742141 128.925625 
L 204.311905 129.616843 
L 206.88167 129.066115 
L 209.451434 130.26332 
L 212.021198 130.283657 
L 214.590962 131.867852 
L 219.73049 130.958061 
L 222.300254 134.01044 
L 224.870019 133.192095 
L 227.439783 136.079438 
L 230.009547 138.783119 
L 235.149075 137.132982 
L 237.718839 137.058616 
L 240.288604 137.179974 
L 242.858368 138.731802 
L 245.428132 141.211354 
L 247.997896 141.681996 
L 250.56766 141.878801 
L 253.137424 144.832474 
L 255.707188 146.392474 
L 258.276953 146.679775 
L 260.846717 146.77335 
L 263.416481 146.603755 
L 265.986245 148.442996 
L 268.556009 147.702586 
L 271.125773 109.378848 
L 273.695538 85.301414 
L 276.265302 100.429551 
L 278.835066 149.280013 
L 281.40483 152.437505 
L 283.974594 153.813805 
L 286.544358 155.847374 
L 289.114122 154.578799 
L 291.683887 155.259182 
L 294.253651 155.495908 
L 296.823415 158.387755 
L 299.393179 158.318126 
L 301.962943 159.164725 
L 304.532707 159.059682 
L 307.102472 158.243109 
L 309.672236 160.090949 
L 312.242 160.357831 
L 314.811764 158.758621 
L 317.381528 159.347529 
L 319.951292 159.690556 
L 322.521056 159.091884 
L 325.090821 157.297476 
L 327.660585 161.086173 
L 330.230349 160.042924 
L 332.800113 161.425184 
L 335.369877 162.449808 
L 337.939641 164.669668 
L 340.509406 164.128658 
L 343.07917 164.168917 
L 345.648934 165.010057 
L 348.218698 167.242765 
L 350.788462 169.810224 
L 353.358226 171.773106 
L 358.497755 176.443675 
L 361.067519 179.535991 
L 363.637283 180.925199 
L 366.207047 183.100459 
L 368.776811 189.447737 
L 371.346575 190.954664 
L 373.91634 195.355823 
L 376.486104 198.583831 
L 381.625632 202.893862 
L 384.195396 207.899626 
L 386.76516 208.878857 
L 389.334924 209.229581 
L 391.904689 213.404964 
L 394.474453 216.498629 
L 397.044217 218.474201 
L 399.613981 217.763667 
L 402.183745 217.583751 
L 404.753509 233.470013 
L 404.753509 233.470013 
" style="fill:none;stroke:#d62728;stroke-linecap:square;stroke-opacity:0.6;stroke-width:1.5;"/>
   </g>
   <g id="line2d_61">
    <path clip-path="url(#pafce250205)" d="M 75.823698 97.896005 
L 78.393462 69.141703 
L 80.963226 64.818395 
L 83.53299 67.323186 
L 86.102754 70.856803 
L 88.672518 74.013158 
L 91.242283 78.239504 
L 93.812047 78.159869 
L 96.381811 81.249015 
L 98.951575 82.836489 
L 101.521339 82.95942 
L 104.091103 76.841789 
L 106.660867 69.055108 
L 109.230632 71.666223 
L 111.800396 79.100644 
L 114.37016 83.550023 
L 116.939924 86.341427 
L 119.509688 88.052228 
L 122.079452 90.928874 
L 124.649217 89.244184 
L 127.218981 89.646266 
L 129.788745 89.929616 
L 132.358509 92.378785 
L 134.928273 96.001518 
L 137.498037 99.922963 
L 140.067801 100.232176 
L 142.637566 104.414692 
L 145.20733 106.99647 
L 147.777094 106.998501 
L 150.346858 107.417816 
L 152.916622 109.158752 
L 155.486386 109.586715 
L 158.056151 111.609128 
L 160.625915 115.699023 
L 163.195679 115.966896 
L 165.765443 116.648892 
L 168.335207 118.451537 
L 170.904971 117.898256 
L 173.474735 120.372638 
L 176.0445 120.431647 
L 178.614264 122.705924 
L 181.184028 124.430386 
L 183.753792 125.582593 
L 186.323556 125.462552 
L 188.89332 126.643209 
L 191.463085 126.145689 
L 194.032849 127.796984 
L 196.602613 129.02566 
L 199.172377 129.191591 
L 201.742141 129.881662 
L 204.311905 129.229808 
L 206.88167 131.810148 
L 209.451434 133.072799 
L 212.021198 133.715141 
L 214.590962 133.434702 
L 217.160726 134.814197 
L 219.73049 136.886818 
L 222.300254 137.408599 
L 224.870019 137.312018 
L 227.439783 137.778963 
L 230.009547 139.039564 
L 232.579311 139.439488 
L 235.149075 141.176978 
L 237.718839 141.11214 
L 240.288604 138.893296 
L 242.858368 141.583602 
L 245.428132 143.238451 
L 247.997896 145.489917 
L 250.56766 145.708553 
L 253.137424 145.227322 
L 255.707188 145.626805 
L 258.276953 146.91675 
L 260.846717 149.156814 
L 263.416481 148.427521 
L 265.986245 149.502178 
L 268.556009 148.16676 
L 271.125773 111.835652 
L 273.695538 89.018278 
L 276.265302 103.361323 
L 278.835066 152.531623 
L 281.40483 154.04931 
L 286.544358 154.940747 
L 289.114122 156.406177 
L 291.683887 155.530162 
L 294.253651 158.702499 
L 296.823415 156.540922 
L 299.393179 156.469079 
L 301.962943 157.610471 
L 304.532707 158.965292 
L 307.102472 158.336156 
L 309.672236 159.550568 
L 312.242 158.932635 
L 314.811764 161.5632 
L 317.381528 162.815383 
L 319.951292 162.553205 
L 322.521056 160.941276 
L 327.660585 161.06181 
L 330.230349 160.679589 
L 332.800113 159.552192 
L 335.369877 161.435637 
L 337.939641 163.009073 
L 340.509406 163.535361 
L 343.07917 163.142486 
L 345.648934 165.250735 
L 348.218698 167.550607 
L 350.788462 167.030061 
L 353.358226 170.677213 
L 355.92799 173.462128 
L 358.497755 176.700943 
L 361.067519 179.365115 
L 366.207047 185.511263 
L 368.776811 187.342811 
L 371.346575 191.070834 
L 373.91634 196.350817 
L 376.486104 195.241688 
L 379.055868 199.584931 
L 381.625632 203.317748 
L 384.195396 207.300395 
L 389.334924 211.165762 
L 391.904689 213.480861 
L 394.474453 215.489717 
L 397.044217 217.834981 
L 399.613981 219.28716 
L 402.183745 220.887031 
L 404.753509 237.955495 
L 404.753509 237.955495 
" style="fill:none;stroke:#9467bd;stroke-linecap:square;stroke-opacity:0.6;stroke-width:1.5;"/>
   </g>
   <g id="line2d_62">
    <path clip-path="url(#pafce250205)" d="M 75.823698 102.061262 
L 78.393462 73.6458 
L 80.963226 68.83135 
L 83.53299 69.038577 
L 86.102754 68.977786 
L 88.672518 73.27643 
L 91.242283 76.434534 
L 93.812047 79.027988 
L 96.381811 82.973649 
L 98.951575 82.264358 
L 101.521339 82.601672 
L 104.091103 79.593083 
L 106.660867 73.174225 
L 109.230632 70.27877 
L 111.800396 74.285946 
L 114.37016 82.739268 
L 116.939924 87.735239 
L 119.509688 88.500848 
L 122.079452 90.824422 
L 124.649217 91.404111 
L 127.218981 91.693468 
L 129.788745 90.552715 
L 134.928273 96.806513 
L 137.498037 96.809684 
L 140.067801 99.540177 
L 142.637566 103.46022 
L 145.20733 105.500898 
L 147.777094 108.942019 
L 150.346858 110.488688 
L 152.916622 108.978564 
L 155.486386 109.517856 
L 158.056151 113.127919 
L 160.625915 116.14342 
L 163.195679 117.15942 
L 165.765443 113.097371 
L 168.335207 115.90041 
L 170.904971 119.328381 
L 173.474735 120.024843 
L 176.0445 119.556636 
L 178.614264 121.304082 
L 181.184028 119.609016 
L 183.753792 121.940801 
L 186.323556 122.673846 
L 191.463085 123.829246 
L 194.032849 125.196932 
L 196.602613 124.426595 
L 199.172377 126.209038 
L 201.742141 126.259241 
L 206.88167 128.61862 
L 209.451434 126.914436 
L 212.021198 129.16048 
L 214.590962 129.019685 
L 217.160726 131.065762 
L 219.73049 132.342455 
L 222.300254 132.00146 
L 224.870019 132.094437 
L 227.439783 134.465431 
L 230.009547 134.307329 
L 232.579311 136.053938 
L 235.149075 135.028238 
L 237.718839 134.946696 
L 240.288604 139.943972 
L 242.858368 137.992189 
L 245.428132 137.681653 
L 247.997896 141.677189 
L 250.56766 142.472282 
L 255.707188 144.408385 
L 258.276953 147.274951 
L 260.846717 147.753145 
L 263.416481 147.273424 
L 265.986245 148.922856 
L 268.556009 149.253186 
L 271.125773 113.362903 
L 273.695538 90.129291 
L 276.265302 105.226846 
L 278.835066 152.35067 
L 281.40483 152.163778 
L 283.974594 156.852205 
L 286.544358 155.734852 
L 289.114122 153.958543 
L 291.683887 155.637359 
L 294.253651 156.626448 
L 296.823415 156.632743 
L 299.393179 157.456083 
L 301.962943 158.837021 
L 304.532707 155.448804 
L 307.102472 158.339164 
L 309.672236 159.035021 
L 312.242 158.782941 
L 314.811764 158.180827 
L 317.381528 157.860409 
L 319.951292 160.453258 
L 322.521056 160.687384 
L 325.090821 159.653575 
L 327.660585 162.367334 
L 330.230349 161.412208 
L 332.800113 162.03668 
L 335.369877 161.437593 
L 337.939641 160.315658 
L 340.509406 163.692468 
L 343.07917 163.170175 
L 345.648934 163.175003 
L 348.218698 166.447983 
L 350.788462 169.079552 
L 353.358226 169.628061 
L 355.92799 172.733385 
L 358.497755 177.030386 
L 361.067519 178.36778 
L 363.637283 181.652584 
L 366.207047 184.207371 
L 368.776811 189.148852 
L 371.346575 191.475605 
L 373.91634 193.103108 
L 376.486104 198.074103 
L 379.055868 202.583102 
L 381.625632 203.992581 
L 384.195396 205.63373 
L 386.76516 209.63322 
L 389.334924 212.149363 
L 391.904689 214.138451 
L 394.474453 217.13536 
L 397.044217 216.764582 
L 399.613981 218.19535 
L 402.183745 218.955066 
L 404.753509 235.045316 
L 404.753509 235.045316 
" style="fill:none;stroke:#8c564b;stroke-linecap:square;stroke-opacity:0.6;stroke-width:1.5;"/>
   </g>
   <g id="line2d_63">
    <path clip-path="url(#pafce250205)" d="M 92.928048 247.2 
L 92.928048 54.1 
" style="fill:none;stroke:#cd5c5c;stroke-linecap:square;stroke-width:1.5;"/>
   </g>
   <g id="line2d_64">
    <path clip-path="url(#pafce250205)" d="M 115.295275 247.2 
L 115.295275 54.1 
" style="fill:none;stroke:#cd5c5c;stroke-linecap:square;stroke-width:1.5;"/>
   </g>
   <g id="line2d_65">
    <path clip-path="url(#pafce250205)" d="M 154.766852 247.2 
L 154.766852 54.1 
" style="fill:none;stroke:#2e8b57;stroke-linecap:square;stroke-width:1.5;"/>
   </g>
   <g id="line2d_66">
    <path clip-path="url(#pafce250205)" d="M 194.23843 247.2 
L 194.23843 54.1 
" style="fill:none;stroke:#2e8b57;stroke-linecap:square;stroke-width:1.5;"/>
   </g>
   <g id="patch_3">
    <path d="M 59.377207 247.2 
L 59.377207 54.1 
" style="fill:none;stroke:#000000;stroke-linecap:square;stroke-linejoin:miter;stroke-width:0.8;"/>
   </g>
   <g id="patch_4">
    <path d="M 421.2 247.2 
L 421.2 54.1 
" style="fill:none;stroke:#000000;stroke-linecap:square;stroke-linejoin:miter;stroke-width:0.8;"/>
   </g>
   <g id="patch_5">
    <path d="M 59.377207 247.2 
L 421.2 247.2 
" style="fill:none;stroke:#000000;stroke-linecap:square;stroke-linejoin:miter;stroke-width:0.8;"/>
   </g>
   <g id="patch_6">
    <path d="M 59.377207 54.1 
L 421.2 54.1 
" style="fill:none;stroke:#000000;stroke-linecap:square;stroke-linejoin:miter;stroke-width:0.8;"/>
   </g>
   <g id="text_15">
    <!-- RCS09  gamma entrainment; med: ON; side: L -->
    <g transform="translate(101.157041 21.22525)scale(0.12 -0.12)">
     <defs>
      <path d="M 44.390625 34.1875 
Q 47.5625 33.109375 50.5625 29.59375 
Q 53.5625 26.078125 56.59375 19.921875 
L 66.609375 0 
L 56 0 
L 46.6875 18.703125 
Q 43.0625 26.03125 39.671875 28.421875 
Q 36.28125 30.8125 30.421875 30.8125 
L 19.671875 30.8125 
L 19.671875 0 
L 9.8125 0 
L 9.8125 72.90625 
L 32.078125 72.90625 
Q 44.578125 72.90625 50.734375 67.671875 
Q 56.890625 62.453125 56.890625 51.90625 
Q 56.890625 45.015625 53.6875 40.46875 
Q 50.484375 35.9375 44.390625 34.1875 
z
M 19.671875 64.796875 
L 19.671875 38.921875 
L 32.078125 38.921875 
Q 39.203125 38.921875 42.84375 42.21875 
Q 46.484375 45.515625 46.484375 51.90625 
Q 46.484375 58.296875 42.84375 61.546875 
Q 39.203125 64.796875 32.078125 64.796875 
z
" id="DejaVuSans-82"/>
      <path d="M 64.40625 67.28125 
L 64.40625 56.890625 
Q 59.421875 61.53125 53.78125 63.8125 
Q 48.140625 66.109375 41.796875 66.109375 
Q 29.296875 66.109375 22.65625 58.46875 
Q 16.015625 50.828125 16.015625 36.375 
Q 16.015625 21.96875 22.65625 14.328125 
Q 29.296875 6.6875 41.796875 6.6875 
Q 48.140625 6.6875 53.78125 8.984375 
Q 59.421875 11.28125 64.40625 15.921875 
L 64.40625 5.609375 
Q 59.234375 2.09375 53.4375 0.328125 
Q 47.65625 -1.421875 41.21875 -1.421875 
Q 24.65625 -1.421875 15.125 8.703125 
Q 5.609375 18.84375 5.609375 36.375 
Q 5.609375 53.953125 15.125 64.078125 
Q 24.65625 74.21875 41.21875 74.21875 
Q 47.75 74.21875 53.53125 72.484375 
Q 59.328125 70.75 64.40625 67.28125 
z
" id="DejaVuSans-67"/>
      <path d="M 45.40625 27.984375 
Q 45.40625 37.75 41.375 43.109375 
Q 37.359375 48.484375 30.078125 48.484375 
Q 22.859375 48.484375 18.828125 43.109375 
Q 14.796875 37.75 14.796875 27.984375 
Q 14.796875 18.265625 18.828125 12.890625 
Q 22.859375 7.515625 30.078125 7.515625 
Q 37.359375 7.515625 41.375 12.890625 
Q 45.40625 18.265625 45.40625 27.984375 
z
M 54.390625 6.78125 
Q 54.390625 -7.171875 48.1875 -13.984375 
Q 42 -20.796875 29.203125 -20.796875 
Q 24.46875 -20.796875 20.265625 -20.09375 
Q 16.0625 -19.390625 12.109375 -17.921875 
L 12.109375 -9.1875 
Q 16.0625 -11.328125 19.921875 -12.34375 
Q 23.78125 -13.375 27.78125 -13.375 
Q 36.625 -13.375 41.015625 -8.765625 
Q 45.40625 -4.15625 45.40625 5.171875 
L 45.40625 9.625 
Q 42.625 4.78125 38.28125 2.390625 
Q 33.9375 0 27.875 0 
Q 17.828125 0 11.671875 7.65625 
Q 5.515625 15.328125 5.515625 27.984375 
Q 5.515625 40.671875 11.671875 48.328125 
Q 17.828125 56 27.875 56 
Q 33.9375 56 38.28125 53.609375 
Q 42.625 51.21875 45.40625 46.390625 
L 45.40625 54.6875 
L 54.390625 54.6875 
z
" id="DejaVuSans-103"/>
      <path d="M 34.28125 27.484375 
Q 23.390625 27.484375 19.1875 25 
Q 14.984375 22.515625 14.984375 16.5 
Q 14.984375 11.71875 18.140625 8.90625 
Q 21.296875 6.109375 26.703125 6.109375 
Q 34.1875 6.109375 38.703125 11.40625 
Q 43.21875 16.703125 43.21875 25.484375 
L 43.21875 27.484375 
z
M 52.203125 31.203125 
L 52.203125 0 
L 43.21875 0 
L 43.21875 8.296875 
Q 40.140625 3.328125 35.546875 0.953125 
Q 30.953125 -1.421875 24.3125 -1.421875 
Q 15.921875 -1.421875 10.953125 3.296875 
Q 6 8.015625 6 15.921875 
Q 6 25.140625 12.171875 29.828125 
Q 18.359375 34.515625 30.609375 34.515625 
L 43.21875 34.515625 
L 43.21875 35.40625 
Q 43.21875 41.609375 39.140625 45 
Q 35.0625 48.390625 27.6875 48.390625 
Q 23 48.390625 18.546875 47.265625 
Q 14.109375 46.140625 10.015625 43.890625 
L 10.015625 52.203125 
Q 14.9375 54.109375 19.578125 55.046875 
Q 24.21875 56 28.609375 56 
Q 40.484375 56 46.34375 49.84375 
Q 52.203125 43.703125 52.203125 31.203125 
z
" id="DejaVuSans-97"/>
      <path d="M 18.3125 70.21875 
L 18.3125 54.6875 
L 36.8125 54.6875 
L 36.8125 47.703125 
L 18.3125 47.703125 
L 18.3125 18.015625 
Q 18.3125 11.328125 20.140625 9.421875 
Q 21.96875 7.515625 27.59375 7.515625 
L 36.8125 7.515625 
L 36.8125 0 
L 27.59375 0 
Q 17.1875 0 13.234375 3.875 
Q 9.28125 7.765625 9.28125 18.015625 
L 9.28125 47.703125 
L 2.6875 47.703125 
L 2.6875 54.6875 
L 9.28125 54.6875 
L 9.28125 70.21875 
z
" id="DejaVuSans-116"/>
      <path d="M 9.421875 54.6875 
L 18.40625 54.6875 
L 18.40625 0 
L 9.421875 0 
z
M 9.421875 75.984375 
L 18.40625 75.984375 
L 18.40625 64.59375 
L 9.421875 64.59375 
z
" id="DejaVuSans-105"/>
      <path d="M 11.71875 51.703125 
L 22.015625 51.703125 
L 22.015625 39.3125 
L 11.71875 39.3125 
z
M 11.71875 12.40625 
L 22.015625 12.40625 
L 22.015625 4 
L 14.015625 -11.625 
L 7.71875 -11.625 
L 11.71875 4 
z
" id="DejaVuSans-59"/>
      <path d="M 45.40625 46.390625 
L 45.40625 75.984375 
L 54.390625 75.984375 
L 54.390625 0 
L 45.40625 0 
L 45.40625 8.203125 
Q 42.578125 3.328125 38.25 0.953125 
Q 33.9375 -1.421875 27.875 -1.421875 
Q 17.96875 -1.421875 11.734375 6.484375 
Q 5.515625 14.40625 5.515625 27.296875 
Q 5.515625 40.1875 11.734375 48.09375 
Q 17.96875 56 27.875 56 
Q 33.9375 56 38.25 53.625 
Q 42.578125 51.265625 45.40625 46.390625 
z
M 14.796875 27.296875 
Q 14.796875 17.390625 18.875 11.75 
Q 22.953125 6.109375 30.078125 6.109375 
Q 37.203125 6.109375 41.296875 11.75 
Q 45.40625 17.390625 45.40625 27.296875 
Q 45.40625 37.203125 41.296875 42.84375 
Q 37.203125 48.484375 30.078125 48.484375 
Q 22.953125 48.484375 18.875 42.84375 
Q 14.796875 37.203125 14.796875 27.296875 
z
" id="DejaVuSans-100"/>
      <path d="M 11.71875 12.40625 
L 22.015625 12.40625 
L 22.015625 0 
L 11.71875 0 
z
M 11.71875 51.703125 
L 22.015625 51.703125 
L 22.015625 39.3125 
L 11.71875 39.3125 
z
" id="DejaVuSans-58"/>
      <path d="M 39.40625 66.21875 
Q 28.65625 66.21875 22.328125 58.203125 
Q 16.015625 50.203125 16.015625 36.375 
Q 16.015625 22.609375 22.328125 14.59375 
Q 28.65625 6.59375 39.40625 6.59375 
Q 50.140625 6.59375 56.421875 14.59375 
Q 62.703125 22.609375 62.703125 36.375 
Q 62.703125 50.203125 56.421875 58.203125 
Q 50.140625 66.21875 39.40625 66.21875 
z
M 39.40625 74.21875 
Q 54.734375 74.21875 63.90625 63.9375 
Q 73.09375 53.65625 73.09375 36.375 
Q 73.09375 19.140625 63.90625 8.859375 
Q 54.734375 -1.421875 39.40625 -1.421875 
Q 24.03125 -1.421875 14.8125 8.828125 
Q 5.609375 19.09375 5.609375 36.375 
Q 5.609375 53.65625 14.8125 63.9375 
Q 24.03125 74.21875 39.40625 74.21875 
z
" id="DejaVuSans-79"/>
      <path d="M 9.8125 72.90625 
L 23.09375 72.90625 
L 55.421875 11.921875 
L 55.421875 72.90625 
L 64.984375 72.90625 
L 64.984375 0 
L 51.703125 0 
L 19.390625 60.984375 
L 19.390625 0 
L 9.8125 0 
z
" id="DejaVuSans-78"/>
      <path d="M 44.28125 53.078125 
L 44.28125 44.578125 
Q 40.484375 46.53125 36.375 47.5 
Q 32.28125 48.484375 27.875 48.484375 
Q 21.1875 48.484375 17.84375 46.4375 
Q 14.5 44.390625 14.5 40.28125 
Q 14.5 37.15625 16.890625 35.375 
Q 19.28125 33.59375 26.515625 31.984375 
L 29.59375 31.296875 
Q 39.15625 29.25 43.1875 25.515625 
Q 47.21875 21.78125 47.21875 15.09375 
Q 47.21875 7.46875 41.1875 3.015625 
Q 35.15625 -1.421875 24.609375 -1.421875 
Q 20.21875 -1.421875 15.453125 -0.5625 
Q 10.6875 0.296875 5.421875 2 
L 5.421875 11.28125 
Q 10.40625 8.6875 15.234375 7.390625 
Q 20.0625 6.109375 24.8125 6.109375 
Q 31.15625 6.109375 34.5625 8.28125 
Q 37.984375 10.453125 37.984375 14.40625 
Q 37.984375 18.0625 35.515625 20.015625 
Q 33.0625 21.96875 24.703125 23.78125 
L 21.578125 24.515625 
Q 13.234375 26.265625 9.515625 29.90625 
Q 5.8125 33.546875 5.8125 39.890625 
Q 5.8125 47.609375 11.28125 51.796875 
Q 16.75 56 26.8125 56 
Q 31.78125 56 36.171875 55.265625 
Q 40.578125 54.546875 44.28125 53.078125 
z
" id="DejaVuSans-115"/>
      <path d="M 9.8125 72.90625 
L 19.671875 72.90625 
L 19.671875 8.296875 
L 55.171875 8.296875 
L 55.171875 0 
L 9.8125 0 
z
" id="DejaVuSans-76"/>
     </defs>
     <use xlink:href="#DejaVuSans-82"/>
     <use x="64.482422" xlink:href="#DejaVuSans-67"/>
     <use x="134.306641" xlink:href="#DejaVuSans-83"/>
     <use x="197.783203" xlink:href="#DejaVuSans-48"/>
     <use x="261.40625" xlink:href="#DejaVuSans-57"/>
     <use x="325.029297" xlink:href="#DejaVuSans-32"/>
     <use x="356.816406" xlink:href="#DejaVuSans-32"/>
     <use x="388.603516" xlink:href="#DejaVuSans-103"/>
     <use x="452.080078" xlink:href="#DejaVuSans-97"/>
     <use x="513.359375" xlink:href="#DejaVuSans-109"/>
     <use x="610.771484" xlink:href="#DejaVuSans-109"/>
     <use x="708.183594" xlink:href="#DejaVuSans-97"/>
     <use x="769.462891" xlink:href="#DejaVuSans-32"/>
     <use x="801.25" xlink:href="#DejaVuSans-101"/>
     <use x="862.773438" xlink:href="#DejaVuSans-110"/>
     <use x="926.152344" xlink:href="#DejaVuSans-116"/>
     <use x="965.361328" xlink:href="#DejaVuSans-114"/>
     <use x="1006.474609" xlink:href="#DejaVuSans-97"/>
     <use x="1067.753906" xlink:href="#DejaVuSans-105"/>
     <use x="1095.537109" xlink:href="#DejaVuSans-110"/>
     <use x="1158.916016" xlink:href="#DejaVuSans-109"/>
     <use x="1256.328125" xlink:href="#DejaVuSans-101"/>
     <use x="1317.851562" xlink:href="#DejaVuSans-110"/>
     <use x="1381.230469" xlink:href="#DejaVuSans-116"/>
     <use x="1420.439453" xlink:href="#DejaVuSans-59"/>
     <use x="1454.130859" xlink:href="#DejaVuSans-32"/>
     <use x="1485.917969" xlink:href="#DejaVuSans-109"/>
     <use x="1583.330078" xlink:href="#DejaVuSans-101"/>
     <use x="1644.853516" xlink:href="#DejaVuSans-100"/>
     <use x="1708.330078" xlink:href="#DejaVuSans-58"/>
     <use x="1742.021484" xlink:href="#DejaVuSans-32"/>
     <use x="1773.808594" xlink:href="#DejaVuSans-79"/>
     <use x="1852.519531" xlink:href="#DejaVuSans-78"/>
     <use x="1927.324219" xlink:href="#DejaVuSans-59"/>
     <use x="1961.015625" xlink:href="#DejaVuSans-32"/>
     <use x="1992.802734" xlink:href="#DejaVuSans-115"/>
     <use x="2044.902344" xlink:href="#DejaVuSans-105"/>
     <use x="2072.685547" xlink:href="#DejaVuSans-100"/>
     <use x="2136.162109" xlink:href="#DejaVuSans-101"/>
     <use x="2197.685547" xlink:href="#DejaVuSans-58"/>
     <use x="2231.376953" xlink:href="#DejaVuSans-32"/>
     <use x="2263.164062" xlink:href="#DejaVuSans-76"/>
    </g>
    <!-- stim contact 3; stim freq 150.6; amps 0.0-4.5 -->
    <g transform="translate(103.823291 34.662625)scale(0.12 -0.12)">
     <defs>
      <path d="M 30.609375 48.390625 
Q 23.390625 48.390625 19.1875 42.75 
Q 14.984375 37.109375 14.984375 27.296875 
Q 14.984375 17.484375 19.15625 11.84375 
Q 23.34375 6.203125 30.609375 6.203125 
Q 37.796875 6.203125 41.984375 11.859375 
Q 46.1875 17.53125 46.1875 27.296875 
Q 46.1875 37.015625 41.984375 42.703125 
Q 37.796875 48.390625 30.609375 48.390625 
z
M 30.609375 56 
Q 42.328125 56 49.015625 48.375 
Q 55.71875 40.765625 55.71875 27.296875 
Q 55.71875 13.875 49.015625 6.21875 
Q 42.328125 -1.421875 30.609375 -1.421875 
Q 18.84375 -1.421875 12.171875 6.21875 
Q 5.515625 13.875 5.515625 27.296875 
Q 5.515625 40.765625 12.171875 48.375 
Q 18.84375 56 30.609375 56 
z
" id="DejaVuSans-111"/>
      <path d="M 40.578125 39.3125 
Q 47.65625 37.796875 51.625 33 
Q 55.609375 28.21875 55.609375 21.1875 
Q 55.609375 10.40625 48.1875 4.484375 
Q 40.765625 -1.421875 27.09375 -1.421875 
Q 22.515625 -1.421875 17.65625 -0.515625 
Q 12.796875 0.390625 7.625 2.203125 
L 7.625 11.71875 
Q 11.71875 9.328125 16.59375 8.109375 
Q 21.484375 6.890625 26.8125 6.890625 
Q 36.078125 6.890625 40.9375 10.546875 
Q 45.796875 14.203125 45.796875 21.1875 
Q 45.796875 27.640625 41.28125 31.265625 
Q 36.765625 34.90625 28.71875 34.90625 
L 20.21875 34.90625 
L 20.21875 43.015625 
L 29.109375 43.015625 
Q 36.375 43.015625 40.234375 45.921875 
Q 44.09375 48.828125 44.09375 54.296875 
Q 44.09375 59.90625 40.109375 62.90625 
Q 36.140625 65.921875 28.71875 65.921875 
Q 24.65625 65.921875 20.015625 65.03125 
Q 15.375 64.15625 9.8125 62.3125 
L 9.8125 71.09375 
Q 15.4375 72.65625 20.34375 73.4375 
Q 25.25 74.21875 29.59375 74.21875 
Q 40.828125 74.21875 47.359375 69.109375 
Q 53.90625 64.015625 53.90625 55.328125 
Q 53.90625 49.265625 50.4375 45.09375 
Q 46.96875 40.921875 40.578125 39.3125 
z
" id="DejaVuSans-51"/>
      <path d="M 10.6875 12.40625 
L 21 12.40625 
L 21 0 
L 10.6875 0 
z
" id="DejaVuSans-46"/>
      <path d="M 18.109375 8.203125 
L 18.109375 -20.796875 
L 9.078125 -20.796875 
L 9.078125 54.6875 
L 18.109375 54.6875 
L 18.109375 46.390625 
Q 20.953125 51.265625 25.265625 53.625 
Q 29.59375 56 35.59375 56 
Q 45.5625 56 51.78125 48.09375 
Q 58.015625 40.1875 58.015625 27.296875 
Q 58.015625 14.40625 51.78125 6.484375 
Q 45.5625 -1.421875 35.59375 -1.421875 
Q 29.59375 -1.421875 25.265625 0.953125 
Q 20.953125 3.328125 18.109375 8.203125 
z
M 48.6875 27.296875 
Q 48.6875 37.203125 44.609375 42.84375 
Q 40.53125 48.484375 33.40625 48.484375 
Q 26.265625 48.484375 22.1875 42.84375 
Q 18.109375 37.203125 18.109375 27.296875 
Q 18.109375 17.390625 22.1875 11.75 
Q 26.265625 6.109375 33.40625 6.109375 
Q 40.53125 6.109375 44.609375 11.75 
Q 48.6875 17.390625 48.6875 27.296875 
z
" id="DejaVuSans-112"/>
      <path d="M 4.890625 31.390625 
L 31.203125 31.390625 
L 31.203125 23.390625 
L 4.890625 23.390625 
z
" id="DejaVuSans-45"/>
      <path d="M 37.796875 64.3125 
L 12.890625 25.390625 
L 37.796875 25.390625 
z
M 35.203125 72.90625 
L 47.609375 72.90625 
L 47.609375 25.390625 
L 58.015625 25.390625 
L 58.015625 17.1875 
L 47.609375 17.1875 
L 47.609375 0 
L 37.796875 0 
L 37.796875 17.1875 
L 4.890625 17.1875 
L 4.890625 26.703125 
z
" id="DejaVuSans-52"/>
     </defs>
     <use xlink:href="#DejaVuSans-115"/>
     <use x="52.099609" xlink:href="#DejaVuSans-116"/>
     <use x="91.308594" xlink:href="#DejaVuSans-105"/>
     <use x="119.091797" xlink:href="#DejaVuSans-109"/>
     <use x="216.503906" xlink:href="#DejaVuSans-32"/>
     <use x="248.291016" xlink:href="#DejaVuSans-99"/>
     <use x="303.271484" xlink:href="#DejaVuSans-111"/>
     <use x="364.453125" xlink:href="#DejaVuSans-110"/>
     <use x="427.832031" xlink:href="#DejaVuSans-116"/>
     <use x="467.041016" xlink:href="#DejaVuSans-97"/>
     <use x="528.320312" xlink:href="#DejaVuSans-99"/>
     <use x="583.300781" xlink:href="#DejaVuSans-116"/>
     <use x="622.509766" xlink:href="#DejaVuSans-32"/>
     <use x="654.296875" xlink:href="#DejaVuSans-51"/>
     <use x="717.919922" xlink:href="#DejaVuSans-59"/>
     <use x="751.611328" xlink:href="#DejaVuSans-32"/>
     <use x="783.398438" xlink:href="#DejaVuSans-115"/>
     <use x="835.498047" xlink:href="#DejaVuSans-116"/>
     <use x="874.707031" xlink:href="#DejaVuSans-105"/>
     <use x="902.490234" xlink:href="#DejaVuSans-109"/>
     <use x="999.902344" xlink:href="#DejaVuSans-32"/>
     <use x="1031.689453" xlink:href="#DejaVuSans-102"/>
     <use x="1066.894531" xlink:href="#DejaVuSans-114"/>
     <use x="1105.757812" xlink:href="#DejaVuSans-101"/>
     <use x="1167.28125" xlink:href="#DejaVuSans-113"/>
     <use x="1230.757812" xlink:href="#DejaVuSans-32"/>
     <use x="1262.544922" xlink:href="#DejaVuSans-49"/>
     <use x="1326.167969" xlink:href="#DejaVuSans-53"/>
     <use x="1389.791016" xlink:href="#DejaVuSans-48"/>
     <use x="1453.414062" xlink:href="#DejaVuSans-46"/>
     <use x="1485.201172" xlink:href="#DejaVuSans-54"/>
     <use x="1548.824219" xlink:href="#DejaVuSans-59"/>
     <use x="1582.515625" xlink:href="#DejaVuSans-32"/>
     <use x="1614.302734" xlink:href="#DejaVuSans-97"/>
     <use x="1675.582031" xlink:href="#DejaVuSans-109"/>
     <use x="1772.994141" xlink:href="#DejaVuSans-112"/>
     <use x="1836.470703" xlink:href="#DejaVuSans-115"/>
     <use x="1888.570312" xlink:href="#DejaVuSans-32"/>
     <use x="1920.357422" xlink:href="#DejaVuSans-48"/>
     <use x="1983.980469" xlink:href="#DejaVuSans-46"/>
     <use x="2015.767578" xlink:href="#DejaVuSans-48"/>
     <use x="2079.390625" xlink:href="#DejaVuSans-45"/>
     <use x="2115.474609" xlink:href="#DejaVuSans-52"/>
     <use x="2179.097656" xlink:href="#DejaVuSans-46"/>
     <use x="2210.884766" xlink:href="#DejaVuSans-53"/>
    </g>
    <!-- Ch 4 sense contacts 11+ 10- -->
    <g transform="translate(153.465791 48.1)scale(0.12 -0.12)">
     <defs>
      <path d="M 54.890625 33.015625 
L 54.890625 0 
L 45.90625 0 
L 45.90625 32.71875 
Q 45.90625 40.484375 42.875 44.328125 
Q 39.84375 48.1875 33.796875 48.1875 
Q 26.515625 48.1875 22.3125 43.546875 
Q 18.109375 38.921875 18.109375 30.90625 
L 18.109375 0 
L 9.078125 0 
L 9.078125 75.984375 
L 18.109375 75.984375 
L 18.109375 46.1875 
Q 21.34375 51.125 25.703125 53.5625 
Q 30.078125 56 35.796875 56 
Q 45.21875 56 50.046875 50.171875 
Q 54.890625 44.34375 54.890625 33.015625 
z
" id="DejaVuSans-104"/>
      <path d="M 46 62.703125 
L 46 35.5 
L 73.1875 35.5 
L 73.1875 27.203125 
L 46 27.203125 
L 46 0 
L 37.796875 0 
L 37.796875 27.203125 
L 10.59375 27.203125 
L 10.59375 35.5 
L 37.796875 35.5 
L 37.796875 62.703125 
z
" id="DejaVuSans-43"/>
     </defs>
     <use xlink:href="#DejaVuSans-67"/>
     <use x="69.824219" xlink:href="#DejaVuSans-104"/>
     <use x="133.203125" xlink:href="#DejaVuSans-32"/>
     <use x="164.990234" xlink:href="#DejaVuSans-52"/>
     <use x="228.613281" xlink:href="#DejaVuSans-32"/>
     <use x="260.400391" xlink:href="#DejaVuSans-115"/>
     <use x="312.5" xlink:href="#DejaVuSans-101"/>
     <use x="374.023438" xlink:href="#DejaVuSans-110"/>
     <use x="437.402344" xlink:href="#DejaVuSans-115"/>
     <use x="489.501953" xlink:href="#DejaVuSans-101"/>
     <use x="551.025391" xlink:href="#DejaVuSans-32"/>
     <use x="582.8125" xlink:href="#DejaVuSans-99"/>
     <use x="637.792969" xlink:href="#DejaVuSans-111"/>
     <use x="698.974609" xlink:href="#DejaVuSans-110"/>
     <use x="762.353516" xlink:href="#DejaVuSans-116"/>
     <use x="801.5625" xlink:href="#DejaVuSans-97"/>
     <use x="862.841797" xlink:href="#DejaVuSans-99"/>
     <use x="917.822266" xlink:href="#DejaVuSans-116"/>
     <use x="957.03125" xlink:href="#DejaVuSans-115"/>
     <use x="1009.130859" xlink:href="#DejaVuSans-32"/>
     <use x="1040.917969" xlink:href="#DejaVuSans-49"/>
     <use x="1104.541016" xlink:href="#DejaVuSans-49"/>
     <use x="1168.164062" xlink:href="#DejaVuSans-43"/>
     <use x="1251.953125" xlink:href="#DejaVuSans-32"/>
     <use x="1283.740234" xlink:href="#DejaVuSans-49"/>
     <use x="1347.363281" xlink:href="#DejaVuSans-48"/>
     <use x="1410.986328" xlink:href="#DejaVuSans-45"/>
    </g>
   </g>
   <g id="legend_1">
    <g id="patch_7">
     <path d="M 359.25625 150.16875 
L 414.2 150.16875 
Q 416.2 150.16875 416.2 148.16875 
L 416.2 61.1 
Q 416.2 59.1 414.2 59.1 
L 359.25625 59.1 
Q 357.25625 59.1 357.25625 61.1 
L 357.25625 148.16875 
Q 357.25625 150.16875 359.25625 150.16875 
z
" style="fill:#ffffff;opacity:0.8;stroke:#cccccc;stroke-linejoin:miter;"/>
    </g>
    <g id="line2d_67">
     <path d="M 361.25625 67.198438 
L 381.25625 67.198438 
" style="fill:none;stroke:#1f77b4;stroke-linecap:square;stroke-opacity:0.6;stroke-width:1.5;"/>
    </g>
    <g id="line2d_68"/>
    <g id="text_16">
     <!-- 0mA -->
     <g transform="translate(389.25625 70.698438)scale(0.1 -0.1)">
      <defs>
       <path d="M 34.1875 63.1875 
L 20.796875 26.90625 
L 47.609375 26.90625 
z
M 28.609375 72.90625 
L 39.796875 72.90625 
L 67.578125 0 
L 57.328125 0 
L 50.6875 18.703125 
L 17.828125 18.703125 
L 11.1875 0 
L 0.78125 0 
z
" id="DejaVuSans-65"/>
      </defs>
      <use xlink:href="#DejaVuSans-48"/>
      <use x="63.623047" xlink:href="#DejaVuSans-109"/>
      <use x="161.035156" xlink:href="#DejaVuSans-65"/>
     </g>
    </g>
    <g id="line2d_69">
     <path d="M 361.25625 81.876563 
L 381.25625 81.876563 
" style="fill:none;stroke:#ff7f0e;stroke-linecap:square;stroke-opacity:0.6;stroke-width:1.5;"/>
    </g>
    <g id="line2d_70"/>
    <g id="text_17">
     <!-- 1mA -->
     <g transform="translate(389.25625 85.376563)scale(0.1 -0.1)">
      <use xlink:href="#DejaVuSans-49"/>
      <use x="63.623047" xlink:href="#DejaVuSans-109"/>
      <use x="161.035156" xlink:href="#DejaVuSans-65"/>
     </g>
    </g>
    <g id="line2d_71">
     <path d="M 361.25625 96.554688 
L 381.25625 96.554688 
" style="fill:none;stroke:#2ca02c;stroke-linecap:square;stroke-opacity:0.6;stroke-width:1.5;"/>
    </g>
    <g id="line2d_72"/>
    <g id="text_18">
     <!-- 2mA -->
     <g transform="translate(389.25625 100.054688)scale(0.1 -0.1)">
      <use xlink:href="#DejaVuSans-50"/>
      <use x="63.623047" xlink:href="#DejaVuSans-109"/>
      <use x="161.035156" xlink:href="#DejaVuSans-65"/>
     </g>
    </g>
    <g id="line2d_73">
     <path d="M 361.25625 111.232813 
L 381.25625 111.232813 
" style="fill:none;stroke:#d62728;stroke-linecap:square;stroke-opacity:0.6;stroke-width:1.5;"/>
    </g>
    <g id="line2d_74"/>
    <g id="text_19">
     <!-- 3mA -->
     <g transform="translate(389.25625 114.732813)scale(0.1 -0.1)">
      <use xlink:href="#DejaVuSans-51"/>
      <use x="63.623047" xlink:href="#DejaVuSans-109"/>
      <use x="161.035156" xlink:href="#DejaVuSans-65"/>
     </g>
    </g>
    <g id="line2d_75">
     <path d="M 361.25625 125.910938 
L 381.25625 125.910938 
" style="fill:none;stroke:#9467bd;stroke-linecap:square;stroke-opacity:0.6;stroke-width:1.5;"/>
    </g>
    <g id="line2d_76"/>
    <g id="text_20">
     <!-- 4mA -->
     <g transform="translate(389.25625 129.410938)scale(0.1 -0.1)">
      <use xlink:href="#DejaVuSans-52"/>
      <use x="63.623047" xlink:href="#DejaVuSans-109"/>
      <use x="161.035156" xlink:href="#DejaVuSans-65"/>
     </g>
    </g>
    <g id="line2d_77">
     <path d="M 361.25625 140.589063 
L 381.25625 140.589063 
" style="fill:none;stroke:#8c564b;stroke-linecap:square;stroke-opacity:0.6;stroke-width:1.5;"/>
    </g>
    <g id="line2d_78"/>
    <g id="text_21">
     <!-- 5mA -->
     <g transform="translate(389.25625 144.089063)scale(0.1 -0.1)">
      <use xlink:href="#DejaVuSans-53"/>
      <use x="63.623047" xlink:href="#DejaVuSans-109"/>
      <use x="161.035156" xlink:href="#DejaVuSans-65"/>
     </g>
    </g>
   </g>
  </g>
 </g>
 <defs>
  <clipPath id="pafce250205">
   <rect height="193.1" width="361.822793" x="59.377207" y="54.1"/>
  </clipPath>
 </defs>
</svg>
