<?xml version="1.0" encoding="utf-8" standalone="no"?>
<!DOCTYPE svg PUBLIC "-//W3C//DTD SVG 1.1//EN"
  "http://www.w3.org/Graphics/SVG/1.1/DTD/svg11.dtd">
<!-- Created with matplotlib (https://matplotlib.org/) -->
<svg height="288pt" version="1.1" viewBox="0 0 432 288" width="432pt" xmlns="http://www.w3.org/2000/svg" xmlns:xlink="http://www.w3.org/1999/xlink">
 <metadata>
  <rdf:RDF xmlns:cc="http://creativecommons.org/ns#" xmlns:dc="http://purl.org/dc/elements/1.1/" xmlns:rdf="http://www.w3.org/1999/02/22-rdf-syntax-ns#">
   <cc:Work>
    <dc:type rdf:resource="http://purl.org/dc/dcmitype/StillImage"/>
    <dc:date>2021-06-03T18:20:01.415400</dc:date>
    <dc:format>image/svg+xml</dc:format>
    <dc:creator>
     <cc:Agent>
      <dc:title>Matplotlib v3.3.4, https://matplotlib.org/</dc:title>
     </cc:Agent>
    </dc:creator>
   </cc:Work>
  </rdf:RDF>
 </metadata>
 <defs>
  <style type="text/css">*{stroke-linecap:butt;stroke-linejoin:round;}</style>
 </defs>
 <g id="figure_1">
  <g id="patch_1">
   <path d="M 0 288 
L 432 288 
L 432 0 
L 0 0 
z
" style="fill:#ffffff;"/>
  </g>
  <g id="axes_1">
   <g id="patch_2">
    <path d="M 55.55 225.972759 
L 421.2 225.972759 
L 421.2 54.1 
L 55.55 54.1 
z
" style="fill:#ffffff;"/>
   </g>
   <g id="matplotlib.axis_1">
    <g id="xtick_1">
     <g id="line2d_1">
      <defs>
       <path d="M 0 0 
L 0 3.5 
" id="m18bbc50cb3" style="stroke:#000000;stroke-width:0.8;"/>
      </defs>
      <g>
       <use style="stroke:#000000;stroke-width:0.8;" x="82.210999" xlink:href="#m18bbc50cb3" y="225.972759"/>
      </g>
     </g>
     <g id="text_1">
      <!-- 14:13:32 -->
      <g transform="translate(64.143003 262.009449)rotate(-30)scale(0.1 -0.1)">
       <defs>
        <path d="M 12.40625 8.296875 
L 28.515625 8.296875 
L 28.515625 63.921875 
L 10.984375 60.40625 
L 10.984375 69.390625 
L 28.421875 72.90625 
L 38.28125 72.90625 
L 38.28125 8.296875 
L 54.390625 8.296875 
L 54.390625 0 
L 12.40625 0 
z
" id="DejaVuSans-49"/>
        <path d="M 37.796875 64.3125 
L 12.890625 25.390625 
L 37.796875 25.390625 
z
M 35.203125 72.90625 
L 47.609375 72.90625 
L 47.609375 25.390625 
L 58.015625 25.390625 
L 58.015625 17.1875 
L 47.609375 17.1875 
L 47.609375 0 
L 37.796875 0 
L 37.796875 17.1875 
L 4.890625 17.1875 
L 4.890625 26.703125 
z
" id="DejaVuSans-52"/>
        <path d="M 11.71875 12.40625 
L 22.015625 12.40625 
L 22.015625 0 
L 11.71875 0 
z
M 11.71875 51.703125 
L 22.015625 51.703125 
L 22.015625 39.3125 
L 11.71875 39.3125 
z
" id="DejaVuSans-58"/>
        <path d="M 40.578125 39.3125 
Q 47.65625 37.796875 51.625 33 
Q 55.609375 28.21875 55.609375 21.1875 
Q 55.609375 10.40625 48.1875 4.484375 
Q 40.765625 -1.421875 27.09375 -1.421875 
Q 22.515625 -1.421875 17.65625 -0.515625 
Q 12.796875 0.390625 7.625 2.203125 
L 7.625 11.71875 
Q 11.71875 9.328125 16.59375 8.109375 
Q 21.484375 6.890625 26.8125 6.890625 
Q 36.078125 6.890625 40.9375 10.546875 
Q 45.796875 14.203125 45.796875 21.1875 
Q 45.796875 27.640625 41.28125 31.265625 
Q 36.765625 34.90625 28.71875 34.90625 
L 20.21875 34.90625 
L 20.21875 43.015625 
L 29.109375 43.015625 
Q 36.375 43.015625 40.234375 45.921875 
Q 44.09375 48.828125 44.09375 54.296875 
Q 44.09375 59.90625 40.109375 62.90625 
Q 36.140625 65.921875 28.71875 65.921875 
Q 24.65625 65.921875 20.015625 65.03125 
Q 15.375 64.15625 9.8125 62.3125 
L 9.8125 71.09375 
Q 15.4375 72.65625 20.34375 73.4375 
Q 25.25 74.21875 29.59375 74.21875 
Q 40.828125 74.21875 47.359375 69.109375 
Q 53.90625 64.015625 53.90625 55.328125 
Q 53.90625 49.265625 50.4375 45.09375 
Q 46.96875 40.921875 40.578125 39.3125 
z
" id="DejaVuSans-51"/>
        <path d="M 19.1875 8.296875 
L 53.609375 8.296875 
L 53.609375 0 
L 7.328125 0 
L 7.328125 8.296875 
Q 12.9375 14.109375 22.625 23.890625 
Q 32.328125 33.6875 34.8125 36.53125 
Q 39.546875 41.84375 41.421875 45.53125 
Q 43.3125 49.21875 43.3125 52.78125 
Q 43.3125 58.59375 39.234375 62.25 
Q 35.15625 65.921875 28.609375 65.921875 
Q 23.96875 65.921875 18.8125 64.3125 
Q 13.671875 62.703125 7.8125 59.421875 
L 7.8125 69.390625 
Q 13.765625 71.78125 18.9375 73 
Q 24.125 74.21875 28.421875 74.21875 
Q 39.75 74.21875 46.484375 68.546875 
Q 53.21875 62.890625 53.21875 53.421875 
Q 53.21875 48.921875 51.53125 44.890625 
Q 49.859375 40.875 45.40625 35.40625 
Q 44.1875 33.984375 37.640625 27.21875 
Q 31.109375 20.453125 19.1875 8.296875 
z
" id="DejaVuSans-50"/>
       </defs>
       <use xlink:href="#DejaVuSans-49"/>
       <use x="63.623047" xlink:href="#DejaVuSans-52"/>
       <use x="127.246094" xlink:href="#DejaVuSans-58"/>
       <use x="160.9375" xlink:href="#DejaVuSans-49"/>
       <use x="224.560547" xlink:href="#DejaVuSans-51"/>
       <use x="288.183594" xlink:href="#DejaVuSans-58"/>
       <use x="321.875" xlink:href="#DejaVuSans-51"/>
       <use x="385.498047" xlink:href="#DejaVuSans-50"/>
      </g>
     </g>
    </g>
    <g id="xtick_2">
     <g id="line2d_2">
      <g>
       <use style="stroke:#000000;stroke-width:0.8;" x="152.451752" xlink:href="#m18bbc50cb3" y="225.972759"/>
      </g>
     </g>
     <g id="text_2">
      <!-- 14:13:33 -->
      <g transform="translate(134.383756 262.009449)rotate(-30)scale(0.1 -0.1)">
       <use xlink:href="#DejaVuSans-49"/>
       <use x="63.623047" xlink:href="#DejaVuSans-52"/>
       <use x="127.246094" xlink:href="#DejaVuSans-58"/>
       <use x="160.9375" xlink:href="#DejaVuSans-49"/>
       <use x="224.560547" xlink:href="#DejaVuSans-51"/>
       <use x="288.183594" xlink:href="#DejaVuSans-58"/>
       <use x="321.875" xlink:href="#DejaVuSans-51"/>
       <use x="385.498047" xlink:href="#DejaVuSans-51"/>
      </g>
     </g>
    </g>
    <g id="xtick_3">
     <g id="line2d_3">
      <g>
       <use style="stroke:#000000;stroke-width:0.8;" x="222.69249" xlink:href="#m18bbc50cb3" y="225.972759"/>
      </g>
     </g>
     <g id="text_3">
      <!-- 14:13:34 -->
      <g transform="translate(204.624494 262.009449)rotate(-30)scale(0.1 -0.1)">
       <use xlink:href="#DejaVuSans-49"/>
       <use x="63.623047" xlink:href="#DejaVuSans-52"/>
       <use x="127.246094" xlink:href="#DejaVuSans-58"/>
       <use x="160.9375" xlink:href="#DejaVuSans-49"/>
       <use x="224.560547" xlink:href="#DejaVuSans-51"/>
       <use x="288.183594" xlink:href="#DejaVuSans-58"/>
       <use x="321.875" xlink:href="#DejaVuSans-51"/>
       <use x="385.498047" xlink:href="#DejaVuSans-52"/>
      </g>
     </g>
    </g>
    <g id="xtick_4">
     <g id="line2d_4">
      <g>
       <use style="stroke:#000000;stroke-width:0.8;" x="292.933228" xlink:href="#m18bbc50cb3" y="225.972759"/>
      </g>
     </g>
     <g id="text_4">
      <!-- 14:13:35 -->
      <g transform="translate(274.865232 262.009449)rotate(-30)scale(0.1 -0.1)">
       <defs>
        <path d="M 10.796875 72.90625 
L 49.515625 72.90625 
L 49.515625 64.59375 
L 19.828125 64.59375 
L 19.828125 46.734375 
Q 21.96875 47.46875 24.109375 47.828125 
Q 26.265625 48.1875 28.421875 48.1875 
Q 40.625 48.1875 47.75 41.5 
Q 54.890625 34.8125 54.890625 23.390625 
Q 54.890625 11.625 47.5625 5.09375 
Q 40.234375 -1.421875 26.90625 -1.421875 
Q 22.3125 -1.421875 17.546875 -0.640625 
Q 12.796875 0.140625 7.71875 1.703125 
L 7.71875 11.625 
Q 12.109375 9.234375 16.796875 8.0625 
Q 21.484375 6.890625 26.703125 6.890625 
Q 35.15625 6.890625 40.078125 11.328125 
Q 45.015625 15.765625 45.015625 23.390625 
Q 45.015625 31 40.078125 35.4375 
Q 35.15625 39.890625 26.703125 39.890625 
Q 22.75 39.890625 18.8125 39.015625 
Q 14.890625 38.140625 10.796875 36.28125 
z
" id="DejaVuSans-53"/>
       </defs>
       <use xlink:href="#DejaVuSans-49"/>
       <use x="63.623047" xlink:href="#DejaVuSans-52"/>
       <use x="127.246094" xlink:href="#DejaVuSans-58"/>
       <use x="160.9375" xlink:href="#DejaVuSans-49"/>
       <use x="224.560547" xlink:href="#DejaVuSans-51"/>
       <use x="288.183594" xlink:href="#DejaVuSans-58"/>
       <use x="321.875" xlink:href="#DejaVuSans-51"/>
       <use x="385.498047" xlink:href="#DejaVuSans-53"/>
      </g>
     </g>
    </g>
    <g id="xtick_5">
     <g id="line2d_5">
      <g>
       <use style="stroke:#000000;stroke-width:0.8;" x="363.17395" xlink:href="#m18bbc50cb3" y="225.972759"/>
      </g>
     </g>
     <g id="text_5">
      <!-- 14:13:36 -->
      <g transform="translate(345.105955 262.009449)rotate(-30)scale(0.1 -0.1)">
       <defs>
        <path d="M 33.015625 40.375 
Q 26.375 40.375 22.484375 35.828125 
Q 18.609375 31.296875 18.609375 23.390625 
Q 18.609375 15.53125 22.484375 10.953125 
Q 26.375 6.390625 33.015625 6.390625 
Q 39.65625 6.390625 43.53125 10.953125 
Q 47.40625 15.53125 47.40625 23.390625 
Q 47.40625 31.296875 43.53125 35.828125 
Q 39.65625 40.375 33.015625 40.375 
z
M 52.59375 71.296875 
L 52.59375 62.3125 
Q 48.875 64.0625 45.09375 64.984375 
Q 41.3125 65.921875 37.59375 65.921875 
Q 27.828125 65.921875 22.671875 59.328125 
Q 17.53125 52.734375 16.796875 39.40625 
Q 19.671875 43.65625 24.015625 45.921875 
Q 28.375 48.1875 33.59375 48.1875 
Q 44.578125 48.1875 50.953125 41.515625 
Q 57.328125 34.859375 57.328125 23.390625 
Q 57.328125 12.15625 50.6875 5.359375 
Q 44.046875 -1.421875 33.015625 -1.421875 
Q 20.359375 -1.421875 13.671875 8.265625 
Q 6.984375 17.96875 6.984375 36.375 
Q 6.984375 53.65625 15.1875 63.9375 
Q 23.390625 74.21875 37.203125 74.21875 
Q 40.921875 74.21875 44.703125 73.484375 
Q 48.484375 72.75 52.59375 71.296875 
z
" id="DejaVuSans-54"/>
       </defs>
       <use xlink:href="#DejaVuSans-49"/>
       <use x="63.623047" xlink:href="#DejaVuSans-52"/>
       <use x="127.246094" xlink:href="#DejaVuSans-58"/>
       <use x="160.9375" xlink:href="#DejaVuSans-49"/>
       <use x="224.560547" xlink:href="#DejaVuSans-51"/>
       <use x="288.183594" xlink:href="#DejaVuSans-58"/>
       <use x="321.875" xlink:href="#DejaVuSans-51"/>
       <use x="385.498047" xlink:href="#DejaVuSans-54"/>
      </g>
     </g>
    </g>
    <g id="text_6">
     <!-- time (HH:MM:SS) -->
     <g transform="translate(195.722656 275.408948)scale(0.1 -0.1)">
      <defs>
       <path d="M 18.3125 70.21875 
L 18.3125 54.6875 
L 36.8125 54.6875 
L 36.8125 47.703125 
L 18.3125 47.703125 
L 18.3125 18.015625 
Q 18.3125 11.328125 20.140625 9.421875 
Q 21.96875 7.515625 27.59375 7.515625 
L 36.8125 7.515625 
L 36.8125 0 
L 27.59375 0 
Q 17.1875 0 13.234375 3.875 
Q 9.28125 7.765625 9.28125 18.015625 
L 9.28125 47.703125 
L 2.6875 47.703125 
L 2.6875 54.6875 
L 9.28125 54.6875 
L 9.28125 70.21875 
z
" id="DejaVuSans-116"/>
       <path d="M 9.421875 54.6875 
L 18.40625 54.6875 
L 18.40625 0 
L 9.421875 0 
z
M 9.421875 75.984375 
L 18.40625 75.984375 
L 18.40625 64.59375 
L 9.421875 64.59375 
z
" id="DejaVuSans-105"/>
       <path d="M 52 44.1875 
Q 55.375 50.25 60.0625 53.125 
Q 64.75 56 71.09375 56 
Q 79.640625 56 84.28125 50.015625 
Q 88.921875 44.046875 88.921875 33.015625 
L 88.921875 0 
L 79.890625 0 
L 79.890625 32.71875 
Q 79.890625 40.578125 77.09375 44.375 
Q 74.3125 48.1875 68.609375 48.1875 
Q 61.625 48.1875 57.5625 43.546875 
Q 53.515625 38.921875 53.515625 30.90625 
L 53.515625 0 
L 44.484375 0 
L 44.484375 32.71875 
Q 44.484375 40.625 41.703125 44.40625 
Q 38.921875 48.1875 33.109375 48.1875 
Q 26.21875 48.1875 22.15625 43.53125 
Q 18.109375 38.875 18.109375 30.90625 
L 18.109375 0 
L 9.078125 0 
L 9.078125 54.6875 
L 18.109375 54.6875 
L 18.109375 46.1875 
Q 21.1875 51.21875 25.484375 53.609375 
Q 29.78125 56 35.6875 56 
Q 41.65625 56 45.828125 52.96875 
Q 50 49.953125 52 44.1875 
z
" id="DejaVuSans-109"/>
       <path d="M 56.203125 29.59375 
L 56.203125 25.203125 
L 14.890625 25.203125 
Q 15.484375 15.921875 20.484375 11.0625 
Q 25.484375 6.203125 34.421875 6.203125 
Q 39.59375 6.203125 44.453125 7.46875 
Q 49.3125 8.734375 54.109375 11.28125 
L 54.109375 2.78125 
Q 49.265625 0.734375 44.1875 -0.34375 
Q 39.109375 -1.421875 33.890625 -1.421875 
Q 20.796875 -1.421875 13.15625 6.1875 
Q 5.515625 13.8125 5.515625 26.8125 
Q 5.515625 40.234375 12.765625 48.109375 
Q 20.015625 56 32.328125 56 
Q 43.359375 56 49.78125 48.890625 
Q 56.203125 41.796875 56.203125 29.59375 
z
M 47.21875 32.234375 
Q 47.125 39.59375 43.09375 43.984375 
Q 39.0625 48.390625 32.421875 48.390625 
Q 24.90625 48.390625 20.390625 44.140625 
Q 15.875 39.890625 15.1875 32.171875 
z
" id="DejaVuSans-101"/>
       <path id="DejaVuSans-32"/>
       <path d="M 31 75.875 
Q 24.46875 64.65625 21.28125 53.65625 
Q 18.109375 42.671875 18.109375 31.390625 
Q 18.109375 20.125 21.3125 9.0625 
Q 24.515625 -2 31 -13.1875 
L 23.1875 -13.1875 
Q 15.875 -1.703125 12.234375 9.375 
Q 8.59375 20.453125 8.59375 31.390625 
Q 8.59375 42.28125 12.203125 53.3125 
Q 15.828125 64.359375 23.1875 75.875 
z
" id="DejaVuSans-40"/>
       <path d="M 9.8125 72.90625 
L 19.671875 72.90625 
L 19.671875 43.015625 
L 55.515625 43.015625 
L 55.515625 72.90625 
L 65.375 72.90625 
L 65.375 0 
L 55.515625 0 
L 55.515625 34.71875 
L 19.671875 34.71875 
L 19.671875 0 
L 9.8125 0 
z
" id="DejaVuSans-72"/>
       <path d="M 9.8125 72.90625 
L 24.515625 72.90625 
L 43.109375 23.296875 
L 61.8125 72.90625 
L 76.515625 72.90625 
L 76.515625 0 
L 66.890625 0 
L 66.890625 64.015625 
L 48.09375 14.015625 
L 38.1875 14.015625 
L 19.390625 64.015625 
L 19.390625 0 
L 9.8125 0 
z
" id="DejaVuSans-77"/>
       <path d="M 53.515625 70.515625 
L 53.515625 60.890625 
Q 47.90625 63.578125 42.921875 64.890625 
Q 37.9375 66.21875 33.296875 66.21875 
Q 25.25 66.21875 20.875 63.09375 
Q 16.5 59.96875 16.5 54.203125 
Q 16.5 49.359375 19.40625 46.890625 
Q 22.3125 44.4375 30.421875 42.921875 
L 36.375 41.703125 
Q 47.40625 39.59375 52.65625 34.296875 
Q 57.90625 29 57.90625 20.125 
Q 57.90625 9.515625 50.796875 4.046875 
Q 43.703125 -1.421875 29.984375 -1.421875 
Q 24.8125 -1.421875 18.96875 -0.25 
Q 13.140625 0.921875 6.890625 3.21875 
L 6.890625 13.375 
Q 12.890625 10.015625 18.65625 8.296875 
Q 24.421875 6.59375 29.984375 6.59375 
Q 38.421875 6.59375 43.015625 9.90625 
Q 47.609375 13.234375 47.609375 19.390625 
Q 47.609375 24.75 44.3125 27.78125 
Q 41.015625 30.8125 33.5 32.328125 
L 27.484375 33.5 
Q 16.453125 35.6875 11.515625 40.375 
Q 6.59375 45.0625 6.59375 53.421875 
Q 6.59375 63.09375 13.40625 68.65625 
Q 20.21875 74.21875 32.171875 74.21875 
Q 37.3125 74.21875 42.625 73.28125 
Q 47.953125 72.359375 53.515625 70.515625 
z
" id="DejaVuSans-83"/>
       <path d="M 8.015625 75.875 
L 15.828125 75.875 
Q 23.140625 64.359375 26.78125 53.3125 
Q 30.421875 42.28125 30.421875 31.390625 
Q 30.421875 20.453125 26.78125 9.375 
Q 23.140625 -1.703125 15.828125 -13.1875 
L 8.015625 -13.1875 
Q 14.5 -2 17.703125 9.0625 
Q 20.90625 20.125 20.90625 31.390625 
Q 20.90625 42.671875 17.703125 53.65625 
Q 14.5 64.65625 8.015625 75.875 
z
" id="DejaVuSans-41"/>
      </defs>
      <use xlink:href="#DejaVuSans-116"/>
      <use x="39.208984" xlink:href="#DejaVuSans-105"/>
      <use x="66.992188" xlink:href="#DejaVuSans-109"/>
      <use x="164.404297" xlink:href="#DejaVuSans-101"/>
      <use x="225.927734" xlink:href="#DejaVuSans-32"/>
      <use x="257.714844" xlink:href="#DejaVuSans-40"/>
      <use x="296.728516" xlink:href="#DejaVuSans-72"/>
      <use x="371.923828" xlink:href="#DejaVuSans-72"/>
      <use x="447.119141" xlink:href="#DejaVuSans-58"/>
      <use x="480.810547" xlink:href="#DejaVuSans-77"/>
      <use x="567.089844" xlink:href="#DejaVuSans-77"/>
      <use x="653.369141" xlink:href="#DejaVuSans-58"/>
      <use x="687.060547" xlink:href="#DejaVuSans-83"/>
      <use x="750.537109" xlink:href="#DejaVuSans-83"/>
      <use x="814.013672" xlink:href="#DejaVuSans-41"/>
     </g>
    </g>
   </g>
   <g id="matplotlib.axis_2">
    <g id="ytick_1">
     <g id="line2d_6">
      <defs>
       <path d="M 0 0 
L -3.5 0 
" id="mc04c6ebd48" style="stroke:#000000;stroke-width:0.8;"/>
      </defs>
      <g>
       <use style="stroke:#000000;stroke-width:0.8;" x="55.55" xlink:href="#mc04c6ebd48" y="218.280568"/>
      </g>
     </g>
     <g id="text_7">
      <!-- −0.06 -->
      <g transform="translate(17.904687 222.079787)scale(0.1 -0.1)">
       <defs>
        <path d="M 10.59375 35.5 
L 73.1875 35.5 
L 73.1875 27.203125 
L 10.59375 27.203125 
z
" id="DejaVuSans-8722"/>
        <path d="M 31.78125 66.40625 
Q 24.171875 66.40625 20.328125 58.90625 
Q 16.5 51.421875 16.5 36.375 
Q 16.5 21.390625 20.328125 13.890625 
Q 24.171875 6.390625 31.78125 6.390625 
Q 39.453125 6.390625 43.28125 13.890625 
Q 47.125 21.390625 47.125 36.375 
Q 47.125 51.421875 43.28125 58.90625 
Q 39.453125 66.40625 31.78125 66.40625 
z
M 31.78125 74.21875 
Q 44.046875 74.21875 50.515625 64.515625 
Q 56.984375 54.828125 56.984375 36.375 
Q 56.984375 17.96875 50.515625 8.265625 
Q 44.046875 -1.421875 31.78125 -1.421875 
Q 19.53125 -1.421875 13.0625 8.265625 
Q 6.59375 17.96875 6.59375 36.375 
Q 6.59375 54.828125 13.0625 64.515625 
Q 19.53125 74.21875 31.78125 74.21875 
z
" id="DejaVuSans-48"/>
        <path d="M 10.6875 12.40625 
L 21 12.40625 
L 21 0 
L 10.6875 0 
z
" id="DejaVuSans-46"/>
       </defs>
       <use xlink:href="#DejaVuSans-8722"/>
       <use x="83.789062" xlink:href="#DejaVuSans-48"/>
       <use x="147.412109" xlink:href="#DejaVuSans-46"/>
       <use x="179.199219" xlink:href="#DejaVuSans-48"/>
       <use x="242.822266" xlink:href="#DejaVuSans-54"/>
      </g>
     </g>
    </g>
    <g id="ytick_2">
     <g id="line2d_7">
      <g>
       <use style="stroke:#000000;stroke-width:0.8;" x="55.55" xlink:href="#mc04c6ebd48" y="186.976756"/>
      </g>
     </g>
     <g id="text_8">
      <!-- −0.05 -->
      <g transform="translate(17.904687 190.775975)scale(0.1 -0.1)">
       <use xlink:href="#DejaVuSans-8722"/>
       <use x="83.789062" xlink:href="#DejaVuSans-48"/>
       <use x="147.412109" xlink:href="#DejaVuSans-46"/>
       <use x="179.199219" xlink:href="#DejaVuSans-48"/>
       <use x="242.822266" xlink:href="#DejaVuSans-53"/>
      </g>
     </g>
    </g>
    <g id="ytick_3">
     <g id="line2d_8">
      <g>
       <use style="stroke:#000000;stroke-width:0.8;" x="55.55" xlink:href="#mc04c6ebd48" y="155.672944"/>
      </g>
     </g>
     <g id="text_9">
      <!-- −0.04 -->
      <g transform="translate(17.904687 159.472163)scale(0.1 -0.1)">
       <use xlink:href="#DejaVuSans-8722"/>
       <use x="83.789062" xlink:href="#DejaVuSans-48"/>
       <use x="147.412109" xlink:href="#DejaVuSans-46"/>
       <use x="179.199219" xlink:href="#DejaVuSans-48"/>
       <use x="242.822266" xlink:href="#DejaVuSans-52"/>
      </g>
     </g>
    </g>
    <g id="ytick_4">
     <g id="line2d_9">
      <g>
       <use style="stroke:#000000;stroke-width:0.8;" x="55.55" xlink:href="#mc04c6ebd48" y="124.369132"/>
      </g>
     </g>
     <g id="text_10">
      <!-- −0.03 -->
      <g transform="translate(17.904687 128.16835)scale(0.1 -0.1)">
       <use xlink:href="#DejaVuSans-8722"/>
       <use x="83.789062" xlink:href="#DejaVuSans-48"/>
       <use x="147.412109" xlink:href="#DejaVuSans-46"/>
       <use x="179.199219" xlink:href="#DejaVuSans-48"/>
       <use x="242.822266" xlink:href="#DejaVuSans-51"/>
      </g>
     </g>
    </g>
    <g id="ytick_5">
     <g id="line2d_10">
      <g>
       <use style="stroke:#000000;stroke-width:0.8;" x="55.55" xlink:href="#mc04c6ebd48" y="93.06532"/>
      </g>
     </g>
     <g id="text_11">
      <!-- −0.02 -->
      <g transform="translate(17.904687 96.864538)scale(0.1 -0.1)">
       <use xlink:href="#DejaVuSans-8722"/>
       <use x="83.789062" xlink:href="#DejaVuSans-48"/>
       <use x="147.412109" xlink:href="#DejaVuSans-46"/>
       <use x="179.199219" xlink:href="#DejaVuSans-48"/>
       <use x="242.822266" xlink:href="#DejaVuSans-50"/>
      </g>
     </g>
    </g>
    <g id="ytick_6">
     <g id="line2d_11">
      <g>
       <use style="stroke:#000000;stroke-width:0.8;" x="55.55" xlink:href="#mc04c6ebd48" y="61.761507"/>
      </g>
     </g>
     <g id="text_12">
      <!-- −0.01 -->
      <g transform="translate(17.904687 65.560726)scale(0.1 -0.1)">
       <use xlink:href="#DejaVuSans-8722"/>
       <use x="83.789062" xlink:href="#DejaVuSans-48"/>
       <use x="147.412109" xlink:href="#DejaVuSans-46"/>
       <use x="179.199219" xlink:href="#DejaVuSans-48"/>
       <use x="242.822266" xlink:href="#DejaVuSans-49"/>
      </g>
     </g>
    </g>
    <g id="text_13">
     <!-- voltage (mV) -->
     <g transform="translate(11.825 172.500442)rotate(-90)scale(0.1 -0.1)">
      <defs>
       <path d="M 2.984375 54.6875 
L 12.5 54.6875 
L 29.59375 8.796875 
L 46.6875 54.6875 
L 56.203125 54.6875 
L 35.6875 0 
L 23.484375 0 
z
" id="DejaVuSans-118"/>
       <path d="M 30.609375 48.390625 
Q 23.390625 48.390625 19.1875 42.75 
Q 14.984375 37.109375 14.984375 27.296875 
Q 14.984375 17.484375 19.15625 11.84375 
Q 23.34375 6.203125 30.609375 6.203125 
Q 37.796875 6.203125 41.984375 11.859375 
Q 46.1875 17.53125 46.1875 27.296875 
Q 46.1875 37.015625 41.984375 42.703125 
Q 37.796875 48.390625 30.609375 48.390625 
z
M 30.609375 56 
Q 42.328125 56 49.015625 48.375 
Q 55.71875 40.765625 55.71875 27.296875 
Q 55.71875 13.875 49.015625 6.21875 
Q 42.328125 -1.421875 30.609375 -1.421875 
Q 18.84375 -1.421875 12.171875 6.21875 
Q 5.515625 13.875 5.515625 27.296875 
Q 5.515625 40.765625 12.171875 48.375 
Q 18.84375 56 30.609375 56 
z
" id="DejaVuSans-111"/>
       <path d="M 9.421875 75.984375 
L 18.40625 75.984375 
L 18.40625 0 
L 9.421875 0 
z
" id="DejaVuSans-108"/>
       <path d="M 34.28125 27.484375 
Q 23.390625 27.484375 19.1875 25 
Q 14.984375 22.515625 14.984375 16.5 
Q 14.984375 11.71875 18.140625 8.90625 
Q 21.296875 6.109375 26.703125 6.109375 
Q 34.1875 6.109375 38.703125 11.40625 
Q 43.21875 16.703125 43.21875 25.484375 
L 43.21875 27.484375 
z
M 52.203125 31.203125 
L 52.203125 0 
L 43.21875 0 
L 43.21875 8.296875 
Q 40.140625 3.328125 35.546875 0.953125 
Q 30.953125 -1.421875 24.3125 -1.421875 
Q 15.921875 -1.421875 10.953125 3.296875 
Q 6 8.015625 6 15.921875 
Q 6 25.140625 12.171875 29.828125 
Q 18.359375 34.515625 30.609375 34.515625 
L 43.21875 34.515625 
L 43.21875 35.40625 
Q 43.21875 41.609375 39.140625 45 
Q 35.0625 48.390625 27.6875 48.390625 
Q 23 48.390625 18.546875 47.265625 
Q 14.109375 46.140625 10.015625 43.890625 
L 10.015625 52.203125 
Q 14.9375 54.109375 19.578125 55.046875 
Q 24.21875 56 28.609375 56 
Q 40.484375 56 46.34375 49.84375 
Q 52.203125 43.703125 52.203125 31.203125 
z
" id="DejaVuSans-97"/>
       <path d="M 45.40625 27.984375 
Q 45.40625 37.75 41.375 43.109375 
Q 37.359375 48.484375 30.078125 48.484375 
Q 22.859375 48.484375 18.828125 43.109375 
Q 14.796875 37.75 14.796875 27.984375 
Q 14.796875 18.265625 18.828125 12.890625 
Q 22.859375 7.515625 30.078125 7.515625 
Q 37.359375 7.515625 41.375 12.890625 
Q 45.40625 18.265625 45.40625 27.984375 
z
M 54.390625 6.78125 
Q 54.390625 -7.171875 48.1875 -13.984375 
Q 42 -20.796875 29.203125 -20.796875 
Q 24.46875 -20.796875 20.265625 -20.09375 
Q 16.0625 -19.390625 12.109375 -17.921875 
L 12.109375 -9.1875 
Q 16.0625 -11.328125 19.921875 -12.34375 
Q 23.78125 -13.375 27.78125 -13.375 
Q 36.625 -13.375 41.015625 -8.765625 
Q 45.40625 -4.15625 45.40625 5.171875 
L 45.40625 9.625 
Q 42.625 4.78125 38.28125 2.390625 
Q 33.9375 0 27.875 0 
Q 17.828125 0 11.671875 7.65625 
Q 5.515625 15.328125 5.515625 27.984375 
Q 5.515625 40.671875 11.671875 48.328125 
Q 17.828125 56 27.875 56 
Q 33.9375 56 38.28125 53.609375 
Q 42.625 51.21875 45.40625 46.390625 
L 45.40625 54.6875 
L 54.390625 54.6875 
z
" id="DejaVuSans-103"/>
       <path d="M 28.609375 0 
L 0.78125 72.90625 
L 11.078125 72.90625 
L 34.1875 11.53125 
L 57.328125 72.90625 
L 67.578125 72.90625 
L 39.796875 0 
z
" id="DejaVuSans-86"/>
      </defs>
      <use xlink:href="#DejaVuSans-118"/>
      <use x="59.179688" xlink:href="#DejaVuSans-111"/>
      <use x="120.361328" xlink:href="#DejaVuSans-108"/>
      <use x="148.144531" xlink:href="#DejaVuSans-116"/>
      <use x="187.353516" xlink:href="#DejaVuSans-97"/>
      <use x="248.632812" xlink:href="#DejaVuSans-103"/>
      <use x="312.109375" xlink:href="#DejaVuSans-101"/>
      <use x="373.632812" xlink:href="#DejaVuSans-32"/>
      <use x="405.419922" xlink:href="#DejaVuSans-40"/>
      <use x="444.433594" xlink:href="#DejaVuSans-109"/>
      <use x="541.845703" xlink:href="#DejaVuSans-86"/>
      <use x="610.253906" xlink:href="#DejaVuSans-41"/>
     </g>
    </g>
   </g>
   <g id="line2d_12">
    <path clip-path="url(#p1b4e746659)" d="M 55.519516 160.601446 
L 55.660019 168.864111 
L 55.940964 154.999867 
L 56.081451 161.819991 
L 56.221954 161.715111 
L 56.362427 147.803601 
L 56.502899 145.435021 
L 56.643387 156.558817 
L 56.783875 156.256297 
L 56.924347 148.311563 
L 57.205322 161.176349 
L 57.486267 154.324434 
L 57.62677 162.477799 
L 57.767227 161.591322 
L 57.907715 153.964815 
L 58.188675 164.159905 
L 58.46965 146.072717 
L 58.750595 158.755091 
L 58.891098 148.783293 
L 59.031586 152.341411 
L 59.172043 167.409079 
L 59.312531 165.760457 
L 59.453033 154.122639 
L 59.593491 157.015961 
L 59.733978 164.647314 
L 59.874466 161.31353 
L 60.014938 161.728899 
L 60.155426 171.270583 
L 60.295914 168.544109 
L 60.436386 156.595245 
L 60.576859 161.361693 
L 60.717361 175.012631 
L 60.857849 173.732693 
L 60.998306 168.269608 
L 61.138794 173.247275 
L 61.279266 172.598662 
L 61.419754 162.073333 
L 61.560242 164.550649 
L 61.700714 176.118274 
L 61.841202 169.641293 
L 61.981659 155.129332 
L 62.122177 158.145601 
L 62.26265 164.339973 
L 62.543625 153.632145 
L 62.684082 163.055255 
L 62.82457 162.235524 
L 62.965042 151.025445 
L 63.10553 150.390232 
L 63.246017 152.844894 
L 63.526978 132.450727 
L 63.667465 139.738785 
L 63.807922 140.870718 
L 64.088913 120.208086 
L 64.369858 133.093642 
L 64.510345 133.302781 
L 64.791306 156.791882 
L 65.072281 142.148066 
L 65.212738 151.149883 
L 65.353241 152.175309 
L 65.493729 143.161686 
L 65.634186 147.076716 
L 65.774689 156.385774 
L 66.055634 144.876069 
L 66.336609 157.370084 
L 66.477081 144.892807 
L 66.617569 143.619893 
L 66.758057 153.728816 
L 66.898544 150.333843 
L 67.039001 139.992934 
L 67.319992 150.801815 
L 67.600952 133.384531 
L 67.741425 138.867451 
L 67.881897 138.858946 
L 68.022385 131.66697 
L 68.303345 142.361783 
L 68.58432 124.427674 
L 68.724808 130.199537 
L 68.865265 129.841168 
L 69.146225 111.683419 
L 69.286713 120.100401 
L 69.4272 116.157067 
L 69.567673 104.277624 
L 69.70816 106.095559 
L 69.848648 111.686481 
L 70.129608 101.633364 
L 70.410583 118.423302 
L 70.551056 107.136995 
L 70.691528 105.983798 
L 70.832031 115.342909 
L 70.972488 113.101494 
L 71.112976 107.273685 
L 71.393936 118.59126 
L 71.534424 110.953044 
L 71.674911 110.523715 
L 71.815384 120.253429 
L 71.955872 119.920055 
L 72.096329 113.550011 
L 72.377304 121.256795 
L 72.517792 111.641 
L 72.658295 111.126308 
L 72.798752 124.422485 
L 72.93924 123.953568 
L 73.079712 109.344046 
L 73.2202 107.344332 
L 73.360687 115.320858 
L 73.501175 115.745485 
L 73.641647 118.437322 
L 73.782135 129.930286 
L 73.922592 130.742483 
L 74.063095 121.036095 
L 74.203568 125.164617 
L 74.34404 138.375768 
L 74.484528 137.902792 
L 74.625015 134.038023 
L 74.905975 148.403332 
L 75.186951 132.932086 
L 75.327408 144.460654 
L 75.467911 146.038152 
L 75.608368 135.725996 
L 75.748856 137.557634 
L 75.889359 146.111409 
L 76.170303 135.53564 
L 76.310791 141.670144 
L 76.451279 140.108972 
L 76.591751 125.495194 
L 76.732239 122.897276 
L 76.872726 132.554675 
L 77.013214 130.096211 
L 77.153671 120.648842 
L 77.434631 123.288543 
L 77.715622 110.924487 
L 77.996567 124.165772 
L 78.137054 118.9469 
L 78.418015 134.156019 
L 78.69899 126.878479 
L 78.979935 144.328178 
L 79.260895 128.596384 
L 79.401382 138.756125 
L 79.54187 136.226114 
L 79.682343 127.879775 
L 79.963318 142.663791 
L 80.103806 139.995326 
L 80.244263 143.942346 
L 80.38475 154.300112 
L 80.525253 147.455079 
L 80.66571 132.004194 
L 80.806198 136.452451 
L 80.946701 149.836133 
L 81.227646 143.385858 
L 81.508606 156.003884 
L 81.649094 143.624805 
L 81.789581 144.532842 
L 81.930054 159.02965 
L 82.070526 159.460735 
L 82.210999 149.695417 
L 82.351517 151.362873 
L 82.491974 155.046316 
L 82.772934 144.835805 
L 82.913422 151.590133 
L 83.053909 146.916372 
L 83.194382 134.536362 
L 83.334869 137.935075 
L 83.475327 148.87917 
L 83.615845 147.264581 
L 83.756317 144.026994 
L 84.037262 153.636809 
L 84.177765 147.446484 
L 84.318237 151.908525 
L 84.45871 164.1891 
L 84.599197 163.158322 
L 84.739685 156.544851 
L 84.880173 160.505699 
L 85.020645 160.391464 
L 85.30159 144.262657 
L 85.442078 155.125235 
L 85.582581 154.80977 
L 85.723038 144.362677 
L 85.863525 147.734169 
L 86.004013 156.904271 
L 86.284973 145.040538 
L 86.565948 158.270468 
L 86.846909 147.167224 
L 86.987396 153.09921 
L 87.268341 140.161325 
L 87.549301 154.202577 
L 87.689789 146.462307 
L 87.830276 145.494313 
L 88.111237 162.214144 
L 88.251724 154.063644 
L 88.392212 155.901614 
L 88.532669 162.171267 
L 88.81366 154.128909 
L 89.094604 177.247728 
L 89.375565 165.58644 
L 89.516052 171.31516 
L 89.797012 155.021858 
L 90.077988 168.070915 
L 90.358932 157.49891 
L 90.639893 175.023839 
L 90.78038 163.75643 
L 90.920868 161.454275 
L 91.06134 167.024418 
L 91.342316 159.851586 
L 91.623276 174.341198 
L 91.904251 156.485903 
L 92.044724 162.935244 
L 92.185196 161.763819 
L 92.325668 155.439215 
L 92.606644 162.595932 
L 92.887604 148.306774 
L 93.028091 154.571695 
L 93.168549 151.906114 
L 93.309052 141.68338 
L 93.449539 145.10792 
L 93.589996 153.741761 
L 93.870972 141.581417 
L 94.151932 153.300549 
L 94.292419 145.454324 
L 94.432907 146.388877 
L 94.57338 157.022968 
L 94.713867 154.651272 
L 94.854355 146.331095 
L 95.135315 159.007588 
L 95.41626 140.075014 
L 95.556763 144.227839 
L 95.697235 143.482587 
L 95.837708 136.437194 
L 95.978195 140.080538 
L 96.118683 148.617969 
L 96.399643 141.624186 
L 96.680618 155.586728 
L 96.821075 151.031418 
L 96.961578 156.880098 
L 97.102036 171.216531 
L 97.242523 167.31261 
L 97.383011 151.205421 
L 97.523499 149.180947 
L 97.663971 151.864841 
L 97.944946 133.350632 
L 98.085419 138.990721 
L 98.225891 138.00401 
L 98.366394 130.585725 
L 98.647339 149.921786 
L 98.928299 137.586702 
L 99.209274 157.532693 
L 99.349747 149.96965 
L 99.490234 151.653745 
L 99.630722 164.908118 
L 99.77121 163.542721 
L 99.911682 151.945799 
L 100.052155 152.60497 
L 100.192657 155.272698 
L 100.473602 139.497596 
L 100.614105 146.476675 
L 100.754562 144.486964 
L 100.89505 132.550693 
L 101.035538 131.704791 
L 101.17601 134.258485 
L 101.456985 116.262953 
L 101.737946 136.029662 
L 101.878418 127.197296 
L 102.018921 125.891391 
L 102.159378 135.795869 
L 102.299866 135.481456 
L 102.440338 130.116269 
L 102.721313 140.802678 
L 103.002274 128.795205 
L 103.142761 139.216383 
L 103.283218 139.424239 
L 103.423721 130.301137 
L 103.564194 132.540913 
L 103.704666 137.642496 
L 103.985641 121.772389 
L 104.266602 133.639757 
L 104.407089 124.989844 
L 104.547577 126.295963 
L 104.688049 135.69656 
L 104.968994 122.770879 
L 105.249985 142.662529 
L 105.390457 133.903302 
L 105.53093 132.547619 
L 105.671432 145.682176 
L 105.811905 145.145388 
L 105.952377 131.852651 
L 106.092865 134.195537 
L 106.233353 146.643025 
L 106.37384 146.018102 
L 106.514313 143.098299 
L 106.795258 157.313021 
L 106.935745 150.703219 
L 107.076248 157.262975 
L 107.216705 174.707484 
L 107.357193 173.96209 
L 107.497681 161.894842 
L 107.638168 163.936424 
L 107.778641 168.676264 
L 108.059616 157.649649 
L 108.200073 165.324461 
L 108.340561 163.543789 
L 108.481064 154.79649 
L 108.621521 160.180686 
L 108.762009 170.593035 
L 109.042969 158.234073 
L 109.183456 161.941442 
L 109.323944 161.900411 
L 109.464417 153.838545 
L 109.604904 157.590816 
L 109.745392 167.690541 
L 109.88588 159.84152 
L 110.026337 145.315693 
L 110.166824 147.726248 
L 110.307327 152.890715 
L 110.447784 145.930499 
L 110.588272 147.702427 
L 110.869232 168.679264 
L 111.00972 159.132829 
L 111.150208 160.647038 
L 111.29068 167.217882 
L 111.571655 155.234889 
L 111.8526 178.291795 
L 111.993088 170.847377 
L 112.133591 171.110096 
L 112.274048 183.435924 
L 112.414536 185.633913 
L 112.555008 181.032911 
L 112.695496 184.783704 
L 112.835983 183.216179 
L 113.116943 162.887399 
L 113.397888 178.291116 
L 113.538391 171.707848 
L 113.678864 175.158328 
L 113.819336 182.325629 
L 114.100311 171.537604 
L 114.381271 189.534328 
L 114.521759 183.29915 
L 114.662216 184.010529 
L 114.802719 192.406341 
L 114.943207 186.080994 
L 115.083664 172.723908 
L 115.224152 174.538083 
L 115.364639 179.386975 
L 115.645599 168.377282 
L 115.786087 174.990334 
L 115.926575 171.356646 
L 116.067047 159.972587 
L 116.207535 165.014494 
L 116.348022 177.867153 
L 116.48848 174.80865 
L 116.628983 168.921817 
L 116.76947 176.552414 
L 116.909927 178.034678 
L 117.050415 165.231345 
L 117.190903 163.259186 
L 117.331375 173.634987 
L 117.471863 170.399819 
L 117.61235 158.439359 
L 117.893295 161.754149 
L 118.174286 137.629196 
L 118.314743 143.093029 
L 118.455231 143.202452 
L 118.595703 134.184144 
L 118.736191 136.810079 
L 118.876678 142.285003 
L 119.157639 122.709262 
L 119.438614 148.481668 
L 119.579086 143.520648 
L 119.719559 145.158804 
L 119.860062 154.404817 
L 120.000549 149.652276 
L 120.141006 141.099983 
L 120.421967 154.150296 
L 120.562454 146.759143 
L 120.702942 147.110692 
L 120.983902 164.086384 
L 121.124359 156.082589 
L 121.264877 157.838147 
L 121.40535 161.217812 
L 121.686325 145.100997 
L 121.96727 162.371764 
L 122.107758 156.802963 
L 122.24823 162.909077 
L 122.388718 177.241179 
L 122.529205 175.09248 
L 122.669678 165.521721 
L 122.950623 177.397427 
L 123.231613 162.750747 
L 123.372086 166.696616 
L 123.512589 160.328114 
L 123.653046 147.357149 
L 123.793533 152.7114 
L 123.934006 166.572521 
L 124.074493 164.030425 
L 124.214981 156.086987 
L 124.495941 164.186123 
L 124.636429 157.5668 
L 124.776886 157.38222 
L 124.917389 164.329265 
L 125.198334 156.591526 
L 125.479309 167.870764 
L 125.760269 145.42409 
L 126.041245 159.623111 
L 126.181702 155.151343 
L 126.462692 168.394536 
L 126.743652 158.002437 
L 127.024597 171.164106 
L 127.165085 161.99958 
L 127.305573 162.265342 
L 127.446045 169.77392 
L 127.72702 152.162609 
L 128.007965 163.893955 
L 128.288925 156.17433 
L 128.429413 166.151841 
L 128.569916 166.170024 
L 128.710373 156.517592 
L 128.850861 160.864947 
L 128.991348 172.168741 
L 129.131836 166.188519 
L 129.272308 154.455824 
L 129.553284 157.204551 
L 129.693756 147.832877 
L 129.834229 147.587729 
L 129.974731 155.597295 
L 130.115189 150.430043 
L 130.255676 140.640869 
L 130.536636 150.209287 
L 130.677124 142.082483 
L 130.817612 140.594471 
L 130.958084 152.086917 
L 131.098572 154.32145 
L 131.239029 147.323614 
L 131.520004 162.115933 
L 131.800995 145.026261 
L 132.08194 156.92597 
L 132.222412 150.07516 
L 132.3629 151.809762 
L 132.503387 159.319205 
L 132.784348 142.205807 
L 133.065292 154.47293 
L 133.346268 133.23012 
L 133.627258 151.072826 
L 133.767715 145.396542 
L 134.048676 163.786929 
L 134.189163 158.48591 
L 134.329651 148.278121 
L 134.610611 152.774655 
L 134.751083 145.956143 
L 134.891556 144.910457 
L 135.032059 150.062359 
L 135.313004 134.439058 
L 135.593979 144.107055 
L 135.734467 133.780367 
L 135.874939 132.675584 
L 136.015427 144.994522 
L 136.155884 141.893788 
L 136.296371 128.699727 
L 136.436874 137.231886 
L 136.577332 155.752056 
L 136.717819 153.579395 
L 136.858322 144.049709 
L 137.139267 154.534975 
L 137.279755 148.260493 
L 137.420242 151.134475 
L 137.560715 162.779668 
L 137.701202 158.643379 
L 137.84169 146.297304 
L 138.122635 152.597475 
L 138.403595 140.053271 
L 138.68457 159.317263 
L 138.825043 152.906444 
L 138.96553 155.678072 
L 139.106018 163.044122 
L 139.386963 156.402088 
L 139.667953 171.496166 
L 139.808411 164.563609 
L 139.948898 169.267291 
L 140.089371 180.015946 
L 140.370346 162.267587 
L 140.651306 171.613412 
L 140.932281 153.069267 
L 141.072754 161.258738 
L 141.213226 158.851175 
L 141.353699 147.983402 
L 141.494217 152.843177 
L 141.634674 162.392807 
L 141.915634 150.611009 
L 142.196609 170.09789 
L 142.337082 159.63167 
L 142.47757 159.369138 
L 142.618027 171.420334 
L 142.758545 170.718994 
L 142.899017 161.675048 
L 143.179962 167.769574 
L 143.460938 152.476897 
L 143.60141 161.408115 
L 143.741898 159.19648 
L 143.882385 149.090793 
L 144.163345 162.150973 
L 144.44429 141.50713 
L 144.725281 163.560573 
L 144.865753 151.877507 
L 145.006226 150.42816 
L 145.146713 161.691217 
L 145.287201 156.442932 
L 145.427673 142.167636 
L 145.568161 145.353988 
L 145.708649 152.495854 
L 145.989609 142.374447 
L 146.130096 150.550717 
L 146.270554 148.409343 
L 146.411041 136.616451 
L 146.551529 138.143886 
L 146.692001 147.927958 
L 146.832489 146.237326 
L 146.972977 142.321572 
L 147.253937 152.095553 
L 147.394424 144.557922 
L 147.534912 145.661603 
L 147.675369 155.442101 
L 147.815872 153.167166 
L 147.95636 144.843855 
L 148.237305 155.927607 
L 148.518265 144.737705 
L 148.79924 158.65687 
L 148.939713 148.935575 
L 149.080185 152.713078 
L 149.220688 165.151019 
L 149.361176 161.385761 
L 149.501633 152.377059 
L 149.782593 160.528008 
L 149.92308 155.254685 
L 150.063568 161.026433 
L 150.204041 174.708483 
L 150.344528 173.619485 
L 150.485016 167.141738 
L 150.765976 179.674726 
L 151.046951 162.946674 
L 151.187424 172.65135 
L 151.327896 173.043677 
L 151.468369 162.502621 
L 151.608856 165.641434 
L 151.749344 176.877552 
L 151.889832 172.274359 
L 152.030304 162.523465 
L 152.311249 172.020732 
L 152.451752 164.564226 
L 152.592239 163.441937 
L 152.732697 170.800329 
L 152.873215 166.549064 
L 153.013672 156.853194 
L 153.15416 159.232007 
L 153.294632 159.659091 
L 153.575607 140.431814 
L 153.856567 162.875296 
L 153.997055 160.904143 
L 154.278015 174.537016 
L 154.55896 150.647546 
L 154.839935 159.963289 
L 154.980423 149.886131 
L 155.120895 150.141749 
L 155.261383 159.328134 
L 155.401871 154.014119 
L 155.542343 142.682479 
L 155.823318 154.347753 
L 155.963776 149.601434 
L 156.104279 150.012575 
L 156.244751 160.793782 
L 156.385223 157.482485 
L 156.525726 141.913152 
L 156.666199 140.906493 
L 156.806671 147.354062 
L 157.087646 131.178839 
L 157.368591 143.502973 
L 157.509094 134.138557 
L 157.649551 134.748902 
L 157.930542 149.837272 
L 158.070999 149.561918 
L 158.351974 165.339392 
L 158.632935 148.211654 
L 158.773422 158.315607 
L 158.91391 157.117944 
L 159.054382 145.767096 
L 159.194855 149.360147 
L 159.335358 158.862288 
L 159.616302 148.220786 
L 159.897263 166.465595 
L 160.03775 158.752629 
L 160.178238 162.909831 
L 160.31871 176.450301 
L 160.459198 172.712708 
L 160.599686 162.645069 
L 160.88063 175.501425 
L 161.161621 150.346654 
L 161.302078 156.324326 
L 161.442566 153.416538 
L 161.583069 137.268719 
L 161.723526 135.896242 
L 161.864014 147.694489 
L 162.004501 148.178194 
L 162.144974 145.477381 
L 162.285461 154.266927 
L 162.425949 156.090995 
L 162.566422 143.968791 
L 162.706894 143.289763 
L 162.847366 155.810669 
L 162.987885 156.857133 
L 163.128342 151.985081 
L 163.409302 167.228833 
L 163.690277 153.374996 
L 163.83075 161.032948 
L 163.971237 159.516886 
L 164.111694 150.855924 
L 164.392685 162.932381 
L 164.67363 143.651143 
L 164.814148 152.884079 
L 164.954605 154.394661 
L 165.235565 124.685134 
L 165.376053 127.75905 
L 165.516541 122.114213 
L 165.657013 112.001923 
L 165.937958 130.608963 
L 166.078445 128.408905 
L 166.218948 126.72732 
L 166.499893 137.080824 
L 166.640381 131.063469 
L 166.921341 138.776874 
L 167.202316 124.523092 
L 167.483276 138.012434 
L 167.764221 124.99116 
L 167.904709 130.799597 
L 168.045197 125.649168 
L 168.185669 116.409352 
L 168.466644 128.123378 
L 168.747604 115.228382 
L 169.02858 127.569246 
L 169.169037 121.658409 
L 169.450027 142.796072 
L 169.730972 133.372214 
L 169.87146 140.886696 
L 170.011932 140.918871 
L 170.15242 127.892976 
L 170.292908 129.48915 
L 170.43338 143.208755 
L 170.573853 138.071285 
L 170.714355 123.637915 
L 170.854843 129.304179 
L 170.9953 139.929341 
L 171.27626 130.546449 
L 171.557236 147.503377 
L 171.697708 138.487492 
L 171.838196 143.194497 
L 171.978683 154.487854 
L 172.259644 137.196973 
L 172.400116 138.978736 
L 172.540619 135.337863 
L 172.681091 124.295814 
L 172.821564 129.732683 
L 172.962036 144.675884 
L 173.102524 142.18327 
L 173.243011 132.703706 
L 173.523972 147.528115 
L 173.804916 137.453217 
L 173.945419 145.117717 
L 174.085907 142.150027 
L 174.226364 130.842802 
L 174.366852 132.467923 
L 174.507339 137.783711 
L 174.7883 123.995898 
L 175.069275 137.697012 
L 175.209732 127.881588 
L 175.350235 128.267045 
L 175.490723 139.305779 
L 175.63118 137.952739 
L 175.771683 130.377533 
L 176.052628 138.299923 
L 176.193115 130.911645 
L 176.333603 132.882131 
L 176.474075 145.40169 
L 176.614563 142.509532 
L 176.755051 128.61362 
L 176.895538 130.239621 
L 177.035995 139.358156 
L 177.316986 132.610311 
L 177.597946 151.172687 
L 177.738419 145.887426 
L 177.878891 146.461785 
L 178.019379 153.416712 
L 178.300339 143.968452 
L 178.581314 162.862635 
L 178.862259 157.662371 
L 179.002762 163.966017 
L 179.14325 160.508195 
L 179.283707 152.998541 
L 179.564667 179.134539 
L 179.705154 178.500775 
L 179.845642 174.135969 
L 180.126602 185.731255 
L 180.267075 178.819705 
L 180.407578 180.835695 
L 180.54805 189.027036 
L 180.829025 174.603921 
L 181.10997 186.274127 
L 181.39093 171.432005 
L 181.531418 178.999394 
L 181.671906 178.128957 
L 181.812378 171.364743 
L 182.093323 187.192456 
L 182.374313 165.725612 
L 182.655289 185.480909 
L 182.936234 176.475159 
L 183.076706 181.430113 
L 183.357681 175.148078 
L 183.638641 191.639134 
L 183.919586 176.19664 
L 184.060089 183.843488 
L 184.200562 183.218253 
L 184.341034 176.059807 
L 184.622009 190.288491 
L 184.902969 170.483772 
L 185.043457 176.050423 
L 185.183945 175.333803 
L 185.464905 152.968995 
L 185.605362 159.164018 
L 185.886353 155.715341 
L 186.167297 174.683792 
L 186.448273 157.01548 
L 186.588745 166.932877 
L 186.729233 166.497012 
L 186.86972 155.39529 
L 187.010208 159.267065 
L 187.150665 170.898164 
L 187.431625 159.240096 
L 187.712616 169.318735 
L 187.853073 159.069137 
L 187.993561 157.141387 
L 188.134048 167.070882 
L 188.274536 167.328262 
L 188.415009 161.506925 
L 188.695984 175.708767 
L 188.976929 163.820335 
L 189.117432 173.379995 
L 189.257889 175.034221 
L 189.398376 168.207567 
L 189.679337 184.411028 
L 189.960312 172.32515 
L 190.1008 180.202936 
L 190.241272 181.17255 
L 190.381744 169.405108 
L 190.522247 170.274209 
L 190.662704 182.95567 
L 190.803192 182.100925 
L 190.943695 174.531844 
L 191.22464 185.210254 
L 191.5056 164.813281 
L 191.646088 169.495271 
L 191.786575 168.169517 
L 191.927048 159.280544 
L 192.06752 160.689205 
L 192.207993 163.770529 
L 192.488968 143.097936 
L 192.769928 153.261729 
L 192.910416 142.092888 
L 193.050903 142.353674 
L 193.191376 152.921845 
L 193.331863 147.94341 
L 193.472351 135.432454 
L 193.753311 142.859589 
L 194.034256 130.405049 
L 194.174759 141.2184 
L 194.315231 142.837399 
L 194.455704 133.506783 
L 194.596191 134.869087 
L 194.736679 140.657669 
L 195.017639 127.137163 
L 195.158127 134.124823 
L 195.298584 134.900188 
L 195.439087 123.748428 
L 195.579575 124.201289 
L 195.720032 136.138575 
L 195.860519 136.601283 
L 196.001007 130.992389 
L 196.281967 139.678132 
L 196.562943 122.465697 
L 196.843903 134.669194 
L 196.98439 130.260092 
L 197.405838 150.581607 
L 197.546295 150.631754 
L 197.827271 167.39029 
L 198.108231 152.895598 
L 198.248718 160.700711 
L 198.389206 160.676019 
L 198.529663 156.280731 
L 198.810654 168.205223 
L 199.091599 155.590711 
L 199.372559 169.145105 
L 199.513046 166.702253 
L 199.794006 177.650239 
L 200.074982 152.826858 
L 200.355927 162.007101 
L 200.496429 155.647381 
L 200.636917 157.202155 
L 200.777374 163.493952 
L 201.058334 141.159381 
L 201.198822 146.987365 
L 201.33931 157.426638 
L 201.479797 155.363435 
L 201.62027 156.796913 
L 201.760742 167.475552 
L 201.901245 166.150239 
L 202.041718 155.22004 
L 202.18219 157.784766 
L 202.322662 166.083772 
L 202.603638 153.745417 
L 202.884598 169.790183 
L 203.165543 145.708137 
L 203.306046 148.149091 
L 203.446533 146.029144 
L 203.58699 139.002813 
L 203.867981 151.149937 
L 204.008453 148.784777 
L 204.148926 152.249925 
L 204.429901 171.848475 
L 204.570374 164.586023 
L 204.710861 168.724605 
L 204.851349 177.592755 
L 205.132309 163.541242 
L 205.272797 168.541771 
L 205.413254 169.146279 
L 205.553757 158.838415 
L 205.694229 160.231211 
L 205.834702 171.163001 
L 205.975189 166.161649 
L 206.115677 155.079759 
L 206.396637 169.594248 
L 206.537125 164.409472 
L 206.677612 163.597618 
L 206.818069 173.83396 
L 206.958572 174.230228 
L 207.09906 164.777365 
L 207.239517 166.307562 
L 207.380005 173.747849 
L 207.660965 166.823152 
L 207.94194 181.515416 
L 208.222885 162.022344 
L 208.363388 170.404537 
L 208.503876 169.355003 
L 208.644333 161.28337 
L 208.925293 171.482915 
L 209.206268 161.540177 
L 209.346741 172.793132 
L 209.487228 172.468326 
L 209.627716 159.408166 
L 209.768204 158.119377 
L 209.908676 163.660607 
L 210.189651 153.426373 
L 210.470596 168.278498 
L 210.611099 158.130197 
L 210.751556 157.153953 
L 210.892044 166.386786 
L 211.032532 162.786758 
L 211.173004 151.934689 
L 211.313492 152.496698 
L 211.453979 150.763176 
L 211.73494 125.809843 
L 212.015915 139.980389 
L 212.156372 138.086973 
L 212.437332 165.08532 
L 212.718307 151.237633 
L 212.999268 164.159015 
L 213.280212 147.258827 
L 213.420715 154.284135 
L 213.561188 151.299671 
L 213.70166 143.572294 
L 213.982635 159.728241 
L 214.263596 151.75141 
L 214.404083 160.766439 
L 214.544571 159.898766 
L 214.685043 151.176441 
L 214.966019 167.990455 
L 215.246979 156.147013 
L 215.527924 173.588193 
L 215.668427 164.326074 
L 215.808899 164.534771 
L 215.949371 176.733619 
L 216.089859 177.507405 
L 216.230347 171.53544 
L 216.511307 181.548774 
L 216.792252 166.737395 
L 216.932739 179.510115 
L 217.073242 182.130116 
L 217.213699 172.106723 
L 217.354187 174.062414 
L 217.494675 182.220464 
L 217.775635 171.25164 
L 218.05661 188.774281 
L 218.337555 164.776316 
L 218.478058 167.41055 
L 218.618515 164.830413 
L 218.759003 159.648403 
L 219.039963 170.528679 
L 219.320938 149.817757 
L 219.461411 151.372016 
L 219.601898 145.222072 
L 219.742386 132.737631 
L 219.882874 133.142398 
L 220.023331 137.703095 
L 220.304321 123.616226 
L 220.585266 141.26712 
L 220.725739 136.439014 
L 220.866226 136.815999 
L 221.006714 142.406916 
L 221.287674 123.512241 
L 221.428162 125.408859 
L 221.568649 130.982792 
L 221.709137 128.695696 
L 221.849594 133.431067 
L 221.990082 146.980302 
L 222.130585 146.364004 
L 222.271042 134.259762 
L 222.41153 136.4903 
L 222.552002 148.098982 
L 222.69249 146.851852 
L 222.832977 141.06799 
L 222.973465 145.118162 
L 223.113937 145.512695 
L 223.25441 137.246709 
L 223.394913 139.112272 
L 223.535385 149.402096 
L 223.675858 148.30879 
L 223.81633 141.273469 
L 223.956818 142.871795 
L 224.097305 142.633925 
L 224.237793 133.451723 
L 224.378265 132.800158 
L 224.518753 142.267797 
L 224.659241 139.536046 
L 224.799713 127.681715 
L 224.940201 130.100212 
L 225.080658 139.129023 
L 225.361649 134.04364 
L 225.642593 149.327129 
L 225.783081 140.007931 
L 225.923569 142.171606 
L 226.064041 154.761857 
L 226.204529 153.319452 
L 226.345016 145.566407 
L 226.625977 153.814253 
L 226.906921 137.265004 
L 227.047409 144.310859 
L 227.187897 142.497945 
L 227.328369 135.096965 
L 227.609344 154.860873 
L 227.890289 137.147321 
L 228.030792 138.976991 
L 228.17128 139.397993 
L 228.311737 131.812998 
L 228.45224 135.6986 
L 228.592728 149.972103 
L 228.733185 150.831325 
L 228.873672 144.490771 
L 229.154633 159.387137 
L 229.435608 146.690793 
L 229.57608 154.717137 
L 229.716553 152.768215 
L 229.857056 144.770538 
L 230.138 167.24117 
L 230.278488 166.641419 
L 230.418961 168.080085 
L 230.699936 192.512114 
L 230.840408 185.085322 
L 230.980896 184.727332 
L 231.121353 192.896056 
L 231.261871 190.495931 
L 231.402344 185.883311 
L 231.683319 204.321842 
L 231.964264 193.062166 
L 232.245224 203.659222 
L 232.385712 198.453921 
L 232.666672 211.278823 
L 232.947617 195.844694 
L 233.228607 203.574149 
L 233.509583 188.624664 
L 233.65004 192.561894 
L 233.790527 191.307389 
L 233.931 187.325937 
L 234.211975 194.278536 
L 234.352463 186.653545 
L 234.492935 185.836159 
L 234.633423 194.539579 
L 234.77388 190.675705 
L 234.914383 176.864342 
L 235.054871 177.131987 
L 235.195328 184.05146 
L 235.476303 170.126923 
L 235.757263 184.921821 
L 235.897751 178.67413 
L 236.038239 179.388305 
L 236.178696 187.863382 
L 236.319199 182.491636 
L 236.459686 170.391614 
L 236.600143 173.012931 
L 236.740646 178.31812 
L 237.021591 165.419777 
L 237.162079 175.944907 
L 237.302567 176.924319 
L 237.443039 165.239425 
L 237.583527 167.406788 
L 237.724014 178.150814 
L 238.004959 167.966471 
L 238.285919 188.99413 
L 238.56691 179.12618 
L 238.707367 183.54583 
L 238.988342 170.549801 
L 239.269302 180.648834 
L 239.40979 177.042148 
L 239.550278 176.735134 
L 239.831223 187.715731 
L 239.971725 184.032701 
L 240.25267 197.956896 
L 240.53363 185.977696 
L 240.674118 188.885084 
L 240.814606 186.320292 
L 240.955078 174.494755 
L 241.095566 175.952787 
L 241.236023 189.996412 
L 241.376541 191.551318 
L 241.516998 184.981452 
L 241.797989 199.740162 
L 242.078934 194.797343 
L 242.219406 201.932628 
L 242.359894 200.058668 
L 242.500381 189.858914 
L 242.640869 192.355127 
L 242.781342 199.990119 
L 243.062286 180.000983 
L 243.343262 188.33172 
L 243.483749 181.130514 
L 243.624252 180.693618 
L 243.764709 187.013336 
L 244.04567 165.455285 
L 244.186157 167.480361 
L 244.326645 172.4925 
L 244.607605 158.712535 
L 244.748077 163.304832 
L 244.88855 159.027185 
L 245.169525 142.711381 
L 245.309998 145.143374 
L 245.590973 132.715488 
L 245.871933 144.059899 
L 246.012421 138.134512 
L 246.152908 140.010002 
L 246.293365 145.805289 
L 246.574326 124.297066 
L 246.855316 138.884237 
L 247.136261 126.178264 
L 247.417236 140.879036 
L 247.557709 130.681206 
L 247.698196 130.554917 
L 247.838684 134.628439 
L 248.119629 117.296348 
L 248.400589 140.974446 
L 248.541077 138.189903 
L 248.681564 142.478398 
L 248.822037 154.309702 
L 248.962524 153.459493 
L 249.103012 148.370954 
L 249.383972 165.127343 
L 249.664948 149.469714 
L 249.805405 155.499485 
L 249.945892 153.400354 
L 250.086395 145.649419 
L 250.36734 165.316071 
L 250.6483 159.495255 
L 250.929276 184.205689 
L 251.21022 165.246484 
L 251.350693 170.546977 
L 251.491211 170.710099 
L 251.631668 167.514705 
L 251.772156 172.02301 
L 251.912628 171.446604 
L 252.193604 153.806565 
L 252.334076 161.937324 
L 252.474564 162.844312 
L 252.615051 157.270521 
L 252.896011 164.647021 
L 253.176956 130.215259 
L 253.317474 130.702936 
L 253.457932 129.241454 
L 253.598404 119.343407 
L 253.738892 123.95022 
L 253.879379 138.134893 
L 254.019867 134.827629 
L 254.160339 123.765405 
L 254.441284 137.180817 
L 254.722275 130.91385 
L 254.862747 138.088654 
L 255.00322 138.418438 
L 255.143707 130.831555 
L 255.284195 133.018352 
L 255.424667 140.923455 
L 255.705643 135.954416 
L 255.986603 146.737946 
L 256.12709 135.285522 
L 256.267548 134.812984 
L 256.408051 146.324114 
L 256.548538 144.503927 
L 256.688995 135.72978 
L 256.969971 156.098785 
L 257.250931 148.354525 
L 257.391418 158.177213 
L 257.531906 158.794479 
L 257.672363 146.788275 
L 257.812866 146.890108 
L 257.953354 154.931829 
L 258.234299 144.120902 
L 258.515259 160.772463 
L 258.796234 143.39106 
L 258.936707 151.647481 
L 259.077179 150.547379 
L 259.217682 141.112791 
L 259.35817 141.838583 
L 259.498627 144.785073 
L 259.63913 139.469069 
L 259.779617 141.374978 
L 259.920074 150.706107 
L 260.060562 143.890295 
L 260.201035 126.922772 
L 260.341522 124.977308 
L 260.48201 129.744295 
L 260.76297 120.613196 
L 261.043945 132.672169 
L 261.184418 124.758363 
L 261.32489 125.680467 
L 261.465393 134.112117 
L 261.60585 131.326903 
L 261.746338 125.285663 
L 262.027298 140.516859 
L 262.167786 135.062569 
L 262.308273 134.315523 
L 262.448746 145.747308 
L 262.589233 146.833897 
L 262.729691 135.977973 
L 262.870209 137.425707 
L 263.010666 147.617167 
L 263.291626 145.335046 
L 263.572601 160.456358 
L 263.713074 151.481643 
L 263.853561 150.26231 
L 263.994049 158.275843 
L 264.134506 155.718326 
L 264.275009 149.463628 
L 264.555954 160.804879 
L 264.696472 153.571979 
L 264.836929 154.02695 
L 264.977402 166.23947 
L 265.117889 166.322436 
L 265.258377 154.620504 
L 265.398865 153.493998 
L 265.539337 156.63471 
L 265.820312 137.941794 
L 266.101273 149.025735 
L 266.241745 141.973682 
L 266.382217 145.237555 
L 266.52272 155.643925 
L 266.663193 148.286668 
L 266.803665 133.830237 
L 266.944153 138.589997 
L 267.084641 147.332593 
L 267.365601 133.54302 
L 267.646576 147.749127 
L 267.787033 137.923095 
L 267.927536 138.900293 
L 268.067993 148.34315 
L 268.208481 146.145298 
L 268.348969 141.45068 
L 268.489456 147.637744 
L 268.629929 148.470896 
L 268.770416 137.104052 
L 268.910904 134.736833 
L 269.051376 141.549693 
L 269.332352 125.757012 
L 269.613297 134.377027 
L 269.753799 125.81897 
L 269.894257 125.624461 
L 270.034744 139.107307 
L 270.175232 141.138239 
L 270.315704 132.771691 
L 270.456192 138.838209 
L 270.59668 151.308286 
L 270.87764 148.236851 
L 271.158615 162.570879 
L 271.43956 144.81738 
L 271.580063 151.52642 
L 271.72052 148.262731 
L 271.861008 140.667283 
L 272.141968 158.414999 
L 272.422943 152.395001 
L 272.563416 158.089468 
L 272.703888 156.315869 
L 272.84436 147.123308 
L 272.984879 149.303695 
L 273.125336 156.462186 
L 273.406296 142.864801 
L 273.546783 148.16264 
L 273.687271 149.067018 
L 273.827744 138.735836 
L 273.968231 140.417455 
L 274.108719 155.49142 
L 274.249176 158.601259 
L 274.389679 153.124764 
L 274.670624 167.244658 
L 274.951599 151.616026 
L 275.232559 160.757653 
L 275.373047 156.759636 
L 275.513535 158.853793 
L 275.654007 162.876487 
L 275.934952 154.932071 
L 276.215942 172.064744 
L 276.3564 164.144525 
L 276.496887 165.092316 
L 276.637375 174.514369 
L 276.777863 170.01646 
L 276.918335 159.757795 
L 277.19931 172.397558 
L 277.339798 167.705592 
L 277.48027 167.720328 
L 277.620758 178.088841 
L 277.761215 177.29796 
L 277.901703 168.795923 
L 278.182663 192.163602 
L 278.323151 189.138418 
L 278.463638 183.183486 
L 278.604126 190.927094 
L 278.744598 191.858965 
L 279.025574 173.718126 
L 279.166031 180.841169 
L 279.306519 173.962785 
L 279.447021 159.873072 
L 279.587479 162.949015 
L 279.727966 170.716398 
L 280.008926 163.948075 
L 280.149414 172.35329 
L 280.289902 167.738784 
L 280.430374 154.331633 
L 280.570847 157.781007 
L 280.711349 169.284955 
L 280.992294 164.835094 
L 281.273285 184.658883 
L 281.55423 172.146004 
L 281.694702 177.187077 
L 281.975677 167.725817 
L 282.256638 187.448116 
L 282.537613 177.634934 
L 282.678085 187.872463 
L 282.818558 187.028064 
L 282.95903 176.467953 
L 283.099518 178.666854 
L 283.240005 185.01114 
L 283.520966 173.702474 
L 283.661453 183.022875 
L 283.80191 183.31648 
L 283.942413 170.70099 
L 284.082901 172.02016 
L 284.223358 185.764731 
L 284.363846 184.781027 
L 284.504349 173.235573 
L 284.644821 172.318546 
L 284.785294 174.705346 
L 284.925781 169.668277 
L 285.066269 170.502265 
L 285.206741 178.420534 
L 285.347229 174.639137 
L 285.487717 163.983788 
L 285.628174 165.891395 
L 285.768677 170.65775 
L 286.049622 160.182987 
L 286.190109 170.031713 
L 286.330597 169.403449 
L 286.611557 144.510051 
L 286.752045 147.0787 
L 287.03299 136.823598 
L 287.31398 148.610682 
L 287.59494 134.06128 
L 287.735428 139.902618 
L 287.875885 137.855141 
L 288.016373 131.441597 
L 288.297333 152.821286 
L 288.578308 134.30018 
L 288.859253 140.980894 
L 288.999756 133.862157 
L 289.140244 137.645927 
L 289.280701 150.152508 
L 289.421204 148.908963 
L 289.561661 141.526661 
L 289.842636 154.289865 
L 289.983124 148.937196 
L 290.123596 149.448104 
L 290.264069 160.514569 
L 290.404572 161.435887 
L 290.545044 155.254396 
L 290.826019 176.613863 
L 291.106964 166.531473 
L 291.247452 173.015629 
L 291.387924 174.201321 
L 291.528412 163.636382 
L 291.6689 164.066788 
L 291.809372 175.22331 
L 291.94986 174.718604 
L 292.090317 168.906333 
L 292.371307 175.795685 
L 292.652283 156.253154 
L 292.79274 166.748586 
L 292.933228 168.758577 
L 293.214188 154.192045 
L 293.495163 163.393196 
L 293.635635 165.710623 
L 293.776123 175.211749 
L 293.91658 176.445314 
L 294.057083 170.42408 
L 294.338028 187.50841 
L 294.619003 180.250289 
L 294.899963 195.018016 
L 295.180939 177.13512 
L 295.321411 182.323439 
L 295.461899 176.102371 
L 295.602386 162.66465 
L 295.742844 166.296951 
L 295.883347 176.726329 
L 296.164291 168.773554 
L 296.304779 179.289799 
L 296.445267 180.590984 
L 296.585739 166.941671 
L 296.726227 164.926719 
L 296.866714 172.845697 
L 297.007202 166.268436 
L 297.147659 154.247677 
L 297.288162 157.028427 
L 297.428619 162.414138 
L 297.569107 158.326623 
L 297.70961 159.876917 
L 297.850067 170.099888 
L 297.990555 169.859119 
L 298.131042 162.48361 
L 298.412003 177.31738 
L 298.692978 160.767497 
L 298.833466 164.932236 
L 298.973923 162.860175 
L 299.114426 148.519815 
L 299.254883 147.242151 
L 299.39537 158.261825 
L 299.535873 156.991886 
L 299.676331 150.960028 
L 299.957306 171.444511 
L 300.097794 170.409097 
L 300.238266 173.821911 
L 300.378754 186.439968 
L 300.519241 184.466689 
L 300.659698 169.468215 
L 300.800186 168.093856 
L 300.940689 173.752738 
L 301.221634 162.611656 
L 301.502594 179.258755 
L 301.643082 169.972993 
L 301.783569 169.459199 
L 301.924042 176.944121 
L 302.204987 162.221376 
L 302.485962 179.271476 
L 302.766953 168.051445 
L 302.90741 173.329348 
L 303.047897 167.412138 
L 303.18837 155.361868 
L 303.328857 162.516528 
L 303.469345 176.744801 
L 303.609833 171.034732 
L 303.750305 160.657935 
L 304.03125 174.055689 
L 304.171753 167.442749 
L 304.312225 167.708782 
L 304.452698 175.636747 
L 304.593185 169.863119 
L 304.733673 159.17749 
L 305.014633 172.345053 
L 305.295609 162.082556 
L 305.436081 170.223264 
L 305.576569 169.220597 
L 305.717026 159.019533 
L 305.857513 162.965703 
L 305.998016 173.207765 
L 306.278961 161.196349 
L 306.559937 183.484176 
L 306.700409 177.979 
L 306.840897 179.740175 
L 306.981384 191.417884 
L 307.121841 188.855159 
L 307.262329 177.951942 
L 307.402832 181.9365 
L 307.543289 189.246715 
L 307.824265 178.631621 
L 307.964737 187.983186 
L 308.105225 188.546576 
L 308.245712 179.400842 
L 308.3862 183.869792 
L 308.526657 193.623327 
L 308.807648 178.437535 
L 308.948105 183.10664 
L 309.088593 182.755042 
L 309.229095 171.456988 
L 309.369553 173.411592 
L 309.51004 187.685911 
L 309.650528 187.145698 
L 309.791 177.462124 
L 310.071976 184.735876 
L 310.352921 164.735528 
L 310.493423 171.822783 
L 310.633911 169.12137 
L 310.774368 155.76702 
L 310.914856 158.162747 
L 311.055328 170.151331 
L 311.195816 166.906936 
L 311.336304 159.062305 
L 311.476791 163.921332 
L 311.617264 164.261127 
L 311.898239 144.152524 
L 312.179184 153.141056 
L 312.319656 153.237377 
L 312.600632 166.60558 
L 312.881592 148.803211 
L 313.022079 157.001613 
L 313.162567 156.096432 
L 313.30304 147.702763 
L 313.583984 158.371327 
L 313.864975 140.295207 
L 314.14592 163.095085 
L 314.286407 159.539586 
L 314.426895 165.786902 
L 314.567368 179.912663 
L 314.707855 176.19597 
L 314.848343 162.411231 
L 314.9888 162.981204 
L 315.129303 167.412976 
L 315.410248 155.423583 
L 315.550751 164.067944 
L 315.691223 165.776554 
L 315.831696 160.39395 
L 316.112671 178.175587 
L 316.393631 163.209558 
L 316.534119 169.919785 
L 316.674606 170.733547 
L 316.815063 157.495214 
L 316.955566 154.823918 
L 317.096054 165.629443 
L 317.236511 164.848778 
L 317.376999 155.047679 
L 317.517487 155.702386 
L 317.657959 155.381326 
L 317.798447 143.631461 
L 317.938934 142.453925 
L 318.079407 156.05954 
L 318.219879 158.29008 
L 318.360382 150.320497 
L 318.50087 155.654322 
L 318.641327 165.270798 
L 318.922287 154.918949 
L 319.062775 163.398897 
L 319.203262 163.214493 
L 319.484222 143.224919 
L 319.62471 150.532288 
L 319.765198 148.410384 
L 319.90567 140.816379 
L 320.046143 142.269166 
L 320.186646 140.627555 
L 320.46759 124.480001 
L 320.74855 140.726138 
L 320.889038 136.257677 
L 321.169998 149.74438 
L 321.310486 144.175225 
L 321.450974 144.337772 
L 321.731934 171.548665 
L 322.012909 154.539853 
L 322.153366 159.819919 
L 322.293854 153.704865 
L 322.434357 142.141492 
L 322.715302 149.189847 
L 322.855789 142.84029 
L 322.996262 144.362155 
L 323.277237 163.52678 
L 323.417709 156.86229 
L 323.558197 163.257189 
L 323.698654 176.024249 
L 323.97963 170.876356 
L 324.26059 189.826674 
L 324.401077 179.632299 
L 324.541565 179.125242 
L 324.682037 192.062522 
L 324.822525 191.705467 
L 324.963013 180.860932 
L 325.10347 181.965476 
L 325.243973 185.424239 
L 325.524918 168.388267 
L 325.665421 170.167109 
L 325.946365 152.248338 
L 326.086853 156.382292 
L 326.227341 164.703406 
L 326.508301 151.059728 
L 326.789276 171.800258 
L 326.929733 165.01054 
L 327.070236 167.978402 
L 327.210693 180.879086 
L 327.351181 176.70055 
L 327.491684 162.838407 
L 327.632156 164.649065 
L 327.772629 169.053325 
L 328.053604 156.508203 
L 328.194077 167.132774 
L 328.334564 164.343153 
L 328.475052 148.040274 
L 328.615509 145.865433 
L 328.755997 152.738814 
L 329.458405 117.012103 
L 329.598892 119.095041 
L 329.73938 128.494417 
L 329.879868 127.003802 
L 330.02034 122.881482 
L 330.301315 137.513779 
L 330.441772 134.635956 
L 330.58226 141.493543 
L 330.722763 158.434403 
L 330.86322 160.083945 
L 331.003708 149.369536 
L 331.144196 152.043409 
L 331.284668 160.863399 
L 331.565643 148.611059 
L 331.846588 164.883844 
L 332.127579 141.922402 
L 332.268036 148.871023 
L 332.408524 143.037893 
L 332.548996 126.257643 
L 332.689484 123.879866 
L 332.829971 128.353055 
L 333.110931 116.384255 
L 333.251404 119.053892 
L 333.391907 112.318555 
L 333.532379 98.209084 
L 333.672852 96.908182 
L 333.813324 100.128721 
L 334.094299 78.848405 
L 334.375259 89.904102 
L 334.515747 87.394938 
L 334.656235 95.923968 
L 334.796707 112.838914 
L 334.937195 113.57927 
L 335.077652 106.433187 
L 335.358643 122.179874 
L 335.499115 120.157085 
L 335.639587 126.977632 
L 335.780075 144.170361 
L 335.920563 145.556011 
L 336.061035 134.197063 
L 336.201523 134.543917 
L 336.34201 138.902894 
L 336.622971 127.518654 
L 336.903915 144.85436 
L 337.044403 134.870578 
L 337.184906 133.398278 
L 337.325363 146.032327 
L 337.465851 147.829261 
L 337.606339 138.934729 
L 337.887299 143.183731 
L 338.168274 126.327465 
L 338.308731 135.994799 
L 338.449234 137.401351 
L 338.730179 121.699112 
L 338.870667 120.362874 
L 339.151627 104.089357 
L 339.432602 127.344656 
L 339.573074 117.780724 
L 339.713547 118.456423 
L 339.85405 131.88664 
L 339.994537 133.221394 
L 340.134995 128.588453 
L 340.415985 150.264777 
L 340.556442 149.435701 
L 340.69693 155.063987 
L 340.837402 171.302094 
L 340.97789 171.83925 
L 341.118378 157.448194 
L 341.258865 154.79043 
L 341.399338 158.514227 
L 341.680313 136.217657 
L 341.961258 144.76291 
L 342.242218 128.170185 
L 342.382706 136.457061 
L 342.523193 135.950706 
L 342.663666 129.458976 
L 342.944611 141.166162 
L 343.085129 135.698385 
L 343.225601 135.357368 
L 343.366074 147.218942 
L 343.506577 149.21667 
L 343.647034 140.267247 
L 343.787521 143.411385 
L 343.927994 152.056481 
L 344.208969 139.51868 
L 344.489929 157.035121 
L 344.630417 147.253915 
L 344.770874 145.48385 
L 344.911377 154.553419 
L 345.051865 151.358603 
L 345.192322 143.518459 
L 345.473297 160.979338 
L 345.613785 155.863932 
L 345.754257 155.308211 
L 345.894745 165.751932 
L 346.035233 164.99195 
L 346.17569 155.945594 
L 346.45668 173.601201 
L 346.73764 159.680837 
L 346.878113 166.418061 
L 347.018585 164.838368 
L 347.299561 141.272613 
L 347.440033 150.082498 
L 347.580521 147.659832 
L 347.721008 140.015503 
L 348.001953 160.332442 
L 348.142456 156.924517 
L 348.282944 157.363072 
L 348.423401 169.785324 
L 348.563904 172.055972 
L 348.704361 163.528618 
L 348.844849 166.146409 
L 348.985336 172.041192 
L 349.266296 154.910674 
L 349.547272 168.007292 
L 349.687744 156.327212 
L 349.828217 156.260733 
L 349.968719 168.055035 
L 350.109177 163.079987 
L 350.249664 149.74008 
L 350.530624 161.398599 
L 350.8116 151.045904 
L 350.952072 161.484539 
L 351.09256 160.406347 
L 351.233017 148.642202 
L 351.373535 151.915224 
L 351.514008 162.527871 
L 351.794983 147.946019 
L 351.93544 151.65789 
L 352.075928 148.975141 
L 352.2164 134.432731 
L 352.356888 134.339522 
L 352.497375 147.544011 
L 352.637863 146.143662 
L 352.778336 137.352093 
L 353.05928 150.649785 
L 353.340256 136.433557 
L 353.621246 159.239293 
L 353.761703 154.854493 
L 353.902191 158.039203 
L 354.042664 164.298522 
L 354.323639 147.448848 
L 354.464127 153.472782 
L 354.604599 153.627804 
L 354.745087 139.342451 
L 354.885544 136.845595 
L 355.026047 148.599811 
L 355.166519 147.943061 
L 355.306992 139.854642 
L 355.587967 152.288822 
L 355.728455 146.306097 
L 355.868927 150.406078 
L 356.149902 179.365413 
L 356.290375 170.264292 
L 356.430862 171.214214 
L 356.57132 178.823989 
L 356.85231 159.937145 
L 357.133255 174.236756 
L 357.41423 160.979107 
L 357.554703 166.922535 
L 357.835678 152.951085 
L 358.116623 164.248012 
L 358.397583 146.041292 
L 358.538071 154.09611 
L 358.678574 154.206918 
L 358.819031 145.101537 
L 358.959518 149.906033 
L 359.100006 159.336835 
L 359.380966 136.751221 
L 359.661942 147.954448 
L 359.942886 135.657538 
L 360.083389 141.887272 
L 360.364334 123.877563 
L 360.645294 137.064462 
L 360.92627 123.93213 
L 361.066742 135.60629 
L 361.207214 136.217871 
L 361.347717 124.203456 
L 361.488205 126.0302 
L 361.628662 135.539403 
L 361.909653 122.091379 
L 362.190598 140.192977 
L 362.471558 132.912168 
L 362.612045 139.8611 
L 362.752533 137.166574 
L 362.893005 131.806753 
L 363.17395 149.637277 
L 363.454926 138.423328 
L 363.595398 148.067924 
L 363.735886 147.63858 
L 363.876373 134.116033 
L 364.016861 131.418279 
L 364.157333 136.006459 
L 364.438278 125.202109 
L 364.719269 145.138866 
L 365.000214 130.389063 
L 365.140717 142.266972 
L 365.281189 140.993682 
L 365.421661 130.411838 
L 365.702637 140.982016 
L 365.983597 126.223106 
L 366.124084 132.838771 
L 366.264542 127.843866 
L 366.405045 114.228144 
L 366.545532 119.466096 
L 366.685989 132.80426 
L 366.826477 128.384288 
L 366.966965 120.446549 
L 367.107452 125.394098 
L 367.247925 125.459476 
L 367.388412 116.015101 
L 367.5289 119.088822 
L 367.669357 130.907684 
L 367.80986 128.047193 
L 367.950348 119.546012 
L 368.231293 134.643766 
L 368.37178 131.898327 
L 368.512253 132.286992 
L 368.65274 139.830829 
L 368.793228 136.665613 
L 368.933701 128.203447 
L 369.214676 143.26578 
L 369.495621 125.223515 
L 369.776611 135.686625 
L 369.917068 127.589268 
L 370.057556 127.409776 
L 370.198029 137.560549 
L 370.338516 135.65455 
L 370.479004 125.672453 
L 370.619492 129.549632 
L 370.759964 136.810604 
L 371.040939 123.832553 
L 371.181412 131.159303 
L 371.321884 132.254664 
L 371.462387 124.268553 
L 371.602844 129.439456 
L 371.743332 142.170545 
L 371.88382 137.911724 
L 372.024292 126.955359 
L 372.305267 135.163689 
L 372.44574 129.075919 
L 372.586227 129.671712 
L 372.726685 138.592951 
L 372.867203 133.7829 
L 373.007675 118.850679 
L 373.148148 115.816073 
L 373.28862 119.782864 
L 373.569595 114.152712 
L 373.710068 120.29895 
L 373.850555 120.695283 
L 373.991043 116.353475 
L 374.272003 132.426183 
L 374.552948 119.896302 
L 374.693466 124.999207 
L 374.833923 125.859966 
L 374.974396 115.835757 
L 375.114883 114.994779 
L 375.255371 123.776355 
L 375.395859 122.627291 
L 375.536331 117.279323 
L 375.817307 125.451916 
L 376.098267 112.146451 
L 376.238754 122.92026 
L 376.379211 122.582652 
L 376.519714 112.335784 
L 376.660187 117.648762 
L 376.800659 130.004298 
L 376.941147 126.149129 
L 377.081635 119.185631 
L 377.362595 127.72978 
L 377.503082 118.588163 
L 377.64357 120.476554 
L 377.784027 132.920641 
L 377.92453 131.552864 
L 378.064987 124.845129 
L 378.345963 144.686488 
L 378.626923 130.367498 
L 378.76741 136.613663 
L 378.907898 135.214518 
L 379.04837 126.516009 
L 379.188843 131.457807 
L 379.329346 140.944712 
L 379.610291 127.591153 
L 379.891251 140.486795 
L 380.031738 135.385644 
L 380.172226 139.238469 
L 380.312698 148.381108 
L 380.593674 135.330266 
L 380.874634 154.718728 
L 381.015106 150.341205 
L 381.155609 150.158502 
L 381.296066 160.08312 
L 381.436554 158.300434 
L 381.577057 146.126034 
L 381.717514 145.483487 
L 381.858002 150.131314 
L 381.998489 145.276244 
L 382.138962 145.728972 
L 382.419937 165.044923 
L 382.56041 155.838881 
L 382.700897 155.018172 
L 382.841354 162.074823 
L 383.12233 148.793972 
L 383.40332 162.576508 
L 383.543777 158.857444 
L 383.684265 159.546571 
L 383.824738 170.645053 
L 383.965225 171.852565 
L 384.105713 162.466431 
L 384.24617 163.643205 
L 384.386673 170.332795 
L 384.667618 162.272703 
L 384.948593 178.177744 
L 385.089066 169.928742 
L 385.229553 170.607268 
L 385.370041 179.5702 
L 385.510529 176.73644 
L 385.651001 169.904057 
L 385.791489 174.703596 
L 385.931946 175.260541 
L 386.212936 158.120387 
L 386.493881 179.0717 
L 386.634384 171.298238 
L 386.774857 174.382549 
L 386.915329 183.213133 
L 387.196304 169.887175 
L 387.477264 183.063405 
L 387.758209 164.973252 
L 387.898697 169.226094 
L 388.179657 159.247007 
L 388.460632 170.78186 
L 388.741592 157.465133 
L 388.88208 168.023126 
L 389.022568 167.524164 
L 389.163025 153.482151 
L 389.303528 152.818846 
L 389.444016 161.336825 
L 389.72496 145.095044 
L 390.00592 156.093443 
L 390.146408 149.11251 
L 390.286896 149.335921 
L 390.427368 159.678595 
L 390.567856 158.58839 
L 390.708344 150.45961 
L 390.989288 159.262833 
L 391.270279 141.635249 
L 391.410736 149.573316 
L 391.551224 150.029654 
L 391.832184 135.005637 
L 391.972672 139.751215 
L 392.253632 134.797106 
L 392.394104 145.234934 
L 392.534607 146.942005 
L 392.675079 135.426459 
L 392.815552 133.881957 
L 392.956024 141.460536 
L 393.096542 135.608358 
L 393.237 124.524563 
L 393.51796 136.695753 
L 393.798935 124.126276 
L 393.939407 129.872467 
L 394.079895 126.48603 
L 394.220352 114.49461 
L 394.36087 116.297824 
L 394.501343 125.920078 
L 394.782288 118.490956 
L 395.063263 134.103826 
L 395.203735 127.713052 
L 395.344223 127.821314 
L 395.484711 136.943875 
L 395.625168 136.482005 
L 395.765671 132.851781 
L 396.046616 143.711164 
L 396.327591 121.859676 
L 396.468063 131.783246 
L 396.608551 131.351638 
L 396.749039 118.820857 
L 396.889526 120.838938 
L 397.029999 130.379267 
L 397.310974 112.17089 
L 397.591934 119.235075 
L 397.732422 110.618096 
L 397.872879 113.970541 
L 398.013367 129.443275 
L 398.153854 130.241875 
L 398.294327 121.866893 
L 398.575302 132.502194 
L 398.856247 120.459925 
L 399.137238 138.227855 
L 399.277695 132.586664 
L 399.558655 148.299611 
L 399.83963 131.734523 
L 400.12059 145.76738 
L 400.261078 136.783922 
L 400.401566 138.665943 
L 400.542038 152.151251 
L 400.68251 150.040264 
L 400.823013 138.307542 
L 400.963501 140.493849 
L 401.103958 145.122813 
L 401.244446 137.900585 
L 401.384918 139.059404 
L 401.665894 160.709419 
L 401.806366 150.125873 
L 401.946854 149.686979 
L 402.087311 156.04964 
L 402.368301 147.836027 
L 402.649277 165.228993 
L 402.789734 155.863937 
L 402.930222 159.889344 
L 403.070694 174.552509 
L 403.211182 172.814127 
L 403.351669 165.745058 
L 403.632629 186.141599 
L 403.913574 167.842954 
L 404.054077 176.783121 
L 404.194565 177.961378 
L 404.335022 168.924905 
L 404.47554 173.550742 
L 404.615997 183.573499 
L 405.037445 159.505673 
L 405.177933 155.964287 
L 405.458893 140.064546 
L 405.59938 144.248138 
L 405.880341 118.412654 
L 406.020813 120.926877 
L 406.161285 130.343246 
L 406.301773 128.567689 
L 406.442261 130.68691 
L 406.723221 147.818152 
L 406.863708 140.148575 
L 407.004196 145.120623 
L 407.144653 155.658213 
L 407.425644 144.688414 
L 407.706604 155.786416 
L 407.847061 148.616407 
L 407.987549 151.076024 
L 408.128036 158.568126 
L 408.408997 133.207815 
L 408.549484 136.873427 
L 408.689972 146.433734 
L 408.83046 145.209206 
L 408.970917 148.674261 
L 409.251877 165.85869 
L 409.392365 157.55295 
L 409.532867 161.289517 
L 409.673325 171.840572 
L 409.9543 166.394339 
L 410.094788 172.000998 
L 410.23526 166.560599 
L 410.516235 141.602471 
L 410.656708 151.34874 
L 410.79718 151.70145 
L 410.937683 146.829785 
L 411.218628 162.03715 
L 411.499588 150.984185 
L 411.640076 161.862678 
L 411.780563 160.8174 
L 411.921036 146.749071 
L 412.061523 147.095534 
L 412.201981 155.619955 
L 412.482956 139.17519 
L 412.763947 149.343823 
L 412.904404 141.894236 
L 413.044891 143.81734 
L 413.185364 154.629308 
L 413.325851 152.539326 
L 413.466339 145.334683 
L 413.747299 158.095007 
L 414.028244 141.386474 
L 414.168747 146.316069 
L 414.309219 144.956523 
L 414.449692 138.806882 
L 414.730667 158.969939 
L 415.011627 144.732306 
L 415.292603 157.368642 
L 415.433075 151.709677 
L 415.573563 152.543633 
L 415.71402 159.977651 
L 415.99501 148.660062 
L 416.275955 166.330168 
L 416.556931 149.698825 
L 416.697403 156.05886 
L 416.837891 157.011623 
L 416.978378 147.728703 
L 417.118835 148.002212 
L 417.259323 154.001135 
L 417.540283 146.365201 
L 417.821274 161.826349 
L 417.961731 152.450609 
L 418.102219 152.18767 
L 418.242706 161.850469 
L 418.383194 159.479542 
L 418.523666 152.495343 
L 418.804642 165.003349 
L 419.085587 150.049222 
L 419.366547 161.398058 
L 419.507034 157.264188 
L 419.787994 169.987186 
L 420.06897 149.766156 
L 420.349915 157.94201 
L 420.490417 146.763122 
L 420.630905 148.024813 
L 420.771362 160.748872 
L 420.91185 157.559986 
L 421.052322 145.368396 
L 421.19281 149.311388 
L 421.333298 159.345561 
L 421.333298 159.345561 
" style="fill:none;stroke:#1f77b4;stroke-linecap:square;stroke-width:1.5;"/>
   </g>
   <g id="patch_3">
    <path d="M 55.55 225.972759 
L 55.55 54.1 
" style="fill:none;stroke:#000000;stroke-linecap:square;stroke-linejoin:miter;stroke-width:0.8;"/>
   </g>
   <g id="patch_4">
    <path d="M 421.2 225.972759 
L 421.2 54.1 
" style="fill:none;stroke:#000000;stroke-linecap:square;stroke-linejoin:miter;stroke-width:0.8;"/>
   </g>
   <g id="patch_5">
    <path d="M 55.550003 225.972759 
L 421.200012 225.972759 
" style="fill:none;stroke:#000000;stroke-linecap:square;stroke-linejoin:miter;stroke-width:0.8;"/>
   </g>
   <g id="patch_6">
    <path d="M 55.550003 54.1 
L 421.200012 54.1 
" style="fill:none;stroke:#000000;stroke-linecap:square;stroke-linejoin:miter;stroke-width:0.8;"/>
   </g>
   <g id="text_14">
    <!-- RCS14 gamma entrainment; med: ON -->
    <g transform="translate(124.643125 21.22525)scale(0.12 -0.12)">
     <defs>
      <path d="M 44.390625 34.1875 
Q 47.5625 33.109375 50.5625 29.59375 
Q 53.5625 26.078125 56.59375 19.921875 
L 66.609375 0 
L 56 0 
L 46.6875 18.703125 
Q 43.0625 26.03125 39.671875 28.421875 
Q 36.28125 30.8125 30.421875 30.8125 
L 19.671875 30.8125 
L 19.671875 0 
L 9.8125 0 
L 9.8125 72.90625 
L 32.078125 72.90625 
Q 44.578125 72.90625 50.734375 67.671875 
Q 56.890625 62.453125 56.890625 51.90625 
Q 56.890625 45.015625 53.6875 40.46875 
Q 50.484375 35.9375 44.390625 34.1875 
z
M 19.671875 64.796875 
L 19.671875 38.921875 
L 32.078125 38.921875 
Q 39.203125 38.921875 42.84375 42.21875 
Q 46.484375 45.515625 46.484375 51.90625 
Q 46.484375 58.296875 42.84375 61.546875 
Q 39.203125 64.796875 32.078125 64.796875 
z
" id="DejaVuSans-82"/>
      <path d="M 64.40625 67.28125 
L 64.40625 56.890625 
Q 59.421875 61.53125 53.78125 63.8125 
Q 48.140625 66.109375 41.796875 66.109375 
Q 29.296875 66.109375 22.65625 58.46875 
Q 16.015625 50.828125 16.015625 36.375 
Q 16.015625 21.96875 22.65625 14.328125 
Q 29.296875 6.6875 41.796875 6.6875 
Q 48.140625 6.6875 53.78125 8.984375 
Q 59.421875 11.28125 64.40625 15.921875 
L 64.40625 5.609375 
Q 59.234375 2.09375 53.4375 0.328125 
Q 47.65625 -1.421875 41.21875 -1.421875 
Q 24.65625 -1.421875 15.125 8.703125 
Q 5.609375 18.84375 5.609375 36.375 
Q 5.609375 53.953125 15.125 64.078125 
Q 24.65625 74.21875 41.21875 74.21875 
Q 47.75 74.21875 53.53125 72.484375 
Q 59.328125 70.75 64.40625 67.28125 
z
" id="DejaVuSans-67"/>
      <path d="M 54.890625 33.015625 
L 54.890625 0 
L 45.90625 0 
L 45.90625 32.71875 
Q 45.90625 40.484375 42.875 44.328125 
Q 39.84375 48.1875 33.796875 48.1875 
Q 26.515625 48.1875 22.3125 43.546875 
Q 18.109375 38.921875 18.109375 30.90625 
L 18.109375 0 
L 9.078125 0 
L 9.078125 54.6875 
L 18.109375 54.6875 
L 18.109375 46.1875 
Q 21.34375 51.125 25.703125 53.5625 
Q 30.078125 56 35.796875 56 
Q 45.21875 56 50.046875 50.171875 
Q 54.890625 44.34375 54.890625 33.015625 
z
" id="DejaVuSans-110"/>
      <path d="M 41.109375 46.296875 
Q 39.59375 47.171875 37.8125 47.578125 
Q 36.03125 48 33.890625 48 
Q 26.265625 48 22.1875 43.046875 
Q 18.109375 38.09375 18.109375 28.8125 
L 18.109375 0 
L 9.078125 0 
L 9.078125 54.6875 
L 18.109375 54.6875 
L 18.109375 46.1875 
Q 20.953125 51.171875 25.484375 53.578125 
Q 30.03125 56 36.53125 56 
Q 37.453125 56 38.578125 55.875 
Q 39.703125 55.765625 41.0625 55.515625 
z
" id="DejaVuSans-114"/>
      <path d="M 11.71875 51.703125 
L 22.015625 51.703125 
L 22.015625 39.3125 
L 11.71875 39.3125 
z
M 11.71875 12.40625 
L 22.015625 12.40625 
L 22.015625 4 
L 14.015625 -11.625 
L 7.71875 -11.625 
L 11.71875 4 
z
" id="DejaVuSans-59"/>
      <path d="M 45.40625 46.390625 
L 45.40625 75.984375 
L 54.390625 75.984375 
L 54.390625 0 
L 45.40625 0 
L 45.40625 8.203125 
Q 42.578125 3.328125 38.25 0.953125 
Q 33.9375 -1.421875 27.875 -1.421875 
Q 17.96875 -1.421875 11.734375 6.484375 
Q 5.515625 14.40625 5.515625 27.296875 
Q 5.515625 40.1875 11.734375 48.09375 
Q 17.96875 56 27.875 56 
Q 33.9375 56 38.25 53.625 
Q 42.578125 51.265625 45.40625 46.390625 
z
M 14.796875 27.296875 
Q 14.796875 17.390625 18.875 11.75 
Q 22.953125 6.109375 30.078125 6.109375 
Q 37.203125 6.109375 41.296875 11.75 
Q 45.40625 17.390625 45.40625 27.296875 
Q 45.40625 37.203125 41.296875 42.84375 
Q 37.203125 48.484375 30.078125 48.484375 
Q 22.953125 48.484375 18.875 42.84375 
Q 14.796875 37.203125 14.796875 27.296875 
z
" id="DejaVuSans-100"/>
      <path d="M 39.40625 66.21875 
Q 28.65625 66.21875 22.328125 58.203125 
Q 16.015625 50.203125 16.015625 36.375 
Q 16.015625 22.609375 22.328125 14.59375 
Q 28.65625 6.59375 39.40625 6.59375 
Q 50.140625 6.59375 56.421875 14.59375 
Q 62.703125 22.609375 62.703125 36.375 
Q 62.703125 50.203125 56.421875 58.203125 
Q 50.140625 66.21875 39.40625 66.21875 
z
M 39.40625 74.21875 
Q 54.734375 74.21875 63.90625 63.9375 
Q 73.09375 53.65625 73.09375 36.375 
Q 73.09375 19.140625 63.90625 8.859375 
Q 54.734375 -1.421875 39.40625 -1.421875 
Q 24.03125 -1.421875 14.8125 8.828125 
Q 5.609375 19.09375 5.609375 36.375 
Q 5.609375 53.65625 14.8125 63.9375 
Q 24.03125 74.21875 39.40625 74.21875 
z
" id="DejaVuSans-79"/>
      <path d="M 9.8125 72.90625 
L 23.09375 72.90625 
L 55.421875 11.921875 
L 55.421875 72.90625 
L 64.984375 72.90625 
L 64.984375 0 
L 51.703125 0 
L 19.390625 60.984375 
L 19.390625 0 
L 9.8125 0 
z
" id="DejaVuSans-78"/>
     </defs>
     <use xlink:href="#DejaVuSans-82"/>
     <use x="64.482422" xlink:href="#DejaVuSans-67"/>
     <use x="134.306641" xlink:href="#DejaVuSans-83"/>
     <use x="197.783203" xlink:href="#DejaVuSans-49"/>
     <use x="261.40625" xlink:href="#DejaVuSans-52"/>
     <use x="325.029297" xlink:href="#DejaVuSans-32"/>
     <use x="356.816406" xlink:href="#DejaVuSans-103"/>
     <use x="420.292969" xlink:href="#DejaVuSans-97"/>
     <use x="481.572266" xlink:href="#DejaVuSans-109"/>
     <use x="578.984375" xlink:href="#DejaVuSans-109"/>
     <use x="676.396484" xlink:href="#DejaVuSans-97"/>
     <use x="737.675781" xlink:href="#DejaVuSans-32"/>
     <use x="769.462891" xlink:href="#DejaVuSans-101"/>
     <use x="830.986328" xlink:href="#DejaVuSans-110"/>
     <use x="894.365234" xlink:href="#DejaVuSans-116"/>
     <use x="933.574219" xlink:href="#DejaVuSans-114"/>
     <use x="974.6875" xlink:href="#DejaVuSans-97"/>
     <use x="1035.966797" xlink:href="#DejaVuSans-105"/>
     <use x="1063.75" xlink:href="#DejaVuSans-110"/>
     <use x="1127.128906" xlink:href="#DejaVuSans-109"/>
     <use x="1224.541016" xlink:href="#DejaVuSans-101"/>
     <use x="1286.064453" xlink:href="#DejaVuSans-110"/>
     <use x="1349.443359" xlink:href="#DejaVuSans-116"/>
     <use x="1388.652344" xlink:href="#DejaVuSans-59"/>
     <use x="1422.34375" xlink:href="#DejaVuSans-32"/>
     <use x="1454.130859" xlink:href="#DejaVuSans-109"/>
     <use x="1551.542969" xlink:href="#DejaVuSans-101"/>
     <use x="1613.066406" xlink:href="#DejaVuSans-100"/>
     <use x="1676.542969" xlink:href="#DejaVuSans-58"/>
     <use x="1710.234375" xlink:href="#DejaVuSans-32"/>
     <use x="1742.021484" xlink:href="#DejaVuSans-79"/>
     <use x="1820.732422" xlink:href="#DejaVuSans-78"/>
    </g>
    <!-- stim contact 2; stim freq 138.9; amps 0.0-5.0 -->
    <g transform="translate(101.909687 34.662625)scale(0.12 -0.12)">
     <defs>
      <path d="M 44.28125 53.078125 
L 44.28125 44.578125 
Q 40.484375 46.53125 36.375 47.5 
Q 32.28125 48.484375 27.875 48.484375 
Q 21.1875 48.484375 17.84375 46.4375 
Q 14.5 44.390625 14.5 40.28125 
Q 14.5 37.15625 16.890625 35.375 
Q 19.28125 33.59375 26.515625 31.984375 
L 29.59375 31.296875 
Q 39.15625 29.25 43.1875 25.515625 
Q 47.21875 21.78125 47.21875 15.09375 
Q 47.21875 7.46875 41.1875 3.015625 
Q 35.15625 -1.421875 24.609375 -1.421875 
Q 20.21875 -1.421875 15.453125 -0.5625 
Q 10.6875 0.296875 5.421875 2 
L 5.421875 11.28125 
Q 10.40625 8.6875 15.234375 7.390625 
Q 20.0625 6.109375 24.8125 6.109375 
Q 31.15625 6.109375 34.5625 8.28125 
Q 37.984375 10.453125 37.984375 14.40625 
Q 37.984375 18.0625 35.515625 20.015625 
Q 33.0625 21.96875 24.703125 23.78125 
L 21.578125 24.515625 
Q 13.234375 26.265625 9.515625 29.90625 
Q 5.8125 33.546875 5.8125 39.890625 
Q 5.8125 47.609375 11.28125 51.796875 
Q 16.75 56 26.8125 56 
Q 31.78125 56 36.171875 55.265625 
Q 40.578125 54.546875 44.28125 53.078125 
z
" id="DejaVuSans-115"/>
      <path d="M 48.78125 52.59375 
L 48.78125 44.1875 
Q 44.96875 46.296875 41.140625 47.34375 
Q 37.3125 48.390625 33.40625 48.390625 
Q 24.65625 48.390625 19.8125 42.84375 
Q 14.984375 37.3125 14.984375 27.296875 
Q 14.984375 17.28125 19.8125 11.734375 
Q 24.65625 6.203125 33.40625 6.203125 
Q 37.3125 6.203125 41.140625 7.25 
Q 44.96875 8.296875 48.78125 10.40625 
L 48.78125 2.09375 
Q 45.015625 0.34375 40.984375 -0.53125 
Q 36.96875 -1.421875 32.421875 -1.421875 
Q 20.0625 -1.421875 12.78125 6.34375 
Q 5.515625 14.109375 5.515625 27.296875 
Q 5.515625 40.671875 12.859375 48.328125 
Q 20.21875 56 33.015625 56 
Q 37.15625 56 41.109375 55.140625 
Q 45.0625 54.296875 48.78125 52.59375 
z
" id="DejaVuSans-99"/>
      <path d="M 37.109375 75.984375 
L 37.109375 68.5 
L 28.515625 68.5 
Q 23.6875 68.5 21.796875 66.546875 
Q 19.921875 64.59375 19.921875 59.515625 
L 19.921875 54.6875 
L 34.71875 54.6875 
L 34.71875 47.703125 
L 19.921875 47.703125 
L 19.921875 0 
L 10.890625 0 
L 10.890625 47.703125 
L 2.296875 47.703125 
L 2.296875 54.6875 
L 10.890625 54.6875 
L 10.890625 58.5 
Q 10.890625 67.625 15.140625 71.796875 
Q 19.390625 75.984375 28.609375 75.984375 
z
" id="DejaVuSans-102"/>
      <path d="M 14.796875 27.296875 
Q 14.796875 17.390625 18.875 11.75 
Q 22.953125 6.109375 30.078125 6.109375 
Q 37.203125 6.109375 41.296875 11.75 
Q 45.40625 17.390625 45.40625 27.296875 
Q 45.40625 37.203125 41.296875 42.84375 
Q 37.203125 48.484375 30.078125 48.484375 
Q 22.953125 48.484375 18.875 42.84375 
Q 14.796875 37.203125 14.796875 27.296875 
z
M 45.40625 8.203125 
Q 42.578125 3.328125 38.25 0.953125 
Q 33.9375 -1.421875 27.875 -1.421875 
Q 17.96875 -1.421875 11.734375 6.484375 
Q 5.515625 14.40625 5.515625 27.296875 
Q 5.515625 40.1875 11.734375 48.09375 
Q 17.96875 56 27.875 56 
Q 33.9375 56 38.25 53.625 
Q 42.578125 51.265625 45.40625 46.390625 
L 45.40625 54.6875 
L 54.390625 54.6875 
L 54.390625 -20.796875 
L 45.40625 -20.796875 
z
" id="DejaVuSans-113"/>
      <path d="M 31.78125 34.625 
Q 24.75 34.625 20.71875 30.859375 
Q 16.703125 27.09375 16.703125 20.515625 
Q 16.703125 13.921875 20.71875 10.15625 
Q 24.75 6.390625 31.78125 6.390625 
Q 38.8125 6.390625 42.859375 10.171875 
Q 46.921875 13.96875 46.921875 20.515625 
Q 46.921875 27.09375 42.890625 30.859375 
Q 38.875 34.625 31.78125 34.625 
z
M 21.921875 38.8125 
Q 15.578125 40.375 12.03125 44.71875 
Q 8.5 49.078125 8.5 55.328125 
Q 8.5 64.0625 14.71875 69.140625 
Q 20.953125 74.21875 31.78125 74.21875 
Q 42.671875 74.21875 48.875 69.140625 
Q 55.078125 64.0625 55.078125 55.328125 
Q 55.078125 49.078125 51.53125 44.71875 
Q 48 40.375 41.703125 38.8125 
Q 48.828125 37.15625 52.796875 32.3125 
Q 56.78125 27.484375 56.78125 20.515625 
Q 56.78125 9.90625 50.3125 4.234375 
Q 43.84375 -1.421875 31.78125 -1.421875 
Q 19.734375 -1.421875 13.25 4.234375 
Q 6.78125 9.90625 6.78125 20.515625 
Q 6.78125 27.484375 10.78125 32.3125 
Q 14.796875 37.15625 21.921875 38.8125 
z
M 18.3125 54.390625 
Q 18.3125 48.734375 21.84375 45.5625 
Q 25.390625 42.390625 31.78125 42.390625 
Q 38.140625 42.390625 41.71875 45.5625 
Q 45.3125 48.734375 45.3125 54.390625 
Q 45.3125 60.0625 41.71875 63.234375 
Q 38.140625 66.40625 31.78125 66.40625 
Q 25.390625 66.40625 21.84375 63.234375 
Q 18.3125 60.0625 18.3125 54.390625 
z
" id="DejaVuSans-56"/>
      <path d="M 10.984375 1.515625 
L 10.984375 10.5 
Q 14.703125 8.734375 18.5 7.8125 
Q 22.3125 6.890625 25.984375 6.890625 
Q 35.75 6.890625 40.890625 13.453125 
Q 46.046875 20.015625 46.78125 33.40625 
Q 43.953125 29.203125 39.59375 26.953125 
Q 35.25 24.703125 29.984375 24.703125 
Q 19.046875 24.703125 12.671875 31.3125 
Q 6.296875 37.9375 6.296875 49.421875 
Q 6.296875 60.640625 12.9375 67.421875 
Q 19.578125 74.21875 30.609375 74.21875 
Q 43.265625 74.21875 49.921875 64.515625 
Q 56.59375 54.828125 56.59375 36.375 
Q 56.59375 19.140625 48.40625 8.859375 
Q 40.234375 -1.421875 26.421875 -1.421875 
Q 22.703125 -1.421875 18.890625 -0.6875 
Q 15.09375 0.046875 10.984375 1.515625 
z
M 30.609375 32.421875 
Q 37.25 32.421875 41.125 36.953125 
Q 45.015625 41.5 45.015625 49.421875 
Q 45.015625 57.28125 41.125 61.84375 
Q 37.25 66.40625 30.609375 66.40625 
Q 23.96875 66.40625 20.09375 61.84375 
Q 16.21875 57.28125 16.21875 49.421875 
Q 16.21875 41.5 20.09375 36.953125 
Q 23.96875 32.421875 30.609375 32.421875 
z
" id="DejaVuSans-57"/>
      <path d="M 18.109375 8.203125 
L 18.109375 -20.796875 
L 9.078125 -20.796875 
L 9.078125 54.6875 
L 18.109375 54.6875 
L 18.109375 46.390625 
Q 20.953125 51.265625 25.265625 53.625 
Q 29.59375 56 35.59375 56 
Q 45.5625 56 51.78125 48.09375 
Q 58.015625 40.1875 58.015625 27.296875 
Q 58.015625 14.40625 51.78125 6.484375 
Q 45.5625 -1.421875 35.59375 -1.421875 
Q 29.59375 -1.421875 25.265625 0.953125 
Q 20.953125 3.328125 18.109375 8.203125 
z
M 48.6875 27.296875 
Q 48.6875 37.203125 44.609375 42.84375 
Q 40.53125 48.484375 33.40625 48.484375 
Q 26.265625 48.484375 22.1875 42.84375 
Q 18.109375 37.203125 18.109375 27.296875 
Q 18.109375 17.390625 22.1875 11.75 
Q 26.265625 6.109375 33.40625 6.109375 
Q 40.53125 6.109375 44.609375 11.75 
Q 48.6875 17.390625 48.6875 27.296875 
z
" id="DejaVuSans-112"/>
      <path d="M 4.890625 31.390625 
L 31.203125 31.390625 
L 31.203125 23.390625 
L 4.890625 23.390625 
z
" id="DejaVuSans-45"/>
     </defs>
     <use xlink:href="#DejaVuSans-115"/>
     <use x="52.099609" xlink:href="#DejaVuSans-116"/>
     <use x="91.308594" xlink:href="#DejaVuSans-105"/>
     <use x="119.091797" xlink:href="#DejaVuSans-109"/>
     <use x="216.503906" xlink:href="#DejaVuSans-32"/>
     <use x="248.291016" xlink:href="#DejaVuSans-99"/>
     <use x="303.271484" xlink:href="#DejaVuSans-111"/>
     <use x="364.453125" xlink:href="#DejaVuSans-110"/>
     <use x="427.832031" xlink:href="#DejaVuSans-116"/>
     <use x="467.041016" xlink:href="#DejaVuSans-97"/>
     <use x="528.320312" xlink:href="#DejaVuSans-99"/>
     <use x="583.300781" xlink:href="#DejaVuSans-116"/>
     <use x="622.509766" xlink:href="#DejaVuSans-32"/>
     <use x="654.296875" xlink:href="#DejaVuSans-50"/>
     <use x="717.919922" xlink:href="#DejaVuSans-59"/>
     <use x="751.611328" xlink:href="#DejaVuSans-32"/>
     <use x="783.398438" xlink:href="#DejaVuSans-115"/>
     <use x="835.498047" xlink:href="#DejaVuSans-116"/>
     <use x="874.707031" xlink:href="#DejaVuSans-105"/>
     <use x="902.490234" xlink:href="#DejaVuSans-109"/>
     <use x="999.902344" xlink:href="#DejaVuSans-32"/>
     <use x="1031.689453" xlink:href="#DejaVuSans-102"/>
     <use x="1066.894531" xlink:href="#DejaVuSans-114"/>
     <use x="1105.757812" xlink:href="#DejaVuSans-101"/>
     <use x="1167.28125" xlink:href="#DejaVuSans-113"/>
     <use x="1230.757812" xlink:href="#DejaVuSans-32"/>
     <use x="1262.544922" xlink:href="#DejaVuSans-49"/>
     <use x="1326.167969" xlink:href="#DejaVuSans-51"/>
     <use x="1389.791016" xlink:href="#DejaVuSans-56"/>
     <use x="1453.414062" xlink:href="#DejaVuSans-46"/>
     <use x="1485.201172" xlink:href="#DejaVuSans-57"/>
     <use x="1548.824219" xlink:href="#DejaVuSans-59"/>
     <use x="1582.515625" xlink:href="#DejaVuSans-32"/>
     <use x="1614.302734" xlink:href="#DejaVuSans-97"/>
     <use x="1675.582031" xlink:href="#DejaVuSans-109"/>
     <use x="1772.994141" xlink:href="#DejaVuSans-112"/>
     <use x="1836.470703" xlink:href="#DejaVuSans-115"/>
     <use x="1888.570312" xlink:href="#DejaVuSans-32"/>
     <use x="1920.357422" xlink:href="#DejaVuSans-48"/>
     <use x="1983.980469" xlink:href="#DejaVuSans-46"/>
     <use x="2015.767578" xlink:href="#DejaVuSans-48"/>
     <use x="2079.390625" xlink:href="#DejaVuSans-45"/>
     <use x="2115.474609" xlink:href="#DejaVuSans-53"/>
     <use x="2179.097656" xlink:href="#DejaVuSans-46"/>
     <use x="2210.884766" xlink:href="#DejaVuSans-48"/>
    </g>
    <!-- Ch 1 sense contacts 3+ 1- -->
    <g transform="translate(159.187187 48.1)scale(0.12 -0.12)">
     <defs>
      <path d="M 54.890625 33.015625 
L 54.890625 0 
L 45.90625 0 
L 45.90625 32.71875 
Q 45.90625 40.484375 42.875 44.328125 
Q 39.84375 48.1875 33.796875 48.1875 
Q 26.515625 48.1875 22.3125 43.546875 
Q 18.109375 38.921875 18.109375 30.90625 
L 18.109375 0 
L 9.078125 0 
L 9.078125 75.984375 
L 18.109375 75.984375 
L 18.109375 46.1875 
Q 21.34375 51.125 25.703125 53.5625 
Q 30.078125 56 35.796875 56 
Q 45.21875 56 50.046875 50.171875 
Q 54.890625 44.34375 54.890625 33.015625 
z
" id="DejaVuSans-104"/>
      <path d="M 46 62.703125 
L 46 35.5 
L 73.1875 35.5 
L 73.1875 27.203125 
L 46 27.203125 
L 46 0 
L 37.796875 0 
L 37.796875 27.203125 
L 10.59375 27.203125 
L 10.59375 35.5 
L 37.796875 35.5 
L 37.796875 62.703125 
z
" id="DejaVuSans-43"/>
     </defs>
     <use xlink:href="#DejaVuSans-67"/>
     <use x="69.824219" xlink:href="#DejaVuSans-104"/>
     <use x="133.203125" xlink:href="#DejaVuSans-32"/>
     <use x="164.990234" xlink:href="#DejaVuSans-49"/>
     <use x="228.613281" xlink:href="#DejaVuSans-32"/>
     <use x="260.400391" xlink:href="#DejaVuSans-115"/>
     <use x="312.5" xlink:href="#DejaVuSans-101"/>
     <use x="374.023438" xlink:href="#DejaVuSans-110"/>
     <use x="437.402344" xlink:href="#DejaVuSans-115"/>
     <use x="489.501953" xlink:href="#DejaVuSans-101"/>
     <use x="551.025391" xlink:href="#DejaVuSans-32"/>
     <use x="582.8125" xlink:href="#DejaVuSans-99"/>
     <use x="637.792969" xlink:href="#DejaVuSans-111"/>
     <use x="698.974609" xlink:href="#DejaVuSans-110"/>
     <use x="762.353516" xlink:href="#DejaVuSans-116"/>
     <use x="801.5625" xlink:href="#DejaVuSans-97"/>
     <use x="862.841797" xlink:href="#DejaVuSans-99"/>
     <use x="917.822266" xlink:href="#DejaVuSans-116"/>
     <use x="957.03125" xlink:href="#DejaVuSans-115"/>
     <use x="1009.130859" xlink:href="#DejaVuSans-32"/>
     <use x="1040.917969" xlink:href="#DejaVuSans-51"/>
     <use x="1104.541016" xlink:href="#DejaVuSans-43"/>
     <use x="1188.330078" xlink:href="#DejaVuSans-32"/>
     <use x="1220.117188" xlink:href="#DejaVuSans-49"/>
     <use x="1283.740234" xlink:href="#DejaVuSans-45"/>
    </g>
   </g>
  </g>
 </g>
 <defs>
  <clipPath id="p1b4e746659">
   <rect height="171.872759" width="365.65" x="55.55" y="54.1"/>
  </clipPath>
 </defs>
</svg>
